<svg width="113" height="120" viewBox="0 0 113 120" fill="none" xmlns="http://www.w3.org/2000/svg">
<g clip-path="url(#clip0)">
<path d="M109.829 94.0405V115.851" stroke="#181828" stroke-width="2" stroke-linecap="round" stroke-linejoin="round"/>
<path d="M106.059 94.0405V115.851" stroke="#181828" stroke-width="2" stroke-linecap="round" stroke-linejoin="round"/>
<path d="M102.191 118.679C107.853 118.679 112.443 114.09 112.443 108.428C112.443 102.766 107.853 98.176 102.191 98.176C96.5294 98.176 91.9396 102.766 91.9396 108.428C91.9396 114.09 96.5294 118.679 102.191 118.679Z" fill="#86FF33"/>
<path d="M107.571 100.478C107.571 100.478 112.479 103.891 111.729 108.883" stroke="#EEFFE1" stroke-width="3" stroke-linecap="round" stroke-linejoin="round"/>
<path d="M102.191 118.679C107.853 118.679 112.443 114.09 112.443 108.428C112.443 102.766 107.853 98.176 102.191 98.176C96.5294 98.176 91.9396 102.766 91.9396 108.428C91.9396 114.09 96.5294 118.679 102.191 118.679Z" stroke="#181828" stroke-width="2" stroke-miterlimit="10"/>
<path d="M100.759 100.652C101.566 100.652 102.34 100.972 102.911 101.543C103.481 102.114 103.802 102.887 103.802 103.694V116.507H100.759V100.652Z" fill="#54CA01"/>
<path d="M85.239 71.1595C85.239 71.1595 64.2716 62.5183 66.2568 42.4878" stroke="#181828" stroke-width="2" stroke-linecap="round" stroke-linejoin="round"/>
<path d="M93.4161 69.3838C93.4161 69.3838 65.311 49.8039 68.0501 26.0305" stroke="#181828" stroke-width="2" stroke-linecap="round" stroke-linejoin="round"/>
<path d="M103.882 64.7622H70.8428" stroke="#181828" stroke-width="2" stroke-linecap="round" stroke-linejoin="round"/>
<path d="M101.21 80.6617V71.2354H69.5848V118.153H101.21V84.5518" fill="#FBB63A"/>
<path d="M69.5847 74.3494H101.21V71.2399H69.5847V74.3494Z" fill="#ED7D00"/>
<path d="M84.8062 108.316H101.205V105.207H84.8062V108.316Z" fill="#ED7D00"/>
<path d="M98.3858 117.542H101.21V73.2652H98.3858V117.542Z" fill="#ED7D00"/>
<path d="M73.5017 117.542H70.2763V82.5846C70.2763 81.7291 70.6161 80.9087 71.221 80.3039C71.8259 79.699 72.6463 79.3592 73.5017 79.3592V117.542Z" fill="#FFDB9C"/>
<path d="M101.21 80.6617V71.2354H69.5848V118.153H101.21V84.5518" stroke="#181828" stroke-width="2" stroke-linecap="round" stroke-linejoin="round"/>
<path d="M61.809 71.5386H104.636V67.9697H61.809V71.5386Z" fill="#889FAA"/>
<path d="M104.605 70.3833H66.9483C66.3567 70.3833 65.7894 70.1483 65.3711 69.73C64.9527 69.3117 64.7177 68.7443 64.7177 68.1527H104.605V70.3833Z" fill="#C5D5DC"/>
<path d="M101.567 69.1921H98.5152C98.2502 69.1921 97.996 69.0869 97.8086 68.8995C97.6212 68.712 97.5159 68.4579 97.5159 68.1928H102.566C102.566 68.4579 102.461 68.712 102.273 68.8995C102.086 69.0869 101.832 69.1921 101.567 69.1921Z" fill="white"/>
<path d="M96.0571 69.1921H93.0057C92.8744 69.1921 92.7445 69.1663 92.6233 69.1161C92.502 69.0658 92.3919 68.9922 92.2991 68.8995C92.2063 68.8067 92.1327 68.6965 92.0824 68.5753C92.0322 68.454 92.0064 68.3241 92.0064 68.1928H97.0564C97.0564 68.4579 96.9511 68.712 96.7637 68.8995C96.5763 69.0869 96.3221 69.1921 96.0571 69.1921Z" fill="white"/>
<path d="M72.4846 67.9697H61.6217V71.5386H104.449V67.9697H72.0563" stroke="#181828" stroke-width="2" stroke-miterlimit="10"/>
<path d="M100.362 64.8291V67.827" stroke="#181828" stroke-width="1.5" stroke-linecap="round" stroke-linejoin="round"/>
<path d="M94.5895 64.8291V67.827" stroke="#181828" stroke-width="1.5" stroke-linecap="round" stroke-linejoin="round"/>
<path d="M88.8123 64.8291V67.827" stroke="#181828" stroke-width="1.5" stroke-linecap="round" stroke-linejoin="round"/>
<path d="M83.4813 70.6822C83.8853 70.6822 84.2129 70.3547 84.2129 69.9506C84.2129 69.5466 83.8853 69.219 83.4813 69.219C83.0772 69.219 82.7496 69.5466 82.7496 69.9506C82.7496 70.3547 83.0772 70.6822 83.4813 70.6822Z" fill="#889FAA"/>
<path d="M85.7431 70.7445C86.0486 70.7445 86.2963 70.4969 86.2963 70.1914C86.2963 69.8858 86.0486 69.6382 85.7431 69.6382C85.4376 69.6382 85.1899 69.8858 85.1899 70.1914C85.1899 70.4969 85.4376 70.7445 85.7431 70.7445Z" fill="#889FAA"/>
<path d="M82.2722 69.7051C82.4398 69.7051 82.5756 69.5693 82.5756 69.4018C82.5756 69.2342 82.4398 69.0984 82.2722 69.0984C82.1047 69.0984 81.9689 69.2342 81.9689 69.4018C81.9689 69.5693 82.1047 69.7051 82.2722 69.7051Z" fill="#889FAA"/>
<path d="M104.337 69.7451H98.5688" stroke="#181828" stroke-linecap="round" stroke-linejoin="round"/>
<path d="M83.16 92.6711H104.573V89.1022H83.16V92.6711Z" fill="#889FAA"/>
<path d="M101.196 91.4709H84.9534C84.3619 91.4709 83.7945 91.2359 83.3762 90.8176C82.9579 90.3993 82.7229 89.832 82.7229 89.2404H101.196V91.4709Z" fill="#C5D5DC"/>
<path d="M86.7378 90.3245H83.6864C83.4213 90.3245 83.1671 90.2192 82.9797 90.0318C82.7923 89.8444 82.6871 89.5902 82.6871 89.3252H87.7371C87.7371 89.5902 87.6318 89.8444 87.4444 90.0318C87.257 90.2192 87.0028 90.3245 86.7378 90.3245Z" fill="white"/>
<path d="M101.866 89.1021H82.9772V92.6709H104.391V89.1021H89.8384" stroke="#181828" stroke-width="2" stroke-miterlimit="10"/>
<path d="M74.5857 72.6138V74.8443" stroke="white" stroke-linecap="round" stroke-linejoin="round"/>
<path d="M72.9352 75.4065V77.1909" stroke="white" stroke-linecap="round" stroke-linejoin="round"/>
<path d="M76.0846 77.4766V79.261" stroke="white" stroke-linecap="round" stroke-linejoin="round"/>
<path d="M79.8275 77.4185V79.649" stroke="white" stroke-linecap="round" stroke-linejoin="round"/>
<path d="M77.5345 75.4065V77.1909" stroke="white" stroke-linecap="round" stroke-linejoin="round"/>
<path d="M70.5707 75.335H85.0917C85.1804 75.335 85.2655 75.2997 85.3282 75.237C85.391 75.1742 85.4262 75.0891 85.4262 75.0004C85.4262 74.9116 85.391 74.8265 85.3282 74.7638C85.2655 74.701 85.1804 74.6658 85.0917 74.6658H70.5707C70.4819 74.6658 70.3968 74.701 70.3341 74.7638C70.2713 74.8265 70.2361 74.9116 70.2361 75.0004C70.2361 75.0891 70.2713 75.1742 70.3341 75.237C70.3968 75.2997 70.4819 75.335 70.5707 75.335Z" fill="white"/>
<path d="M70.5707 77.7129H89.5528C89.6415 77.7129 89.7266 77.6776 89.7894 77.6149C89.8521 77.5521 89.8874 77.467 89.8874 77.3783C89.8874 77.2896 89.8521 77.2044 89.7894 77.1417C89.7266 77.079 89.6415 77.0437 89.5528 77.0437H70.5707C70.4819 77.0437 70.3968 77.079 70.3341 77.1417C70.2713 77.2044 70.2361 77.2896 70.2361 77.3783C70.2361 77.467 70.2713 77.5521 70.3341 77.6149C70.3968 77.6776 70.4819 77.7129 70.5707 77.7129Z" fill="white"/>
<path d="M71.909 80.0906H85.0917C85.1804 80.0906 85.2655 80.0553 85.3283 79.9926C85.391 79.9298 85.4263 79.8447 85.4263 79.756C85.4263 79.6672 85.391 79.5821 85.3283 79.5194C85.2655 79.4566 85.1804 79.4214 85.0917 79.4214H71.909C71.8203 79.4214 71.7352 79.4566 71.6725 79.5194C71.6097 79.5821 71.5745 79.6672 71.5745 79.756C71.5745 79.8447 71.6097 79.9298 71.6725 79.9926C71.7352 80.0553 71.8203 80.0906 71.909 80.0906Z" fill="white"/>
<path d="M101.147 92.8406H84.9891V105.22H101.147V92.8406Z" fill="#C8EEFD"/>
<path d="M100.585 93.2732H85.5511V104.792H100.585V93.2732Z" stroke="#4FCDFF" stroke-width="3" stroke-miterlimit="10"/>
<path opacity="0.8" d="M101.268 96.7395L89.9676 105.323L84.6857 105.327L101.152 92.4524L101.268 96.7395Z" fill="white"/>
<path opacity="0.8" d="M98.1851 92.9744L84.9266 103.302L84.6857 100.358L94.344 92.9387L98.1851 92.9744Z" fill="white"/>
<path d="M101.147 92.8406H84.9891V105.22H101.147V92.8406Z" stroke="#202020" stroke-width="2" stroke-miterlimit="10"/>
<path d="M89.129 92.6487V105.354" stroke="#202020" stroke-width="2" stroke-miterlimit="10"/>
<path d="M96.1548 100.047C96.3155 99.9209 96.3432 99.6881 96.2166 99.5275C96.0901 99.3668 95.8573 99.3391 95.6967 99.4657L92.5493 101.944C92.3886 102.071 92.361 102.303 92.4875 102.464C92.614 102.625 92.8468 102.652 93.0075 102.526L96.1548 100.047Z" fill="white"/>
<path d="M98.2091 96.6642C98.3698 96.5376 98.3975 96.3048 98.271 96.1442C98.1444 95.9835 97.9116 95.9558 97.751 96.0824L94.6036 98.5609C94.443 98.6874 94.4153 98.9202 94.5418 99.0809C94.6683 99.2415 94.9011 99.2692 95.0618 99.1427L98.2091 96.6642Z" fill="white"/>
<path d="M93.4848 94.5414C93.6454 94.4148 93.6731 94.182 93.5466 94.0214C93.4201 93.8607 93.1873 93.833 93.0266 93.9596L89.8793 96.4381C89.7186 96.5646 89.6909 96.7974 89.8174 96.958C89.944 97.1187 90.1768 97.1464 90.3374 97.0199L93.4848 94.5414Z" fill="white"/>
<path d="M75.3486 106.309C75.3486 105.444 74.6485 104.743 73.7849 104.743C72.9214 104.743 72.2213 105.444 72.2213 106.309V114.035C72.2213 114.9 72.9214 115.601 73.7849 115.601C74.6485 115.601 75.3486 114.9 75.3486 114.035V106.309Z" fill="#FBDB9E"/>
<path d="M75.3486 89.4545C75.3486 88.5897 74.6485 87.8887 73.7849 87.8887C72.9214 87.8887 72.2213 88.5897 72.2213 89.4545V97.1812C72.2213 98.046 72.9214 98.7471 73.7849 98.7471C74.6485 98.7471 75.3486 98.046 75.3486 97.1812V89.4545Z" fill="#FBDB9E"/>
<path d="M69.9283 112.26H73.0511" stroke="#181828" stroke-width="2" stroke-linecap="round" stroke-linejoin="round"/>
<path d="M74.8846 112.911C75.2271 112.911 75.5047 112.633 75.5047 112.291C75.5047 111.949 75.2271 111.671 74.8846 111.671C74.5422 111.671 74.2645 111.949 74.2645 112.291C74.2645 112.633 74.5422 112.911 74.8846 112.911Z" fill="#181828"/>
<path d="M69.9283 84.8909H73.0511" stroke="#181828" stroke-width="2" stroke-linecap="round" stroke-linejoin="round"/>
<path d="M74.8846 85.5466C75.2271 85.5466 75.5047 85.269 75.5047 84.9265C75.5047 84.584 75.2271 84.3064 74.8846 84.3064C74.5422 84.3064 74.2645 84.584 74.2645 84.9265C74.2645 85.269 74.5422 85.5466 74.8846 85.5466Z" fill="#181828"/>
<path d="M100.911 80.0193H97.7881" stroke="#181828" stroke-linecap="round" stroke-linejoin="round"/>
<path d="M96.6549 80.3494C96.8545 80.3494 97.0163 80.1876 97.0163 79.9881C97.0163 79.7885 96.8545 79.6267 96.6549 79.6267C96.4554 79.6267 96.2936 79.7885 96.2936 79.9881C96.2936 80.1876 96.4554 80.3494 96.6549 80.3494Z" fill="#181828"/>
<path d="M101.045 113.759H97.9219" stroke="#181828" stroke-width="2" stroke-linecap="round" stroke-linejoin="round"/>
<path d="M96.0929 114.343C96.4353 114.343 96.713 114.066 96.713 113.723C96.713 113.381 96.4353 113.103 96.0929 113.103C95.7504 113.103 95.4728 113.381 95.4728 113.723C95.4728 114.066 95.7504 114.343 96.0929 114.343Z" fill="#181828"/>
<path d="M112.086 111.154H108.963" stroke="#181828" stroke-width="2" stroke-linecap="round" stroke-linejoin="round"/>
<path d="M107.134 111.742C107.477 111.742 107.754 111.465 107.754 111.122C107.754 110.78 107.477 110.502 107.134 110.502C106.792 110.502 106.514 110.78 106.514 111.122C106.514 111.465 106.792 111.742 107.134 111.742Z" fill="#181828"/>
<path d="M13.5753 77.6237C13.5753 77.6237 23.8359 74.8221 23.8359 65.873" stroke="#181828" stroke-width="2" stroke-linecap="round" stroke-linejoin="round"/>
<path d="M3.95703 77.6548H36.9917" stroke="#181828" stroke-width="2" stroke-linecap="round" stroke-linejoin="round"/>
<path d="M6.62476 93.5544V84.1235H38.2497V117.662H6.62476V97.44" fill="white"/>
<path d="M38.2497 84.1279H6.62476V87.2373H38.2497V84.1279Z" fill="#C5D5DC"/>
<path d="M6.62476 93.5544V84.1235H38.2497V117.662H6.62476V97.44" stroke="#181828" stroke-width="2" stroke-linecap="round" stroke-linejoin="round"/>
<path d="M46.0255 80.8579H3.19861V84.4268H46.0255V80.8579Z" fill="#889FAA"/>
<path d="M3.2522 81.0542H43.1258C43.1258 81.3471 43.0681 81.6372 42.956 81.9078C42.8439 82.1784 42.6796 82.4243 42.4725 82.6315C42.2654 82.8386 42.0195 83.0029 41.7488 83.115C41.4782 83.2271 41.1881 83.2848 40.8952 83.2848H3.2522V81.0542Z" fill="#C5D5DC"/>
<path d="M5.27307 81.0854H10.3231C10.3231 81.3505 10.2178 81.6046 10.0304 81.792C9.84298 81.9795 9.58881 82.0847 9.32378 82.0847H6.27237C6.00734 82.0847 5.75316 81.9795 5.56576 81.792C5.37835 81.6046 5.27307 81.3505 5.27307 81.0854Z" fill="white"/>
<path d="M10.7781 81.0854H15.8281C15.8281 81.3505 15.7228 81.6046 15.5354 81.792C15.348 81.9795 15.0938 82.0847 14.8288 82.0847H11.7774C11.5123 82.0847 11.2582 81.9795 11.0708 81.792C10.8834 81.6046 10.7781 81.3505 10.7781 81.0854Z" fill="white"/>
<path d="M35.35 80.8579H46.2129V84.4268H3.38599V80.8579H35.7783" stroke="#181828" stroke-width="2" stroke-miterlimit="10"/>
<path d="M7.47241 77.7173V80.7151" stroke="#181828" stroke-width="1.5" stroke-linecap="round" stroke-linejoin="round"/>
<path d="M13.2496 77.7173V80.7151" stroke="#181828" stroke-width="1.5" stroke-linecap="round" stroke-linejoin="round"/>
<path d="M39.9896 89.6106H9.88586V113.719H39.9896V89.6106Z" fill="#F68E2A"/>
<path d="M39.1241 90.3022H10.7513V113.023H39.1241V90.3022Z" stroke="#DE761B" stroke-width="3" stroke-miterlimit="10"/>
<path d="M19.0223 77.7173V80.7151" stroke="#181828" stroke-width="1.5" stroke-linecap="round" stroke-linejoin="round"/>
<path d="M24.3533 83.5702C24.7574 83.5702 25.085 83.2426 25.085 82.8386C25.085 82.4345 24.7574 82.1069 24.3533 82.1069C23.9493 82.1069 23.6217 82.4345 23.6217 82.8386C23.6217 83.2426 23.9493 83.5702 24.3533 83.5702Z" fill="#889FAA"/>
<path d="M22.0915 83.6374C22.397 83.6374 22.6447 83.3897 22.6447 83.0842C22.6447 82.7787 22.397 82.531 22.0915 82.531C21.786 82.531 21.5383 82.7787 21.5383 83.0842C21.5383 83.3897 21.786 83.6374 22.0915 83.6374Z" fill="#889FAA"/>
<path d="M25.5668 82.5933C25.7343 82.5933 25.8701 82.4575 25.8701 82.2899C25.8701 82.1224 25.7343 81.9866 25.5668 81.9866C25.3992 81.9866 25.2634 82.1224 25.2634 82.2899C25.2634 82.4575 25.3992 82.5933 25.5668 82.5933Z" fill="#889FAA"/>
<path d="M10.3409 103.944H21.9845C22.1028 103.944 22.2163 103.991 22.2999 104.075C22.3836 104.159 22.4306 104.272 22.4306 104.39C22.4306 104.509 22.3836 104.622 22.2999 104.706C22.2163 104.79 22.1028 104.837 21.9845 104.837H10.3409V103.944Z" fill="#AE5601"/>
<path d="M14.0571 113.147V104.502C14.0571 104.402 14.0966 104.307 14.1668 104.237C14.2371 104.167 14.3324 104.127 14.4318 104.127H14.5478C14.6472 104.127 14.7425 104.167 14.8128 104.237C14.8831 104.307 14.9225 104.402 14.9225 104.502V113.147H14.0526H14.0571Z" fill="#AE5601"/>
<path d="M18.38 113.147V104.502C18.38 104.453 18.3896 104.404 18.4085 104.358C18.4273 104.313 18.4549 104.272 18.4897 104.237C18.5245 104.202 18.5658 104.174 18.6113 104.156C18.6567 104.137 18.7055 104.127 18.7547 104.127H18.8707C18.9199 104.127 18.9686 104.137 19.0141 104.156C19.0595 104.174 19.1009 104.202 19.1357 104.237C19.1705 104.272 19.1981 104.313 19.2169 104.358C19.2357 104.404 19.2454 104.453 19.2454 104.502V113.147H18.3755H18.38Z" fill="#AE5601"/>
<path opacity="0.8" d="M15.3106 113.687H11.2733L17.965 89.3831H22.0023L15.3106 113.687Z" fill="#FFC38C"/>
<path opacity="0.8" d="M21.3957 113.687H17.3539L24.0456 89.3831H28.0874L21.3957 113.687Z" fill="#FFC38C"/>
<path d="M39.9896 89.5127H9.88586V113.621H39.9896V89.5127Z" stroke="#181828" stroke-width="2" stroke-linecap="round" stroke-linejoin="round"/>
<path d="M22.8276 61.1621V54.4258H32.6421V85.6537H22.8276V76.0757" fill="white"/>
<path d="M32.5529 54.0779V85.3058H22.7384V83.5704H30.987V54.0779H32.5529Z" fill="#D6E6FF"/>
<path d="M70.7848 27.8821H35.9879V116.213H70.7848V27.8821Z" fill="#D15F39"/>
<path d="M68.2285 31.9907V33.7752" stroke="#F7A387" stroke-linecap="round" stroke-linejoin="round"/>
<path d="M67.4255 34.074V35.8584" stroke="#F7A387" stroke-linecap="round" stroke-linejoin="round"/>
<path d="M66.2434 36.2512H70.486C70.5747 36.2512 70.6598 36.2159 70.7225 36.1532C70.7853 36.0905 70.8205 36.0054 70.8205 35.9166C70.8205 35.8279 70.7853 35.7428 70.7225 35.68C70.6598 35.6173 70.5747 35.582 70.486 35.582H66.2256C66.1368 35.582 66.0517 35.6173 65.989 35.68C65.9262 35.7428 65.891 35.8279 65.891 35.9166C65.891 36.0054 65.9262 36.0905 65.989 36.1532C66.0517 36.2159 66.1368 36.2512 66.2256 36.2512H66.2434Z" fill="#F7A387"/>
<path d="M61.6395 32.0398H70.361C70.4498 32.0398 70.5349 32.0045 70.5976 31.9418C70.6604 31.879 70.6956 31.7939 70.6956 31.7052C70.6956 31.6165 70.6604 31.5313 70.5976 31.4686C70.5349 31.4059 70.4498 31.3706 70.361 31.3706H61.6395C61.5508 31.3706 61.4657 31.4059 61.4029 31.4686C61.3402 31.5313 61.3049 31.6165 61.3049 31.7052C61.3049 31.7939 61.3402 31.879 61.4029 31.9418C61.4657 32.0045 61.5508 32.0398 61.6395 32.0398Z" fill="#F7A387"/>
<path d="M64.3162 34.1899H70.361C70.4497 34.1899 70.5348 34.1547 70.5976 34.0919C70.6603 34.0292 70.6956 33.9441 70.6956 33.8553C70.6956 33.7666 70.6603 33.6815 70.5976 33.6188C70.5348 33.556 70.4497 33.5208 70.361 33.5208H64.3162C64.2274 33.5208 64.1423 33.556 64.0796 33.6188C64.0168 33.6815 63.9816 33.7666 63.9816 33.8553C63.9816 33.9441 64.0168 34.0292 64.0796 34.0919C64.1423 34.1547 64.2274 34.1899 64.3162 34.1899Z" fill="#F7A387"/>
<path d="M70.8473 27.7305H36.0504V31.0852H70.8473V27.7305Z" fill="#A72E08"/>
<path d="M70.7848 41.2654H35.9879V45.0574H70.7848V41.2654Z" fill="#A72E08"/>
<path d="M70.7402 45.1824H68.0814V116.784H70.7402V45.1824Z" fill="#A72E08"/>
<path d="M35.9835 47.2881C36.8117 47.2881 37.606 47.6171 38.1917 48.2027C38.7773 48.7884 39.1063 49.5827 39.1063 50.4109V116.436H35.9835V47.2881Z" fill="#F7A387"/>
<path d="M36.1709 31.6518V28.1052H70.5216V50.393" stroke="#181828" stroke-width="3" stroke-linecap="round" stroke-linejoin="round"/>
<path d="M36.1709 54.2162V34.9932" stroke="#181828" stroke-width="3" stroke-linecap="round" stroke-linejoin="round"/>
<path d="M33.0883 62.0098H35.7649" stroke="#181828" stroke-width="4" stroke-miterlimit="10"/>
<path d="M22.8276 61.1621V54.4258H32.6421V85.6537H22.8276V75.6296" stroke="#181828" stroke-width="2" stroke-linecap="round" stroke-linejoin="round"/>
<path d="M22.8276 73.2784V67.2693" stroke="#181828" stroke-width="2" stroke-linecap="round" stroke-linejoin="round"/>
<path d="M22.8276 64.9317V63.8298" stroke="#181828" stroke-width="2" stroke-linecap="round" stroke-linejoin="round"/>
<path d="M53.3462 46.8418C56.1858 46.8418 58.9091 47.9698 60.917 49.9777C62.9249 51.9856 64.053 54.7089 64.053 57.5485V81.6386H42.6395V57.5485C42.6395 54.7089 43.7676 51.9856 45.7755 49.9777C47.7834 47.9698 50.5066 46.8418 53.3462 46.8418Z" fill="#C8EEFD"/>
<path d="M53.3463 48.0376C55.9884 48.0376 58.5224 49.0862 60.3919 50.9532C62.2614 52.8201 63.3134 55.3527 63.3169 57.9948V80.4254H43.3801V57.9948C43.3801 55.3504 44.4306 52.8144 46.3005 50.9445C48.1703 49.0746 50.7064 48.0242 53.3508 48.0242L53.3463 48.0376Z" stroke="#4FCDFF" stroke-width="4" stroke-miterlimit="10"/>
<path d="M53.489 88.8523C56.3877 88.8523 59.1678 90.0038 61.2175 92.0536C63.2672 94.1033 64.4187 96.8833 64.4187 99.7821V116.511H42.5592V99.7821C42.5592 96.8833 43.7107 94.1033 45.7605 92.0536C47.8102 90.0038 50.5902 88.8523 53.489 88.8523Z" fill="#C8EEFD"/>
<path d="M53.3463 89.6196C55.9907 89.6196 58.5268 90.6701 60.3966 92.54C62.2665 94.4098 63.3169 96.9459 63.3169 99.5903V115.204H43.3801V99.5903C43.3801 96.9467 44.43 94.4113 46.2989 92.5415C48.1678 90.6718 50.7027 89.6208 53.3463 89.6196V89.6196Z" stroke="#4FCDFF" stroke-width="3" stroke-miterlimit="10"/>
<path d="M36.6571 48.6262H39.7799" stroke="#181828" stroke-width="2" stroke-linecap="round" stroke-linejoin="round"/>
<path d="M41.609 49.2778C41.9515 49.2778 42.2291 49.0002 42.2291 48.6577C42.2291 48.3152 41.9515 48.0376 41.609 48.0376C41.2665 48.0376 40.9889 48.3152 40.9889 48.6577C40.9889 49.0002 41.2665 49.2778 41.609 49.2778Z" fill="#181828"/>
<path d="M42.6797 28.3281V31.0048" stroke="#F7A387" stroke-linecap="round" stroke-linejoin="round"/>
<path d="M41.0291 31.5669V33.3513" stroke="#F7A387" stroke-linecap="round" stroke-linejoin="round"/>
<path d="M44.1786 33.6414V35.4258" stroke="#F7A387" stroke-linecap="round" stroke-linejoin="round"/>
<path d="M47.9215 33.5789V35.8094" stroke="#F7A387" stroke-linecap="round" stroke-linejoin="round"/>
<path d="M45.624 31.5669V33.3513" stroke="#F7A387" stroke-linecap="round" stroke-linejoin="round"/>
<path d="M39.3338 99.0371H36.2111" stroke="#202020" stroke-width="2" stroke-miterlimit="10"/>
<path d="M70.5618 99.0371H67.439" stroke="#202020" stroke-width="2" stroke-miterlimit="10"/>
<path d="M70.5618 77.1775H67.439" stroke="#202020" stroke-width="2" stroke-miterlimit="10"/>
<path d="M70.5618 45.0574H67.439" stroke="#202020" stroke-width="2" stroke-miterlimit="10"/>
<path d="M27.7348 63.3481C28.9667 63.3481 29.9654 62.3494 29.9654 61.1175C29.9654 59.8856 28.9667 58.887 27.7348 58.887C26.5029 58.887 25.5043 59.8856 25.5043 61.1175C25.5043 62.3494 26.5029 63.3481 27.7348 63.3481Z" fill="#FA4040"/>
<path d="M27.7348 80.3002C28.9667 80.3002 29.9654 79.3016 29.9654 78.0697C29.9654 76.8378 28.9667 75.8391 27.7348 75.8391C26.5029 75.8391 25.5043 76.8378 25.5043 78.0697C25.5043 79.3016 26.5029 80.3002 27.7348 80.3002Z" fill="#FA4040"/>
<path d="M74.5768 37.9197H31.7499V41.4886H74.5768V37.9197Z" fill="#889FAA"/>
<path d="M31.7499 37.9197H71.6235C71.6235 38.2126 71.5658 38.5027 71.4537 38.7733C71.3416 39.0439 71.1773 39.2898 70.9702 39.4969C70.7631 39.7041 70.5172 39.8684 70.2465 39.9805C69.9759 40.0926 69.6859 40.1502 69.3929 40.1502H31.7499V37.9197Z" fill="#C5D5DC"/>
<path d="M73.6846 2.0163V20.3069C73.6799 20.602 73.5594 20.8834 73.3491 21.0904C73.1388 21.2974 72.8555 21.4133 72.5604 21.4133H34.1946C33.8965 21.4133 33.6105 21.2949 33.3997 21.084C33.1889 20.8732 33.0704 20.5873 33.0704 20.2891V18.1478C37.3394 14.6374 42.8259 12.9626 48.3275 13.4903C53.0385 13.9721 57.4595 16.0555 62.157 16.6131C63.9861 16.8362 66.0338 16.7603 67.4033 15.5201C68.4249 14.5967 68.8666 13.1825 69.0138 11.8129C69.1699 10.3542 69.0138 8.80168 68.2152 7.57487C67.8851 7.07522 67.4569 6.64695 67.1223 6.14731C66.5271 5.1836 66.1949 4.08076 66.1587 2.94867C66.0805 2.26401 66.163 1.57055 66.3996 0.92332L66.4219 0.874248H72.5381C72.6891 0.871231 72.8392 0.898677 72.9793 0.954946C73.1195 1.01121 73.2469 1.09515 73.3539 1.20175C73.4609 1.30834 73.5454 1.43541 73.6022 1.57536C73.659 1.71531 73.687 1.86527 73.6846 2.0163Z" fill="#D6E6FF"/>
<path d="M74.7597 24.9822H31.9329V28.5511H74.7597V24.9822Z" fill="#C5D5DC"/>
<path d="M32.196 24.9153H55.6527C55.6527 25.3885 55.4647 25.8424 55.13 26.1771C54.7954 26.5117 54.3415 26.6997 53.8682 26.6997H32.196V24.9153Z" fill="white"/>
<path d="M49.7685 24.9822H74.7597V28.5511H31.9329V24.9822H41.3414" stroke="#181828" stroke-width="2" stroke-miterlimit="10"/>
<path d="M43.166 24.9822H48.2115" stroke="#181828" stroke-width="2" stroke-miterlimit="10"/>
<path d="M51.5841 0.446054H72.5202C72.8184 0.446054 73.1043 0.564497 73.3151 0.775326C73.526 0.986156 73.6444 1.2721 73.6444 1.57026V19.8609C73.6397 20.156 73.5192 20.4373 73.3089 20.6443C73.0986 20.8513 72.8153 20.9673 72.5202 20.9673H34.1768C34.0288 20.9679 33.8821 20.9392 33.7452 20.883C33.6083 20.8267 33.4838 20.744 33.3789 20.6396C33.2741 20.5351 33.1909 20.411 33.1341 20.2743C33.0773 20.1376 33.0481 19.9911 33.0481 19.8431V1.55242C33.0528 1.25659 33.1739 0.974534 33.3852 0.767424C33.5965 0.560313 33.8809 0.444843 34.1768 0.446054H42.2693" stroke="#181828" stroke-width="2" stroke-miterlimit="10"/>
<path d="M44.2233 0.446045H49.7283" stroke="#181828" stroke-width="2" stroke-miterlimit="10"/>
<path d="M38.0089 20.9673H36.1932V24.5362H38.0089V20.9673Z" fill="#181828"/>
<path d="M70.6554 20.9673H68.8397V24.5362H70.6554V20.9673Z" fill="#181828"/>
<path d="M54.3322 20.9673H52.5165V24.5362H54.3322V20.9673Z" fill="#181828"/>
<path d="M37.5494 5.79948C38.2885 5.79948 38.8877 5.20029 38.8877 4.46114C38.8877 3.722 38.2885 3.1228 37.5494 3.1228C36.8103 3.1228 36.2111 3.722 36.2111 4.46114C36.2111 5.20029 36.8103 5.79948 37.5494 5.79948Z" fill="#FA4040"/>
<path d="M37.5494 17.8444C38.2885 17.8444 38.8877 17.2452 38.8877 16.5061C38.8877 15.7669 38.2885 15.1677 37.5494 15.1677C36.8103 15.1677 36.2111 15.7669 36.2111 16.5061C36.2111 17.2452 36.8103 17.8444 37.5494 17.8444Z" fill="#FA4040"/>
<path d="M69.2234 5.79948C69.9625 5.79948 70.5617 5.20029 70.5617 4.46114C70.5617 3.722 69.9625 3.1228 69.2234 3.1228C68.4842 3.1228 67.885 3.722 67.885 4.46114C67.885 5.20029 68.4842 5.79948 69.2234 5.79948Z" fill="#FA4040"/>
<path d="M69.2234 17.8444C69.9625 17.8444 70.5617 17.2452 70.5617 16.5061C70.5617 15.7669 69.9625 15.1677 69.2234 15.1677C68.4842 15.1677 67.885 15.7669 67.885 16.5061C67.885 17.2452 68.4842 17.8444 69.2234 17.8444Z" fill="#FA4040"/>
<path d="M68.9825 49.9824H64.847C64.4504 49.9824 64.1288 50.303 64.1288 50.6984C64.1288 51.0939 64.4504 51.4144 64.847 51.4144H68.9825C69.3792 51.4144 69.7008 51.0939 69.7008 50.6984C69.7008 50.303 69.3792 49.9824 68.9825 49.9824Z" fill="#A72E08"/>
<path d="M68.3 85.4485H60.1495C59.7528 85.4485 59.4313 85.7691 59.4313 86.1645C59.4313 86.5599 59.7528 86.8805 60.1495 86.8805H68.3C68.6967 86.8805 69.0182 86.5599 69.0182 86.1645C69.0182 85.7691 68.6967 85.4485 68.3 85.4485Z" fill="#A72E08"/>
<path d="M57.7182 86.8983C58.1494 86.8983 58.4989 86.5488 58.4989 86.1176C58.4989 85.6864 58.1494 85.3369 57.7182 85.3369C57.287 85.3369 56.9375 85.6864 56.9375 86.1176C56.9375 86.5488 57.287 86.8983 57.7182 86.8983Z" fill="#A72E08"/>
<path opacity="0.8" d="M63.7451 95.2807L42.5503 113.125V107.776L61.5146 92.1624L63.7451 95.2807Z" fill="white"/>
<path opacity="0.8" d="M63.7451 105.011L49.6881 116.61L42.5503 116.614L64.1912 99.2156L63.7451 105.011Z" fill="white"/>
<path opacity="0.7" d="M63.7451 60.484L42.5503 78.3286V72.9797L63.7942 55.3894L63.7451 60.484Z" fill="white"/>
<path opacity="0.7" d="M63.7451 70.2183L49.6881 81.8173L42.5503 81.8218L64.1912 64.4233L63.7451 70.2183Z" fill="white"/>
<path d="M70.5216 56.5627V116.436H36.1709V108.174" stroke="#181828" stroke-width="3" stroke-linecap="round" stroke-linejoin="round"/>
<path d="M53.3463 88.7764C56.245 88.7764 59.0251 89.9279 61.0748 91.9776C63.1245 94.0274 64.2761 96.8074 64.2761 99.7061V116.435H42.4165V99.7061C42.4165 96.8074 43.568 94.0274 45.6178 91.9776C47.6675 89.9279 50.4475 88.7764 53.3463 88.7764V88.7764Z" stroke="#181828" stroke-width="2" stroke-miterlimit="10"/>
<path d="M53.1633 88.7764V115.989" stroke="#202020" stroke-width="2" stroke-miterlimit="10"/>
<path d="M64.3162 97.6987H42.4567" stroke="#202020" stroke-width="2" stroke-miterlimit="10"/>
<path d="M48.2561 95.5708V97.6988" stroke="#202020" stroke-width="2" stroke-miterlimit="10"/>
<path d="M48.2561 89.6687V93.8309" stroke="#202020" stroke-width="2" stroke-miterlimit="10"/>
<path d="M58.0706 89.6687V97.6988" stroke="#202020" stroke-width="2" stroke-miterlimit="10"/>
<path d="M36.4252 60.8186C36.9412 60.8221 37.4347 61.0296 37.7983 61.3956C38.1618 61.7617 38.3658 62.2567 38.3658 62.7726V67.0285C38.3658 67.5467 38.16 68.0437 37.7935 68.4102C37.4271 68.7766 36.9301 68.9825 36.4119 68.9825V60.8186H36.4252Z" fill="white"/>
<path d="M51.7687 67C52.0393 66.7744 52.0758 66.3722 51.8502 66.1015C51.6246 65.8309 51.2223 65.7945 50.9517 66.0201L45.6579 70.4339C45.3873 70.6595 45.3508 71.0618 45.5764 71.3324C45.802 71.603 46.2043 71.6394 46.4749 71.4138L51.7687 67Z" fill="white"/>
<path d="M60.7173 61.1785C60.9879 60.9529 61.0244 60.5506 60.7988 60.28C60.5732 60.0094 60.1709 59.9729 59.9003 60.1986L54.6065 64.6123C54.3359 64.838 54.2994 65.2402 54.525 65.5108C54.7506 65.7814 55.1529 65.8179 55.4235 65.5923L60.7173 61.1785Z" fill="white"/>
<path d="M62.3709 70.386C62.6415 70.1604 62.678 69.7581 62.4523 69.4875C62.2267 69.2169 61.8245 69.1805 61.5538 69.4061L56.26 73.8199C55.9894 74.0455 55.953 74.4477 56.1786 74.7183C56.4042 74.989 56.8065 75.0254 57.0771 74.7998L62.3709 70.386Z" fill="white"/>
<path d="M53.5164 74.5679C53.787 74.3423 53.8235 73.94 53.5979 73.6694C53.3722 73.3988 52.97 73.3623 52.6994 73.588L47.4055 78.0017C47.1349 78.2274 47.0985 78.6296 47.3241 78.9002C47.5497 79.1709 47.952 79.2073 48.2226 78.9817L53.5164 74.5679Z" fill="white"/>
<path d="M36.4252 88.5312C36.9419 88.5348 37.4362 88.7428 37.7998 89.1099C38.1635 89.4769 38.367 89.973 38.3658 90.4897V94.7456C38.3658 95.2638 38.16 95.7608 37.7935 96.1273C37.4271 96.4937 36.9301 96.6996 36.4119 96.6996V88.5312H36.4252Z" fill="white"/>
<path d="M36.1709 104.582V57.1157" stroke="#181828" stroke-width="3" stroke-linecap="round" stroke-linejoin="round"/>
<path d="M53.3462 46.8418C56.1858 46.8418 58.9091 47.9698 60.917 49.9777C62.9249 51.9856 64.053 54.7089 64.053 57.5485V81.6386H42.6395V57.5485C42.6395 54.7089 43.7676 51.9856 45.7755 49.9777C47.7834 47.9698 50.5066 46.8418 53.3462 46.8418V46.8418Z" stroke="#181828" stroke-width="2" stroke-miterlimit="10"/>
<path d="M53.1633 57.1025V82.0849" stroke="#202020" stroke-width="2" stroke-miterlimit="10"/>
<path d="M64.3162 57.1025H42.4567" stroke="#202020" stroke-width="2" stroke-miterlimit="10"/>
<path d="M45.5303 58.6057H45.5259C45.107 58.6057 44.7675 58.9453 44.7675 59.3641V65.3643C44.7675 65.7832 45.107 66.1227 45.5259 66.1227H45.5303C45.9492 66.1227 46.2887 65.7832 46.2887 65.3643V59.3641C46.2887 58.9453 45.9492 58.6057 45.5303 58.6057Z" fill="white"/>
<path d="M13.089 95.4993H13.0846C12.6657 95.4993 12.3262 95.8388 12.3262 96.2577V102.258C12.3262 102.677 12.6657 103.016 13.0846 103.016H13.089C13.5079 103.016 13.8474 102.677 13.8474 102.258V96.2577C13.8474 95.8388 13.5079 95.4993 13.089 95.4993Z" fill="white"/>
<path d="M38.6647 31.4956H53.1857C53.2744 31.4956 53.3595 31.4603 53.4222 31.3976C53.485 31.3348 53.5202 31.2497 53.5202 31.161C53.5202 31.0723 53.485 30.9872 53.4222 30.9244C53.3595 30.8617 53.2744 30.8264 53.1857 30.8264H38.6647C38.5759 30.8264 38.4908 30.8617 38.4281 30.9244C38.3653 30.9872 38.3301 31.0723 38.3301 31.161C38.3301 31.2497 38.3653 31.3348 38.4281 31.3976C38.4908 31.4603 38.5759 31.4956 38.6647 31.4956Z" fill="#F7A387"/>
<path d="M38.6647 33.8735H57.6468C57.7355 33.8735 57.8206 33.8383 57.8834 33.7755C57.9461 33.7128 57.9814 33.6277 57.9814 33.5389C57.9814 33.4502 57.9461 33.3651 57.8834 33.3023C57.8206 33.2396 57.7355 33.2043 57.6468 33.2043H38.6647C38.5759 33.2043 38.4908 33.2396 38.4281 33.3023C38.3653 33.3651 38.3301 33.4502 38.3301 33.5389C38.3301 33.6277 38.3653 33.7128 38.4281 33.7755C38.4908 33.8383 38.5759 33.8735 38.6647 33.8735Z" fill="#F7A387"/>
<path d="M40.003 36.2512H53.1857C53.2744 36.2512 53.3595 36.2159 53.4223 36.1532C53.485 36.0905 53.5203 36.0054 53.5203 35.9166C53.5203 35.8279 53.485 35.7428 53.4223 35.68C53.3595 35.6173 53.2744 35.582 53.1857 35.582H40.003C39.9143 35.582 39.8292 35.6173 39.7665 35.68C39.7037 35.7428 39.6685 35.8279 39.6685 35.9166C39.6685 36.0054 39.7037 36.0905 39.7665 36.1532C39.8292 36.2159 39.9143 36.2512 40.003 36.2512Z" fill="#F7A387"/>
<path d="M52.9046 40.632C53.3087 40.632 53.6362 40.3044 53.6362 39.9003C53.6362 39.4963 53.3087 39.1687 52.9046 39.1687C52.5005 39.1687 52.173 39.4963 52.173 39.9003C52.173 40.3044 52.5005 40.632 52.9046 40.632Z" fill="#889FAA"/>
<path d="M50.6428 40.6989C50.9483 40.6989 51.196 40.4512 51.196 40.1457C51.196 39.8402 50.9483 39.5925 50.6428 39.5925C50.3373 39.5925 50.0896 39.8402 50.0896 40.1457C50.0896 40.4512 50.3373 40.6989 50.6428 40.6989Z" fill="#889FAA"/>
<path d="M54.1135 39.6551C54.2811 39.6551 54.4169 39.5192 54.4169 39.3517C54.4169 39.1842 54.2811 39.0483 54.1135 39.0483C53.946 39.0483 53.8102 39.1842 53.8102 39.3517C53.8102 39.5192 53.946 39.6551 54.1135 39.6551Z" fill="#889FAA"/>
<path d="M32.0399 38.0579H37.0899C37.0899 38.3253 36.9837 38.5817 36.7946 38.7708C36.6055 38.9599 36.3491 39.0661 36.0817 39.0661H32.0399V38.0579Z" fill="white"/>
<path d="M37.5449 38.0579H42.5949C42.5949 38.3253 42.4887 38.5817 42.2996 38.7708C42.1106 38.9599 41.8541 39.0661 41.5867 39.0661H38.5531C38.4207 39.0661 38.2896 39.04 38.1673 38.9893C38.045 38.9387 37.9338 38.8644 37.8402 38.7708C37.7466 38.6772 37.6723 38.566 37.6217 38.4437C37.571 38.3214 37.5449 38.1903 37.5449 38.0579Z" fill="white"/>
<path d="M63.9013 37.9197H74.7597V41.4886H31.9329V37.9197H61.6529" stroke="#181828" stroke-width="2" stroke-miterlimit="10"/>
<path d="M28.3907 87.7949V115.851" stroke="#181828" stroke-width="2" stroke-linecap="round" stroke-linejoin="round"/>
<path d="M13.0891 94.2636C13.5572 94.2636 13.9367 93.8841 13.9367 93.416C13.9367 92.9478 13.5572 92.5684 13.0891 92.5684C12.6209 92.5684 12.2415 92.9478 12.2415 93.416C12.2415 93.8841 12.6209 94.2636 13.0891 94.2636Z" fill="white"/>
<path d="M26.3475 54.4748C26.3475 54.4748 36.0014 52.9134 36.0014 43.9644" stroke="#181828" stroke-width="2" stroke-linecap="round" stroke-linejoin="round"/>
<path d="M3.49756 82.6335H9.2658" stroke="#181828" stroke-linecap="round" stroke-linejoin="round"/>
<path d="M36.6571 84.9712H39.7799" stroke="#181828" stroke-width="2" stroke-linecap="round" stroke-linejoin="round"/>
<path d="M41.609 85.6225C41.9515 85.6225 42.2291 85.3449 42.2291 85.0024C42.2291 84.6599 41.9515 84.3823 41.609 84.3823C41.2665 84.3823 40.9889 84.6599 40.9889 85.0024C40.9889 85.3449 41.2665 85.6225 41.609 85.6225Z" fill="#181828"/>
<path d="M110.003 115.985H0.258789V119.554H110.003V115.985Z" fill="#889FAA"/>
<path d="M102.865 115.985H0.258789V117.769H102.865V115.985Z" fill="#C5D5DC"/>
<path d="M99.3316 115.985H110.19V119.554H0.446167V115.985H99.7599" stroke="#181828" stroke-width="2" stroke-miterlimit="10"/>
<path d="M101.018 71.7349H91.2435V78.0117H101.018V71.7349Z" fill="white"/>
<path d="M101.018 71.6367H91.2435V73.0554H101.018V71.6367Z" fill="#C5D5DC"/>
<path d="M101.018 71.6367H91.2435V77.9135H101.018V71.6367Z" stroke="#181828" stroke-width="2" stroke-linecap="round" stroke-linejoin="round"/>
<path d="M96.1866 76.0711C96.7655 76.0711 97.2349 75.6017 97.2349 75.0227C97.2349 74.4437 96.7655 73.9744 96.1866 73.9744C95.6076 73.9744 95.1382 74.4437 95.1382 75.0227C95.1382 75.6017 95.6076 76.0711 96.1866 76.0711Z" stroke="#181828" stroke-width="1.5" stroke-linecap="round" stroke-linejoin="round"/>
</g>
<defs>
<clipPath id="clip0">
<rect width="112.889" height="120" fill="white"/>
</clipPath>
</defs>
</svg>
