<svg width="500" height="290" fill="none" xmlns="http://www.w3.org/2000/svg">
  <g clip-path="url(#clip0)">
    <path d="M473.617 174.702c-17.671 45.741-50.893 85.816-97.038 103.427a167.738 167.738 0 01-18.355 5.811c-32.923 8.392-68.941 5.473-99.29-9.818-12.88-6.495-24.626-15.078-37.553-21.479-12.927-6.402-27.69-10.592-41.76-7.432-12.115 2.721-22.336 10.518-32.627 17.464-24.261 16.375-53.432 29.335-82.16 23.71-13.218-2.585-26.235-9.744-32.374-21.712-13.569-26.459 12.021-57.916 6.839-87.176-3.316-18.728-18.464-32.752-27.88-49.279-16.116-28.27-14.21-65.821 4.685-92.31C34.999 9.418 69.88-4.633 101.863 1.376c39 7.33 68.486 40.327 106.408 52.003 23.716 7.296 49.466 5.12 72.117-4.49 36.597-15.528 86.875-39.343 128.06-35.464 21.9 2.064 43.381 11.782 57.836 28.375 18.273 20.947 23.751 50.686 20.703 78.306a218.933 218.933 0 01-13.37 54.596z" fill="url(#paint0_linear)"/>
    <path d="M499.985 98.207a16.121 16.121 0 00-16.12-16.115c-.357 0-.711 0-1.061.035a16.114 16.114 0 00-11.378-16.471 16.125 16.125 0 00-18.076 6.41 16.11 16.11 0 00-2.221 13.097 16.122 16.122 0 00-24.22 6.56A16.113 16.113 0 00438.451 114a16.116 16.116 0 0019.929 9.683 16.114 16.114 0 006.835-4.265 16.113 16.113 0 0013.652 2.764 16.122 16.122 0 0010.71-8.905 16.125 16.125 0 0010.408-15.07zM74.434 59.47a16.111 16.111 0 00-9.944-14.901 16.121 16.121 0 00-6.171-1.23c-.358 0-.712 0-1.062.035A16.112 16.112 0 0045.88 26.903a16.122 16.122 0 00-20.599 12.72 16.112 16.112 0 00.302 6.787A16.12 16.12 0 001.806 66.868a16.116 16.116 0 0011.098 8.38 16.114 16.114 0 0011.879 10.099 16.124 16.124 0 0014.874-4.681 16.12 16.12 0 0024.361-6.142A16.122 16.122 0 0074.434 59.47z" fill="#fff"/>
    <path d="M370.976 288.772H139.063v-5.053h231.913a2.527 2.527 0 110 5.053zM128.69 288.772h-14.179a2.526 2.526 0 110-5.053h14.179a2.527 2.527 0 110 5.053zM105.308 288.772h-4.518a2.527 2.527 0 110-5.053h4.518a2.527 2.527 0 110 5.053z" fill="#426572"/>
    <path d="M98.858 91.514h284.101a5.19 5.19 0 014.798 3.206c.262.63.396 1.305.396 1.987V276.87H93.663V96.707a5.19 5.19 0 015.195-5.193z" fill="#EBF0F9"/>
    <path d="M377.908 104.376H105.067v155.827h272.841V104.376z" fill="#637F91"/>
    <path d="M103.03 259.911h276.041a4.665 4.665 0 01-4.666 4.665h-266.71a4.666 4.666 0 01-4.665-4.665z" fill="#fff"/>
    <path d="M390.474 279.202H91.331V109.184a20.023 20.023 0 015.867-14.137 20.033 20.033 0 0114.14-5.865h163.716v4.664H111.338a15.356 15.356 0 00-15.342 15.338v165.354h289.812V98.094a4.254 4.254 0 00-4.249-4.248H275.054v-4.664h106.505a8.943 8.943 0 018.915 8.912v181.108z" fill="#426572"/>
    <path d="M56.523 271.308h376.652v1.212a15.16 15.16 0 01-15.163 15.16H71.685a15.159 15.159 0 01-15.163-15.16v-1.212z" fill="#EBF0F9"/>
    <path opacity=".5" d="M431.25 279.21a11.407 11.407 0 01-10.649 7.307H66.759a11.41 11.41 0 01-10.649-7.307h375.14z" fill="#A7BCD5"/>
    <path d="M416.258 289.436H69.932a17.508 17.508 0 01-17.496-17.491V268.4h381.318v3.545a17.507 17.507 0 01-17.496 17.491zM57.152 273.061a12.828 12.828 0 0012.784 11.707h346.326a12.829 12.829 0 0012.784-11.707H57.152zM379.654 261.66H102.151V102.044h277.503V261.66zm-272.842-4.664h268.176V106.708H106.816l-.004 150.288z" fill="#426572"/>
    <path d="M426.157 141.799v42.978a3.521 3.521 0 01-3.499 3.498h-76.335a3.452 3.452 0 01-1.423-.303 3.495 3.495 0 01-2.088-3.203v-42.97a3.503 3.503 0 013.499-3.506h76.324a3.521 3.521 0 013.475 3.02c.028.161.043.323.047.486z" fill="#4020FF"/>
    <path d="M425.574 140.629v42.978a3.521 3.521 0 01-3.499 3.498H345.74a3.452 3.452 0 01-1.423-.303 3.495 3.495 0 01-2.088-3.203v-.583h75.157a3.524 3.524 0 003.499-3.498v-42.395h1.167a3.521 3.521 0 013.475 3.02c.028.161.043.323.047.486z" fill="#4020FF"/>
    <path d="M422.063 190.032H345.74a5.759 5.759 0 01-2.38-.509 5.832 5.832 0 01-3.464-5.333v-42.974a5.877 5.877 0 013.616-5.395l.389-.21h.186a5.778 5.778 0 011.637-.233h76.324a5.867 5.867 0 015.785 5.026c.039.269.058.54.058.812v42.978a5.849 5.849 0 01-5.828 5.838zm-77.023-49.753a1.169 1.169 0 00-.478.941v42.974a1.163 1.163 0 00.703 1.073c.149.067.311.101.475.101h76.323a1.17 1.17 0 00.957-.502 1.16 1.16 0 00.217-.676v-42.974a.914.914 0 000-.148 1.187 1.187 0 00-1.166-1.03H345.74c-.109 0-.218.016-.323.047l-.377.194z" fill="#426572"/>
    <path d="M364.297 160.845a12.48 12.48 0 00-3.733-1.481 4.611 4.611 0 001.549-6.241 4.633 4.633 0 00-6.258-1.719 4.628 4.628 0 00-2.38 3.914 4.633 4.633 0 002.148 4.046 12.38 12.38 0 00-3.888 1.493 2.267 2.267 0 00-1.023 1.753v5.554a1.167 1.167 0 001.167 1.166h12.282a1.166 1.166 0 001.166-1.166v-5.562a2.176 2.176 0 00-1.03-1.757z" fill="#426572"/>
    <path d="M413.292 145.562h-40.939v4.664h40.939v-4.664zM398.67 153.747h-26.317v4.665h26.317v-4.665zM412.709 169.828h-40.356v4.664h40.356v-4.664z" fill="#E4E4FE"/>
    <path d="M245.179 287.396s62.23-31.096 62.23-77.766v-62.218l-62.23-15.548-62.23 15.548v62.214c0 46.663 62.23 77.77 62.23 77.77z" fill="#E8837E"/>
    <path d="M243.935 290l-1.042-.521c-.646-.322-16.007-8.065-31.609-21.716-9.21-8.058-16.558-16.492-21.842-25.079-6.683-10.856-10.07-21.976-10.07-33.039v-64.052l64.563-16.139.567.14 63.995 15.995v64.037c0 11.082-3.386 22.202-10.069 33.039-5.284 8.586-12.632 17.021-21.843 25.078-15.602 13.651-30.963 21.379-31.608 21.717l-1.042.54zm-59.897-140.765v60.391c0 10.203 3.153 20.504 9.377 30.614 5.055 8.185 12.084 16.266 20.941 24.013a167.068 167.068 0 0029.579 20.511 167.369 167.369 0 0029.657-20.577c8.837-7.743 15.866-15.812 20.889-23.975 6.221-10.106 9.331-20.379 9.331-30.567v-60.41l-59.877-14.973-59.897 14.973z" fill="#426572"/>
    <path d="M207.785 233.527l26.889 21.506 3.818 3.055c2.107 1.687 4.106 2.616 6.858 2.247a8.058 8.058 0 005.964-3.887l29.432-48.109 4.199-6.86c2.231-3.646.917-9.138-2.928-11.167-3.977-2.103-8.791-.964-11.17 2.927l-29.431 48.104-4.199 6.861 12.83-1.652-26.881-21.499-3.818-3.055c-3.328-2.662-8.34-3.498-11.547 0-2.722 2.962-3.561 8.695 0 11.544l-.016-.015z" fill="#fff"/>
    <path opacity=".2" d="M138.409 134.099a43.252 43.252 0 00-5.328-48.492 43.27 43.27 0 00-30.105-15.029 43.288 43.288 0 00-31.773 11.075A43.266 43.266 0 0061 95.455a43.266 43.266 0 0014.687 56.668 43.286 43.286 0 0020.094 6.81 43.03 43.03 0 01-3.806.719 43.282 43.282 0 0037.274-12.734 43.361 43.361 0 009.159-12.819z" fill="#606060"/>
    <path d="M94.383 148.831c23.899 0 43.272-19.369 43.272-43.262s-19.373-43.262-43.272-43.262c-23.899 0-43.272 19.37-43.272 43.262 0 23.893 19.373 43.262 43.272 43.262z" fill="#A8EF9E"/>
    <path d="M93.353 153.219a45.6 45.6 0 01-42.137-28.144 45.583 45.583 0 019.885-49.69 45.608 45.608 0 0149.702-9.882 45.606 45.606 0 0120.467 16.794 45.582 45.582 0 017.684 25.332 45.64 45.64 0 01-13.372 32.221 45.66 45.66 0 01-32.23 13.369zm0-86.52c-8.098 0-16.013 2.4-22.746 6.897a40.931 40.931 0 00-17.412 42.016 40.943 40.943 0 0055.82 29.831 40.929 40.929 0 0025.273-37.814 40.963 40.963 0 00-12.002-28.927A40.987 40.987 0 0093.353 66.7z" fill="#426572"/>
    <path d="M110.362 131.277c-12.698 1.8-28.35-2.857-28.35-2.857l-7.718 1.536a2.297 2.297 0 01-1.923-.51 2.293 2.293 0 01-.798-1.823 153.54 153.54 0 00-.424-16.542 2.282 2.282 0 013.203-2.305 13.283 13.283 0 005.584 1.368c4.684-.039 8.774-3.63 10.866-7.894 2.092-4.264 2.566-7.028 3.005-11.77.191-2.072.494-4.369 2.069-5.698 2.721-2.305 7.2.388 8.083 3.867.882 3.479-.541 5.026-1.742 8.408-.778 2.207-.606 2.332-1.236 4.606a1.384 1.384 0 00.023 1.166 1.24 1.24 0 00.894.412c2.543.326 4.211 1.275 6.757 1.555a6.332 6.332 0 015.261 4.092v19.081a3.292 3.292 0 01-2.198 3.132c-.43.15-.886.211-1.34.176h-.016z" fill="#85D175"/>
  </g>
  <defs>
    <linearGradient id="paint0_linear" x1=".513" y1="144.279" x2="487.776" y2="144.279" gradientUnits="userSpaceOnUse">
      <stop stop-color="#C5E9FA"/>
      <stop offset="1" stop-color="#C4F4EA"/>
    </linearGradient>
    <clipPath id="clip0">
      <path fill="#fff" d="M0 0h500v290H0z"/>
    </clipPath>
  </defs>
</svg>
