<svg width="475" height="250" fill="none" xmlns="http://www.w3.org/2000/svg">
  <g clip-path="url(#clip0)">
    <path d="M423.438 134.808h21.329v21.145c0 2.624-1.123 5.141-3.123 6.997-2 1.856-4.713 2.899-7.541 2.899-1.401 0-2.788-.256-4.082-.754a10.755 10.755 0 01-3.46-2.145 9.89 9.89 0 01-2.311-3.21 9.283 9.283 0 01-.812-3.787v-21.145z" fill="#F7BD3B"/>
    <path d="M434.215 166.715c-3.055-.002-5.985-1.129-8.145-3.133-2.16-2.005-3.374-4.723-3.376-7.557v-21.139a.732.732 0 01.063-.305.788.788 0 01.186-.259.855.855 0 01.278-.172.916.916 0 01.329-.058h21.329c.227 0 .445.083.606.232.16.149.25.351.25.562v21.139c-.003 2.834-1.218 5.551-3.378 7.555-2.16 2.004-5.088 3.131-8.142 3.135zm-9.823-31.041v20.351c0 2.417 1.035 4.735 2.877 6.444 1.842 1.71 4.34 2.67 6.946 2.67 2.605 0 5.103-.96 6.945-2.67 1.842-1.709 2.877-4.027 2.877-6.444v-20.351h-19.645z" fill="#181828"/>
    <path d="M410.619 109.958c-1.717-5.244-4.584-10.103-8.42-14.27 7.718-2.93 16.355-2.097 22.712 2.968" fill="#F7BD3B"/>
    <path d="M403.146 95.167c.309.332-.961.774-.659 1.126 7.086-2.279 14.797-1.595 20.705 2.676l1.094-.742c-6.321-5.04-13.366-5.996-21.14-3.06z" fill="#D39021"/>
    <path d="M414.513 107.022l-4.056 3.001c-1.514-5.291-4.19-10.236-7.858-14.524 4.772 3.051 8.826 6.972 11.914 11.523z" fill="#181828"/>
    <path d="M411.306 103.513a.76.76 0 01-.318-.08.687.687 0 01-.243-.207c-3.445-5.24-8.293-6.301-8.371-6.301a.656.656 0 01-.399-.256.571.571 0 01-.099-.441.657.657 0 01.288-.36.744.744 0 01.47-.102c.218.045 5.466 1.198 9.199 6.862a.573.573 0 01.08.454.606.606 0 01-.291.372.756.756 0 01-.316.059z" fill="#181828"/>
    <path d="M410.226 110.752a.893.893 0 01-.509-.157.786.786 0 01-.305-.409c-1.667-5.14-4.467-9.902-8.223-13.984a.767.767 0 01-.177-.33.765.765 0 01.182-.698.843.843 0 01.324-.216c8.364-3.17 17.184-2.011 23.597 3.1.084.067.154.149.205.241a.746.746 0 01-.114.871.882.882 0 01-.585.275.9.9 0 01-.622-.19c-5.613-4.485-13.331-5.657-20.741-3.216 3.526 4.046 6.171 8.69 7.789 13.672a.727.727 0 01-.067.602.808.808 0 01-.214.238.87.87 0 01-.295.143.732.732 0 01-.245.058z" fill="#181828"/>
    <g opacity=".2" fill="#113C47">
      <path opacity=".2" d="M452.822 117.764c-.499 0-.978-.184-1.332-.511a1.69 1.69 0 01-.555-1.234v-9.902c0-.464.199-.91.553-1.238a1.961 1.961 0 011.334-.513c.501 0 .981.184 1.335.513.353.328.552.774.552 1.238v9.909c.002.23-.045.458-.139.671a1.75 1.75 0 01-.406.571 1.896 1.896 0 01-.612.381 1.998 1.998 0 01-.723.134l-.007-.019zM452.822 103.331c-.5 0-.98-.185-1.334-.513a1.691 1.691 0 01-.553-1.239v-3.704c0-.464.199-.91.553-1.238a1.964 1.964 0 011.334-.513c.501 0 .981.184 1.335.513.354.328.552.774.552 1.238v3.685c.004.232-.042.462-.135.677a1.751 1.751 0 01-.408.576 1.884 1.884 0 01-.616.384 2.02 2.02 0 01-.728.134z"/>
    </g>
    <path d="M456.19 104.47c1.697-5.244 4.549-10.104 8.377-14.27-7.718-2.93-16.362-2.103-22.718 2.968" fill="#F7BD3D"/>
    <path opacity=".48" d="M442.922 100.557c1.698-5.24 12.994-10.833 21.645-10.358-7.718-2.93-16.362-2.102-22.718 2.969" fill="#fff"/>
    <path d="M431.787 92.914h4.294c3.269 0 6.506.596 9.526 1.756a25.093 25.093 0 018.076 5.005c2.312 2.145 4.146 4.691 5.397 7.493a21.655 21.655 0 011.895 8.838 21.642 21.642 0 01-1.893 8.84 23.059 23.059 0 01-5.396 7.495 25.117 25.117 0 01-8.077 5.007 26.588 26.588 0 01-9.528 1.756h-4.294a26.588 26.588 0 01-9.528-1.756 25.117 25.117 0 01-8.077-5.007 23.059 23.059 0 01-5.396-7.495 21.642 21.642 0 01-1.893-8.84c0-3.033.644-6.036 1.895-8.838 1.251-2.802 3.085-5.348 5.397-7.493a25.093 25.093 0 018.076-5.005 26.575 26.575 0 019.526-1.756z" fill="#F7BD3B"/>
    <path d="M423.529 103.063h-.014c-4.608 0-8.343 3.466-8.343 7.741v3.379c0 4.275 3.735 7.741 8.343 7.741h.014c4.607 0 8.342-3.466 8.342-7.741v-3.379c0-4.275-3.735-7.741-8.342-7.741z" fill="#fff"/>
    <path d="M422.055 113.102c1.725 0 3.123-.988 3.123-2.207 0-1.218-1.398-2.207-3.123-2.207-1.724 0-3.122.989-3.122 2.207 0 1.219 1.398 2.207 3.122 2.207zM445.35 103.063h-.014c-4.608 0-8.343 3.466-8.343 7.741v3.379c0 4.275 3.735 7.741 8.343 7.741h.014c4.607 0 8.342-3.466 8.342-7.741v-3.379c0-4.275-3.735-7.741-8.342-7.741z" fill="#fff"/>
    <path d="M443.869 113.102c1.725 0 3.123-.988 3.123-2.207 0-1.218-1.398-2.207-3.123-2.207-1.724 0-3.122.989-3.122 2.207 0 1.219 1.398 2.207 3.122 2.207z" fill="#fff"/>
    <path d="M278.241 225.716h-12.412a2.34 2.34 0 01-1.509-.55 2.031 2.031 0 01-.715-1.35l-2.674-30a.623.623 0 01.182-.498.707.707 0 01.52-.211h20.803a.722.722 0 01.52.208.667.667 0 01.152.232.603.603 0 01.037.269l-1.789 19.765a.638.638 0 01-.245.445.737.737 0 01-.513.154.72.72 0 01-.48-.227.623.623 0 01-.165-.476l1.698-19.062h-19.239l2.617 29.296c.017.19.111.366.261.495a.859.859 0 00.553.202h12.412a.854.854 0 00.552-.202.743.743 0 00.262-.495l.652-7.291a.649.649 0 01.247-.448.75.75 0 01.518-.151.707.707 0 01.483.229c.06.066.105.143.133.225a.602.602 0 01.029.256l-.652 7.285a2.028 2.028 0 01-.721 1.354 2.34 2.34 0 01-1.517.546z" fill="#181828"/>
    <path d="M285.741 190.933h-27.406v3.059h27.406v-3.059z" fill="#fff"/>
    <path d="M284.085 194.76h-24.101a2.42 2.42 0 01-1.647-.633 2.084 2.084 0 01-.682-1.528c0-.573.245-1.123.682-1.528a2.42 2.42 0 011.647-.633h24.101c.618 0 1.21.227 1.647.633.437.405.683.955.683 1.528 0 .573-.246 1.123-.683 1.528a2.42 2.42 0 01-1.647.633zm-24.101-3.06c-.257 0-.503.095-.685.264a.867.867 0 00-.283.635c0 .238.102.467.283.635.182.169.428.263.685.263h24.101c.257 0 .503-.094.685-.263a.867.867 0 00.283-.635.867.867 0 00-.283-.635 1.007 1.007 0 00-.685-.264h-24.101z" fill="#181828"/>
    <path d="M275.172 198.739c.075 0 .137-.057.137-.127 0-.071-.062-.128-.137-.128-.076 0-.138.057-.138.128 0 .07.062.127.138.127z" fill="#fff"/>
    <path d="M276.865 200.288c.144 0 .26-.108.26-.241s-.116-.241-.26-.241c-.143 0-.259.108-.259.241s.116.241.259.241z" fill="#C0DBE2"/>
    <path d="M260.272 199.142l.891 10.826h22.038l1.017-10.826h-23.946z" fill="#F7B14B"/>
    <path d="M283.075 210.977h-22.067a.724.724 0 01-.479-.174.63.63 0 01-.222-.431l-.884-10.827a.6.6 0 01.036-.265.645.645 0 01.148-.229.708.708 0 01.235-.155.752.752 0 01.282-.054h23.94a.757.757 0 01.287.053.688.688 0 01.239.156.617.617 0 01.183.501l-1.018 10.827a.632.632 0 01-.216.42.727.727 0 01-.464.178zm-21.386-1.302h20.74l.891-9.518h-22.41l.779 9.518z" fill="#181828"/>
    <path d="M226.284 213.51h-78.849v11.367h78.849V213.51z" fill="#0078E7"/>
    <path d="M226.292 225.827h-78.857a1.08 1.08 0 01-.391-.072 1.026 1.026 0 01-.331-.206.937.937 0 01-.22-.309.88.88 0 01-.076-.363v-11.341c0-.25.107-.49.298-.667.191-.178.45-.277.72-.277h78.857a1.083 1.083 0 01.733.269.963.963 0 01.226.309c.052.116.079.24.079.366v11.367a.905.905 0 01-.313.662 1.076 1.076 0 01-.725.262zm-77.833-1.875h76.808v-9.492h-76.808v9.492z" fill="#181828"/>
    <path d="M81.172 230.215h362.535c0 5.222-2.236 10.229-6.215 13.921-3.979 3.692-9.375 5.766-15.003 5.766H102.397c-5.628 0-11.024-2.074-15.003-5.766-3.98-3.692-6.215-8.699-6.215-13.921h-.007z" fill="#4020FF"/>
    <path d="M422.49 249.993H102.397c-5.841-.007-11.44-2.163-15.57-5.995-4.13-3.832-6.454-9.027-6.462-14.447a.738.738 0 01.262-.488.849.849 0 01.549-.197c.202 0 .398.07.548.197.15.127.243.301.262.488.006 5.021 2.158 9.835 5.984 13.386 3.827 3.55 9.015 5.547 14.427 5.552H422.49c5.411-.005 10.599-2.002 14.426-5.552 3.826-3.551 5.979-8.365 5.984-13.386 0-.198.085-.389.236-.529a.84.84 0 01.571-.22.84.84 0 01.571.22c.151.14.236.331.236.529-.006 5.419-2.328 10.615-6.457 14.447-4.129 3.832-9.727 5.988-15.567 5.995z" fill="#181828"/>
    <path d="M454.226 143.857H410.24c-6.278 0-11.367 4.722-11.367 10.547v59.725c0 5.824 5.089 10.546 11.367 10.546h43.986c6.277 0 11.366-4.722 11.366-10.546v-59.725c0-5.825-5.089-10.547-11.366-10.547z" fill="#63456B"/>
    <path d="M418.049 224.2h-7.816c-3.013 0-5.902-1.111-8.033-3.087-2.13-1.977-3.327-4.658-3.327-7.453v-59.725a9.893 9.893 0 01.863-4.036 10.515 10.515 0 012.462-3.421 11.442 11.442 0 013.686-2.287 12.133 12.133 0 014.349-.803h7.816c-3.015 0-5.906 1.111-8.037 3.089-2.132 1.978-3.33 4.661-3.33 7.458v59.725c0 1.385.295 2.756.866 4.035a10.532 10.532 0 002.464 3.42 11.454 11.454 0 003.688 2.284c1.379.53 2.857.802 4.349.801z" fill="#63456B"/>
    <path opacity=".5" d="M432.229 170.145c2.786 0 5.045-2.095 5.045-4.681 0-2.585-2.259-4.681-5.045-4.681s-5.045 2.096-5.045 4.681c0 2.586 2.259 4.681 5.045 4.681zM432.229 204.005c6.065 0 10.981-4.562 10.981-10.189s-4.916-10.188-10.981-10.188c-6.064 0-10.98 4.561-10.98 10.188 0 5.627 4.916 10.189 10.98 10.189z" fill="#181828"/>
    <path d="M454.225 225.684H410.24c-3.302-.003-6.468-1.222-8.802-3.388-2.335-2.167-3.648-5.104-3.652-8.168v-59.725c.004-3.063 1.317-6.001 3.652-8.167 2.334-2.166 5.5-3.385 8.802-3.388h43.985c3.302.003 6.468 1.222 8.803 3.388 2.334 2.166 3.648 5.104 3.651 8.167v59.725c-.003 3.064-1.317 6.001-3.651 8.168-2.335 2.166-5.501 3.385-8.803 3.388zm-43.985-80.812a10.997 10.997 0 00-3.94.72 10.385 10.385 0 00-3.342 2.064 9.54 9.54 0 00-2.236 3.094 8.956 8.956 0 00-.789 3.653v59.725c.002 2.529 1.085 4.954 3.013 6.743 1.927 1.788 4.54 2.793 7.266 2.795h43.985c2.727 0 5.342-1.005 7.271-2.793 1.929-1.789 3.013-4.215 3.015-6.745v-59.725c-.003-2.526-1.087-4.949-3.012-6.735-1.926-1.787-4.537-2.792-7.26-2.796H410.24z" fill="#181828"/>
    <path opacity=".5" d="M98.629 172.079c3.937 0 7.128-2.962 7.128-6.615s-3.191-6.614-7.128-6.614c-3.937 0-7.129 2.961-7.129 6.614s3.192 6.615 7.129 6.615z" fill="#181828"/>
    <path opacity=".5" d="M98.629 170.145c2.786 0 5.045-2.095 5.045-4.681 0-2.585-2.259-4.681-5.045-4.681s-5.045 2.096-5.045 4.681c0 2.586 2.259 4.681 5.045 4.681z" fill="#181828"/>
    <path d="M98.629 172.873a8.425 8.425 0 01-4.427-1.264c-1.308-.818-2.326-1.977-2.925-3.332a6.913 6.913 0 01-.44-4.278c.312-1.435 1.075-2.752 2.193-3.785a8.201 8.201 0 014.09-2.018 8.563 8.563 0 014.608.427c1.457.562 2.701 1.511 3.577 2.729a7.035 7.035 0 011.344 4.113 6.965 6.965 0 01-.613 2.841 7.408 7.408 0 01-1.741 2.407 8.064 8.064 0 01-2.601 1.604 8.515 8.515 0 01-3.065.556zm0-13.235a6.63 6.63 0 00-3.49.979 5.945 5.945 0 00-2.317 2.613 5.439 5.439 0 00-.36 3.367 5.705 5.705 0 001.717 2.985 6.446 6.446 0 003.215 1.597 6.735 6.735 0 003.629-.331 6.197 6.197 0 002.82-2.146 5.532 5.532 0 001.058-3.237c-.009-1.542-.672-3.018-1.846-4.109-1.175-1.091-2.765-1.708-4.426-1.718z" fill="#181828"/>
    <path opacity=".5" d="M98.629 204.005c6.064 0 10.98-4.562 10.98-10.189s-4.916-10.188-10.98-10.188c-6.065 0-10.98 4.561-10.98 10.188 0 5.627 4.915 10.189 10.98 10.189z" fill="#181828"/>
    <path d="M80.52 153.948a2.77 2.77 0 01-1.457-.407 2.475 2.475 0 01-.967-1.089 2.267 2.267 0 01-.15-1.405c.1-.471.35-.905.716-1.245a2.69 2.69 0 011.342-.665 2.817 2.817 0 011.513.14c.479.185.888.497 1.175.897.287.401.44.871.438 1.352a2.34 2.34 0 01-.767 1.71c-.489.454-1.152.71-1.843.712zm0-3.64a1.389 1.389 0 00-.731.202 1.244 1.244 0 00-.487.545c-.1.223-.127.468-.077.704.05.237.174.454.357.625.184.171.417.288.672.335.255.048.519.024.76-.068.24-.092.445-.248.59-.448.144-.2.22-.436.22-.677 0-.322-.137-.631-.381-.859a1.367 1.367 0 00-.923-.359zM116.731 153.948a2.767 2.767 0 01-1.455-.41 2.482 2.482 0 01-.964-1.091 2.27 2.27 0 01-.147-1.404c.101-.471.351-.904.718-1.243.367-.339.834-.57 1.342-.663a2.802 2.802 0 011.512.141c.478.185.887.497 1.173.897.287.4.439.87.438 1.351a2.343 2.343 0 01-.769 1.713 2.724 2.724 0 01-1.848.709zm0-3.64a1.39 1.39 0 00-.731.202 1.24 1.24 0 00-.486.545 1.132 1.132 0 00-.078.704c.05.237.174.454.358.625.183.171.417.288.671.335.255.048.519.024.759-.068.241-.092.446-.248.59-.448.145-.2.222-.436.222-.677 0-.322-.137-.631-.382-.859a1.365 1.365 0 00-.923-.359zM116.731 219.792a2.75 2.75 0 01-1.448-.411 2.471 2.471 0 01-.958-1.088 2.254 2.254 0 01-.146-1.399c.101-.469.351-.9.716-1.238.365-.338.83-.568 1.336-.661a2.792 2.792 0 011.507.139c.477.183.884.494 1.171.892.286.398.439.866.439 1.345a2.342 2.342 0 01-.769 1.712 2.723 2.723 0 01-1.848.709zm0-3.632c-.258 0-.51.071-.725.204a1.235 1.235 0 00-.481.543 1.139 1.139 0 00-.074.7c.05.235.175.45.357.62.183.169.415.284.668.331.254.047.516.023.754-.069.239-.091.443-.247.586-.446.144-.199.22-.433.22-.672a1.137 1.137 0 00-.093-.47 1.205 1.205 0 00-.282-.399 1.299 1.299 0 00-.426-.268 1.391 1.391 0 00-.504-.094v.02z" fill="#181828"/>
    <path d="M74.858 178.153c0-.784-.685-1.419-1.53-1.419s-1.53.635-1.53 1.419v9.589c0 .784.685 1.42 1.53 1.42s1.53-.636 1.53-1.42v-9.589z" fill="#63456B"/>
    <path d="M129.929 161.467h-.786c-.628 0-1.137.472-1.137 1.055v10.318c0 .583.509 1.055 1.137 1.055h.786c.627 0 1.136-.472 1.136-1.055v-10.318c0-.583-.509-1.055-1.136-1.055zM129.929 200.646h-.786c-.628 0-1.137.472-1.137 1.054v10.319c0 .583.509 1.055 1.137 1.055h.786c.627 0 1.136-.472 1.136-1.055V201.7c0-.582-.509-1.054-1.136-1.054z" fill="#928F93"/>
    <path d="M232.389 223.894a10.935 10.935 0 01.706-4.719 11.585 11.585 0 012.672-4.067 12.675 12.675 0 014.196-2.745 13.474 13.474 0 015.027-.968c1.729 0 3.44.329 5.027.968a12.675 12.675 0 014.196 2.745 11.585 11.585 0 012.672 4.067c.581 1.512.822 3.118.706 4.719" fill="#63456B"/>
    <path d="M343.058 35.396c-.093 4.42-2.052 8.631-5.454 11.727-3.403 3.095-7.978 4.83-12.743 4.83-4.765 0-9.34-1.735-12.742-4.83-3.403-3.096-5.361-7.306-5.455-11.727 0-9.329 8.146-17.695 18.194-17.695 10.047 0 18.2 8.34 18.2 17.695z" fill="#E89176"/>
    <path d="M342.16 35.917a15.585 15.585 0 01-.526 3.626h-.814c-4.76.007-9.474-.86-13.872-2.55-4.397-1.691-8.391-4.172-11.752-7.3a34.664 34.664 0 01-4.785-5.482 17.025 17.025 0 011.628-1.49 34.284 34.284 0 003.157 3.346c3.361 3.128 7.355 5.608 11.752 7.299a38.562 38.562 0 0013.872 2.551h1.34z" fill="#CE7057"/>
    <path d="M324.858 53.17c-3.454-.004-6.843-.874-9.807-2.519-2.965-1.644-5.395-4.003-7.033-6.824a.838.838 0 01-.073-.675.903.903 0 01.463-.526c.223-.112.485-.136.728-.068a.945.945 0 01.566.429c1.823 3.134 4.721 5.613 8.234 7.047a18.49 18.49 0 0011.162.868c3.722-.871 7.023-2.87 9.383-5.678 2.359-2.808 3.642-6.267 3.644-9.828 0-9.114-7.9-16.81-17.246-16.81-9.346 0-17.24 7.696-17.24 16.81 0 1.4.196 2.794.583 4.147a.838.838 0 01-.097.672.906.906 0 01-.246.26.982.982 0 01-.334.152 1.028 1.028 0 01-.725-.09.937.937 0 01-.279-.228.86.86 0 01-.164-.31 16.412 16.412 0 01-.653-4.603c0-10.078 8.771-18.587 19.155-18.587s19.162 8.51 19.162 18.587c-.008 4.716-2.032 9.237-5.629 12.57-3.596 3.331-8.471 5.203-13.554 5.203z" fill="#181828"/>
    <path d="M366.17 47.147c0 4.479 1.918 8.774 5.331 11.941 3.413 3.167 8.043 4.947 12.87 4.947s9.456-1.78 12.869-4.947c3.413-3.167 5.331-7.462 5.331-11.941 0-9.33-8.146-17.695-18.2-17.695-10.055 0-18.201 8.366-18.201 17.695z" fill="#E89176"/>
    <path d="M367.068 47.668a15.59 15.59 0 00.533 3.626h.814c6.043-.004 11.989-1.408 17.298-4.085 5.31-2.678 9.814-6.544 13.104-11.247a17.932 17.932 0 00-1.621-1.458c-.975 1.178-3.445.313-4.574 1.36-6.554 6.088-14.201 11.836-24.207 11.836l-1.347-.032z" fill="#CE7057"/>
    <path d="M384.371 64.92c-5.078-.007-9.946-1.882-13.537-5.213-3.59-3.332-5.611-7.848-5.618-12.56 0-10.078 8.77-18.587 19.155-18.587 10.384 0 19.154 8.51 19.154 18.587a16.755 16.755 0 01-.645 4.61.915.915 0 01-.458.498 1.028 1.028 0 01-.701.074.958.958 0 01-.567-.39.839.839 0 01-.127-.645c.393-1.352.591-2.746.59-4.147 0-9.114-7.901-16.81-17.246-16.81-9.346 0-17.24 7.696-17.24 16.81.003 3.561 1.285 7.02 3.645 9.828 2.359 2.808 5.661 4.806 9.382 5.678a18.49 18.49 0 0011.162-.868c3.514-1.433 6.411-3.913 8.234-7.047a.944.944 0 01.567-.43 1.02 1.02 0 01.727.069c.224.111.39.3.463.525a.83.83 0 01-.073.676c-1.641 2.825-4.075 5.185-7.045 6.83-2.97 1.645-6.364 2.513-9.822 2.512z" fill="#181828"/>
    <path d="M314.941 224.44l-37.26.471 11.185-60.818a15.876 15.876 0 012.54-6.13 16.893 16.893 0 014.892-4.689 18.388 18.388 0 016.497-2.535 19.526 19.526 0 017.113.007 19.547 19.547 0 016.646 2.548 18.483 18.483 0 015.167 4.699 16.978 16.978 0 012.9 6.136c.53 2.191.596 4.447.192 6.637l-9.872 53.674z" fill="#0078E7"/>
    <path d="M277.542 225.667a.896.896 0 01-.5-.272.815.815 0 01-.178-.314.763.763 0 01-.02-.352l11.185-60.817c.852-4.631 3.651-8.703 7.781-11.322 4.131-2.619 9.255-3.57 14.245-2.644 4.99.927 9.438 3.654 12.364 7.583 2.926 3.929 4.092 8.738 3.24 13.368l-9.876 53.699a.759.759 0 01-.288.459.87.87 0 01-.542.175l-37.239.469a.915.915 0 01-.172-.032zm32.232-74.191c-4.544-.838-9.208.031-12.968 2.416s-6.31 6.092-7.089 10.306l-11.013 59.883 35.545-.419 9.761-53.071c.383-2.09.318-4.242-.191-6.333a16.193 16.193 0 00-2.773-5.851 17.63 17.63 0 00-4.934-4.48 18.676 18.676 0 00-6.343-2.425l.005-.026z" fill="#181828"/>
    <path d="M359.644 129.554c7.836 0 15.351 2.888 20.892 8.03 5.541 5.141 8.654 12.114 8.654 19.385v72.589H289.144v-34.589c0-17.349 7.428-33.988 20.649-46.255 13.221-12.268 31.153-19.16 49.851-19.16z" fill="#0078E7"/>
    <path d="M389.093 157.483v69.321h-7.403v-62.499c.009-1.814.794-3.552 2.182-4.831 1.387-1.279 3.265-1.995 5.221-1.991z" fill="#F4A031"/>
    <path d="M389.19 230.352H289.144a.888.888 0 01-.608-.23.8.8 0 01-.185-.259.735.735 0 01-.063-.305v-34.589c.02-17.554 7.545-34.384 20.922-46.796 13.378-12.413 31.516-19.394 50.434-19.413 8.06.007 15.787 2.98 21.487 8.267 5.7 5.288 8.906 12.457 8.915 19.935v72.596c0 .211-.09.413-.251.562a.888.888 0 01-.605.232zM290 228.764h98.334v-71.802c-.009-7.057-3.035-13.823-8.413-18.814-5.379-4.99-12.671-7.798-20.277-7.806-18.465.02-36.167 6.836-49.224 18.952-13.056 12.116-20.4 28.542-20.42 45.675v33.795z" fill="#181828"/>
    <path d="M387.275 147.652h-.007c-8.099 0-14.664 6.092-14.664 13.607v47.713c0 7.515 6.565 13.607 14.664 13.607h.007c8.099 0 14.664-6.092 14.664-13.607v-47.713c0-7.515-6.565-13.607-14.664-13.607z" fill="#0078E7"/>
    <path d="M387.303 223.373c-4.118.002-8.068-1.513-10.984-4.212-2.915-2.699-4.556-6.361-4.564-10.182v-47.72c0-3.819 1.635-7.482 4.546-10.183 2.91-2.701 6.858-4.218 10.974-4.218 4.116 0 8.064 1.517 10.975 4.218 2.91 2.701 4.545 6.364 4.545 10.183v47.72c-.007 3.812-1.641 7.466-4.544 10.164-2.903 2.697-6.839 4.218-10.948 4.23zm0-74.939c-3.661.003-7.172 1.354-9.762 3.756-2.59 2.401-4.047 5.658-4.053 9.056v47.733c0 3.4 1.456 6.66 4.047 9.064 2.59 2.404 6.104 3.755 9.768 3.755 3.664 0 7.178-1.351 9.769-3.755s4.046-5.664 4.046-9.064v-47.72c-.001-3.4-1.457-6.66-4.048-9.065-2.59-2.404-6.103-3.757-9.767-3.76z" fill="#181828"/>
    <path d="M393.183 226.016c6.863 0 12.426-5.16 12.426-11.526s-5.563-11.527-12.426-11.527h-55.899c-6.863 0-12.426 5.161-12.426 11.527s5.563 11.526 12.426 11.526h55.899z" fill="#0078E7"/>
    <path d="M393.183 226.811h-55.899c-3.469-.074-6.769-1.405-9.194-3.707-2.425-2.303-3.783-5.395-3.783-8.614 0-3.22 1.358-6.311 3.783-8.614 2.425-2.302 5.725-3.633 9.194-3.707h55.899a14.208 14.208 0 015.176.856 13.42 13.42 0 014.412 2.651 12.34 12.34 0 012.959 4.032 11.575 11.575 0 011.04 4.782c0 1.642-.354 3.268-1.04 4.781a12.333 12.333 0 01-2.959 4.033 13.42 13.42 0 01-4.412 2.651 14.208 14.208 0 01-5.176.856zm-55.899-23.04c-3.071 0-6.015 1.132-8.186 3.146-2.171 2.015-3.391 4.747-3.391 7.596s1.22 5.581 3.391 7.595c2.171 2.015 5.115 3.147 8.186 3.147h55.899c3.07 0 6.015-1.132 8.186-3.147 2.171-2.014 3.391-4.746 3.391-7.595 0-2.849-1.22-5.581-3.391-7.596-2.171-2.014-5.116-3.146-8.186-3.146h-55.899z" fill="#181828"/>
    <path d="M321.343 226.238c8.742 0 15.829-5.136 15.829-11.472 0-6.335-7.087-11.471-15.829-11.471s-15.829 5.136-15.829 11.471c0 6.336 7.087 11.472 15.829 11.472z" fill="#FDC6A2"/>
    <path d="M321.35 226.967c-4.603 0-9.185-1.381-12.454-4.076-2.912-2.409-4.4-5.514-4.175-8.737.225-3.365 2.259-6.425 5.718-8.626a.856.856 0 01.898-.009.775.775 0 01.225.205c.06.081.102.172.124.269a.703.703 0 01-.114.563.76.76 0 01-.221.209c-3.038 1.953-4.827 4.557-5.023 7.481-.19 2.76 1.108 5.429 3.641 7.525 5.501 4.558 15.078 4.987 21.351.996 3.038-1.953 4.82-4.589 5.024-7.48.182-2.76-1.109-5.429-3.649-7.526a.726.726 0 01-.269-.516.717.717 0 01.202-.542.851.851 0 011.141-.061c2.918 2.408 4.399 5.514 4.209 8.736-.231 3.366-2.259 6.426-5.718 8.626-3.236 1.978-7.036 3.01-10.91 2.963zM103.954 229.896h40.807v-35.63h-40.807v35.63z" fill="#181828"/>
    <path d="M144.761 230.704h-40.807a.915.915 0 01-.613-.239.785.785 0 01-.257-.569v-35.63a.77.77 0 01.255-.571.892.892 0 01.615-.237h40.807a.915.915 0 01.616.237.82.82 0 01.188.262.753.753 0 01.066.309v35.63a.784.784 0 01-.256.569.916.916 0 01-.614.239zm-39.937-1.615h39.067v-34.016h-39.067v34.016z" fill="#181828"/>
    <path d="M112.297 229.896h40.807v-35.63h-40.807v35.63z" fill="#0078E7"/>
    <path d="M153.104 230.704h-40.807a.906.906 0 01-.616-.237.779.779 0 01-.254-.571v-35.63a.785.785 0 01.252-.573.872.872 0 01.284-.175.922.922 0 01.334-.059h40.807a.892.892 0 01.615.236.77.77 0 01.255.571v35.63a.785.785 0 01-.257.569.915.915 0 01-.613.239zm-39.937-1.615h39.088v-34.016h-39.088v34.016z" fill="#181828"/>
    <path d="M41.852 205.099h165.586c4.619 0 8.364-3.475 8.364-7.761V92.38c0-4.286-3.745-7.76-8.364-7.76H41.853c-4.62 0-8.364 3.474-8.364 7.76v104.958c0 4.286 3.744 7.761 8.364 7.761z" fill="#181828"/>
    <path d="M207.438 205.906H41.853c-2.448-.004-4.795-.907-6.525-2.513-1.731-1.606-2.705-3.783-2.709-6.055V92.38c.004-2.271.978-4.448 2.709-6.054 1.73-1.606 4.077-2.51 6.524-2.513h82.092a.884.884 0 01.615.236.769.769 0 01.189.88.807.807 0 01-.189.262.883.883 0 01-.282.175.932.932 0 01-.333.061H41.853c-1.984.007-3.883.742-5.284 2.045-1.4 1.303-2.187 3.068-2.189 4.908v104.958c.002 1.841.79 3.605 2.19 4.908 1.4 1.303 3.3 2.038 5.282 2.045h165.586c1.987-.001 3.892-.734 5.297-2.038 1.405-1.304 2.195-3.071 2.197-4.915V92.38c-.002-1.843-.792-3.61-2.197-4.914-1.405-1.304-3.31-2.037-5.297-2.039h-30.991a.932.932 0 01-.333-.061.883.883 0 01-.282-.175.769.769 0 01-.189-.88.807.807 0 01.189-.262.884.884 0 01.282-.175.932.932 0 01.333-.061h30.991c2.448.003 4.795.907 6.525 2.513 1.731 1.606 2.705 3.783 2.709 6.054v104.958c-.004 2.272-.978 4.449-2.709 6.055-1.73 1.606-4.077 2.509-6.525 2.513z" fill="#181828"/>
    <path d="M49.774 205.099H215.36c4.619 0 8.364-3.475 8.364-7.761V92.38c0-4.286-3.745-7.76-8.364-7.76H49.774c-4.619 0-8.363 3.474-8.363 7.76v104.958c0 4.286 3.744 7.761 8.363 7.761z" fill="#4020FF"/>
    <path d="M54.987 200.268h157.889c3.077 0 5.571-2.314 5.571-5.169V96.176c0-2.855-2.494-5.17-5.571-5.17H54.987c-3.077 0-5.57 2.315-5.57 5.17v98.923c0 2.855 2.493 5.169 5.57 5.169z" fill="#B4E4F9"/>
    <path d="M117.685 213.79c.167 0 .302-.125.302-.28 0-.155-.135-.28-.302-.28-.166 0-.301.125-.301.28 0 .155.135.28.301.28z" fill="#0078E7" fill-opacity=".7"/>
    <path d="M213.115 189.585c0 1.215 1.062 2.2 2.371 2.2 1.31 0 2.372-.985 2.372-2.2v-56.952c0-1.215-1.062-2.2-2.372-2.2-1.309 0-2.371.985-2.371 2.2v56.952zM217.865 102.699c0-1.215-1.062-2.2-2.372-2.2-1.31 0-2.371.985-2.371 2.2v15c0 1.215 1.061 2.2 2.371 2.2s2.372-.985 2.372-2.2v-15z" fill="#B4E4F9"/>
    <path d="M212.876 201.076H88.062a.903.903 0 01-.615-.237.779.779 0 01-.255-.571.78.78 0 01.255-.571.907.907 0 01.615-.236h124.814c1.246-.002 2.441-.462 3.322-1.279.881-.818 1.377-1.927 1.379-3.083V96.143c-.002-1.156-.498-2.264-1.379-3.082-.881-.818-2.076-1.278-3.322-1.28h-33.208a.926.926 0 01-.616-.236.821.821 0 01-.188-.262.752.752 0 010-.618.821.821 0 01.471-.437.926.926 0 01.333-.061h33.208c1.708.002 3.345.632 4.552 1.752 1.208 1.12 1.887 2.64 1.889 4.224V195.1c-.002 1.585-.681 3.104-1.889 4.224-1.207 1.121-2.844 1.751-4.552 1.753zM81.116 201.076H54.987c-1.708-.002-3.345-.632-4.552-1.753-1.208-1.12-1.887-2.639-1.889-4.224V163.85a.78.78 0 01.255-.571.907.907 0 01.615-.236c.23 0 .452.085.615.236a.78.78 0 01.255.571v31.249c.002 1.157.498 2.265 1.38 3.083.88.817 2.075 1.277 3.321 1.279h26.129c.23 0 .452.085.615.237a.776.776 0 01.255.57c0 .214-.092.42-.255.571a.903.903 0 01-.615.237z" fill="#181828"/>
    <path d="M45.494 100.844V97.83c0-1.004-.876-1.817-1.958-1.817h-.007c-1.08 0-1.957.813-1.957 1.816v3.015c0 1.003.876 1.816 1.957 1.816h.007c1.082 0 1.958-.813 1.958-1.816zM45.494 168.804v-5.703c0-1.003-.876-1.816-1.958-1.816h-.007c-1.08 0-1.957.813-1.957 1.816v5.703c0 1.003.876 1.816 1.957 1.816h.007c1.082 0 1.958-.813 1.958-1.816zM45.494 124.723v-3.014c0-1.003-.876-1.816-1.958-1.816h-.007c-1.08 0-1.957.813-1.957 1.816v3.014c0 1.003.876 1.817 1.957 1.817h.007c1.082 0 1.958-.814 1.958-1.817z" fill="#4020FF"/>
    <path d="M215.36 205.906H49.774c-2.448-.004-4.794-.907-6.525-2.513-1.73-1.606-2.705-3.783-2.709-6.055V92.38c.004-2.271.978-4.448 2.71-6.054 1.73-1.606 4.076-2.51 6.524-2.513h108.557c.114 0 .227.02.333.061.106.04.201.1.282.175a.807.807 0 01.189.262.752.752 0 010 .618.807.807 0 01-.189.262.872.872 0 01-.282.175.932.932 0 01-.333.061H49.774c-1.987.002-3.892.735-5.297 2.039-1.404 1.303-2.195 3.07-2.196 4.914v104.958c.001 1.844.791 3.611 2.196 4.915 1.405 1.304 3.31 2.037 5.297 2.038H215.36c1.987-.001 3.892-.734 5.297-2.038 1.405-1.304 2.195-3.071 2.196-4.915V92.38c-.001-1.843-.791-3.61-2.196-4.914-1.405-1.304-3.31-2.037-5.297-2.039h-50.427a.922.922 0 01-.615-.236.79.79 0 01-.255-.571.79.79 0 01.255-.57.922.922 0 01.615-.236h50.427c2.448.002 4.794.906 6.525 2.512 1.731 1.606 2.705 3.783 2.709 6.054v104.958c-.004 2.272-.978 4.449-2.709 6.055-1.731 1.606-4.077 2.509-6.525 2.513z" fill="#181828"/>
    <g opacity=".15" fill="#1B3C47">
      <path opacity=".15" d="M282.387 125.218h-3.992c-.294 0-.576-.108-.784-.301a.993.993 0 01-.325-.727c0-.273.117-.535.325-.728.208-.193.49-.301.784-.301h3.992c.294 0 .576.108.784.301a.994.994 0 01.325.728.993.993 0 01-.325.727c-.208.193-.49.301-.784.301zM285.467 125.218h-.084c-.294 0-.576-.108-.784-.301a.993.993 0 01-.325-.727c0-.273.117-.535.325-.728.208-.193.49-.301.784-.301h.084c.294 0 .576.108.784.301a.994.994 0 01.325.728.993.993 0 01-.325.727c-.208.193-.49.301-.784.301z"/>
    </g>
    <g opacity=".15" fill="#1B3C47">
      <path opacity=".15" d="M446.241 67.14h-3.999a1.19 1.19 0 01-.425-.078 1.122 1.122 0 01-.359-.223.976.976 0 01-.241-1.121c.056-.125.138-.238.241-.334.103-.095.225-.171.359-.223.135-.051.279-.078.425-.078h3.999c.145 0 .29.027.424.078.135.052.257.128.36.223.103.096.184.21.24.334a.96.96 0 010 .787 1.03 1.03 0 01-.24.334 1.115 1.115 0 01-.36.223 1.185 1.185 0 01-.424.078zM449.314 67.14h-.084c-.294 0-.576-.108-.784-.301a.993.993 0 01-.325-.727c0-.273.117-.535.325-.728.208-.193.49-.301.784-.301h.084c.294 0 .576.108.784.301a.991.991 0 01.324.728.992.992 0 01-.324.727c-.208.193-.49.301-.784.301z"/>
    </g>
    <path d="M207.396 225.189h-8.23a.68.68 0 01-.461-.177.583.583 0 01-.191-.428.58.58 0 01.191-.428.676.676 0 01.461-.178h8.23a.68.68 0 01.462.178.584.584 0 01.191.428c0 .16-.069.314-.191.428a.684.684 0 01-.462.177zM207.396 228.321h-8.23a.714.714 0 01-.272-.027.678.678 0 01-.237-.127.614.614 0 01-.161-.206.567.567 0 010-.498.664.664 0 01.398-.333.734.734 0 01.272-.027h8.23a.681.681 0 01.422.199c.11.113.17.259.17.41 0 .151-.06.298-.17.41a.681.681 0 01-.422.199z" fill="#181828"/>
    <path d="M184.355 231.862c.542 0 .982-.617.982-1.38 0-.762-.44-1.38-.982-1.38-.543 0-.983.618-.983 1.38 0 .763.44 1.38.983 1.38zM184.067 234.564c.384 0 .695-.288.695-.644 0-.356-.311-.645-.695-.645-.384 0-.695.289-.695.645 0 .356.311.644.695.644z" fill="#fff"/>
    <path d="M209.228 233.802c.395 0 .715-.297.715-.664 0-.366-.32-.664-.715-.664-.396 0-.716.298-.716.664 0 .367.32.664.716.664z" fill="#181828"/>
    <path d="M450.443 224.337H72.675c-2.898 0-5.248 2.178-5.248 4.866 0 2.688 2.35 4.866 5.248 4.866h377.768c2.898 0 5.248-2.178 5.248-4.866 0-2.688-2.35-4.866-5.248-4.866z" fill="#F7B14B"/>
    <path d="M450.443 224.337H72.675c-2.898 0-5.248 2.178-5.248 4.866 0 2.688 2.35 4.866 5.248 4.866h377.768c2.898 0 5.248-2.178 5.248-4.866 0-2.688-2.35-4.866-5.248-4.866z" fill="#D17E1C"/>
    <path d="M384.139 224.916h-14.033a.84.84 0 01-.57-.219.722.722 0 01-.237-.53.72.72 0 01.237-.529.836.836 0 01.57-.22h14.033c.214 0 .419.079.57.22a.72.72 0 01.237.529.722.722 0 01-.237.53.84.84 0 01-.57.219zM82.723 228.269H67.876a.649.649 0 01-.398-.189.559.559 0 01-.16-.388c0-.143.057-.281.16-.387a.644.644 0 01.398-.189h14.847a.683.683 0 01.258.025.63.63 0 01.226.121.572.572 0 01.206.43.572.572 0 01-.207.431.63.63 0 01-.225.121c-.083.025-.171.033-.258.025z" fill="#181828"/>
    <path d="M313.547 65.473l4.673.085c2.918.062 5.692 1.191 7.716 3.142 2.024 1.952 3.135 4.566 3.089 7.274a9.597 9.597 0 01-.9 3.9 10.23 10.23 0 01-2.443 3.282 11.127 11.127 0 01-3.612 2.163 11.76 11.76 0 01-4.229.714l-4.673-.085c-2.92-.058-5.697-1.186-7.724-3.138-2.027-1.951-3.14-4.568-3.095-7.278a9.59 9.59 0 01.91-3.894 10.236 10.236 0 012.446-3.273 11.125 11.125 0 013.611-2.156 11.757 11.757 0 014.224-.71l.007-.026z" fill="#FDC6A2"/>
    <path d="M317.666 86.788h-.211l-4.687-.084a12.626 12.626 0 01-6.672-2.021c-1.957-1.276-3.457-3.067-4.308-5.14a.833.833 0 01.023-.68.936.936 0 01.531-.467 1.025 1.025 0 01.733.02.95.95 0 01.304.2.877.877 0 01.198.295c.711 1.748 1.971 3.258 3.617 4.334a10.591 10.591 0 005.616 1.7l4.659.092c2.644.002 5.184-.959 7.072-2.676 1.889-1.717 2.975-4.054 3.026-6.507.05-2.453-.939-4.826-2.755-6.61-1.816-1.782-4.314-2.833-6.957-2.924l-4.666-.091c-1.837-.04-3.65.39-5.241 1.243a1.004 1.004 0 01-.724.092.987.987 0 01-.334-.152.906.906 0 01-.247-.259.837.837 0 01-.099-.674.906.906 0 01.443-.543 12.66 12.66 0 016.244-1.478l4.666.085c3.137.092 6.109 1.32 8.281 3.421 2.173 2.101 3.372 4.908 3.342 7.82-.03 2.91-1.288 5.695-3.504 7.757-2.215 2.062-5.213 3.237-8.35 3.273v-.026z" fill="#181828"/>
    <path d="M390.812 65.473l4.672.085c2.921.058 5.698 1.186 7.725 3.138 2.027 1.952 3.14 4.568 3.095 7.278a9.591 9.591 0 01-.91 3.894 10.236 10.236 0 01-2.446 3.274 11.127 11.127 0 01-3.611 2.155 11.76 11.76 0 01-4.224.71l-4.666-.085c-2.926-.048-5.711-1.17-7.747-3.12-2.036-1.95-3.156-4.569-3.115-7.283a9.595 9.595 0 01.913-3.901 10.236 10.236 0 012.456-3.278 11.142 11.142 0 013.622-2.154 11.765 11.765 0 014.236-.7v-.013z" fill="#FDC6A2"/>
    <path d="M395.274 86.801h-.204l-4.693-.09c-3.178-.07-6.197-1.3-8.4-3.426-2.203-2.126-3.411-4.974-3.36-7.922.055-2.905 1.335-5.673 3.565-7.712 2.23-2.038 5.232-3.185 8.363-3.193h.267l4.665.085c3.181.024 6.22 1.22 8.45 3.323 2.231 2.103 3.469 4.943 3.443 7.894-.026 2.95-1.314 5.771-3.581 7.84-2.268 2.07-5.328 3.219-8.508 3.195l-.007.006zm-4.694-20.566c-2.635 0-5.164.96-7.043 2.673-1.879 1.713-2.958 4.043-3.004 6.487-.044 2.48.971 4.874 2.823 6.662 1.852 1.788 4.391 2.824 7.063 2.882l4.666.085c2.672.043 5.253-.9 7.175-2.623 1.923-1.723 3.029-4.084 3.075-6.563.047-2.48-.97-4.874-2.827-6.658-1.856-1.784-4.4-2.81-7.073-2.854l-4.666-.09h-.189z" fill="#181828"/>
    <path d="M382.511 22.538c.484.384.905.788 1.34 1.192 3.811 3.526 6.834 7.715 8.894 12.329a35.53 35.53 0 013.111 14.552v34.022c.118 10.084-4.085 19.798-11.686 27.005-3.764 3.569-8.248 6.415-13.197 8.376a43.71 43.71 0 01-15.647 3.052c-10.867.11-21.336-3.79-29.104-10.843-7.768-7.053-12.199-16.68-12.317-26.763V50.611c-.009-5.284 1.173-10.511 3.469-15.347 2.295-4.835 5.655-9.172 9.862-12.732 14.896-12.61 40.337-12.526 55.275.006z" fill="#FDC6A2"/>
    <path d="M363.644 129.912c0 1.634.498 3.476-.33 4.752-1.641 2.546-5.662 3.841-9.163 3.783-2.528-.052-4.931-1.028-6.686-2.717-1.755-1.69-2.718-3.954-2.681-6.3l.477-7.09v-.442l18.945.084" fill="#FDC6A2"/>
    <path opacity=".55" d="M338.708 119.17c.279 0 .505-.21.505-.469 0-.258-.226-.468-.505-.468s-.505.21-.505.468c0 .259.226.469.505.469zM345.739 121.585c.368 0 .666-.277.666-.618 0-.342-.298-.619-.666-.619-.368 0-.667.277-.667.619 0 .341.299.618.667.618z" fill="#fff"/>
    <path d="M378.091 65.376c1.658 0 3.003-1.248 3.003-2.787 0-1.538-1.345-2.786-3.003-2.786-1.659 0-3.003 1.248-3.003 2.786 0 1.54 1.344 2.787 3.003 2.787z" fill="#FDC6A2"/>
    <path opacity=".62" d="M341.465 79.086c2.911 0 5.27-2.769 5.27-6.184 0-3.416-2.359-6.185-5.27-6.185-2.91 0-5.269 2.769-5.269 6.185 0 3.415 2.359 6.184 5.269 6.184z" fill="#E89176"/>
    <path d="M339.375 71.28c1.058 0 1.915-.868 1.915-1.94 0-1.07-.857-1.94-1.915-1.94a1.928 1.928 0 00-1.916 1.94c0 1.072.858 1.94 1.916 1.94z" fill="#fff"/>
    <path opacity=".62" d="M368.843 79.086c2.91 0 5.27-2.769 5.27-6.184 0-3.416-2.36-6.185-5.27-6.185-2.91 0-5.269 2.769-5.269 6.185 0 3.415 2.359 6.184 5.269 6.184z" fill="#E89176"/>
    <path d="M366.752 71.28a1.928 1.928 0 001.916-1.94c0-1.07-.858-1.94-1.916-1.94-1.057 0-1.915.87-1.915 1.94 0 1.072.858 1.94 1.915 1.94z" fill="#fff"/>
    <path d="M354.853 123.603c-7.286-.015-14.442-1.784-20.769-5.135-6.328-3.35-11.61-8.167-15.331-13.979a.859.859 0 01-.157-.335.842.842 0 01.16-.702.953.953 0 01.291-.247 1.017 1.017 0 01.768-.086.975.975 0 01.346.175c.101.08.183.179.241.29 3.552 5.545 8.593 10.139 14.632 13.335 6.038 3.195 12.867 4.881 19.819 4.894h.049c10.614-.019 20.786-3.944 28.284-10.915 7.498-6.971 11.709-16.417 11.709-26.265V50.611c-.014-9.845-4.227-19.284-11.717-26.256l-.085-.072a23.129 23.129 0 00-1.221-1.08c-6.974-5.86-16.839-9.2-27.026-9.213h-.064c-10.349 0-19.898 3.255-26.893 9.2-4.11 3.477-7.393 7.712-9.638 12.434a34.848 34.848 0 00-3.406 14.986v34.023c.001 2.249.217 4.493.646 6.706a.846.846 0 01-.189.628.975.975 0 01-.598.34 1.022 1.022 0 01-.689-.127.903.903 0 01-.412-.529 36.863 36.863 0 01-.673-7.018V50.611a36.544 36.544 0 013.565-15.703c2.351-4.948 5.787-9.387 10.089-13.034 15.232-12.916 41.122-12.923 56.544 0 .463.371.891.768 1.305 1.153l.071.071c7.85 7.306 12.266 17.196 12.285 27.513v34.022c0 10.316-4.41 20.212-12.262 27.515-7.853 7.303-18.507 11.418-29.625 11.442l-.049.013z" fill="#181828"/>
    <path d="M354.537 139.247c-2.515-.003-4.937-.883-6.785-2.467a9.867 9.867 0 01-2.542-3.277 9.214 9.214 0 01-.903-3.949v-6.888c0-.235.101-.46.28-.626a.992.992 0 01.674-.26c.253 0 .496.094.675.26.179.166.28.391.28.626v6.888a7.55 7.55 0 00.731 3.239 8.09 8.09 0 002.075 2.692 8.301 8.301 0 002.932 1.604 8.743 8.743 0 003.383.349l.575-.065c1.989-.31 3.795-1.265 5.095-2.696 1.3-1.432 2.008-3.245 1.999-5.117v-6.907a.865.865 0 01.249-.679.97.97 0 01.322-.214 1.022 1.022 0 01.773 0c.122.05.231.123.321.214a.868.868 0 01.202.315.837.837 0 01.048.364v6.901c.006 2.294-.868 4.516-2.466 6.267-1.598 1.751-3.815 2.917-6.255 3.29-.232.032-.456.058-.702.078-.319.035-.64.055-.961.058z" fill="#181828"/>
    <path d="M372.618 11.53h-20.13c-2.574-3.145-5.897-5.695-9.709-7.451a29.382 29.382 0 00-12.266-2.673h-25.034c0 18.568 16.053 34.426 35.853 34.426h56.342c0-12.974-11.22-24.302-25.056-24.302z" fill="#E89176"/>
    <path d="M386.37 15.305c6.49 4.258 10.735 12.077 10.735 20.013h-56.952a38.504 38.504 0 01-15.841-3.38c-4.935-2.229-9.26-5.47-12.645-9.478 6.38 4.656 14.266 7.179 22.382 7.161h46.062c7.333 0 11.486-8.873 6.631-13.97l-.372-.372" fill="#CE7057"/>
    <path d="M237.339 222.391c.083 0 .151-.063.151-.141 0-.077-.068-.14-.151-.14-.083 0-.151.063-.151.14 0 .078.068.141.151.141zM238.335 219.975c.084 0 .151-.063.151-.14 0-.077-.067-.14-.151-.14-.083 0-.151.063-.151.14 0 .077.068.14.151.14zM410.261 161.35c.228 0 .414-.172.414-.384 0-.212-.186-.384-.414-.384-.229 0-.414.172-.414.384 0 .212.185.384.414.384zM408.17 163.732c.229 0 .414-.171.414-.384 0-.212-.185-.384-.414-.384-.228 0-.414.172-.414.384 0 .213.186.384.414.384zM410.114 194.455c.232 0 .421-.175.421-.391 0-.216-.189-.391-.421-.391-.233 0-.421.175-.421.391 0 .216.188.391.421.391zM408.437 200.385c.228 0 .413-.172.413-.384 0-.212-.185-.384-.413-.384-.229 0-.414.172-.414.384 0 .212.185.384.414.384z" fill="#63456B"/>
    <path d="M152.162 167.402h65.378v15.113h-57.538c-2.081-.005-4.075-.705-5.545-1.946-1.47-1.24-2.295-2.921-2.295-4.673v-8.494z" fill="#73C7E5"/>
    <path d="M244.892 117.503h-87.494c-2.852 0-5.164 2.146-5.164 4.792v50.721c0 2.647 2.312 4.792 5.164 4.792h87.494c2.852 0 5.164-2.145 5.164-4.792v-50.721c0-2.646-2.312-4.792-5.164-4.792z" fill="#fff"/>
    <path d="M159.98 124.391c.884 0 1.6-.664 1.6-1.484s-.716-1.484-1.6-1.484c-.884 0-1.6.664-1.6 1.484s.716 1.484 1.6 1.484z" fill="#F1665D"/>
    <path d="M165.895 124.346c.883 0 1.6-.665 1.6-1.485 0-.819-.717-1.484-1.6-1.484-.884 0-1.6.665-1.6 1.484 0 .82.716 1.485 1.6 1.485z" fill="#F7BD3B"/>
    <path d="M171.802 124.294c.884 0 1.6-.665 1.6-1.485 0-.819-.716-1.484-1.6-1.484-.883 0-1.599.665-1.599 1.484 0 .82.716 1.485 1.599 1.485z" fill="#56C643"/>
    <path d="M183.251 136.456l-.571 4.232c-.037.274.173.525.469.559l.007.001c.297.034.567-.16.604-.435l.57-4.231c.037-.275-.173-.526-.469-.56l-.007-.001c-.296-.034-.566.161-.603.435zM185.106 139.4l-.571 4.231c-.037.275.173.526.469.56l.007.001c.296.034.566-.161.603-.435l.571-4.232c.037-.274-.173-.525-.469-.559l-.007-.001c-.296-.035-.566.16-.603.435zM180.843 156.037l-.328 2.429c-.021.157.099.3.268.32l.007.001c.169.019.324-.092.345-.249l.327-2.429c.021-.157-.099-.3-.268-.32h-.007c-.169-.02-.323.091-.344.248z" fill="#8C7F93"/>
    <path d="M187.659 144.026v-5.579a2.594 2.594 0 00-.221-1.06 2.753 2.753 0 00-.642-.9 2.982 2.982 0 00-.964-.604 3.189 3.189 0 00-1.141-.216l-20.922-.039a3.106 3.106 0 00-2.115.801 2.675 2.675 0 00-.888 1.953l-.049 23.482a2.67 2.67 0 00.863 1.963 3.107 3.107 0 002.104.824l20.923.039a3.116 3.116 0 002.115-.801 2.677 2.677 0 00.888-1.953v-4.941" fill="#4020FF"/>
    <path d="M161.474 149.677a.689.689 0 01-.466-.172.597.597 0 01-.2-.427l-.077-10.892c-.049-2.766 2.21-2.877 5.192-2.929a.7.7 0 01.491.116.623.623 0 01.26.405.584.584 0 01-.126.456.675.675 0 01-.436.24h-.161a4.382 4.382 0 00-1.567.323 4.126 4.126 0 00-1.314.857c-.373.363-.665.79-.859 1.258a3.554 3.554 0 00-.274 1.468l.183 8.698a.63.63 0 01-.204.41.725.725 0 01-.442.189z" fill="#4020FF"/>
    <path d="M162.25 148.14c.438-.008.784-.428.774-.938-.011-.511-.374-.918-.812-.91-.438.007-.784.427-.774.938.011.51.374.918.812.91zM163.132 146.087c.114 0 .206-.085.206-.19 0-.106-.092-.191-.206-.191-.113 0-.205.085-.205.191 0 .105.092.19.205.19zM163.713 147.737c.217 0 .393-.163.393-.365 0-.201-.176-.364-.393-.364-.217 0-.393.163-.393.364 0 .202.176.365.393.365zM162.078 143.551c.205 0 .372-.155.372-.345 0-.191-.167-.345-.372-.345-.206 0-.372.154-.372.345 0 .19.166.345.372.345zM162.384 145.024c.057 0 .103-.043.103-.096 0-.052-.046-.095-.103-.095-.057 0-.103.043-.103.095 0 .053.046.096.103.096zM163.137 141.754c.182 0 .33-.137.33-.306 0-.169-.148-.306-.33-.306-.182 0-.33.137-.33.306 0 .169.148.306.33.306zM163.006 139.883c.114 0 .206-.085.206-.191 0-.105-.092-.191-.206-.191-.113 0-.205.086-.205.191 0 .106.092.191.205.191zM163.313 138.102c.306 0 .554-.23.554-.514 0-.285-.248-.515-.554-.515-.306 0-.555.23-.555.515 0 .284.249.514.555.514z" fill="#4020FF"/>
    <path d="M18.651 165.361l-2.02 5.599 48.423 15.042 2.02-5.599-48.423-15.042z" fill="#fff"/>
    <path d="M65.063 186.707a.73.73 0 01-.246-.039L16.404 171.63a.76.76 0 01-.442-.358.673.673 0 01-.042-.554l2.02-5.599a.733.733 0 01.386-.413.806.806 0 01.59-.036l48.441 15.013a.757.757 0 01.442.358c.091.17.106.366.042.547l-2.049 5.605a.714.714 0 01-.272.37.8.8 0 01-.457.144zm-47.445-16.21l46.933 14.583 1.529-4.238-46.953-14.583-1.509 4.238z" fill="#181828"/>
    <path d="M10.903 175.516c5.592 0 10.125-4.206 10.125-9.394s-4.533-9.394-10.125-9.394c-5.591 0-10.124 4.206-10.124 9.394s4.533 9.394 10.124 9.394z" fill="#fff"/>
    <path d="M10.903 171.317c3.093 0 5.6-2.326 5.6-5.195s-2.507-5.195-5.6-5.195c-3.092 0-5.599 2.326-5.599 5.195s2.507 5.195 5.6 5.195z" fill="#F7B14B"/>
    <path d="M69.861 178.965l6.185 1.392 12.042-46.045-6.184-1.392-12.043 46.045z" fill="#fff"/>
    <path d="M76.043 181.076a.62.62 0 01-.182 0l-6.182-1.393a.752.752 0 01-.48-.322.66.66 0 01-.088-.544l12.04-46.047a.69.69 0 01.127-.255.738.738 0 01.224-.188.823.823 0 01.582-.084l6.189 1.393a.752.752 0 01.478.323.688.688 0 01.09.543l-12.047 46.04a.72.72 0 01-.273.397.816.816 0 01-.478.156v-.019zm-5.248-2.643l4.68 1.054 11.682-44.647-4.687-1.054-11.675 44.647z" fill="#181828"/>
    <path d="M85.368 141.591c5.592 0 10.125-4.206 10.125-9.394s-4.533-9.394-10.125-9.394-10.125 4.206-10.125 9.394 4.533 9.394 10.125 9.394z" fill="#fff"/>
    <path d="M85.382 142.307c-2.651.001-5.212-.895-7.201-2.521-1.99-1.626-3.272-3.87-3.605-6.31-.334-2.44.303-4.91 1.791-6.946 1.489-2.035 3.727-3.497 6.294-4.111a11.658 11.658 0 017.651.777c2.364 1.115 4.208 2.991 5.186 5.278a9.422 9.422 0 01.13 7.14c-.895 2.316-2.67 4.249-4.99 5.437a11.561 11.561 0 01-5.256 1.256zm0-18.788a9.915 9.915 0 00-4.648 1.133 9.057 9.057 0 00-3.427 3.126 8.21 8.21 0 00-1.299 4.294 8.18 8.18 0 001.172 4.324 9.005 9.005 0 003.38 3.246 9.89 9.89 0 004.68 1.232 9.925 9.925 0 004.713-1.115 9.06 9.06 0 003.472-3.161 8.206 8.206 0 001.293-4.351 8.197 8.197 0 00-1.239-4.365 9.05 9.05 0 00-3.433-3.198 9.92 9.92 0 00-4.7-1.165h.036z" fill="#181828"/>
    <path d="M85.368 137.392c3.092 0 5.599-2.326 5.599-5.195s-2.507-5.195-5.599-5.195-5.6 2.326-5.6 5.195 2.508 5.195 5.6 5.195z" fill="#F7BD3B"/>
    <path d="M73.082 193.771c5.592 0 10.125-4.206 10.125-9.394 0-5.189-4.533-9.395-10.125-9.395-5.591 0-10.124 4.206-10.124 9.395 0 5.188 4.533 9.394 10.124 9.394z" fill="#fff"/>
    <path d="M73.082 189.572c3.093 0 5.6-2.326 5.6-5.195 0-2.87-2.507-5.196-5.6-5.196-3.092 0-5.599 2.326-5.599 5.196 0 2.869 2.507 5.195 5.6 5.195z" fill="#F7B14B"/>
    <path d="M338.189 90.675h33.552v6.881c0 4.128-1.767 8.088-4.913 11.007-3.147 2.919-7.414 4.559-11.863 4.559s-8.716-1.64-11.863-4.559c-3.146-2.919-4.913-6.879-4.913-11.007v-6.881z" fill="#AF143B"/>
    <path d="M372.594 90.676h-28.928v5.813h28.928v-5.813z" fill="#fff"/>
    <path d="M370.169 101.149v1.81c0 5.475-4.778 9.115-10.679 9.115-1.859 0-3.613 1.198-5.135.41l-.078-.599a10.2 10.2 0 01-.196-1.908 9.522 9.522 0 011.424-4.971 10.504 10.504 0 013.883-3.671 11.508 11.508 0 015.33-1.415c1.879-.036 3.735.381 5.388 1.21l.063.019z" fill="#EA3D90"/>
    <path d="M354.326 112.79a.592.592 0 01-.361-.121.517.517 0 01-.193-.309 9.89 9.89 0 01.595-5.872c.793-1.866 2.14-3.484 3.885-4.668a11.982 11.982 0 015.973-2.018 12.16 12.16 0 016.211 1.257c.12.072.207.183.243.312a.497.497 0 01-.051.382.559.559 0 01-.318.248.608.608 0 01-.414-.018 10.965 10.965 0 00-5.596-1.132 10.804 10.804 0 00-5.381 1.818c-1.572 1.067-2.786 2.525-3.501 4.206a8.904 8.904 0 00-.537 5.29.489.489 0 01-.085.394.532.532 0 01-.158.144.599.599 0 01-.206.074l-.106.013z" fill="#181828"/>
    <path fill-rule="evenodd" clip-rule="evenodd" d="M365.025 56.76c3.185-1.973 6.928-3.026 10.758-3.025 5.132 0 10.054 1.892 13.683 5.26 3.629 3.367 5.668 7.934 5.668 12.696.001 3.553-1.133 7.026-3.26 9.981-2.126 2.955-5.15 5.258-8.687 6.618a20.76 20.76 0 01-11.186 1.024c-3.756-.693-7.206-2.404-9.914-4.916-2.707-2.512-4.551-5.713-5.298-9.198a16.76 16.76 0 011.103-10.38c1.466-3.282 3.949-6.087 7.133-8.06zm2.908 25.823c2.324 1.44 5.056 2.207 7.85 2.206 3.744 0 7.334-1.38 9.982-3.836 2.647-2.457 4.134-5.788 4.134-9.262.002-2.593-.826-5.128-2.377-7.284-1.551-2.156-3.757-3.836-6.338-4.83a15.147 15.147 0 00-8.162-.746c-2.741.505-5.258 1.753-7.234 3.586-1.975 1.834-3.321 4.17-3.865 6.712a12.227 12.227 0 00.805 7.573c1.07 2.395 2.881 4.442 5.205 5.881zm-45.067-25.82c3.183-1.974 6.926-3.028 10.755-3.028 2.542 0 5.059.463 7.408 1.365a19.525 19.525 0 016.28 3.892 17.928 17.928 0 014.197 5.826 16.836 16.836 0 011.473 6.873c.002 3.552-1.132 7.026-3.259 9.98-2.126 2.955-5.149 5.258-8.686 6.619a20.759 20.759 0 01-11.185 1.024c-3.756-.692-7.205-2.402-9.913-4.914-2.708-2.512-4.553-5.712-5.3-9.196a16.758 16.758 0 011.1-10.38c1.465-3.282 3.946-6.087 7.13-8.061zm2.906 25.82c2.324 1.44 5.055 2.207 7.849 2.206 3.744 0 7.335-1.38 9.982-3.836 2.648-2.457 4.135-5.788 4.135-9.262.002-2.593-.826-5.128-2.377-7.284-1.552-2.156-3.757-3.836-6.338-4.83a15.147 15.147 0 00-8.162-.746c-2.741.505-5.258 1.753-7.234 3.586-1.976 1.834-3.321 4.17-3.866 6.712a12.234 12.234 0 00.806 7.573c1.07 2.395 2.881 4.442 5.205 5.881z" fill="#0078E7" fill-opacity=".7"/>
    <path d="M352.979 71.69c0 .346 0 .697-.042 1.042-.296-4.566-2.461-8.856-6.051-11.992-3.589-3.136-8.334-4.882-13.265-4.882-4.93 0-9.675 1.746-13.265 4.882-3.59 3.136-5.754 7.426-6.051 11.992 0-.345-.042-.696-.042-1.041 0-4.764 2.04-9.333 5.67-12.701 3.63-3.369 8.554-5.261 13.688-5.261s10.058 1.892 13.689 5.26c3.63 3.37 5.669 7.938 5.669 12.702z" fill="#181828"/>
    <path d="M448.121 148.902c3.282 0 5.943-2.468 5.943-5.514 0-3.045-2.661-5.514-5.943-5.514-3.282 0-5.943 2.469-5.943 5.514 0 3.046 2.661 5.514 5.943 5.514z" fill="#F7BD3B"/>
    <path d="M454.064 143.388c0 1.462-.626 2.865-1.741 3.899-1.114 1.034-2.626 1.615-4.202 1.615s-3.087-.581-4.202-1.615c-1.114-1.034-1.741-2.437-1.741-3.899 0-3.047 2.66.684 5.943.684 3.284 0 5.943-3.731 5.943-.684z" fill="#fff"/>
    <path d="M419.649 148.902c3.282 0 5.943-2.468 5.943-5.514 0-3.045-2.661-5.514-5.943-5.514-3.282 0-5.943 2.469-5.943 5.514 0 3.046 2.661 5.514 5.943 5.514z" fill="#F7BD3B"/>
    <path d="M425.592 143.388c0 1.462-.627 2.865-1.741 3.899-1.115 1.034-2.626 1.615-4.202 1.615s-3.088-.581-4.203-1.615c-1.114-1.034-1.74-2.437-1.74-3.899 0-3.047 2.659.684 5.943.684 3.283 0 5.943-3.731 5.943-.684z" fill="#fff"/>
    <path fill-rule="evenodd" clip-rule="evenodd" d="M397.673 36.203h-56.951a38.846 38.846 0 01-14.314-2.759c-4.521-1.808-8.6-4.448-11.991-7.761-6.978-6.63-10.884-15.53-10.882-24.798a.82.82 0 01.075-.343.879.879 0 01.212-.29.97.97 0 01.317-.19c.118-.044.244-.065.371-.062h25.259a30.738 30.738 0 0112.591 2.647c3.927 1.754 7.375 4.31 10.086 7.476h6.315c.24.02.463.121.626.286.163.164.253.38.253.603 0 .223-.09.439-.253.603a.99.99 0 01-.626.286h-6.799a.988.988 0 01-.42-.09.917.917 0 01-.331-.255c-2.523-3.05-5.77-5.52-9.489-7.215a28.682 28.682 0 00-11.953-2.564h-24.311c.246 8.493 3.934 16.588 10.328 22.669 3.213 3.142 7.079 5.646 11.365 7.361a36.83 36.83 0 0013.571 2.62h55.976c-.505-12.299-11.451-22.526-24.347-22.526h-1.01a1.03 1.03 0 01-.392-.045.98.98 0 01-.34-.187.904.904 0 01-.23-.298.83.83 0 010-.718.904.904 0 01.23-.298.98.98 0 01.34-.187 1.03 1.03 0 01.392-.045h1.01c14.244 0 26.277 11.537 26.277 25.195a.83.83 0 01-.073.339.88.88 0 01-.207.287.973.973 0 01-.675.26zm-34.702-24.302h4.329c.132.01.266-.005.392-.045a.98.98 0 00.34-.187.904.904 0 00.23-.298.846.846 0 000-.718.903.903 0 00-.23-.298.98.98 0 00-.34-.187 1.032 1.032 0 00-.392-.044h-4.329a.99.99 0 00-.626.285.856.856 0 00-.253.603c0 .223.09.439.253.603a.991.991 0 00.626.286zm-16.552 59.66c0 3.372-2.324 6.106-5.192 6.106-2.868 0-5.192-2.734-5.192-6.106 0-3.373 2.324-6.107 5.192-6.107 2.868 0 5.192 2.734 5.192 6.107zm-44.801 4.616c.116.046.24.07.366.07a1.015 1.015 0 00.679-.25.845.845 0 00.29-.622c.022-1.934.705-3.812 1.95-5.364a.85.85 0 00.177-.658.848.848 0 00-.126-.326.918.918 0 00-.251-.256.988.988 0 00-.337-.148 1.032 1.032 0 00-.724.1.946.946 0 00-.276.233c-1.483 1.85-2.298 4.088-2.329 6.394a.822.822 0 00.068.34.887.887 0 00.204.292.96.96 0 00.309.195zm161.53 13.563l.002-.003c-7.003-1.84-14.007-.598-19.215 3.396.719.2 1.43.431 2.13.69a26.169 26.169 0 017.542 4.323c2.635-3.831 5.704-5.946 9.541-8.406zm-21.599 4.52a.887.887 0 00.582.16l.032-.004h.007l.019-.003.014-.002c4.079.997 7.841 2.982 10.875 5.798 4.508 4.182 7.041 9.856 7.041 15.771 0 .542-.021 1.082-.063 1.619a26.378 26.378 0 00-3.768-.558.662.662 0 00-.475.136.603.603 0 00-.158.184.558.558 0 00-.068.227.619.619 0 00.164.427c.108.12.259.199.425.224 1.264.098 2.517.29 3.748.575a20.5 20.5 0 01-.305 1.691 27.27 27.27 0 00-3.324-.469.682.682 0 00-.435.165.58.58 0 00-.08.811.666.666 0 00.396.235c1.057.083 2.107.23 3.143.439a21.057 21.057 0 01-.622 1.851l-.123-.065-.038-.02-.053-.027-.044-.023-.053-.026a28.21 28.21 0 00-3.775-1.4.708.708 0 00-.492.043.627.627 0 00-.322.348.56.56 0 00.041.459c.039.07.093.132.158.183a.676.676 0 00.222.113c1.221.346 2.411.782 3.558 1.302.151.075.301.154.448.235a21.722 21.722 0 01-1.923 3.382c-3.478-.724-3.703-.834-7.836-5.193 0 0-.955 4.257 1.695 7.79a16.88 16.88 0 01-4.558-3.213s-.838 4.929 2.837 7.686c-3.703 2.059-7.969 3.173-12.358 3.173h-4.294c-6.375 0-12.49-2.35-16.998-6.533a22.297 22.297 0 01-5.101-6.994c.203-.117.411-.228.622-.333a24.98 24.98 0 013.55-1.302.666.666 0 00.222-.113.573.573 0 00.199-.642.623.623 0 00-.322-.348.708.708 0 00-.492-.043 28.248 28.248 0 00-3.774 1.4c-.164.082-.326.167-.485.255a21.441 21.441 0 01-.648-1.904 26.255 26.255 0 013.343-.48.666.666 0 00.395-.235.577.577 0 00-.08-.811.682.682 0 00-.435-.165 27.487 27.487 0 00-3.525.511 21.231 21.231 0 01-.308-1.688l.185-.041a25.533 25.533 0 013.768-.579.713.713 0 00.425-.224.623.623 0 00.164-.427.558.558 0 00-.068-.227.617.617 0 00-.381-.297.697.697 0 00-.253-.023c-1.34.101-2.669.303-3.974.605a20.526 20.526 0 01-.067-1.666c0-5.915 2.532-11.589 7.04-15.771 4.508-4.183 10.623-6.533 16.998-6.533h4.294c1.856 0 3.69.199 5.468.585zm.38-1.608c6.018-5.157 14.494-6.697 22.884-4.1a.886.886 0 01.335.201c.093.09.162.2.202.319a.767.767 0 01-.123.711c-3.197 3.966-5.257 8.25-6.674 13.882a23.294 23.294 0 011.702 3.11 22.403 22.403 0 012.001 9.234c0 .666-.03 1.33-.09 1.991.197.028.394.053.591.076l.027.004c1.989.265 3.706.494 5.25 2.678a.566.566 0 010 .679.614.614 0 01-.183.168.742.742 0 01-.358.104l.007-.007a.7.7 0 01-.54-.273c-1.242-1.745-2.42-1.907-4.392-2.161a32.08 32.08 0 01-.542-.07 22.535 22.535 0 01-.338 1.8c5.377 1.364 11.551 3.363 13.201 5.731a.573.573 0 01.102.454.616.616 0 01-.278.385.653.653 0 01-.683.052.649.649 0 01-.236-.201c-1.148-1.62-5.641-3.496-12.412-5.239-.245.85-.54 1.688-.886 2.51.312.237.612.487.9.749l.054.047c1.283 1.094 2.415 2.06 4.858 2.349a.67.67 0 01.394.231.58.58 0 01-.065.807.683.683 0 01-.428.173l-.007-.045h-.112c-2.149-.277-4.131-1.231-5.613-2.702a10.833 10.833 0 00-.507-.449 23.957 23.957 0 01-5.407 7.193 25.753 25.753 0 01-5.939 4.048c.72.049 1.43.205 2.104.464a6.72 6.72 0 013.05 2.327 5.99 5.99 0 011.142 3.506c-.002 1.672-.719 3.275-1.994 4.457a6.843 6.843 0 01-2.042 1.301c.154.031.305.075.452.131.479.185.887.497 1.174.897.287.401.44.871.438 1.352a2.34 2.34 0 01-.766 1.711 2.729 2.729 0 01-1.844.711 2.759 2.759 0 01-1.456-.407 2.472 2.472 0 01-.967-1.089 2.266 2.266 0 01-.151-1.405 2.38 2.38 0 01.869-1.375 7.175 7.175 0 01-4.29-1.046 6.438 6.438 0 01-2.504-2.832 5.887 5.887 0 01-.385-3.645 6.155 6.155 0 011.676-3.051 27.693 27.693 0 01-7.049.801h-4.294a27.68 27.68 0 01-7.19-.836c.257.253.491.526.701.818a5.995 5.995 0 011.143 3.507c-.004 1.671-.721 3.271-1.994 4.453-1.273 1.181-2.998 1.846-4.798 1.849a7.188 7.188 0 01-3.78-1.06 6.437 6.437 0 01-2.507-2.831 5.884 5.884 0 01-.389-3.646 6.182 6.182 0 011.861-3.232 6.97 6.97 0 013.483-1.727 7.25 7.25 0 01.915-.109 25.71 25.71 0 01-5.927-4.042 23.978 23.978 0 01-5.345-7.066c-.122.105-.241.212-.358.322-1.482 1.471-3.464 2.425-5.613 2.702h-.113l-.007.045a.682.682 0 01-.427-.173.58.58 0 01-.065-.807.666.666 0 01.394-.231c2.442-.288 3.568-1.249 4.845-2.339l.067-.057c.238-.217.485-.426.741-.626a22.773 22.773 0 01-.924-2.582c-6.661 1.728-11.078 3.584-12.215 5.188a.644.644 0 01-.237.201.656.656 0 01-.683-.052.612.612 0 01-.277-.385.557.557 0 01.102-.454c1.629-2.338 7.672-4.318 13.001-5.681a22.655 22.655 0 01-.345-1.822c-.111.015-.223.028-.335.042-1.965.254-3.151.416-4.385 2.161a.685.685 0 01-.24.196.742.742 0 01-.308.077l.007.007a.745.745 0 01-.358-.104.64.64 0 01-.183-.168.584.584 0 01-.099-.459.6.6 0 01.1-.22c1.544-2.184 3.261-2.413 5.249-2.678l.027-.004c.128-.015.256-.031.383-.048a22.273 22.273 0 011.909-11.253c1.321-2.924 3.256-5.576 5.692-7.8a26.02 26.02 0 018.498-5.151 27.527 27.527 0 019.984-1.704h4.294a27.7 27.7 0 015.848.532zm-18.597 26.166c3.406 0 6.168-2.562 6.168-5.722 0-3.16-2.762-5.723-6.168-5.723s-6.167 2.563-6.167 5.723c0 3.16 2.761 5.722 6.167 5.722zm27.988-5.722c0 3.16-2.761 5.722-6.167 5.722-3.406 0-6.167-2.562-6.167-5.722 0-3.16 2.761-5.723 6.167-5.723 3.406 0 6.167 2.563 6.167 5.723zm-17.877 7.65a1.285 1.285 0 00-.666.177 1.16 1.16 0 00-.455.485c-.098.199-.131.42-.097.636.035.216.136.419.292.583.554.566 1.354 1.243 2.245 1.243s1.691-.651 2.238-1.243c.106-.112.188-.242.24-.383a1.06 1.06 0 00-.061-.867 1.139 1.139 0 00-.291-.351 1.314 1.314 0 00-.772-.28h-2.673zm8.84 116.422c.345-.82.626-1.662.842-2.519h7.325a6.502 6.502 0 002.379-.371 6.13 6.13 0 002.035-1.204 5.626 5.626 0 001.366-1.846c.317-.694.481-1.44.481-2.194s-.164-1.5-.481-2.194a5.626 5.626 0 00-1.366-1.846 6.13 6.13 0 00-2.035-1.204 6.46 6.46 0 00-2.379-.371h-57.366a.844.844 0 00-.571.219.723.723 0 00-.236.529c0 .199.085.389.236.53.152.14.357.219.571.219h57.366a4.603 4.603 0 013.025 1.262c.795.768 1.24 1.791 1.24 2.856 0 1.064-.445 2.088-1.24 2.855-.795.768-1.879 1.22-3.025 1.263H72.668c-1.146-.043-2.23-.495-3.025-1.263-.796-.767-1.24-1.791-1.24-2.855 0-1.065.444-2.088 1.24-2.856a4.604 4.604 0 013.025-1.262h289.277c.214 0 .42-.079.571-.219a.725.725 0 00.236-.53.723.723 0 00-.236-.529.842.842 0 00-.571-.219H258.453a11.855 11.855 0 00-2.167-6.348.875.875 0 00-.551-.349.927.927 0 00-.656.115.813.813 0 00-.376.511.763.763 0 00.124.609 10.3 10.3 0 011.891 5.462h-23.455c.129-2.717 1.349-5.298 3.431-7.229 2.2-2.042 5.184-3.191 8.296-3.194 2.669-.009 5.261.834 7.339 2.389a.923.923 0 001.264-.092.786.786 0 00.16-.291.753.753 0 00-.096-.635.854.854 0 00-.24-.239c-1.982-1.474-4.373-2.398-6.896-2.666a14.397 14.397 0 00-7.367 1.153c-2.289 1.021-4.221 2.621-5.572 4.617-.252.372-.481.755-.689 1.148h-49.282c-3.607-.004-7.065-1.335-9.616-3.702-2.55-2.366-3.985-5.575-3.989-8.922a.78.78 0 00-.254-.571.91.91 0 00-.616-.236.908.908 0 00-.615.236.781.781 0 00-.255.571c.004 3.775 1.622 7.395 4.499 10.064 2.877 2.67 6.777 4.171 10.846 4.174h48.575a11.68 11.68 0 00-.658 3.425H72.668c-1.569.049-3.056.663-4.147 1.71-1.092 1.048-1.702 2.448-1.702 3.905 0 1.457.61 2.857 1.702 3.904 1.09 1.048 2.578 1.661 4.147 1.711h9.093c.216.857.498 1.699.843 2.519h359.679zm-10.075-64.295a8.425 8.425 0 01-4.436-1.249c-1.313-.814-2.336-1.971-2.941-3.324a6.918 6.918 0 01-.454-4.281 7.256 7.256 0 012.185-3.793 8.197 8.197 0 014.088-2.028 8.557 8.557 0 014.613.422c1.459.561 2.706 1.51 3.584 2.728a7.04 7.04 0 011.346 4.116c-.004 1.964-.847 3.847-2.343 5.235-1.497 1.389-3.526 2.171-5.642 2.174zm0-13.235a6.614 6.614 0 00-3.479.998 5.94 5.94 0 00-2.298 2.621 5.445 5.445 0 00-.343 3.364 5.718 5.718 0 001.727 2.975 6.453 6.453 0 003.216 1.585 6.724 6.724 0 003.623-.337 6.198 6.198 0 002.813-2.146 5.535 5.535 0 001.056-3.234c-.01-1.548-.679-3.03-1.862-4.122-1.183-1.091-2.784-1.704-4.453-1.704zm-9.234 47.002c2.733 1.695 5.947 2.599 9.234 2.599 4.407-.005 8.631-1.631 11.747-4.523 3.116-2.891 4.869-6.811 4.875-10.899 0-3.051-.975-6.033-2.802-8.569-1.826-2.536-4.422-4.513-7.459-5.68a17.83 17.83 0 00-9.604-.878c-3.224.595-6.186 2.064-8.51 4.221-2.325 2.157-3.908 4.905-4.549 7.897a14.39 14.39 0 00.946 8.911c1.258 2.818 3.388 5.226 6.122 6.921zm1.208-23.969c2.376-1.473 5.169-2.259 8.026-2.259 3.83.003 7.503 1.417 10.211 3.93 2.709 2.513 4.232 5.921 4.236 9.475 0 2.651-.848 5.242-2.435 7.447-1.587 2.204-3.844 3.922-6.484 4.937a15.497 15.497 0 01-8.346.763c-2.803-.518-5.377-1.794-7.397-3.669-2.021-1.875-3.397-4.263-3.954-6.863a12.515 12.515 0 01.822-7.745c1.093-2.449 2.945-4.543 5.321-6.016zm-10.055-28.723a2.765 2.765 0 01-1.457-.407 2.478 2.478 0 01-.967-1.089 2.265 2.265 0 01-.15-1.405c.1-.471.35-.905.716-1.245.367-.34.834-.571 1.342-.664a2.81 2.81 0 011.514.139 2.59 2.59 0 011.174.897c.287.401.439.871.438 1.352a2.345 2.345 0 01-.766 1.711 2.73 2.73 0 01-1.844.711zm0-3.639a1.38 1.38 0 00-.731.202 1.235 1.235 0 00-.486.545 1.13 1.13 0 00-.078.704c.05.236.174.454.358.625.183.17.417.287.671.335.255.047.519.023.759-.069.241-.092.446-.248.59-.448.145-.2.222-.436.222-.677 0-.322-.137-.63-.382-.859a1.36 1.36 0 00-.923-.358zm35.481.202c.216-.133.471-.204.73-.202.347.001.679.13.924.358.244.229.381.537.381.859 0 .241-.077.477-.221.677-.145.2-.35.356-.59.448-.24.092-.505.116-.759.069a1.356 1.356 0 01-.672-.335 1.19 1.19 0 01-.357-.625 1.137 1.137 0 01.077-.704c.101-.223.27-.412.487-.545zm-35.481 69.281a2.757 2.757 0 01-1.45-.408 2.465 2.465 0 01-.961-1.087 2.254 2.254 0 01-.149-1.399c.101-.47.349-.901.714-1.24a2.684 2.684 0 011.337-.663 2.807 2.807 0 011.508.138c.477.183.884.494 1.171.892a2.3 2.3 0 01.44 1.346 2.344 2.344 0 01-.766 1.71 2.72 2.72 0 01-1.844.711zm0-3.632c-.258 0-.51.071-.725.204a1.235 1.235 0 00-.481.543 1.139 1.139 0 00-.074.7c.05.235.175.45.357.62.183.169.415.284.668.331.254.047.516.023.754-.069.239-.091.443-.247.586-.446.144-.199.22-.433.22-.672a1.137 1.137 0 00-.093-.47 1.205 1.205 0 00-.282-.399 1.299 1.299 0 00-.426-.268 1.391 1.391 0 00-.504-.094v.02zm34.761 3.224c.43.266.934.408 1.45.408a2.72 2.72 0 001.844-.711 2.34 2.34 0 00.766-1.71c0-.479-.153-.948-.439-1.346a2.58 2.58 0 00-1.172-.892 2.807 2.807 0 00-1.508-.138 2.68 2.68 0 00-1.336.663c-.365.339-.614.77-.715 1.24-.1.47-.049.957.149 1.399.198.443.532.821.961 1.087zm.725-3.02a1.38 1.38 0 01.725-.204v-.02c.174 0 .345.032.505.094.159.062.304.153.426.268.121.114.217.25.281.399.065.149.096.309.093.47 0 .239-.076.473-.22.672a1.284 1.284 0 01-.585.446 1.394 1.394 0 01-.754.069 1.342 1.342 0 01-.668-.331 1.191 1.191 0 01-.358-.62 1.132 1.132 0 01.075-.7c.098-.221.266-.41.48-.543zM49.416 111.006a.914.914 0 01-.613-.238.787.787 0 01-.257-.569V96.176c.002-1.585.681-3.104 1.889-4.224 1.207-1.12 2.844-1.75 4.552-1.752h117.061a.886.886 0 01.615.236.769.769 0 01.189.88.81.81 0 01-.189.262.886.886 0 01-.615.236H54.988c-1.247.002-2.442.462-3.323 1.28-.881.817-1.377 1.926-1.379 3.082v14.023a.787.787 0 01-.257.569.914.914 0 01-.613.238zm-.613 46.772a.915.915 0 00.613.239.915.915 0 00.613-.239.785.785 0 00.257-.569v-40.532a.777.777 0 00-.255-.571.903.903 0 00-.615-.237.903.903 0 00-.615.237.777.777 0 00-.255.571v40.532a.785.785 0 00.257.569zM309.05 77.172a.745.745 0 01-.395-.091.668.668 0 01-.273-.28c-.06-.117-.081-.247-.06-.374a.63.63 0 01.174-.342c1.314-1.494 3.117-2.545 5.13-2.997a17.458 17.458 0 01.31-5.32c.781-3.643 2.708-6.988 5.538-9.614 2.83-2.626 6.436-4.414 10.361-5.139a21.7 21.7 0 0111.691 1.069c3.698 1.421 6.858 3.828 9.082 6.915 2.025 2.813 3.19 6.076 3.382 9.442v-3.685c0-.235.1-.46.279-.626a.994.994 0 01.675-.26c.253 0 .496.094.675.26a.853.853 0 01.279.626v2.11c.055-.367.121-.734.199-1.099.781-3.642 2.708-6.987 5.538-9.613 2.83-2.626 6.436-4.414 10.361-5.139a21.7 21.7 0 0111.691 1.069c3.698 1.421 6.858 3.828 9.082 6.915 2.223 3.088 3.41 6.718 3.41 10.431-.001.54-.026 1.076-.076 1.61a.77.77 0 01.371-.021c2.148.406 4.079 1.49 5.465 3.066a.63.63 0 01.164.49.624.624 0 01-.085.25.665.665 0 01-.184.198.735.735 0 01-.449.15.75.75 0 01-.312-.064.698.698 0 01-.249-.184c-1.175-1.34-2.814-2.26-4.638-2.604a.75.75 0 01-.237-.088c-.645 3.94-2.629 7.615-5.703 10.468-3.794 3.52-8.937 5.5-14.302 5.505-4.002 0-7.915-1.101-11.242-3.164-3.328-2.064-5.922-4.996-7.453-8.427a17.715 17.715 0 01-1.351-4.62v3.067a20.919 20.919 0 001.516 6.51.837.837 0 01-.237.962.973.973 0 01-.318.184 1.012 1.012 0 01-.884-.1.904.904 0 01-.35-.414 22.592 22.592 0 01-1.635-7.064v-4.745c-.263 4.626-2.36 9.013-5.907 12.304-3.793 3.52-8.936 5.5-14.3 5.507-4.003 0-7.915-1.101-11.242-3.164-3.328-2.064-5.922-4.996-7.453-8.427a17.756 17.756 0 01-1.283-4.199c-1.646.4-3.116 1.278-4.194 2.509a.69.69 0 01-.249.184.75.75 0 01-.312.063zm8.35 23.607a1.02 1.02 0 01-.511-.139.927.927 0 01-.353-.369 13.344 13.344 0 01-1.024-2.604.848.848 0 01-.047-.364.849.849 0 01.115-.35.907.907 0 01.256-.278 1.034 1.034 0 011.115-.039.926.926 0 01.278.26.85.85 0 01.142.341c.212.79.511 1.558.892 2.292a.845.845 0 01.041.679.883.883 0 01-.191.298.96.96 0 01-.3.208 1.053 1.053 0 01-.413.065zm51.212-23.112c2.867 0 5.192-2.734 5.192-6.106 0-3.373-2.325-6.107-5.192-6.107-2.868 0-5.192 2.734-5.192 6.107 0 3.372 2.324 6.106 5.192 6.106zM3.723 173.711c1.99 1.626 4.55 2.522 7.201 2.521a11.574 11.574 0 005.256-1.256c2.321-1.188 4.096-3.121 4.99-5.437a9.426 9.426 0 00-.13-7.141c-.978-2.286-2.822-4.162-5.185-5.277a11.658 11.658 0 00-7.652-.777c-2.567.614-4.805 2.076-6.293 4.111-1.489 2.036-2.126 4.506-1.792 6.946.334 2.44 1.616 4.684 3.605 6.31zm1.55-14.521c1.619-1.132 3.59-1.747 5.616-1.753.883.002 1.762.118 2.61.345 1.779.475 3.365 1.428 4.56 2.74 1.194 1.311 1.942 2.922 2.15 4.628a8.145 8.145 0 01-.985 4.957c-.85 1.525-2.168 2.782-3.788 3.612a9.952 9.952 0 01-5.314 1.059 9.771 9.771 0 01-5.052-1.862c-1.448-1.071-2.52-2.516-3.082-4.154a8.078 8.078 0 01-.073-5.042c.562-1.807 1.74-3.397 3.359-4.53zm5.645 12.843c-1.554.003-3.055-.52-4.222-1.471-1.167-.951-1.92-2.264-2.118-3.694a5.588 5.588 0 011.044-4.07c.871-1.194 2.181-2.051 3.685-2.412a6.827 6.827 0 014.483.452c1.385.653 2.466 1.751 3.04 3.091a5.519 5.519 0 01.078 4.183c-.524 1.357-1.564 2.49-2.924 3.186a6.707 6.707 0 01-3.066.735zm0-10.416c-.813 0-1.613.193-2.323.56-1.119.576-1.946 1.54-2.3 2.681a4.205 4.205 0 00.406 3.406 4.633 4.633 0 001.6 1.591 5.152 5.152 0 004.534.354 4.797 4.797 0 001.863-1.32 4.34 4.34 0 00.974-1.98 4.167 4.167 0 00-.147-2.171 4.444 4.444 0 00-1.233-1.852 4.927 4.927 0 00-2.027-1.093 5.244 5.244 0 00-1.369-.15l.021-.026zm71.255-24.302a6.746 6.746 0 003.202.793 6.75 6.75 0 003.158-.778 6.17 6.17 0 002.325-2.131 5.585 5.585 0 00.88-2.92 5.572 5.572 0 00-.8-2.94 6.135 6.135 0 00-2.3-2.212 6.755 6.755 0 00-3.188-.841 6.773 6.773 0 00-3.212.759 6.177 6.177 0 00-2.366 2.153 5.593 5.593 0 00-.88 2.964 5.585 5.585 0 00.843 2.974 6.159 6.159 0 002.338 2.179zm.268-8.711a5.082 5.082 0 012.934-.912l-.021.026a5.132 5.132 0 012.449.611 4.676 4.676 0 011.782 1.674c.513.86.706 1.853.55 2.826a4.377 4.377 0 01-1.411 2.555 4.99 4.99 0 01-2.794 1.235 5.143 5.143 0 01-3.028-.593 4.597 4.597 0 01-2.017-2.177 4.179 4.179 0 01-.178-2.867 4.486 4.486 0 011.734-2.378zm-9.338 65.883a11.55 11.55 0 01-5.472-1.361c-1.663-.893-3.042-2.179-3.997-3.726a9.554 9.554 0 01-1.44-5.085 9.565 9.565 0 011.507-5.068c.975-1.536 2.37-2.806 4.045-3.681a11.573 11.573 0 015.49-1.299c1.921.024 3.802.519 5.45 1.434 1.65.916 3.008 2.22 3.939 3.78a9.538 9.538 0 011.361 5.03 9.568 9.568 0 01-1.505 4.995 10.549 10.549 0 01-3.977 3.645 11.551 11.551 0 01-5.4 1.336zm0-18.795a9.84 9.84 0 00-4.511 1.087c-1.619.831-2.935 2.088-3.784 3.613a8.142 8.142 0 00-.983 4.954c.207 1.706.955 3.316 2.148 4.627 1.194 1.311 2.78 2.264 4.556 2.739a10.05 10.05 0 005.43-.07c1.761-.521 3.318-1.515 4.471-2.857 1.153-1.342 1.852-2.97 2.008-4.681a8.16 8.16 0 00-1.133-4.926 9.068 9.068 0 00-3.443-3.278 9.975 9.975 0 00-4.759-1.208zm-3.213 13.799a6.752 6.752 0 003.2.797 6.761 6.761 0 003.157-.78 6.17 6.17 0 002.325-2.129 5.598 5.598 0 00.882-2.919 5.575 5.575 0 00-.794-2.941 6.133 6.133 0 00-2.3-2.212 6.751 6.751 0 00-3.187-.841 6.76 6.76 0 00-3.211.758 6.177 6.177 0 00-2.367 2.151 5.591 5.591 0 00-.882 2.963 5.584 5.584 0 00.84 2.974 6.15 6.15 0 002.337 2.179zm.265-8.707a5.074 5.074 0 012.934-.912l-.014.026c.45-.008.899.043 1.333.149.61.161 1.18.433 1.677.799.496.367.909.821 1.214 1.337.513.86.706 1.853.551 2.825a4.372 4.372 0 01-1.411 2.555 4.99 4.99 0 01-2.794 1.235 5.143 5.143 0 01-3.028-.592 4.594 4.594 0 01-2.018-2.178 4.175 4.175 0 01-.178-2.866 4.479 4.479 0 011.734-2.378zm295.082 21.88a.85.85 0 01-.58-.223.736.736 0 01-.241-.539v-19.954c0-.202.087-.395.241-.538a.85.85 0 01.58-.223.85.85 0 01.58.223.734.734 0 01.241.538v19.954a.736.736 0 01-.241.539.85.85 0 01-.58.223zm-.58-24.825a.85.85 0 00.58.223.85.85 0 00.58-.223.736.736 0 00.241-.539v-3.776a.736.736 0 00-.241-.539.855.855 0 00-.58-.223.855.855 0 00-.58.223.736.736 0 00-.241.539v3.776c0 .202.087.396.241.539zm6.186-80.188h-26.858c-.238 0-.466-.062-.634-.172-.169-.11-.263-.26-.263-.416v-5.601h-3.377a.73.73 0 00-.491.19.63.63 0 00-.203.455v6.133c.005 3.73 1.606 7.307 4.449 9.944 2.844 2.638 6.699 4.121 10.72 4.124h1.488a16.17 16.17 0 005.81-1.067 15.275 15.275 0 004.925-3.052 14.03 14.03 0 003.287-4.571 13.175 13.175 0 001.147-5.391v-.576zm0-1.176h-25.967V91.46l25.265-.005c.186 0 .365.069.496.19a.627.627 0 01.206.46v4.369zm-16.65 17.415h1.488l-.007.026c2.216 0 4.411-.405 6.459-1.192a17.013 17.013 0 005.475-3.396 15.612 15.612 0 003.657-5.082 14.673 14.673 0 001.283-5.993v-6.127a2.145 2.145 0 00-.703-1.565 2.492 2.492 0 00-1.69-.648h-30.444c-.634 0-1.243.234-1.691.65a2.141 2.141 0 00-.701 1.57v6.133c.015 4.145 1.798 8.116 4.961 11.044 3.162 2.928 7.446 4.575 11.913 4.58zm4.318-48.172a18.122 18.122 0 014.016-5.014c3.592-3.148 8.346-4.902 13.287-4.902 4.941 0 9.695 1.754 13.287 4.902 2.117 1.855 3.735 4.11 4.766 6.587a16.02 16.02 0 01.551 4.14c0 3.391-1.084 6.707-3.115 9.527-2.031 2.82-4.918 5.018-8.295 6.316a19.82 19.82 0 01-10.679.974c-3.585-.662-6.878-2.296-9.463-4.695-2.584-2.398-4.344-5.454-5.056-8.781a15.978 15.978 0 01.701-9.054zm17.433 19.625c-2.968.001-5.869-.814-8.337-2.343-2.468-1.53-4.392-3.703-5.528-6.247a12.988 12.988 0 01-.855-8.043c.578-2.7 2.007-5.181 4.105-7.128 2.099-1.947 4.772-3.273 7.683-3.81a16.089 16.089 0 018.669.794c2.741 1.054 5.084 2.839 6.732 5.129 1.648 2.29 2.526 4.982 2.525 7.735-.006 3.688-1.587 7.224-4.398 9.832-2.811 2.608-6.621 4.076-10.596 4.08zm0-26.198c-2.619 0-5.179.721-7.356 2.07-2.177 1.35-3.874 3.27-4.876 5.514a11.464 11.464 0 00-.754 7.098c.511 2.383 1.772 4.572 3.624 6.29 1.851 1.718 4.211 2.888 6.779 3.362a14.2 14.2 0 007.65-.699c2.419-.93 4.487-2.504 5.942-4.525 1.454-2.02 2.231-4.395 2.231-6.825-.002-3.257-1.398-6.381-3.88-8.684-2.483-2.304-5.849-3.599-9.36-3.6zm-52.429-1.973c3.039-1.884 6.612-2.89 10.268-2.89 4.899.006 9.597 1.814 13.062 5.029 3.464 3.214 5.413 7.573 5.419 12.12 0 3.39-1.084 6.706-3.115 9.526-2.031 2.82-4.917 5.018-8.294 6.316a19.82 19.82 0 01-10.678.976c-3.585-.662-6.878-2.295-9.462-4.693-2.585-2.398-4.345-5.454-5.058-8.78a16.008 16.008 0 011.051-9.908c1.399-3.133 3.768-5.811 6.807-7.696zm10.268 28.17c-2.968 0-5.868-.816-8.335-2.346-2.467-1.53-4.39-3.703-5.525-6.247a12.986 12.986 0 01-.853-8.043c.58-2.7 2.009-5.18 4.108-7.127 2.098-1.946 4.772-3.271 7.682-3.807a16.087 16.087 0 018.668.794c2.741 1.055 5.083 2.84 6.731 5.13 1.647 2.29 2.526 4.981 2.525 7.734-.006 3.69-1.588 7.226-4.401 9.834-2.812 2.609-6.624 4.075-10.6 4.079zm0-26.197c-2.619 0-5.179.721-7.356 2.07-2.177 1.35-3.874 3.27-4.877 5.514a11.464 11.464 0 00-.753 7.098c.511 2.383 1.772 4.572 3.623 6.29 1.852 1.718 4.211 2.888 6.78 3.362 2.568.474 5.23.23 7.649-.699 2.42-.93 4.487-2.504 5.942-4.525 1.455-2.02 2.232-4.395 2.232-6.825-.004-3.257-1.4-6.38-3.882-8.683-2.483-2.303-5.848-3.598-9.358-3.602zm47.18 58.117a.884.884 0 00.334.066.87.87 0 00.519-.196.727.727 0 00.064-1.074l-3.179-3.288a.855.855 0 00-.558-.224.86.86 0 00-.572.194.725.725 0 00-.091 1.046l3.207 3.288c.076.08.17.144.276.188zm9.147-9.114a.866.866 0 01-.335-.066.825.825 0 01-.276-.188l-3.178-3.255a.726.726 0 01-.18-.54.746.746 0 01.271-.506c.156-.13.361-.2.571-.194a.855.855 0 01.559.224l3.178 3.256c.145.15.22.347.208.549a.742.742 0 01-.271.525.851.851 0 01-.547.195zm-22.041 14.886c.138.09.303.14.473.14a.772.772 0 00.273-.059.784.784 0 00.468-.388.711.711 0 00.03-.582l-1.585-4.16a.742.742 0 00-.149-.281.795.795 0 00-.259-.203.858.858 0 00-.324-.088.846.846 0 00-.625.203.76.76 0 00-.194.257.713.713 0 00.007.614l1.586 4.179a.771.771 0 00.299.368zm6.247-.999a.87.87 0 01-.473-.141.774.774 0 01-.299-.367l-1.024-2.695a.711.711 0 01.036-.583.8.8 0 01.469-.387.875.875 0 01.627.033.781.781 0 01.418.435l1.025 2.689a.719.719 0 01-.229.819.844.844 0 01-.276.151.825.825 0 01-.274.046zm.038-11.766c.124.071.266.11.411.112a.914.914 0 00.372-.091.754.754 0 00.396-.45.725.725 0 00-.066-.579l-1.165-2.011a.75.75 0 00-.179-.293.822.822 0 00-.298-.192.875.875 0 00-.707.04.81.81 0 00-.271.224.734.734 0 00-.139.311.708.708 0 00.018.336c.033.11.092.211.173.296l1.165 2.006c.066.119.167.22.29.291zm8.297-1.587a.866.866 0 01-.393-.073.802.802 0 01-.308-.239l-1.459-1.882a.715.715 0 01-.109-.549.758.758 0 01.323-.471.876.876 0 01.583-.139.844.844 0 01.529.267l1.466 1.888a.718.718 0 01.138.564.755.755 0 01-.328.491.844.844 0 01-.442.143zm-55.316 8.45a.869.869 0 00.881.13.806.806 0 00.276-.188l3.179-3.288a.765.765 0 00.181-.257.715.715 0 00-.019-.6.769.769 0 00-.197-.247.84.84 0 00-.613-.192.855.855 0 00-.573.28l-3.179 3.288a.727.727 0 00.064 1.074zm-8.266-8.984a.851.851 0 01-.547-.195.742.742 0 01-.271-.525.726.726 0 01.208-.549l3.178-3.256a.845.845 0 01.573-.28.853.853 0 01.614.192c.083.069.15.153.197.247a.721.721 0 01-.163.857l-3.178 3.255a.825.825 0 01-.276.188.866.866 0 01-.335.066zm21.295 14.98a.868.868 0 00.746-.095.766.766 0 00.3-.367l1.585-4.167a.71.71 0 00.007-.613.76.76 0 00-.194-.257.842.842 0 00-.625-.203.828.828 0 00-.583.29.75.75 0 00-.148.282l-1.586 4.16a.705.705 0 00.031.582c.046.09.111.171.191.238a.85.85 0 00.276.15zm-5.501-1.093a.768.768 0 01-.273-.046.839.839 0 01-.277-.151.73.73 0 01-.229-.819l1.025-2.689a.781.781 0 01.418-.435.875.875 0 01.627-.033.8.8 0 01.469.387.711.711 0 01.036.583l-1.024 2.695a.769.769 0 01-.299.367.87.87 0 01-.473.141zm-.835-11.745a.92.92 0 00.386.091.86.86 0 00.423-.107.783.783 0 00.3-.296l1.164-2.006a.722.722 0 00.111-.604.723.723 0 00-.148-.282.815.815 0 00-.257-.203.878.878 0 00-.949.111.77.77 0 00-.195.256l-1.165 2.011a.725.725 0 00-.066.579.77.77 0 00.396.45zm-7.5-1.608a.847.847 0 01-.477-.143.755.755 0 01-.328-.491.718.718 0 01.138-.564l1.46-1.888a.804.804 0 01.234-.203.876.876 0 01.913.031.777.777 0 01.218.217.726.726 0 01.101.576.738.738 0 01-.133.271l-1.46 1.882a.8.8 0 01-.292.231.871.871 0 01-.374.081zm5.104-6.799a.878.878 0 00.829.006.774.774 0 00.311-.297l1.165-2.011a.726.726 0 00.064-.58.747.747 0 00-.15-.263.807.807 0 00-.247-.19.87.87 0 00-.625-.058.809.809 0 00-.487.368l-1.165 2.012a.708.708 0 00.015.741.79.79 0 00.29.272zm-7.476-1.586a.896.896 0 01-.477-.143.78.78 0 01-.22-.216.72.72 0 01-.103-.575.726.726 0 01.134-.27l1.459-1.882a.784.784 0 01.233-.204.85.85 0 01.62-.096.84.84 0 01.291.124.76.76 0 01.328.495.724.724 0 01-.139.566l-1.459 1.882a.807.807 0 01-.292.234.862.862 0 01-.375.085zm55.799.554a.88.88 0 00.409.11h.042a.87.87 0 00.397-.107.79.79 0 00.29-.272.717.717 0 00.015-.74l-1.172-2.013a.767.767 0 00-.195-.255.838.838 0 00-.29-.161.88.88 0 00-.659.05c-.1.05-.187.12-.257.203a.742.742 0 00-.148.281.705.705 0 00.111.605l1.165 2.012a.781.781 0 00.292.287zm8.296-1.583a.878.878 0 01-.395-.077.81.81 0 01-.307-.242l-1.459-1.881a.745.745 0 01-.151-.274.707.707 0 01.089-.596.784.784 0 01.224-.226.857.857 0 01.634-.128c.11.02.214.06.306.118a.796.796 0 01.231.22l1.459 1.882a.722.722 0 01.142.567.76.76 0 01-.331.494.837.837 0 01-.442.143zm57.044 40.196a5.37 5.37 0 012.826-.796c1.349.002 2.642.5 3.595 1.385.954.884 1.49 2.084 1.492 3.335 0 .934-.298 1.846-.857 2.622a5.021 5.021 0 01-2.283 1.739 5.449 5.449 0 01-2.939.268 5.222 5.222 0 01-2.605-1.291 4.625 4.625 0 01-1.392-2.417 4.406 4.406 0 01.29-2.727 4.81 4.81 0 011.873-2.118zm-25.646-.796c-1.006 0-1.99.277-2.826.796a4.807 4.807 0 00-1.874 2.118 4.399 4.399 0 00-.289 2.727c.196.916.68 1.757 1.392 2.417a5.219 5.219 0 002.604 1.291c.987.183 2.01.089 2.939-.268a5.016 5.016 0 002.283-1.739 4.48 4.48 0 00.858-2.622c-.002-1.251-.539-2.451-1.492-3.335-.954-.885-2.247-1.383-3.595-1.385zm-174.855 39.941h-87.298c-1.625-.002-3.182-.601-4.332-1.667-1.149-1.065-1.796-2.509-1.8-4.017v-50.532c.004-1.508.651-2.952 1.8-4.018 1.15-1.065 2.707-1.664 4.332-1.666h87.298c1.624.002 3.182.601 4.331 1.666 1.15 1.066 1.797 2.51 1.801 4.018v50.545c-.008 1.505-.657 2.947-1.806 4.009-1.149 1.063-2.704 1.66-4.326 1.662zm-87.298-60.298c-1.164 0-2.28.428-3.103 1.191-.824.763-1.287 1.798-1.289 2.878v4.427h88.785c.173 0 .339.063.461.177a.58.58 0 01.191.428.58.58 0 01-.191.428.676.676 0 01-.461.178h-88.785v44.907c.002 1.08.465 2.116 1.288 2.88a4.582 4.582 0 003.104 1.196h87.298c1.164-.002 2.28-.432 3.103-1.196.824-.764 1.287-1.8 1.289-2.88v-50.532c-.002-1.08-.466-2.115-1.289-2.878-.824-.763-1.94-1.191-3.103-1.191l-87.298-.013zm2.014 6.354h.217l-.028.013c.313-.002.621-.073.898-.208.277-.134.515-.328.696-.565.18-.237.296-.511.339-.798a1.692 1.692 0 00-.091-.854 1.815 1.815 0 00-.503-.721 1.988 1.988 0 00-.802-.427 2.12 2.12 0 00-.924-.04 2.044 2.044 0 00-.841.358c-.199.15-.364.335-.484.545a1.672 1.672 0 00-.217.678c-.055.482.096.964.422 1.342.326.378.8.621 1.318.677zm-.604-2.677c.226-.187.518-.291.821-.292l.141.006c.242.026.471.118.657.265.186.146.322.341.389.559.067.218.063.449-.012.665a1.148 1.148 0 01-.407.547 1.319 1.319 0 01-1.367.105 1.191 1.191 0 01-.499-.477 1.079 1.079 0 01-.13-.654c.036-.28.181-.537.407-.724zm6.736 2.631h-.224a2.004 2.004 0 01-1.267-.697 1.736 1.736 0 01-.393-1.316c.057-.47.308-.9.7-1.202a2.074 2.074 0 011.402-.418c.256.027.505.101.731.216.226.116.425.273.586.46.161.187.281.403.352.633.071.23.093.471.064.71a1.793 1.793 0 01-.646 1.15 2.063 2.063 0 01-1.305.464zm0-2.969a1.32 1.32 0 00-.672.185c-.2.121-.358.292-.455.494-.098.203-.13.427-.093.645.038.219.142.423.301.588.16.164.367.283.597.34.231.058.474.053.701-.015.227-.068.428-.195.579-.367.15-.172.244-.38.27-.6a1.094 1.094 0 00-.26-.84 1.19 1.19 0 00-.368-.289 1.301 1.301 0 00-.459-.134h-.141v-.007zm5.69 2.924c.073.006.146.006.218 0 .442.011.875-.118 1.228-.365.395-.309.646-.747.702-1.224a1.745 1.745 0 00-.423-1.341 2.024 2.024 0 00-1.318-.677 2.084 2.084 0 00-1.445.384 1.852 1.852 0 00-.483.547c-.12.21-.195.44-.219.677-.029.239-.006.481.066.713.072.231.193.447.355.634.163.185.363.337.589.449.227.112.475.18.73.203zm-.602-2.678a1.28 1.28 0 01.82-.291l.14.006c.242.026.47.118.656.264.186.146.321.34.389.557.067.217.064.448-.01.663a1.143 1.143 0 01-.403.548 1.296 1.296 0 01-1.728-.184 1.098 1.098 0 01-.265-.839c.033-.279.176-.537.401-.724zm21.301 19.76a.52.52 0 01-.353-.135.447.447 0 01-.145-.327c0-.122.052-.24.145-.327a.525.525 0 01.353-.135l37.888-.313c.131 0 .256.048.35.134a.447.447 0 01.148.322.451.451 0 01-.145.329.527.527 0 01-.353.14l-37.888.312zm-.348 2.984a.53.53 0 00.345.135h.003l27.013-.313a.524.524 0 00.389-.113.466.466 0 00.124-.156.434.434 0 00-.124-.535.5.5 0 00-.181-.096.564.564 0 00-.208-.018l-27.02.313a.511.511 0 00-.35.136.446.446 0 00-.141.326.45.45 0 00.15.321zm.348 3.26a.52.52 0 01-.353-.136.445.445 0 01-.145-.326c0-.123.052-.241.145-.327a.52.52 0 01.353-.136l14.811-.312c.131.001.257.05.351.134a.46.46 0 01.154.322.426.426 0 01-.136.328.5.5 0 01-.348.14l-14.811.313h-.021zm-.353 5.183a.52.52 0 00.353.136l37.888-.313a.527.527 0 00.353-.14.45.45 0 00.145-.329.447.447 0 00-.148-.322.517.517 0 00-.35-.133l-37.888.312a.525.525 0 00-.353.135.448.448 0 00-.145.327c0 .123.052.24.145.327zm.35 3.254a.524.524 0 01-.345-.135.429.429 0 01-.009-.647.511.511 0 01.35-.136l27.02-.312a.5.5 0 01.513.269.434.434 0 01-.124.535.5.5 0 01-.181.096.564.564 0 01-.208.018l-27.013.312h-.003zm-.35 2.99a.525.525 0 00.353.135h.021l14.811-.313a.505.505 0 00.348-.14.434.434 0 00.136-.328.46.46 0 00-.154-.322.54.54 0 00-.351-.134l-14.811.312a.52.52 0 00-.353.136.447.447 0 00-.145.327c0 .122.052.24.145.327zm-7.295 5.428l-20.944-.046a3.734 3.734 0 01-1.358-.251 3.54 3.54 0 01-1.147-.719 3.236 3.236 0 01-.753-1.062 3.051 3.051 0 01-.257-1.249l.049-23.489c0-.863.37-1.691 1.027-2.302a3.655 3.655 0 012.481-.953l20.93.039c.93 0 1.823.343 2.48.953a3.143 3.143 0 011.028 2.302v5.579l-.042 17.93c0 .431-.093.858-.272 1.256a3.25 3.25 0 01-.774 1.061c-.32.3-.702.539-1.122.702-.42.163-.871.247-1.326.249zm-20.902-29.088a2.556 2.556 0 00-1.724.663 2.2 2.2 0 00-.725 1.596l-.042 23.528c-.003.299.057.595.177.873.121.277.3.529.526.741.227.213.496.382.794.497.297.115.616.174.938.174l20.944.039a2.58 2.58 0 001.74-.651c.225-.21.403-.46.524-.735.12-.275.181-.57.177-.866l.057-23.522a2.21 2.21 0 00-.719-1.607 2.56 2.56 0 00-1.73-.671l-20.937-.059zm8.772 4.075a.722.722 0 00-.003-.597.774.774 0 00-.182-.252.865.865 0 00-.595-.225l-6.455.033a.846.846 0 00-.593.229.778.778 0 00-.181.254.73.73 0 00-.061.298.75.75 0 00.249.548.877.877 0 00.593.227l6.455-.033a.85.85 0 00.593-.229.782.782 0 00.18-.253zm-1.819 3.431a.578.578 0 01-.189.424.672.672 0 01-.456.175h-4.961a.672.672 0 01-.454-.173.577.577 0 01-.145-.649.603.603 0 01.346-.327.687.687 0 01.246-.049h4.961a.68.68 0 01.459.175.588.588 0 01.193.424z" fill="#181828"/>
  </g>
  <defs>
    <clipPath id="clip0">
      <path fill="#fff" d="M0 0h475v250H0z"/>
    </clipPath>
  </defs>
</svg>
