<svg width="120" height="90" viewBox="0 0 120 90" fill="none" xmlns="http://www.w3.org/2000/svg">
<path d="M14.7504 11.3316C15.2025 11.8107 13.3424 12.4494 13.7843 12.9567C24.1641 9.66905 35.4585 10.6553 44.1117 16.8173L45.7149 15.7465C36.4554 8.47611 26.1373 7.0953 14.7504 11.3316Z" fill="#D39021"/>
<path d="M31.3992 28.4367L25.4591 32.767C23.2405 25.1322 19.3221 17.9979 13.9488 11.8107C20.9392 16.2134 26.8765 21.8702 31.3992 28.4367V28.4367Z" fill="#181828"/>
<path d="M26.7025 23.3738C26.5394 23.3695 26.3798 23.3298 26.2368 23.2579C26.0938 23.1861 25.9716 23.0841 25.8803 22.9605C20.8343 15.3989 13.7329 13.8678 13.6199 13.8678C13.3802 13.8182 13.1707 13.686 13.0348 13.4989C12.8989 13.3117 12.8472 13.0839 12.8902 12.8628C12.959 12.6495 13.1082 12.4655 13.3114 12.3434C13.5147 12.2213 13.7587 12.169 14.0001 12.1958C14.3187 12.2616 22.0059 13.9242 27.4733 22.0963C27.5391 22.1931 27.5833 22.3007 27.6035 22.4132C27.6236 22.5256 27.6193 22.6405 27.5906 22.7514C27.562 22.8623 27.5096 22.9669 27.4366 23.0592C27.3635 23.1515 27.2712 23.2297 27.1649 23.2893V23.2893C27.02 23.3498 26.8618 23.3788 26.7025 23.3738Z" fill="#181828"/>
<path d="M25.1199 33.819C24.8513 33.8188 24.59 33.739 24.3751 33.5917C24.1602 33.4444 24.0033 33.2375 23.9278 33.0018C21.4862 25.586 17.3846 18.7151 11.8831 12.8252C11.7573 12.6877 11.6685 12.5251 11.6239 12.3505C11.5793 12.176 11.5801 11.9943 11.6262 11.8201C11.6712 11.6439 11.762 11.4803 11.8908 11.343C12.0196 11.2056 12.1826 11.0986 12.3662 11.031C24.6164 6.45653 37.5346 8.12852 46.9277 15.5022C47.0522 15.5995 47.1544 15.7183 47.2285 15.8517C47.3026 15.9852 47.3472 16.1307 47.3596 16.28C47.372 16.4292 47.3521 16.5792 47.3009 16.7214C47.2497 16.8636 47.1683 16.9951 47.0613 17.1085C46.8446 17.3388 46.5366 17.4811 46.2051 17.504C45.8737 17.5269 45.5458 17.4286 45.2937 17.2306C37.0721 10.7586 25.7674 9.06786 14.9149 12.5903C20.0788 18.4285 23.9531 25.1278 26.3224 32.3161C26.3696 32.4598 26.3853 32.6107 26.3685 32.7599C26.3516 32.9092 26.3026 33.0539 26.2243 33.1858C26.1459 33.3176 26.0398 33.434 25.912 33.5282C25.7841 33.6224 25.6373 33.6925 25.4796 33.7345C25.3664 33.7824 25.2444 33.8111 25.1199 33.819Z" fill="#181828"/>
<path fill-rule="evenodd" clip-rule="evenodd" d="M93.1677 22.6956C95.7049 15.9158 99.6205 9.62754 104.715 4.16454C93.4106 -0.062416 80.7494 1.13052 71.4384 8.44785L72.4261 9.21457C69.3552 8.4633 66.1833 8.08078 62.9907 8.08161H56.7011C51.9133 8.08037 47.172 8.94126 42.7482 10.6151C41.5741 11.0593 40.4285 11.5585 39.3156 12.11C31.2484 8.79468 21.92 8.88347 13.363 12.083C17.6472 16.6681 21.1057 21.8325 23.6218 27.3812C23.4099 27.7989 23.2072 28.2209 23.0141 28.6471C21.1815 32.69 20.2383 37.0233 20.2383 41.3994C20.2369 45.7764 21.1792 50.1106 23.0111 54.1546C24.8431 58.1986 27.5288 61.8731 30.915 64.9681C34.3011 68.063 38.3214 70.5178 42.7458 72.1923C47.1703 73.8667 51.9124 74.7279 56.7011 74.7266H62.9907C67.7794 74.7279 72.5215 73.8667 76.946 72.1923C81.3705 70.5178 85.3906 68.063 88.7768 64.9681C92.1629 61.8731 94.8487 58.1986 96.6807 54.1546C98.5126 50.1106 99.4548 45.7764 99.4535 41.3994C99.4535 37.0233 98.5103 32.69 96.6777 28.6471C95.7292 26.5546 94.5521 24.5611 93.1677 22.6956ZM80.626 88.8634C85.4334 88.8634 89.3306 85.3014 89.3306 80.9074C89.3306 76.5134 85.4334 72.9513 80.626 72.9513C75.8186 72.9513 71.9214 76.5134 71.9214 80.9074C71.9214 85.3014 75.8186 88.8634 80.626 88.8634ZM47.6266 80.9074C47.6266 85.3014 43.7294 88.8634 38.9219 88.8634C34.1145 88.8634 30.2173 85.3014 30.2173 80.9074C30.2173 76.5134 34.1145 72.9513 38.9219 72.9513C43.7294 72.9513 47.6266 76.5134 47.6266 80.9074Z" fill="#F7BD3B"/>
<path d="M88.457 15.925L93.7394 22.8196C95.949 15.1829 99.7618 9.66906 105.137 3.5071L105.239 1.86328C98.2716 6.25932 92.9378 9.36848 88.457 15.925Z" fill="#181828"/>
<path d="M100.039 40.9955C100.039 49.8319 96.1987 58.3064 89.3626 64.5547C82.5264 70.803 73.2545 74.3133 63.5867 74.3133H57.3177C47.6499 74.3133 38.3781 70.803 31.5419 64.5547C24.7058 58.3064 20.8652 49.8319 20.8652 40.9955C20.8652 40.2816 20.8652 39.5677 20.9371 38.8632C21.5283 47.3266 25.6283 55.2655 32.4015 61.0618C39.1746 66.858 48.1111 70.0754 57.3897 70.0582H63.6895C72.9563 70.0609 81.8763 66.8368 88.6346 61.0418C95.393 55.2467 99.4821 47.3161 100.07 38.8632C100.019 39.5677 100.039 40.2816 100.039 40.9955Z" fill="#DF8A3A"/>
<path d="M44.6051 22.7256H44.5845C37.8359 22.7256 32.3651 27.726 32.3651 33.8942V38.7693C32.3651 44.9375 37.8359 49.9379 44.5845 49.9379H44.6051C51.3537 49.9379 56.8245 44.9375 56.8245 38.7693V33.8942C56.8245 27.726 51.3537 22.7256 44.6051 22.7256Z" fill="white"/>
<path d="M76.5666 22.7256H76.5461C69.7975 22.7256 64.3267 27.726 64.3267 33.8942V38.7693C64.3267 44.9375 69.7975 49.9379 76.5461 49.9379H76.5666C83.3152 49.9379 88.786 44.9375 88.786 38.7693V33.8942C88.786 27.726 83.3152 22.7256 76.5666 22.7256Z" fill="white"/>
<path fill-rule="evenodd" clip-rule="evenodd" d="M102.639 3.49765C98.6424 8.81482 95.7182 14.7356 93.9976 20.98C92.8114 19.5058 91.4959 18.1168 90.0618 16.8275C86.4934 13.6193 82.262 11.0924 77.6142 9.39409C76.589 9.01948 75.5481 8.68683 74.4945 8.39668C82.1231 2.63437 92.3812 0.843598 102.639 3.49765ZM71.2716 10.1673C71.1744 10.13 71.083 10.0819 70.9994 10.024C68.3946 9.46782 65.7088 9.18053 62.9906 9.18053H56.7011C47.3631 9.18053 38.4075 12.571 31.8045 18.6062C25.2015 24.6413 21.492 32.8268 21.492 41.3618C21.492 42.1665 21.525 42.9681 21.5903 43.7652C23.5014 43.3296 25.4484 43.0379 27.4116 42.8929C27.5361 42.8813 27.6619 42.8927 27.7815 42.9263C27.9011 42.9599 28.0122 43.0152 28.108 43.0888C28.2038 43.1623 28.2826 43.2528 28.3395 43.3546C28.3964 43.4565 28.4303 43.5678 28.4393 43.6819C28.4425 43.9071 28.357 44.1258 28.1986 44.2982C28.0401 44.4706 27.8192 44.5852 27.576 44.6212C25.7149 44.7639 23.8693 45.0434 22.0573 45.4572C21.9671 45.4773 21.8769 45.4971 21.7865 45.5165C21.9031 46.335 22.0539 47.1473 22.238 47.9519C23.9378 47.5958 25.6632 47.3491 27.4014 47.2138C27.6384 47.2188 27.8652 47.3033 28.0385 47.4513C28.2118 47.5993 28.3195 47.8003 28.3411 48.0162C28.3627 48.232 28.2966 48.4476 28.1556 48.6218C28.0145 48.796 27.8082 48.9167 27.576 48.9609C25.9285 49.0887 24.2929 49.32 22.6807 49.6533C22.9518 50.5827 23.2682 51.4997 23.6286 52.4015C23.8623 52.2741 24.0991 52.1511 24.3388 52.0325C26.1236 51.2331 27.9718 50.558 29.8678 50.013C30.1077 49.9474 30.3661 49.9695 30.5885 50.0747C30.8109 50.1798 30.9799 50.3597 31.06 50.5766C31.0983 50.6851 31.1126 50.7995 31.1023 50.9131C31.092 51.0268 31.0572 51.1374 30.9999 51.2387C30.9426 51.34 30.8639 51.4299 30.7684 51.5033C30.6728 51.5767 30.5624 51.632 30.4433 51.6662C28.6578 52.1644 26.9189 52.7927 25.2432 53.5448C24.9339 53.6963 24.6302 53.8565 24.3325 54.0252C26.0806 57.758 28.6023 61.1905 31.8045 64.1173C38.4075 70.1525 47.3631 73.543 56.7011 73.543H62.9906C69.4197 73.543 75.6674 71.9359 81.091 68.965C75.7084 64.9873 76.9366 57.8751 76.9366 57.8751C79.2536 60.1198 81.6223 61.5749 83.6125 62.5108C79.7313 57.4127 81.1296 51.2717 81.1296 51.2717C87.1834 57.5614 87.5132 57.7197 92.6081 58.7637C93.7001 57.211 94.6418 55.5783 95.4246 53.8845C95.2085 53.7668 94.9892 53.6535 94.7671 53.5448C93.0871 52.7942 91.3449 52.166 89.5566 51.6662C89.4376 51.632 89.3272 51.5767 89.2317 51.5033C89.1361 51.4299 89.0575 51.34 89.0001 51.2387C88.9428 51.1374 88.908 51.0268 88.8976 50.9131C88.8873 50.7995 88.9018 50.6851 88.94 50.5766C89.0201 50.3597 89.1891 50.1798 89.4115 50.0747C89.6339 49.9695 89.8923 49.9474 90.1321 50.013C92.0281 50.558 93.8764 51.2331 95.6612 52.0325C95.8144 52.1083 95.9664 52.1859 96.1172 52.2653C96.4627 51.3883 96.7668 50.4971 97.0282 49.5943C95.5103 49.2926 93.9724 49.081 92.4239 48.9609C92.1918 48.9167 91.9855 48.796 91.8445 48.6218C91.7034 48.4476 91.6373 48.232 91.6589 48.0162C91.6805 47.8003 91.7882 47.5993 91.9615 47.4513C92.1348 47.3033 92.3616 47.2188 92.5987 47.2138C94.2365 47.3413 95.863 47.5677 97.4675 47.8913C97.6503 47.0851 97.7995 46.271 97.9145 45.4508C96.1117 45.0398 94.2756 44.7624 92.424 44.6212C92.1808 44.5852 91.9599 44.4706 91.8014 44.2982C91.643 44.1258 91.5576 43.9071 91.5608 43.6819C91.5697 43.5678 91.6036 43.4565 91.6606 43.3546C91.7175 43.2528 91.7962 43.1623 91.892 43.0888C91.9878 43.0152 92.0989 42.9599 92.2185 42.9263C92.3381 42.8927 92.4639 42.8813 92.5885 42.8929C94.4481 43.0303 96.2931 43.2993 98.1069 43.6974C98.1686 42.9227 98.1997 42.1437 98.1997 41.3618C98.1997 32.8268 94.4902 24.6413 87.8872 18.6062C83.4428 14.544 77.9326 11.68 71.9573 10.2415C71.8911 10.2514 71.824 10.2563 71.7566 10.2564C71.59 10.2564 71.4252 10.2261 71.2716 10.1673ZM105.075 1.78809C92.7862 -1.95893 80.3706 0.262828 71.5558 7.7039C68.7489 7.15125 65.8753 6.89202 62.9906 6.93554H56.7011C51.6964 6.86003 46.7252 7.69578 42.0775 9.39409C37.4297 11.0924 33.1983 13.6193 29.6298 16.8275C26.0614 20.0356 23.2273 23.8609 21.2927 28.0804C19.3582 32.2999 18.3619 36.8291 18.3619 41.404C18.3619 42.3781 18.407 43.35 18.4968 44.3173C18.3102 44.3419 18.1233 44.3649 17.9362 44.3864L17.8966 44.3916C14.9845 44.7745 12.4689 45.1052 10.2079 48.2564C10.1367 48.3524 10.0872 48.4603 10.0621 48.5739C10.037 48.6875 10.0368 48.8045 10.0617 48.9181C10.0866 49.0318 10.1359 49.1398 10.2069 49.2358C10.2779 49.3319 10.3691 49.414 10.4751 49.4775C10.6317 49.5702 10.8129 49.6221 10.9993 49.6278L10.989 49.6185C11.1468 49.6134 11.3012 49.5752 11.4402 49.5068C11.5792 49.4383 11.6991 49.3416 11.7906 49.2239C13.5994 46.7066 15.3362 46.4717 18.2137 46.1054C18.3777 46.0864 18.5416 46.0663 18.7053 46.0452C18.8364 46.9274 19.0048 47.8044 19.2102 48.6743C11.4044 50.6411 2.55311 53.4968 0.167253 56.87C0.0958386 56.9646 0.0457904 57.0713 0.0200357 57.1838C-0.00571903 57.2963 -0.00664958 57.4124 0.0172758 57.5252C0.0412011 57.6381 0.089479 57.7454 0.15935 57.841C0.229221 57.9365 0.319268 58.0184 0.424179 58.0818C0.579826 58.1936 0.770921 58.2562 0.968828 58.2602C1.1278 58.2606 1.28437 58.2247 1.42434 58.1558C1.56431 58.0869 1.68329 57.9872 1.77047 57.8657C3.43619 55.5515 9.90656 52.8748 19.6629 50.3802C20.0353 51.6423 20.4866 52.8862 21.0153 54.1057C20.6417 54.3944 20.2796 54.6961 19.93 55.0102L19.8331 55.0916C17.9622 56.6645 16.3126 58.0514 12.7361 58.4669C12.5055 58.5097 12.3 58.628 12.158 58.7995C12.0161 58.971 11.9475 59.184 11.9651 59.3985C11.9828 59.6129 12.0855 59.8141 12.2539 59.9643C12.4224 60.1144 12.645 60.2033 12.88 60.214L12.8903 60.1483H13.0547C16.2031 59.7488 19.1057 58.3725 21.2763 56.2501C21.4476 56.092 21.6227 55.9374 21.8012 55.7865C23.7105 59.5878 26.3623 63.0429 29.6298 65.9806C32.2084 68.2988 35.1331 70.2613 38.3109 71.8125C37.8627 71.8372 37.4152 71.8898 36.9713 71.9703C35.0386 72.3212 33.2633 73.1883 31.87 74.4618C30.4766 75.7353 29.528 77.358 29.144 79.1245C28.7601 80.8911 28.9582 82.7219 29.7132 84.3855C30.4682 86.0491 31.7462 87.4705 33.3854 88.47C35.0247 89.4694 36.9514 90.0019 38.9219 90C41.5586 89.995 44.0858 89.0355 45.9503 87.3314C47.8148 85.6272 48.8646 83.3174 48.8701 80.9074C48.8721 79.1063 48.2895 77.3453 47.196 75.847C46.889 75.4263 46.5456 75.0317 46.1702 74.6664C49.5938 75.5184 53.1389 75.9263 56.7011 75.8725H62.9906C66.4814 75.9252 69.9559 75.5345 73.3157 74.717C72.0704 75.9475 71.2191 77.4704 70.8596 79.1188C70.4746 80.8847 70.6712 82.7153 71.4246 84.379C72.178 86.0427 73.4544 87.4648 75.0923 88.4654C76.7301 89.466 78.6559 90 80.6259 90C83.2653 90 85.7967 89.0423 87.664 87.3374C89.5312 85.6325 90.5816 83.3197 90.5844 80.9074C90.5864 79.1067 90.0041 77.346 88.9111 75.848C87.8181 74.3499 86.2635 73.1818 84.444 72.4915C83.4575 72.1172 82.4173 71.8924 81.3635 71.8209C84.548 70.2684 87.4786 68.303 90.0618 65.9806C93.3818 62.9958 96.0662 59.4768 97.9819 55.6032C98.2362 55.8115 98.4836 56.0273 98.7237 56.2501C100.894 58.3725 103.797 59.7488 106.945 60.1483H107.11L107.12 60.214C107.355 60.2033 107.578 60.1144 107.746 59.9643C107.915 59.8141 108.017 59.6129 108.035 59.3985C108.053 59.184 107.984 58.971 107.842 58.7995C107.7 58.628 107.495 58.5097 107.264 58.4669C103.687 58.0501 102.028 56.6559 100.149 55.077L100.07 55.0102C99.6484 54.6314 99.2087 54.2707 98.7524 53.929C99.2586 52.7426 99.6916 51.5334 100.05 50.3072C109.967 52.8224 116.548 55.5289 118.23 57.8657C118.317 57.9872 118.436 58.0869 118.576 58.1558C118.716 58.2247 118.872 58.2606 119.031 58.2602C119.229 58.2562 119.42 58.1936 119.576 58.0818C119.681 58.0184 119.771 57.9365 119.841 57.841C119.91 57.7454 119.959 57.6381 119.983 57.5252C120.007 57.4124 120.006 57.2963 119.98 57.1838C119.954 57.0713 119.904 56.9646 119.833 56.87C117.417 53.4548 108.374 50.5701 100.499 48.6012C100.699 47.7421 100.864 46.876 100.992 46.0049C101.257 46.0412 101.521 46.0747 101.786 46.1054C104.674 46.4717 106.401 46.7066 108.22 49.2239C108.31 49.3403 108.428 49.4364 108.566 49.5047C108.703 49.5731 108.855 49.612 109.011 49.6185L109.001 49.6278C109.187 49.6221 109.368 49.5702 109.525 49.4775C109.631 49.414 109.722 49.3319 109.793 49.2358C109.864 49.1398 109.914 49.0318 109.938 48.9181C109.963 48.8045 109.963 48.6875 109.938 48.5739C109.913 48.4603 109.863 48.3524 109.792 48.2564C107.531 45.1052 105.016 44.7745 102.103 44.3916L102.064 44.3864C101.775 44.3532 101.486 44.3163 101.199 44.2759C101.286 43.3222 101.33 42.3641 101.33 41.404C101.33 36.8291 100.334 32.2999 98.399 28.0804C97.687 26.5275 96.8531 25.0279 95.9057 23.5929C97.9811 15.4657 100.999 9.28578 105.681 3.56341C105.796 3.41689 105.872 3.24798 105.904 3.06999C105.935 2.89199 105.921 2.70976 105.862 2.53766C105.803 2.36556 105.702 2.20829 105.565 2.07822C105.428 1.94814 105.261 1.84883 105.075 1.78809ZM53.3508 37.2006C53.3508 41.7606 49.3063 45.4572 44.3172 45.4572C39.3282 45.4572 35.2838 41.7606 35.2838 37.2006C35.2838 32.6405 39.3282 28.9439 44.3172 28.9439C49.3063 28.9439 53.3508 32.6405 53.3508 37.2006ZM76.2788 45.4572C81.2678 45.4572 85.3122 41.7606 85.3122 37.2006C85.3122 32.6405 81.2678 28.9439 76.2788 28.9439C71.2898 28.9439 67.2453 32.6405 67.2453 37.2006C67.2453 41.7606 71.2898 45.4572 76.2788 45.4572ZM58.1513 48.4934C58.4426 48.3239 58.7812 48.2351 59.1265 48.2377H63.0421C63.4579 48.2523 63.8561 48.3946 64.1725 48.6416C64.3497 48.7832 64.4945 48.9554 64.5987 49.1483C64.7029 49.3412 64.7644 49.551 64.7797 49.7657C64.795 49.9804 64.7637 50.1957 64.6877 50.3994C64.6118 50.603 64.4926 50.7909 64.337 50.9523C63.5354 51.8071 62.3638 52.7464 61.0586 52.7464C59.7534 52.7464 58.5818 51.7695 57.7699 50.9523C57.5417 50.7155 57.3934 50.4233 57.3429 50.1111C57.2924 49.7989 57.3418 49.48 57.4853 49.193C57.6287 48.9059 57.8601 48.663 58.1513 48.4934ZM80.6259 74.0973C79.1523 74.0973 77.7117 74.4967 76.4865 75.245C75.2612 75.9933 74.3062 77.0569 73.7423 78.3012C73.1783 79.5456 73.0308 80.9149 73.3183 82.2359C73.6058 83.557 74.3154 84.7704 75.3574 85.7228C76.3994 86.6752 77.7271 87.3238 79.1724 87.5866C80.6177 87.8494 82.1158 87.7145 83.4773 87.1991C84.8387 86.6836 86.0023 85.8108 86.8211 84.6908C87.6398 83.5709 88.0768 82.2543 88.0768 80.9074C88.074 79.102 87.2882 77.3712 85.8915 76.0946C84.4947 74.818 82.6012 74.0997 80.6259 74.0973ZM34.7825 75.245C36.0077 74.4967 37.4482 74.0973 38.9219 74.0973C40.8971 74.0997 42.7907 74.818 44.1874 76.0946C45.5841 77.3712 46.37 79.102 46.3727 80.9074C46.3727 82.2543 45.9358 83.5709 45.117 84.6908C44.2983 85.8108 43.1347 86.6836 41.7732 87.1991C40.4117 87.7145 38.9136 87.8494 37.4683 87.5866C36.023 87.3238 34.6954 86.6752 33.6533 85.7228C32.6113 84.7704 31.9017 83.557 31.6142 82.2359C31.3267 80.9149 31.4743 79.5456 32.0382 78.3012C32.6021 77.0569 33.5572 75.9933 34.7825 75.245Z" fill="#181828"/>
<path d="M42.4469 37.21C44.9727 37.21 47.0202 35.7843 47.0202 34.0257C47.0202 32.267 44.9727 30.8414 42.4469 30.8414C39.9212 30.8414 37.8737 32.267 37.8737 34.0257C37.8737 35.7843 39.9212 37.21 42.4469 37.21Z" fill="white"/>
<path d="M74.3981 37.21C76.9239 37.21 78.9714 35.7843 78.9714 34.0257C78.9714 32.267 76.9239 30.8414 74.3981 30.8414C71.8724 30.8414 69.8249 32.267 69.8249 34.0257C69.8249 35.7843 71.8724 37.21 74.3981 37.21Z" fill="white"/>
</svg>
