<svg width="74" height="100" viewBox="0 0 74 100" fill="none" xmlns="http://www.w3.org/2000/svg">
<g clip-path="url(#clip0)">
<path d="M64.976 59.5456C69.2711 59.5456 72.7529 56.0638 72.7529 51.7688C72.7529 47.4738 69.2711 43.9919 64.976 43.9919C60.681 43.9919 57.1992 47.4738 57.1992 51.7688C57.1992 56.0638 60.681 59.5456 64.976 59.5456Z" fill="#F9CDB7"/>
<path d="M62.6467 58.6776C63.8048 59.0114 65.0247 59.0715 66.21 58.8532C67.3953 58.6348 68.5137 58.1439 69.4767 57.4192C70.4398 56.6946 71.2213 55.756 71.7594 54.6775C72.2976 53.5991 72.5778 52.4103 72.5778 51.2051C72.5778 49.9998 72.2976 48.811 71.7594 47.7326C71.2213 46.6541 70.4398 45.7155 69.4767 44.9909C68.5137 44.2662 67.3953 43.7753 66.21 43.5569C65.0247 43.3386 63.8048 43.3987 62.6467 43.7325C64.2665 44.2009 65.6902 45.183 66.7034 46.5307C67.7166 47.8785 68.2645 49.5189 68.2645 51.2051C68.2645 52.8912 67.7166 54.5316 66.7034 55.8794C65.6902 57.2271 64.2665 58.2092 62.6467 58.6776Z" fill="#E2A78D"/>
<path d="M8.62215 59.5456C12.9172 59.5456 16.399 56.0638 16.399 51.7688C16.399 47.4738 12.9172 43.9919 8.62215 43.9919C4.32712 43.9919 0.845306 47.4738 0.845306 51.7688C0.845306 56.0638 4.32712 59.5456 8.62215 59.5456Z" fill="#F9CDB7"/>
<path d="M10.4067 59.0533C9.24857 59.3872 8.02872 59.4473 6.84341 59.2289C5.65809 59.0105 4.53976 58.5196 3.57667 57.795C2.61359 57.0703 1.83213 56.1317 1.29396 55.0533C0.755788 53.9748 0.475647 52.7861 0.475647 51.5808C0.475647 50.3755 0.755788 49.1868 1.29396 48.1083C1.83213 47.0299 2.61359 46.0913 3.57667 45.3666C4.53976 44.642 5.65809 44.1511 6.84341 43.9327C8.02872 43.7143 9.24857 43.7744 10.4067 44.1083C8.78692 44.5767 7.36322 45.5587 6.35001 46.9065C5.33679 48.2542 4.78893 49.8947 4.78893 51.5808C4.78893 53.2669 5.33679 54.9074 6.35001 56.2551C7.36322 57.6029 8.78692 58.5849 10.4067 59.0533Z" fill="#E2A78D"/>
<path d="M8.62214 60.1222C6.91676 60.1226 5.24957 59.6172 3.83142 58.6701C2.41327 57.7229 1.30785 56.3764 0.654973 54.8009C0.00209499 53.2255 -0.16892 51.4918 0.163555 49.8191C0.49603 48.1465 1.31706 46.61 2.52282 45.404C3.72857 44.198 5.26489 43.3766 6.93747 43.0437C8.61005 42.7109 10.3438 42.8815 11.9194 43.5341C13.495 44.1866 14.8417 45.2917 15.7892 46.7097C16.7367 48.1276 17.2424 49.7947 17.2424 51.5001C17.2374 53.785 16.3277 55.9749 14.7122 57.5907C13.0967 59.2066 10.907 60.1168 8.62214 60.1222ZM8.62214 44.5704C7.25105 44.5701 5.91065 44.9763 4.77048 45.7378C3.63031 46.4993 2.74158 47.5819 2.21672 48.8485C1.69186 50.1152 1.55443 51.509 1.82182 52.8538C2.08922 54.1985 2.74942 55.4338 3.71893 56.4033C4.68843 57.3728 5.92368 58.033 7.26844 58.3004C8.6132 58.5678 10.0071 58.4304 11.2737 57.9055C12.5404 57.3806 13.6229 56.4919 14.3844 55.3518C15.1459 54.2116 15.5522 52.8712 15.5518 51.5001C15.5493 49.663 14.8184 47.9019 13.5194 46.6028C12.2204 45.3038 10.4592 44.5729 8.62214 44.5704Z" fill="#213346"/>
<path d="M3.99548 52.7851C3.96858 52.787 3.94159 52.787 3.9147 52.7851C3.74177 52.7635 3.58443 52.6743 3.47707 52.537C3.36971 52.3997 3.32106 52.2255 3.34177 52.0525C3.67426 49.3456 4.82951 48.0044 5.73869 47.3563C6.33528 46.9138 7.04256 46.6446 7.78246 46.5787C7.95683 46.5717 8.12683 46.6343 8.25506 46.7526C8.38329 46.871 8.45924 47.0354 8.46622 47.2098C8.47319 47.3842 8.41061 47.5542 8.29225 47.6824C8.17388 47.8106 8.00942 47.8866 7.83505 47.8936C7.71295 47.8936 5.15261 48.1021 4.64167 52.214C4.62085 52.3711 4.544 52.5154 4.42528 52.6203C4.30655 52.7252 4.15392 52.7837 3.99548 52.7851Z" fill="#213346"/>
<path d="M6.32102 54.1392C6.26922 54.1391 6.21759 54.1334 6.16699 54.1223C6.08298 54.1022 6.00375 54.0658 5.93382 54.0151C5.8639 53.9644 5.80465 53.9004 5.75947 53.8268C5.71429 53.7531 5.68406 53.6713 5.6705 53.586C5.65694 53.5007 5.66033 53.4136 5.68046 53.3296C5.87198 52.6208 5.93559 51.8836 5.86831 51.1524C5.80976 50.4951 5.51633 49.8809 5.04179 49.4224C4.97505 49.3657 4.92031 49.2962 4.8808 49.218C4.84128 49.1399 4.81777 49.0546 4.81166 48.9673C4.80555 48.8799 4.81695 48.7922 4.84521 48.7093C4.87346 48.6264 4.91799 48.55 4.97618 48.4845C5.03437 48.4191 5.10505 48.3659 5.18408 48.3282C5.2631 48.2904 5.34887 48.2688 5.43635 48.2647C5.52383 48.2605 5.61126 48.2739 5.6935 48.304C5.77574 48.3341 5.85114 48.3803 5.91527 48.4399C6.6293 49.11 7.07585 50.0164 7.17196 50.9909C7.25922 51.8778 7.18539 52.7732 6.95406 53.6339C6.9201 53.7767 6.83932 53.904 6.7246 53.9956C6.60987 54.0872 6.4678 54.1377 6.32102 54.1392Z" fill="#213346"/>
<path d="M64.976 60.1222C63.2706 60.1226 61.6035 59.6172 60.1853 58.6701C58.7671 57.7229 57.6617 56.3764 57.0089 54.8009C56.356 53.2255 56.185 51.4918 56.5174 49.8191C56.8499 48.1465 57.6709 46.61 58.8767 45.404C60.0825 44.198 61.6188 43.3766 63.2914 43.0437C64.9639 42.7109 66.6977 42.8815 68.2733 43.5341C69.8489 44.1866 71.1956 45.2917 72.1431 46.7097C73.0906 48.1276 73.5963 49.7947 73.5963 51.5001C73.5913 53.785 72.6816 55.9749 71.0661 57.5907C69.4506 59.2066 67.2609 60.1168 64.976 60.1222ZM64.976 44.5704C63.6049 44.5701 62.2645 44.9763 61.1244 45.7378C59.9842 46.4993 59.0955 47.5819 58.5706 48.8485C58.0457 50.1152 57.9083 51.509 58.1757 52.8538C58.4431 54.1985 59.1033 55.4338 60.0728 56.4033C61.0423 57.3728 62.2776 58.033 63.6223 58.3004C64.9671 58.5678 66.3609 58.4304 67.6276 57.9055C68.8942 57.3806 69.9768 56.4919 70.7383 55.3518C71.4998 54.2116 71.906 52.8712 71.9057 51.5001C71.9032 49.663 71.1723 47.9019 69.8733 46.6028C68.5743 45.3038 66.8131 44.5729 64.976 44.5704Z" fill="#213346"/>
<path d="M69.6008 52.7848C69.4405 52.7847 69.2859 52.726 69.1658 52.6198C69.0458 52.5136 68.9687 52.3672 68.949 52.2081C68.4437 48.0868 65.8702 47.8877 65.7556 47.8877C65.5822 47.8779 65.4195 47.8004 65.3029 47.6717C65.1862 47.5431 65.1248 47.3737 65.1319 47.2001C65.1351 47.1145 65.1551 47.0304 65.1908 46.9525C65.2265 46.8746 65.2772 46.8045 65.34 46.7462C65.4028 46.688 65.4765 46.6427 65.5568 46.6129C65.6372 46.5831 65.7226 46.5695 65.8082 46.5727C66.5481 46.6387 67.2554 46.9078 67.852 47.3504C68.763 47.9985 69.9183 49.3397 70.2489 52.0466C70.2719 52.2183 70.2263 52.3922 70.1218 52.5305C70.0173 52.6687 69.8625 52.7601 69.691 52.7848C69.661 52.7872 69.6308 52.7872 69.6008 52.7848Z" fill="#213346"/>
<path d="M67.2771 54.1394C67.1293 54.1395 66.9858 54.0897 66.8698 53.998C66.7539 53.9062 66.6724 53.778 66.6385 53.6341C66.4056 52.7731 66.3312 51.8769 66.4187 50.9892C66.5159 50.0156 66.9623 49.1101 67.6754 48.4401C67.7399 48.3827 67.8151 48.3385 67.8967 48.31C67.9783 48.2816 68.0646 48.2696 68.1509 48.2745C68.2372 48.2795 68.3216 48.3014 68.3994 48.339C68.4772 48.3766 68.5468 48.4292 68.6043 48.4937C68.6617 48.5582 68.7059 48.6334 68.7344 48.715C68.7628 48.7966 68.7748 48.883 68.7699 48.9692C68.7649 49.0555 68.743 49.1399 68.7054 49.2177C68.6678 49.2955 68.6152 49.3651 68.5507 49.4226C68.0755 49.8806 67.7819 50.4951 67.7242 51.1526C67.655 51.8838 67.7187 52.6213 67.9121 53.3298C67.9516 53.4996 67.9225 53.6782 67.831 53.8267C67.7396 53.9752 67.5931 54.0815 67.4237 54.1225C67.3756 54.1333 67.3264 54.139 67.2771 54.1394Z" fill="#213346"/>
<path d="M36.9249 11.4587H37.449C44.7277 11.4587 51.7083 14.3502 56.8551 19.497C62.0019 24.6438 64.8934 31.6244 64.8934 38.9031V56.7485C64.8951 60.3876 64.18 63.9913 62.7888 67.3539C61.3976 70.7166 59.3576 73.7722 56.7854 76.3464C54.2132 78.9205 51.159 80.9628 47.7974 82.3565C44.4358 83.7502 40.8326 84.468 37.1936 84.469C29.8451 84.469 22.7977 81.5498 17.6015 76.3537C12.4054 71.1576 9.48624 64.1101 9.48624 56.7617V38.9162C9.48451 35.3116 10.1929 31.7419 11.571 28.411C12.9491 25.0802 14.9698 22.0534 17.5179 19.5036C20.0659 16.9539 23.0912 14.9311 26.4211 13.5507C29.7511 12.1703 33.3203 11.4595 36.9249 11.4587Z" fill="#F9CDB7"/>
<path d="M40.7063 83.9111C39.4434 84.0868 38.1699 84.1753 36.8949 84.176C21.653 84.176 9.18756 71.7086 9.18756 56.4686V38.2475C9.18756 23.3513 21.3732 11.1638 36.2694 11.1638H37.5185C38.5858 11.1626 39.6522 11.2253 40.7119 11.3517C28.6015 12.7943 18.1121 23.8266 16.1867 36.123C15.5937 40.0451 14.7574 43.9266 13.6827 47.745L11.175 56.4686C11.175 70.4162 27.2509 82.0402 40.7063 83.9111Z" fill="#E2A78D"/>
<path d="M36.8949 85.3143C29.3288 85.293 22.0787 82.2779 16.7287 76.9279C11.3786 71.5778 8.36357 64.3277 8.34225 56.7617V38.9068C8.36209 31.4104 11.3487 24.2266 16.6493 18.9256C21.95 13.6246 29.1336 10.6375 36.63 10.6172H37.1541C44.6512 10.6365 51.8358 13.6232 57.1372 18.9243C62.4387 24.2254 65.4258 31.4097 65.4457 38.9068V56.7617C65.4234 64.3274 62.408 71.577 57.0582 76.9268C51.7083 82.2766 44.4588 85.292 36.893 85.3143H36.8949ZM36.63 12.3078C29.5816 12.3276 22.8276 15.1364 17.8436 20.1204C12.8596 25.1044 10.0508 31.8584 10.031 38.9068V56.7617C10.0523 63.8793 12.8892 70.6994 17.9222 75.7324C22.9552 80.7654 29.7753 83.6024 36.893 83.6237C44.0107 83.6024 50.8308 80.7654 55.8638 75.7324C60.8968 70.6994 63.7337 63.8793 63.7551 56.7617V38.9068C63.7352 31.8584 60.9265 25.1044 55.9425 20.1204C50.9585 15.1364 44.2044 12.3276 37.156 12.3078H36.63Z" fill="#213346"/>
<path d="M62.0719 52.1274V52.165C61.9686 52.1688 62.0099 52.1443 62.0719 52.1274Z" fill="#BFE1EE"/>
<path d="M35.6232 98.4709C54.2692 98.4709 69.3848 94.0253 69.3848 88.5414C69.3848 83.0574 54.2692 78.6118 35.6232 78.6118C16.9771 78.6118 1.86154 83.0574 1.86154 88.5414C1.86154 94.0253 16.9771 98.4709 35.6232 98.4709Z" fill="#DFE7EA"/>
<path d="M64.0068 61.1554C67.9797 68.4044 66.7155 75.4712 66.8545 82.2148L64.7037 79.8348C63.8968 84.0402 61.9433 87.9407 59.0589 91.1056C58.428 89.9519 57.5317 88.9649 56.4441 88.2259C55.6495 91.776 53.7652 94.9889 51.0548 97.4154C51.4372 96.4905 51.6173 95.4946 51.5829 94.4944C51.5486 93.4942 51.3006 92.513 50.8556 91.6166C50.3791 93.0982 49.5952 94.4626 48.5551 95.6204C47.5151 96.7783 46.2423 97.7036 44.8201 98.3358C45.2676 97.7069 45.5478 96.9745 45.6342 96.2075C45.7206 95.4406 45.6105 94.6642 45.3142 93.9515C43.1239 97.669 36.8273 97.7817 34.5074 94.1393C34.3458 94.8738 34.4642 95.8393 35.2137 95.9013C32.0579 96.3878 29.1688 95.0579 26.9973 92.7173C27.1305 94.0449 27.7589 95.2736 28.7574 96.1587C27.0713 96.0514 25.4431 95.5029 24.0357 94.5683C22.6283 93.6337 21.4912 92.3456 20.7382 90.8332C16.6657 91.0868 12.5988 88.2973 11.3703 84.407C11.4553 84.7349 11.4531 85.0793 11.3642 85.4061C11.2752 85.7329 11.1025 86.0308 10.8631 86.2704C3.8283 82.6976 4.20399 66.6856 8.81187 61.4015C8.81187 61.4015 18.5104 62.9568 24.4031 67.4257C28.16 70.2772 34.637 63.7984 40.1108 63.7759C44.6962 63.7552 47.1476 69.5709 50.0855 66.8114C57.8567 59.5136 63.9391 61.0314 64.0068 61.1554Z" fill="#E99A4F"/>
<path d="M67.1269 81.3788L64.976 78.997C64.1704 83.2008 62.2203 87.1009 59.3407 90.2677C58.7093 89.1139 57.8131 88.1263 56.7258 87.3862C55.9317 90.9364 54.0474 94.1495 51.3365 96.5756C51.7185 95.6507 51.8983 94.6548 51.8639 93.6547C51.8296 92.6546 51.5819 91.6734 51.1374 90.7768C50.6597 92.2588 49.8742 93.6232 48.8325 94.7805C47.7908 95.9378 46.5163 96.8619 45.0925 97.4923C45.5397 96.8636 45.8196 96.1316 45.906 95.3649C45.9925 94.5983 45.8825 93.8223 45.5865 93.1099C43.3963 96.8273 37.0997 96.94 34.7797 93.2977C34.6163 94.0341 34.8004 96.7372 35.5518 96.801C32.396 97.2857 29.4412 94.2181 27.2697 91.8757C27.3955 93.1906 27.7224 95.5556 28.7123 96.4272C25.3499 96.2563 22.4721 93.0234 21.0106 89.9916C16.9381 90.2452 12.8712 87.4557 11.6427 83.5654C11.7276 83.8936 11.7255 84.2382 11.6365 84.5653C11.5476 84.8924 11.3749 85.1907 11.1355 85.4307C8.7048 84.1984 7.10059 81.5254 6.23462 78.3151C9.34535 80.5861 13.0065 82.1396 16.6263 83.5353C19.0833 84.4746 21.5723 85.3819 24.1627 85.8533C26.6761 86.3098 29.2439 86.3549 31.7986 86.4C38.8861 86.5221 46.2628 86.5878 52.6759 83.541C54.513 82.6675 56.4497 81.1741 56.3858 79.1397C56.3126 76.8142 53.7691 75.488 51.5995 74.6558C56.2205 73.9702 60.0113 70.3861 62.1189 66.2178C62.9071 64.6337 63.5297 62.9724 63.9767 61.2605L64.5985 61.7451C66.4976 68.4043 66.9879 74.6352 67.1269 81.3788Z" fill="#CE7149"/>
<path d="M33.8687 64.0557L24.5064 67.5459L9.10303 60.5562C8.08605 61.7338 7.31399 63.1023 6.83197 64.5817C10.052 65.3286 13.1789 66.4318 16.1548 67.8709C17.6185 68.567 19.0444 69.3401 20.4264 70.187C21.1778 70.6491 22.7651 72.1613 23.6987 72.0448C23.9792 71.9877 24.2436 71.869 24.4726 71.6973C33.0403 66.1878 39.3275 65.9455 49.3717 67.7413L44.6586 64.995L33.8687 64.0557Z" fill="#E99A4F"/>
<path d="M49.0955 100L50.5476 96.5532C50.9446 95.5991 51.0933 94.5598 50.9796 93.5327C49.7212 95.7679 47.7751 97.5374 45.4306 98.5782L42.5716 99.8274L44.4087 97.3046C44.8176 96.7287 45.0518 96.0472 45.0831 95.3416C43.8358 96.4443 42.132 97.0867 40.2479 97.1205C38.7932 97.165 37.3558 96.7943 36.104 96.0517C36.3107 97.0829 36.322 98.0015 35.5217 98.3678L35.1686 98.5312L34.8154 98.3678C32.225 97.1731 30.1925 95.9427 28.4869 94.5151C28.7743 95.6985 29.103 96.1231 29.2702 96.2696L31.0942 97.8719L28.6691 97.7479C25.0756 97.5601 22.0945 94.1976 20.4978 91.1733H20.4865C16.9963 91.1733 13.6339 89.2141 11.8136 86.2649L11.7253 86.355L11.2933 86.7852L10.7523 86.511C8.07737 85.1416 6.14255 82.0515 5.31791 77.7986C4.11005 71.5697 5.48321 64.0389 8.45306 60.6426C8.52608 60.559 8.61485 60.4906 8.71432 60.4413C8.81378 60.3919 8.92198 60.3627 9.03274 60.3552C9.14351 60.3477 9.25467 60.3621 9.35987 60.3975C9.46507 60.433 9.56226 60.4888 9.64589 60.5619C9.72951 60.6349 9.79794 60.7237 9.84725 60.8231C9.89657 60.9226 9.92581 61.0308 9.93331 61.1415C9.94082 61.2523 9.92643 61.3635 9.89097 61.4687C9.85551 61.5739 9.79968 61.6711 9.72666 61.7547C7.06863 64.8016 5.86266 71.7105 6.98222 77.4774C7.63029 80.8098 8.98842 83.3007 10.8425 84.5874C10.8774 84.4285 10.8735 84.2636 10.8312 84.1065L12.4542 83.6294C13.5606 87.1308 17.3006 89.6931 20.9636 89.4658L21.5272 89.4301L21.7751 89.9429C23.2403 92.9841 25.2597 94.8363 27.0499 95.614C26.7263 94.5231 26.5191 93.4011 26.4318 92.2666L26.1895 89.7908L27.8895 91.6223C29.5801 93.4425 31.6258 94.9152 34.4322 96.3184C34.3665 96.0103 34.2857 95.6835 34.2275 95.4506C33.9833 94.4794 33.8518 93.9065 33.9532 93.4425L34.3909 91.4438L35.4917 93.1682C36.4215 94.6259 38.1891 95.475 40.216 95.4393C42.2429 95.4036 43.9729 94.5001 44.8577 92.9973L45.7049 91.5584L46.3623 93.0931C46.7352 93.9705 46.865 94.9321 46.738 95.877C48.4272 94.6088 49.6814 92.8479 50.3278 90.8371L50.9458 88.8515L51.885 90.7093C52.4257 91.7927 52.7073 92.9868 52.7078 94.1976C54.2599 92.2393 55.3484 89.955 55.8918 87.5159L56.1604 86.2987L57.1917 86.9994C58.0586 87.5888 58.8179 88.3226 59.4364 89.169C61.8126 86.2745 63.4316 82.8345 64.1476 79.1586L64.4651 77.4887L66.4318 79.6658C66.8376 72.6047 65.7988 66.8397 63.2065 61.6495C63.1418 61.5497 63.099 61.4373 63.0807 61.3198C63.0624 61.2023 63.0691 61.0823 63.1003 60.9675C63.1316 60.8528 63.1868 60.7459 63.2621 60.6539C63.3375 60.5619 63.4315 60.4869 63.5379 60.4337C63.6442 60.3805 63.7607 60.3504 63.8795 60.3453C63.9983 60.3401 64.1169 60.3601 64.2274 60.404C64.338 60.4478 64.4381 60.5145 64.5211 60.5996C64.6041 60.6848 64.6683 60.7865 64.7093 60.8981C67.6829 66.8528 68.7161 73.4838 67.9609 81.7772L67.7862 83.7008L65.4325 81.0953C64.4448 84.8428 62.5626 88.2946 59.9474 91.1545L59.1472 92.028L58.5836 90.9873C58.2162 90.3179 57.7487 89.7086 57.1973 89.1803C56.2253 92.3961 54.3868 95.2823 51.8831 97.5225L49.0955 100Z" fill="#213346"/>
<path d="M30.634 80.2819C30.1294 80.2809 29.6458 80.0802 29.2889 79.7236C28.9319 79.367 28.7307 78.8836 28.7292 78.379V71.0981C28.7307 70.5934 28.9319 70.1098 29.2888 69.7529C29.6456 69.396 30.1293 69.1948 30.634 69.1934H43.956C44.4604 69.1953 44.9436 69.3967 45.3001 69.7536C45.6565 70.1104 45.8574 70.5937 45.8589 71.0981V78.379C45.8574 78.8833 45.6565 79.3664 45.2999 79.7229C44.9434 80.0795 44.4603 80.2804 43.956 80.2819" fill="#F9CDB7"/>
<path d="M46.182 71.8909V74.1451C46.0341 73.8051 45.7902 73.5156 45.4803 73.3121C45.1703 73.1086 44.8077 72.9998 44.4369 72.9992H31.1092C30.6047 73.0002 30.1211 73.201 29.7641 73.5575C29.4072 73.9141 29.206 74.3976 29.2045 74.9021V79.9289C29.1012 79.6918 29.0475 79.4361 29.0467 79.1775V71.8909C29.0482 71.3867 29.2491 70.9036 29.6057 70.547C29.9622 70.1905 30.4454 69.9895 30.9496 69.988H44.2867C44.7896 69.9915 45.2708 70.1933 45.6257 70.5497C45.9806 70.906 46.1806 71.388 46.182 71.8909Z" fill="#E2A78D"/>
<path d="M37.218 68.9736C38.593 68.9736 39.9361 68.9736 41.2323 68.9924L43.1408 69.015H43.6066H43.8377H43.9016H43.9861L44.1533 69.0262C44.5941 69.0762 45.0166 69.2308 45.3856 69.4771C45.7365 69.7105 46.029 70.0215 46.2407 70.3859C46.4524 70.7504 46.5776 71.1586 46.6066 71.5791V71.7312V71.859V72.0675L46.5859 72.5089C46.5859 72.7813 46.5709 73.0518 46.5615 73.3166C46.5277 74.3761 46.4901 75.3642 46.4469 76.2639C46.4037 77.1637 46.3567 77.9809 46.306 78.6966C46.306 78.7867 46.2947 78.875 46.2872 78.9614C46.2872 79.0046 46.2872 79.0478 46.2872 79.0892C46.2872 79.1305 46.2778 79.1925 46.2722 79.2413C46.2489 79.4408 46.2003 79.6365 46.1275 79.8236C45.999 80.141 45.7999 80.425 45.5452 80.6539C45.2123 80.9579 44.7822 81.1336 44.3317 81.1498C44.2181 81.154 44.1047 81.1368 43.9974 81.0991C43.9241 81.0709 43.8884 81.0409 43.8884 81.0071C43.8884 80.9732 43.9241 80.9413 43.9861 80.9056L44.251 80.7779C44.5534 80.6329 44.8154 80.4155 45.0136 80.1448C45.1404 79.9635 45.2292 79.7584 45.2747 79.5419C45.2971 79.423 45.3053 79.302 45.2991 79.1812V79.0816C45.2991 79.0403 45.2991 78.9971 45.2898 78.9539C45.2898 78.8675 45.2766 78.7792 45.271 78.689C45.2203 77.9733 45.1733 77.1581 45.132 76.2564C45.0906 75.3548 45.0493 74.3686 45.0155 73.3091C45.0155 73.0443 44.9986 72.7738 44.9911 72.5014L44.9798 72.0862V71.8777V71.8251V71.7951V71.735C44.9586 71.5753 44.9017 71.4224 44.8132 71.2877C44.7248 71.1531 44.6071 71.0401 44.4689 70.9573C44.3293 70.8743 44.1724 70.8248 44.0105 70.8126H43.8678H43.6367H43.1708L41.2623 70.8352C39.9662 70.8483 38.6231 70.8559 37.248 70.8559C35.873 70.8559 34.5299 70.8559 33.2338 70.8352L31.2933 70.8183H30.8293H30.5983H30.4555C30.2936 70.8304 30.1367 70.8799 29.9972 70.9629C29.859 71.0458 29.7413 71.1587 29.6528 71.2934C29.5643 71.428 29.5074 71.5809 29.4862 71.7406V71.8007V71.8308V71.8834V72.0919L29.475 72.507C29.475 72.7794 29.4581 73.0499 29.4505 73.3148C29.4167 74.3742 29.3773 75.3623 29.3341 76.2621C29.2909 77.1619 29.2458 77.979 29.1951 78.6947C29.1951 78.7848 29.1819 78.8731 29.1763 78.9595C29.1763 79.0027 29.1763 79.0459 29.1763 79.0873V79.1868C29.1701 79.3076 29.1783 79.4287 29.2007 79.5475C29.2454 79.7643 29.3343 79.9696 29.4618 80.1505C29.6591 80.4219 29.9213 80.6395 30.2245 80.7835L30.4875 80.9113C30.5513 80.947 30.5851 80.9808 30.5851 81.0127C30.5851 81.0446 30.5513 81.0766 30.4781 81.1047C30.3708 81.1424 30.2573 81.1596 30.1437 81.1555C29.6897 81.1386 29.2566 80.9601 28.9227 80.652C28.6687 80.4229 28.4702 80.139 28.3422 79.8218C28.2695 79.6346 28.2209 79.4389 28.1976 79.2394C28.1976 79.1906 28.1845 79.1286 28.1826 79.0873L28.1713 78.9595C28.1713 78.8731 28.16 78.7848 28.1525 78.6947C28.1037 77.979 28.0567 77.1637 28.0135 76.2621C27.9703 75.3604 27.9327 74.3742 27.8989 73.3148C27.8989 73.0499 27.882 72.7794 27.8745 72.507C27.8745 72.3699 27.8651 72.2309 27.8614 72.0919V71.8834V71.7575V71.6054C27.9078 70.9603 28.1785 70.3519 28.6266 69.8856C29.0748 69.4193 29.672 69.1246 30.3146 69.0525L30.4818 69.0413H30.5663H30.6302H30.8613H31.3252L33.2356 69.0187C34.4999 68.9793 35.843 68.9736 37.218 68.9736Z" fill="#213346"/>
<path d="M11.1731 65.0606C11.13 65.6514 11.1609 66.2452 11.2651 66.8283C11.38 67.4311 11.5693 68.0172 11.8287 68.5734C11.4058 68.0961 11.0442 67.568 10.7523 67.0011C10.4598 66.4104 10.2415 65.7857 10.1024 65.1414C9.96139 64.4804 9.89834 63.8052 9.91453 63.1296C9.92228 62.7853 9.94862 62.4416 9.99343 62.1002C10.0376 61.7391 10.1111 61.3823 10.2132 61.0332L12.1687 61.8898C12.0241 62.1092 11.8984 62.3404 11.793 62.5811C11.6794 62.8387 11.5791 63.1021 11.4924 63.37C11.3212 63.9194 11.214 64.4867 11.1731 65.0606Z" fill="#213346"/>
<path d="M14.0885 66.6669C14.2406 68.0569 14.8586 69.447 15.7528 70.6511C14.5402 69.6658 13.6085 68.3784 13.0515 66.9186C12.7696 66.1383 12.6228 65.3156 12.6176 64.486C12.6104 63.6088 12.7784 62.7389 13.1117 61.9275L14.9901 62.9381C14.2763 63.8999 13.9401 65.2899 14.0885 66.6669Z" fill="#213346"/>
<path d="M19.4083 67.713C19.5613 69.062 19.9992 70.3631 20.6931 71.53C19.6777 70.5217 18.887 69.3098 18.3732 67.9741C17.8252 66.5711 17.5813 65.0678 17.6575 63.5635L19.7614 63.9241C19.3743 65.1473 19.2539 66.4393 19.4083 67.713Z" fill="#213346"/>
<path d="M54.0359 66.9505C54.1069 67.4997 54.0872 68.0569 53.9776 68.5998C53.8837 69.0187 53.7409 69.2629 53.6019 69.2535C53.3333 69.2253 53.2262 68.241 53.0722 67.0651C52.9182 65.8891 52.8167 64.903 53.0722 64.8109C53.1962 64.7696 53.3934 64.9743 53.5831 65.3575C53.8203 65.8601 53.9732 66.3983 54.0359 66.9505Z" fill="#213346"/>
<path d="M58.268 65.8382C58.254 66.6201 58.102 67.3934 57.8191 68.1225C57.5918 68.686 57.3513 68.9753 57.2292 68.9321C56.9719 68.8344 57.2762 67.48 57.3081 65.812C57.3401 64.1439 57.1297 62.7764 57.3927 62.6937C57.5148 62.658 57.7402 62.9661 57.9393 63.5334C58.1827 64.2766 58.294 65.0567 58.268 65.8382Z" fill="#213346"/>
<path d="M62.7238 65.149C62.8054 65.7225 62.8368 66.302 62.8177 66.881C62.8024 67.3532 62.7471 67.8232 62.6524 68.2861C62.4852 69.0731 62.2541 69.524 62.132 69.4977C61.8559 69.4394 62.1151 67.5497 61.7733 65.2862C61.4314 63.0226 60.7025 61.2625 60.9542 61.1329C61.0669 61.0746 61.4069 61.4485 61.7826 62.1585C61.9995 62.577 62.1823 63.0124 62.3293 63.4603C62.5068 64.0114 62.6387 64.5763 62.7238 65.149Z" fill="#213346"/>
<path d="M12.8205 84.3676C12.7471 83.8298 12.7307 83.2858 12.7717 82.7446C12.792 82.5095 12.8246 82.2756 12.8694 82.0439C12.9073 81.8421 12.9568 81.6427 13.0178 81.4466C13.2413 80.7271 13.5212 80.3421 13.6377 80.3834C13.7541 80.4247 13.7259 80.8774 13.6846 81.5706C13.6846 81.7434 13.6621 81.9312 13.6602 82.1341C13.6583 82.337 13.6602 82.5511 13.6602 82.7747C13.6709 83.2623 13.7091 83.749 13.7748 84.2323C13.848 84.7123 13.9458 85.1882 14.0678 85.6581C14.1317 85.8741 14.1862 86.0826 14.2557 86.2724C14.3252 86.4621 14.3796 86.648 14.4435 86.8077C14.6764 87.4595 14.8455 87.8784 14.7309 87.9592C14.6163 88.04 14.2538 87.7413 13.8368 87.112C13.722 86.9433 13.6179 86.7677 13.5249 86.5861C13.4166 86.3759 13.3194 86.1602 13.2338 85.9399C13.0413 85.4317 12.9028 84.9047 12.8205 84.3676Z" fill="#213346"/>
<path d="M18.8447 86.9729C18.7259 86.1056 18.7221 85.2264 18.8335 84.3581C18.9217 83.6988 19.0532 83.2987 19.1847 83.3005C19.3162 83.3024 19.4252 83.7119 19.5116 84.3581C19.598 85.0043 19.6619 85.8909 19.7952 86.8377C19.8647 87.3092 19.9493 87.7506 20.0394 88.1526C20.0939 88.3405 20.1334 88.5396 20.1897 88.7162C20.2135 88.8038 20.2379 88.8884 20.263 88.9698L20.34 89.2008C20.5278 89.7906 20.695 90.1701 20.5823 90.2546C20.4696 90.3392 20.1202 90.0818 19.7332 89.5032L19.5867 89.2722C19.5398 89.1914 19.4966 89.1031 19.4496 89.0111C19.353 88.8168 19.2671 88.6174 19.1922 88.4137C19.0309 87.9456 18.9145 87.4632 18.8447 86.9729Z" fill="#213346"/>
<path d="M26.0298 88.226C25.2371 85.4083 25.1301 83.032 25.3855 83.0001C25.641 82.9682 26.1801 85.2261 26.954 87.9686C27.728 90.7112 28.4437 92.9203 28.1938 93.0273C27.944 93.1344 26.8132 91.0418 26.0298 88.226Z" fill="#213346"/>
<path d="M47.2358 90.5084C47.5908 89.3231 47.8407 88.2092 48.0623 87.4052C48.284 86.6012 48.47 86.1015 48.6033 86.1222C48.7367 86.1429 48.7799 86.6688 48.7311 87.5141C48.6636 88.6239 48.4701 89.7223 48.1544 90.7883C47.9731 91.3825 47.7425 91.9606 47.465 92.5165C47.3394 92.7588 47.2015 92.9946 47.0517 93.2228C46.9822 93.3298 46.9146 93.435 46.8451 93.5308L46.6328 93.7995C46.0693 94.4776 45.6072 94.765 45.5189 94.6805C45.4306 94.5959 45.6955 94.1413 46.0674 93.4256C46.1144 93.3374 46.1613 93.2378 46.2121 93.1458L46.3586 92.8358C46.4638 92.6254 46.5464 92.3869 46.6629 92.1464C46.8582 91.6524 47.0555 91.1058 47.2358 90.5084Z" fill="#213346"/>
<path d="M52.8318 88.3706C53.0835 86.9279 53.2075 85.5717 53.3953 84.5949C53.5832 83.6181 53.7353 83.0226 53.8668 83.0338C53.9983 83.0451 54.0678 83.6631 54.0697 84.6531C54.0829 85.9545 53.9855 87.2547 53.7785 88.5396C53.654 89.2616 53.4602 89.9699 53.1999 90.6548C52.9847 91.2186 52.7062 91.7561 52.3697 92.2571C51.7798 93.1099 51.2426 93.4706 51.1468 93.3842C51.051 93.2978 51.3853 92.7831 51.7798 91.919C52.0081 91.4131 52.2032 90.8929 52.364 90.3617C52.5603 89.7082 52.7165 89.0432 52.8318 88.3706Z" fill="#213346"/>
<path d="M58.4935 84.762C58.7733 83.5936 58.9668 82.5079 59.1472 81.7133C59.3275 80.9187 59.4909 80.434 59.6243 80.4491C59.7577 80.4641 59.8272 80.9713 59.8121 81.7922C59.7963 82.8679 59.6634 83.9387 59.4158 84.9856C59.2753 85.5705 59.0868 86.1429 58.8522 86.6968C58.7339 86.9504 58.6287 87.1909 58.501 87.4069C58.439 87.514 58.3826 87.6192 58.3131 87.7169L58.1253 87.993C57.6387 88.6861 57.2105 89.0055 57.1147 88.9322C57.0189 88.859 57.2292 88.3931 57.5317 87.6699C57.5692 87.5797 57.6106 87.482 57.6519 87.3862C57.6932 87.2904 57.7289 87.1834 57.7684 87.0744C57.8566 86.864 57.928 86.6273 58.0163 86.385C58.1929 85.8929 58.3507 85.3462 58.4935 84.762Z" fill="#213346"/>
<path d="M60.4113 82.9982C60.7138 82.2562 60.9617 81.5349 61.1627 80.8699C61.2566 80.5355 61.3506 80.2199 61.4276 79.9175C61.5046 79.6151 61.5741 79.3352 61.6342 79.0778C61.8709 78.0447 61.9968 77.3872 62.1376 77.3872C62.2785 77.3872 62.3762 78.071 62.3048 79.1755C62.286 79.4498 62.2597 79.7522 62.2071 80.0734C62.1545 80.3946 62.0926 80.7365 62.0193 81.0953C61.6615 82.6481 61.0462 84.13 60.1991 85.4796C59.9981 85.7858 59.8102 86.0789 59.6111 86.3362C59.412 86.5936 59.226 86.8321 59.0476 87.0388C58.3169 87.8709 57.7533 88.2692 57.6632 88.1828C57.573 88.0964 57.9393 87.5328 58.5028 86.6349C58.6437 86.4095 58.7977 86.1653 58.9518 85.8948C59.1058 85.6243 59.2692 85.3312 59.4402 85.0344C59.7651 84.4221 60.1108 83.7364 60.4113 82.9982Z" fill="#213346"/>
<path d="M7.77309 68.5227C7.91397 67.8371 8.28591 67.3581 8.53762 67.437C8.78934 67.5159 8.84193 68.0813 8.71232 68.7162C8.5827 69.3511 8.31033 69.8433 8.04546 69.8226C7.7806 69.8019 7.6322 69.2065 7.77309 68.5227Z" fill="white"/>
<path d="M8.00975 75.9296C7.7603 75.0199 7.6414 74.0794 7.6566 73.1363C7.68102 72.4131 7.805 71.9717 7.93273 71.9717C8.20887 71.9717 8.38732 73.6773 8.93771 75.6798C9.4881 77.6822 10.1831 79.2488 9.94644 79.3841C9.83562 79.448 9.50313 79.1324 9.11616 78.52C8.62314 77.715 8.2504 76.8423 8.00975 75.9296Z" fill="white"/>
<path d="M24.5233 68.3255H24.4313C23.4658 68.2917 22.7069 67.7169 22.0982 67.2529L22.0607 67.2248C18.3021 64.3833 13.9175 62.4838 9.27396 61.6852C9.05529 61.6449 8.8613 61.52 8.73402 61.3377C8.60675 61.1554 8.55644 60.9302 8.594 60.7111C8.63155 60.4919 8.75395 60.2964 8.93467 60.1668C9.11539 60.0373 9.33988 59.9842 9.55949 60.019C14.4711 60.8636 19.1088 62.8726 23.0844 65.8779L23.122 65.9061C23.5841 66.2573 24.0612 66.6199 24.4933 66.6368C24.9253 66.6537 25.4081 66.3344 25.9172 65.9981L26.0618 65.9042C28.9471 64.0257 32.6909 62.9813 36.6056 62.9813C40.5185 62.9813 44.2641 64.0182 47.1494 65.9042L47.2941 65.9981C47.8031 66.3344 48.2803 66.6518 48.718 66.6368C49.1556 66.6218 49.6271 66.2611 50.0892 65.9061L50.1268 65.8779C54.1024 62.8726 58.7402 60.8636 63.6517 60.019C63.8714 59.9842 64.0958 60.0373 64.2766 60.1668C64.4573 60.2964 64.5797 60.4919 64.6172 60.7111C64.6548 60.9302 64.6045 61.1554 64.4772 61.3377C64.3499 61.52 64.1559 61.6449 63.9373 61.6852C59.2937 62.4838 54.9091 64.3833 51.1506 67.2248L51.113 67.2529C50.5044 67.715 49.7455 68.2917 48.7799 68.3255C47.8144 68.3594 47.0085 67.8334 46.3661 67.4107L46.2271 67.3187C40.8322 63.7947 32.3809 63.7947 26.986 67.3187L26.847 67.4107C26.2233 67.8127 25.4532 68.3255 24.5233 68.3255Z" fill="#213346"/>
<path d="M36.7033 59.8103C36.5289 59.8103 36.3617 59.7411 36.2384 59.6178C36.1151 59.4945 36.0458 59.3272 36.0458 59.1529V50.4011C36.0458 50.2267 36.1151 50.0595 36.2384 49.9362C36.3617 49.8129 36.5289 49.7437 36.7033 49.7437C36.8776 49.7437 37.0449 49.8129 37.1682 49.9362C37.2915 50.0595 37.3607 50.2267 37.3607 50.4011V59.1529C37.3607 59.3272 37.2915 59.4945 37.1682 59.6178C37.0449 59.7411 36.8776 59.8103 36.7033 59.8103Z" fill="#213346"/>
<path d="M39.3068 36.5756C38.9913 37.9694 39.104 39.8291 40.0826 40.9543C41.2229 42.2692 43.0224 41.9987 44.5759 41.9348C46.4724 41.8496 48.3711 42.0433 50.2113 42.5097C51.7141 42.8853 53.0553 43.8152 54.5825 44.08C56.2562 44.3712 56.6488 43.4808 55.533 42.2542C54.2294 40.8153 52.3396 39.2843 50.5664 38.4503C47.0636 36.849 43.2059 36.1818 39.3688 36.5136" fill="#E2A78D"/>
<path d="M39.4834 34.5243C39.1678 35.9162 39.2787 37.7759 40.2573 38.9011C41.3976 40.216 43.1971 39.9474 44.7506 39.8817C46.6472 39.797 48.5459 39.9913 50.386 40.4583C51.8888 40.8434 53.2319 41.762 54.7572 42.0287C56.4309 42.3199 56.8235 41.4276 55.7096 40.201C54.4041 38.764 52.5162 37.2311 50.7411 36.399C47.2393 34.7963 43.3821 34.1284 39.5454 34.4604" fill="#E99A4F"/>
<path d="M55.3395 42.7407C55.1076 42.7388 54.8763 42.7168 54.6482 42.675C53.7316 42.5172 52.8956 42.1509 52.0879 41.7978C51.4873 41.5138 50.8648 41.2789 50.2263 41.0952C48.4479 40.6414 46.6125 40.4515 44.7788 40.5317C44.6116 40.5317 44.4426 40.5467 44.2735 40.5561C42.8102 40.6369 40.9899 40.7439 39.7652 39.3257C38.5686 37.9507 38.5216 35.798 38.8447 34.3722C38.8765 34.2321 38.953 34.1062 39.0626 34.0134C39.1722 33.8913 39.3238 33.8148 39.4872 33.7993C43.4423 33.4539 47.4193 34.142 51.0284 35.7961C52.7341 36.5982 54.7177 38.1141 56.2036 39.7521C57.2274 40.8792 57.0489 41.655 56.8498 42.0157C56.6864 42.3125 56.29 42.7407 55.3395 42.7407ZM45.6072 39.2055C47.2759 39.2026 48.9383 39.4102 50.5551 39.8235C51.2634 40.0242 51.9544 40.2818 52.6214 40.5937C53.3915 40.9318 54.1241 41.2492 54.8755 41.3826C55.1405 41.4504 55.4183 41.4504 55.6833 41.3826C55.6682 41.2812 55.5706 41.0257 55.2268 40.6481C53.8518 39.1303 52.0334 37.7309 50.4668 36.9964C47.2061 35.5057 43.6265 34.8473 40.0488 35.0804C39.8779 36.2356 40.0263 37.637 40.7551 38.4748C41.561 39.4008 42.844 39.3295 44.2021 39.2543L44.7243 39.228C45.0192 39.213 45.3142 39.2055 45.6072 39.2055Z" fill="#213346"/>
<path d="M34.389 35.0203C34.7046 36.4141 34.5938 38.2738 33.6151 39.399C32.473 40.7139 30.6753 40.4434 29.1218 40.3777C27.2236 40.2923 25.3231 40.4854 23.4808 40.9506C21.978 41.3263 20.6368 42.2561 19.1096 42.521C17.4378 42.8121 17.0433 41.9199 18.1591 40.6951C19.474 39.2562 21.3525 37.7234 23.1276 36.8912C26.4262 35.3396 30.6246 34.5826 34.3233 34.9545" fill="#E2A78D"/>
<path d="M33.4949 33.0252C33.8104 34.419 33.6996 36.2787 32.7209 37.4039C31.5788 38.7188 29.7793 38.4483 28.2258 38.3826C26.3292 38.298 24.4305 38.4923 22.5904 38.9592C21.0876 39.3349 19.7464 40.2648 18.2192 40.5296C16.5455 40.8208 16.1529 39.9285 17.2687 38.7038C18.5723 37.2649 20.4621 35.732 22.2372 34.8999C25.5358 33.3483 29.7323 32.5912 33.4329 32.9613" fill="#E99A4F"/>
<path d="M17.6387 41.2418C16.6882 41.2418 16.2919 40.8154 16.136 40.5242C15.9387 40.1635 15.7603 39.3971 16.7822 38.27C18.268 36.632 20.2517 35.1142 21.9592 34.3121C25.5664 32.6577 29.5412 31.9677 33.4949 32.3097C33.6575 32.326 33.8081 32.4024 33.9175 32.5238C34.0281 32.6158 34.1047 32.7421 34.1354 32.8826C34.4585 34.3084 34.4116 36.4611 33.2168 37.8361C31.9883 39.2487 30.1681 39.151 28.7085 39.0684L28.2032 39.0421C26.3696 38.962 24.5341 39.1519 22.7557 39.6056C22.1173 39.7896 21.4948 40.0245 20.8941 40.3082C20.0864 40.6613 19.2505 41.0276 18.3338 41.1873C18.1041 41.2256 17.8716 41.2439 17.6387 41.2418ZM17.295 39.8818C17.5602 39.9479 17.8375 39.9479 18.1027 39.8818C18.8541 39.7503 19.5924 39.4309 20.3569 39.0947C21.0235 38.7816 21.7146 38.5234 22.4232 38.3226C24.3247 37.8401 26.2867 37.6395 28.2464 37.7272C28.4174 37.7272 28.5921 37.7441 28.7686 37.7535C30.1268 37.8286 31.4098 37.8981 32.2175 36.972C32.9445 36.1342 33.0929 34.7329 32.9219 33.5776C29.3465 33.3477 25.7699 34.0094 22.5134 35.5031C20.9524 36.2357 19.1321 37.6351 17.7515 39.1529C17.4077 39.5248 17.31 39.7803 17.295 39.8818Z" fill="#213346"/>
<path d="M63.9542 45.8047C62.8271 37.1487 57.3476 28.3481 53.0253 22.6357L51.7103 21.6458L62.9811 21.2588C65.147 29.1671 65.7124 37.778 63.9542 45.8047Z" fill="#CE7149"/>
<path d="M46.8601 22.7032C47.3116 22.8842 47.7433 23.1108 48.1488 23.3794C48.48 23.5961 48.7867 23.848 49.0636 24.1308C49.5351 24.6249 49.7116 25.0325 49.5839 25.179C49.4562 25.3255 49.0467 25.2053 48.4794 24.963C48.1957 24.8409 47.8651 24.6962 47.5044 24.5347C47.1438 24.3732 46.7531 24.206 46.3285 24.0369C45.904 23.8678 45.502 23.7232 45.132 23.5861C44.7619 23.449 44.4181 23.3344 44.1289 23.2292C43.5503 23.0132 43.1727 22.8272 43.1896 22.6243C43.2065 22.4214 43.6066 22.2486 44.2867 22.2223C44.6829 22.2067 45.0796 22.2337 45.4701 22.3031C45.9456 22.3897 46.4113 22.5237 46.8601 22.7032Z" fill="white"/>
<path d="M17.3175 24.948C22.8008 24.0388 28.2821 25.5716 33.6602 26.6386C39.1077 27.715 44.3674 27.7488 49.815 26.4996C57.0283 24.8447 66.3605 21.2718 69.8582 13.14C70.0848 12.6129 70.2799 12.0729 70.4424 11.5226C66.6065 14.2652 61.591 13.8876 57.3476 12.0862C53.1041 10.2847 49.3716 7.24535 45.4193 4.72821C41.4671 2.21107 37.0301 0.171061 32.5275 0.682003C28.1525 1.17792 23.5559 4.03694 20.2442 7.25663C18.9923 8.44914 17.9597 9.85241 17.1936 11.4024C16.5305 12.7962 16.4046 14.8212 15.2644 15.8544C14.7271 16.3409 14.0265 16.5043 13.3859 16.8086C10.4762 18.2118 9.41673 22.2562 8.94524 25.8252C7.97407 33.1512 8.28026 40.6651 9.29839 47.9911" fill="#E99A4F"/>
<path d="M64.6191 46.3981C64.5481 46.3979 64.4773 46.3885 64.4088 46.3699C64.3012 46.3423 64.2001 46.2938 64.1113 46.2271C64.0225 46.1604 63.9477 46.0769 63.8911 45.9813C63.8346 45.8857 63.7975 45.7799 63.7819 45.6699C63.7663 45.56 63.7725 45.448 63.8001 45.3405C65.9491 37.0076 64.8201 29.7248 62.4664 21.3544C62.4331 21.2466 62.4217 21.1333 62.4329 21.021C62.4441 20.9088 62.4776 20.8 62.5315 20.7009C62.5854 20.6018 62.6586 20.5145 62.7467 20.4442C62.8349 20.3738 62.9362 20.3218 63.0448 20.2912C63.1534 20.2606 63.267 20.2521 63.3789 20.266C63.4908 20.28 63.5988 20.3163 63.6965 20.3726C63.7942 20.429 63.8796 20.5043 63.9477 20.5942C64.0159 20.6841 64.0653 20.7867 64.0932 20.896C66.522 29.537 67.6792 37.064 65.4381 45.7631C65.3912 45.9447 65.2853 46.1055 65.137 46.2204C64.9888 46.3353 64.8067 46.3978 64.6191 46.3981Z" fill="#213346"/>
<path d="M15.9087 27.4933C15.9087 27.7938 15.9087 28.0906 15.8918 28.3855L14.1523 33.5494L13.5663 35.2851C12.9783 36.3897 12.3453 37.4829 11.7592 38.5894C11.1731 39.6958 11.19 40.7627 10.773 41.8898C10.243 43.2638 9.83814 44.6828 9.56325 46.1295C9.18756 44.1853 8.43617 42.2467 8.207 40.2781C9.12745 39.5023 9.6985 38.3583 9.98591 37.1805C10.2977 35.905 10.3034 34.577 10.309 33.2639C11.0294 34.1368 11.5115 35.1813 11.7085 36.2957C11.7179 36.2544 11.7272 36.2093 11.7366 36.1661C12.2476 33.7016 12.6521 31.2183 12.9501 28.7161C13.0854 28.9697 13.2094 29.2271 13.3258 29.492C13.5461 30.0965 13.7225 30.7161 13.8537 31.346C13.8537 31.284 13.8706 31.2258 13.8762 31.1581C14.1429 29.2196 14.3195 27.2679 14.4059 25.303C15.012 25.9551 15.5184 26.6932 15.9087 27.4933Z" fill="#CE7149"/>
<path d="M63.4921 20.7965C61.6838 22.0101 59.7457 23.0182 57.7139 23.8021C57.2988 23.9655 56.8799 24.1252 56.461 24.2755C55.5612 24.5986 54.6558 24.886 53.756 25.1471C52.1424 25.6167 50.5494 25.9924 49.0467 26.2929C43.5991 27.3862 38.3394 27.3561 32.8919 26.415C30.0103 25.9154 27.1025 25.2992 24.1777 24.9573L17.1504 25.1057C17.1504 25.1809 17.1673 25.2579 17.1729 25.333L16.9738 25.3593L16.6601 26.152L16.4497 26.6799C16.4835 26.3869 16.506 26.0901 16.5136 25.7895C16.5286 25.2795 16.5066 24.7691 16.4478 24.2623L23.1276 24.1214C22.2714 24.3104 21.4025 24.4359 20.5278 24.4971H20.804C21.7105 24.4638 22.6112 24.3379 23.4921 24.1214C25.3705 23.6631 27.8689 22.5736 29.6234 21.7001C29.3961 22.3613 28.872 23.6218 28.2201 23.8791C30.7936 24.0237 32.6815 23.4001 35.2005 22.8553C34.5969 23.7023 33.7733 24.3681 32.8186 24.7808L32.7209 24.8221C32.8261 24.8221 32.9313 24.8221 33.0384 24.8221C33.0703 24.8052 33.1004 24.7864 33.1304 24.7676C33.5556 24.5064 33.959 24.2111 34.3364 23.8847L33.6376 25.0118C36.4384 25.3441 39.2779 25.0601 41.9573 24.1797L42.9698 23.8472L44.0518 23.6969C43.7306 24.0256 42.8158 24.3187 42.4345 24.5741C41.8669 24.958 41.2425 25.2503 40.5842 25.4401C40.8415 25.4401 41.2398 25.8383 41.4952 25.8158C43.3981 25.6843 45.1376 24.8972 47.0048 24.4746C47.6453 24.3299 48.4249 24.0369 49.0711 23.8847C49.6346 23.7476 51.344 23.186 51.8888 22.9793L51.6577 23.5278L52.3359 23.5128L51.9395 23.402L51.376 23.9655C51.3966 23.9655 51.2144 24.2548 51.2351 24.2473C54.3909 23.3475 60.1071 21.5742 63.1915 20.4565H63.3925C63.4225 20.5636 63.4582 20.6782 63.4921 20.7965Z" fill="#CE7149"/>
<path d="M9.2176 48.8964C9.12692 48.8967 9.0368 48.8821 8.95086 48.8532C8.73843 48.782 8.56284 48.6296 8.46251 48.4293C8.36218 48.229 8.34527 47.9971 8.4155 47.7843C8.97903 46.1181 16.0252 25.0775 16.0965 24.8671C16.1678 24.6543 16.3206 24.4786 16.5214 24.3786C16.7222 24.2785 16.9545 24.2623 17.1673 24.3336C17.38 24.4048 17.5557 24.5577 17.6558 24.7585C17.7558 24.9593 17.772 25.1916 17.7007 25.4043C17.6294 25.6166 10.5739 46.6554 10.0197 48.3216C9.96305 48.4893 9.85515 48.635 9.71123 48.7382C9.56732 48.8413 9.39465 48.8966 9.2176 48.8964Z" fill="#213346"/>
<path d="M10.0798 27.2132C10.2305 26.8357 10.4803 26.506 10.803 26.2589C11.0698 26.0711 11.3215 26.0316 11.483 26.1444C11.6446 26.2571 11.6972 26.4975 11.6709 26.7868C11.584 27.4662 11.316 28.1099 10.8951 28.6502C10.7072 28.87 10.4987 29.0015 10.3015 28.9639C10.1042 28.9264 9.96148 28.7179 9.90888 28.4004C9.8576 27.9965 9.91667 27.5862 10.0798 27.2132Z" fill="white"/>
<path d="M13.7673 23.3533C14.312 23.0997 14.8943 23.1861 15.0578 23.5412C15.2212 23.8962 14.9206 24.3996 14.3759 24.6551C13.8311 24.9106 13.2488 24.8223 13.0854 24.4672C12.922 24.1122 13.2225 23.6088 13.7673 23.3533Z" fill="white"/>
<path d="M16.2675 20.65C16.662 19.8122 17.2067 19.1979 17.5824 19.3238C17.9581 19.4496 18.0032 20.3344 17.5693 21.2605C17.1354 22.1865 16.4253 22.72 16.089 22.5096C15.7528 22.2992 15.8768 21.4896 16.2675 20.65Z" fill="white"/>
<path d="M13.2563 13.1174C12.7329 12.4747 12.1344 11.897 11.4736 11.3967C10.9589 11.021 10.587 10.8576 10.5043 10.9515C10.3372 11.1525 11.3666 12.2665 12.5444 13.7072L13.0497 14.3196C12.652 14.1891 12.2333 14.1349 11.8155 14.1599C11.4398 14.1938 11.2219 14.3046 11.2163 14.4286C11.2106 14.5525 11.4041 14.6803 11.7216 14.8043C12.039 14.9282 12.4486 15.0766 12.905 15.2438C13.3615 15.411 13.771 15.5744 14.0884 15.6777L14.2331 15.7209C14.5562 16.0741 14.7854 16.2695 14.883 16.2131C14.9807 16.1567 14.8962 15.7548 14.6182 15.1799C14.246 14.4418 13.789 13.7496 13.2563 13.1174Z" fill="#213346"/>
<path d="M35.6607 22.7614C35.5593 22.814 35.4391 22.8816 35.3038 22.9605C35.1686 23.0394 35.0183 23.1296 34.8586 23.2291L34.6107 23.385L34.3514 23.5503L33.8011 23.9035L33.5136 24.0913C33.4648 24.1214 33.4178 24.1514 33.3671 24.1796L33.2206 24.2698C33.024 24.3875 32.8249 24.5021 32.6233 24.6136C32.4223 24.7206 32.2194 24.8239 32.0184 24.9197L31.8644 24.9874C31.8155 25.0118 31.7648 25.0325 31.7122 25.055L31.4116 25.1771C31.2107 25.2522 31.0153 25.3274 30.8237 25.3818C30.7279 25.4157 30.6358 25.4363 30.5438 25.4645C30.4518 25.4927 30.356 25.5096 30.2752 25.534L30.0216 25.5904L29.7868 25.6336C29.6384 25.6561 29.505 25.6768 29.3923 25.688C29.2796 25.6993 29.1894 25.7087 29.1274 25.7162L29.0298 25.7294L29.1068 25.7876C29.1809 25.8424 29.2587 25.8919 29.3397 25.936C29.4661 26.0075 29.5973 26.0703 29.7323 26.1238L29.9878 26.2046C30.0779 26.2272 30.1756 26.2497 30.2771 26.2704C30.3785 26.291 30.4874 26.3042 30.5983 26.3136C30.7091 26.323 30.8274 26.3305 30.9458 26.3305C31.1976 26.3312 31.4491 26.3098 31.6972 26.2666C31.8276 26.2465 31.9568 26.2189 32.0841 26.184L32.272 26.1314L32.4598 26.0675C32.7186 25.9765 32.9698 25.8653 33.2112 25.735C33.4473 25.6047 33.6751 25.4598 33.8931 25.3011L34.0509 25.1808C34.1016 25.1414 34.1504 25.0982 34.1993 25.0569C34.2988 24.9742 34.3871 24.8897 34.4829 24.8014C34.6556 24.6374 34.8186 24.4637 34.9713 24.2811C35.0446 24.1947 35.1122 24.1082 35.178 24.0237L35.3564 23.7758C35.4672 23.6123 35.5631 23.4602 35.6419 23.3212C35.7208 23.1822 35.7866 23.0582 35.8298 22.9455C35.873 22.8328 35.9162 22.7576 35.9406 22.6975L35.9763 22.6055L35.888 22.6468C35.8448 22.6656 35.7622 22.7069 35.6607 22.7614Z" fill="#213346"/>
<path d="M43.5954 23.9204L43.2046 24.0951C43.0562 24.1646 42.8909 24.2435 42.7087 24.3243C42.6204 24.3675 42.5209 24.4145 42.4326 24.4577L42.1377 24.5986L41.514 24.901C41.4051 24.9498 41.2961 25.0043 41.1853 25.0588C41.1289 25.087 41.0745 25.1133 41.0162 25.1377L40.8472 25.2185C40.6217 25.3293 40.3888 25.4307 40.1615 25.5434C39.9342 25.6561 39.6994 25.7595 39.4702 25.859L39.2993 25.936C39.243 25.9642 39.1866 25.9886 39.1302 26.0131C39.0157 26.0619 38.9048 26.1107 38.7959 26.1652C38.5742 26.2573 38.362 26.3624 38.1572 26.4489C38.0539 26.4939 37.9543 26.5371 37.8585 26.5841C37.7627 26.6311 37.6707 26.6668 37.5768 26.7081C37.3889 26.7945 37.2274 26.8696 37.079 26.9373L36.6882 27.1251C36.5793 27.1777 36.5004 27.2228 36.4347 27.2547L36.3445 27.3054L36.444 27.328C36.5098 27.3411 36.6056 27.358 36.7258 27.3749C36.8714 27.3972 37.0182 27.4117 37.1654 27.4181C37.3531 27.4274 37.5412 27.4274 37.7289 27.4181C37.8322 27.4181 37.9412 27.4087 38.0539 27.3994C38.1666 27.39 38.2793 27.3749 38.3995 27.3599C38.6362 27.3317 38.8823 27.281 39.1378 27.2247C39.2636 27.1946 39.3914 27.1589 39.5135 27.1213C39.5773 27.1044 39.6431 27.0857 39.7013 27.065L39.8891 26.9974C40.1503 26.9128 40.4038 26.8095 40.6593 26.6912C40.9148 26.5728 41.159 26.4451 41.3919 26.3023L41.5685 26.199C41.6267 26.1633 41.6812 26.1258 41.7376 26.0882C41.8484 26.0131 41.9592 25.9398 42.0644 25.8628C42.271 25.7031 42.4702 25.5509 42.6448 25.3875L42.8984 25.149C42.9773 25.0701 43.0506 24.9874 43.122 24.9123C43.2519 24.7736 43.3735 24.6274 43.4864 24.4746C43.577 24.3585 43.661 24.2375 43.7381 24.112C43.8039 24.0087 43.8508 23.9242 43.8828 23.866L43.9316 23.7739L43.8339 23.8096C43.7945 23.8359 43.7062 23.8716 43.5954 23.9204Z" fill="#213346"/>
<path d="M53.647 21.5609C53.5381 21.6492 53.4047 21.7488 53.2526 21.869C53.1774 21.9272 53.0985 21.9911 53.0159 22.0568L52.751 22.2616C52.6608 22.333 52.5632 22.41 52.4711 22.4851L52.1687 22.7293C51.9658 22.8946 51.7404 23.0543 51.5206 23.2309C51.4041 23.3135 51.2914 23.4018 51.175 23.4901C51.1186 23.5333 51.0604 23.5784 51.0003 23.6197L50.8218 23.7493C50.587 23.9372 50.3372 24.0968 50.0967 24.2734C49.8563 24.45 49.6046 24.6191 49.3566 24.7806L49.1688 24.9027C49.1105 24.9459 49.0486 24.9854 48.9809 25.0248C48.8588 25.1037 48.7386 25.1807 48.6203 25.2615C48.3798 25.408 48.1525 25.5677 47.9271 25.7011L47.6021 25.9077C47.4988 25.9753 47.3917 26.0317 47.2941 26.0955L47.0104 26.2834L46.7512 26.4412C46.5878 26.5426 46.445 26.629 46.3248 26.7079C46.2046 26.7868 46.1125 26.8432 46.0486 26.8958L45.951 26.9634H46.0693C46.1463 26.9634 46.2571 26.9634 46.3999 26.954C46.571 26.9465 46.7415 26.9302 46.9109 26.9051L47.2246 26.8582C47.3335 26.8375 47.4462 26.8131 47.5646 26.7849C47.6829 26.7567 47.8088 26.7305 47.9403 26.6948C48.0717 26.6591 48.1957 26.6177 48.3291 26.5764C48.5958 26.4938 48.8682 26.3886 49.15 26.2627C49.289 26.2007 49.428 26.1331 49.5689 26.0636C49.6403 26.0298 49.7117 25.996 49.7812 25.9565L49.9897 25.8401C50.2714 25.6879 50.5419 25.5057 50.8143 25.3254C51.0867 25.145 51.3384 24.9403 51.5788 24.728L51.7667 24.5702C51.8268 24.5195 51.8832 24.4631 51.9395 24.4087C52.0522 24.2978 52.1649 24.1908 52.2701 24.0818C52.4768 23.8564 52.674 23.6404 52.8431 23.4168L53.0873 23.0919C53.1643 22.9848 53.23 22.8758 53.2976 22.7763C53.3653 22.6767 53.4254 22.5753 53.4855 22.4795L53.6358 22.2015C53.7175 22.051 53.7909 21.8961 53.8555 21.7375C53.91 21.606 53.9495 21.5008 53.9758 21.4294L54.0133 21.3186L53.9157 21.3862C53.8462 21.4144 53.756 21.4745 53.647 21.5609Z" fill="#213346"/>
<path d="M14.1016 31.6072C14.1016 31.5452 14.1016 31.4832 14.0885 31.4193C14.0753 31.2954 14.0622 31.1752 14.049 31.0549C14.0359 30.9347 14.0077 30.8201 13.987 30.7055C13.9681 30.5946 13.9431 30.4849 13.9119 30.3768C13.8818 30.2697 13.8518 30.1683 13.8236 30.0687C13.7954 29.9692 13.7522 29.8809 13.7184 29.787C13.6846 29.693 13.647 29.6141 13.6151 29.5334C13.5831 29.4526 13.5362 29.3831 13.5005 29.3136C13.4411 29.1946 13.3726 29.0803 13.2957 28.9717C13.2319 28.8797 13.1812 28.8102 13.1473 28.7632L13.0929 28.6899L13.1135 28.7782L13.1793 29.0224C13.2112 29.1257 13.2413 29.2535 13.2713 29.3981C13.2882 29.4695 13.3051 29.5465 13.3239 29.6273C13.3427 29.7081 13.3502 29.7945 13.3652 29.8846C13.3803 29.9748 13.4028 30.0725 13.4103 30.1608C13.4178 30.2491 13.4329 30.3486 13.4441 30.4595C13.4554 30.5703 13.4629 30.6661 13.4704 30.7732C13.478 30.8802 13.4911 30.9892 13.4892 31.1019C13.4873 31.2146 13.4892 31.3273 13.4892 31.4419C13.4892 31.5001 13.4892 31.5584 13.4892 31.6166V31.7913C13.4892 31.909 13.4855 32.0273 13.478 32.1463C13.478 32.2665 13.4667 32.3849 13.4573 32.5051C13.4366 32.7437 13.4197 32.9841 13.3897 33.2189L13.3709 33.3955L13.3483 33.5721C13.3333 33.6867 13.3202 33.8012 13.3051 33.9158C13.2694 34.1394 13.245 34.361 13.2093 34.5677C13.1943 34.6728 13.1793 34.7743 13.1661 34.872C13.153 34.9696 13.1361 35.0598 13.121 35.1575C13.0947 35.3453 13.0703 35.5088 13.0478 35.659C13.0252 35.8093 13.0102 35.9408 12.9971 36.0479C12.9839 36.155 12.9726 36.2357 12.967 36.3015C12.9614 36.3672 12.967 36.3916 12.967 36.3916L13.0102 36.3127L13.1248 36.0855C13.1736 35.9859 13.2281 35.8657 13.2901 35.7248C13.3521 35.5839 13.416 35.4261 13.478 35.2495L13.5794 34.9734C13.6094 34.8782 13.6414 34.7787 13.6752 34.6747C13.7428 34.47 13.7973 34.2483 13.863 34.0191C13.8912 33.9046 13.9156 33.7862 13.9401 33.6679L13.9776 33.48L14.0058 33.2922C14.049 33.048 14.0753 32.7944 14.096 32.5408C14.1072 32.4149 14.1072 32.2853 14.1129 32.1651C14.1193 32.04 14.1193 31.9146 14.1129 31.7894L14.1016 31.6072Z" fill="#213346"/>
<path d="M11.8137 35.922L11.7704 35.7454C11.7554 35.6872 11.7385 35.629 11.7197 35.5726C11.684 35.458 11.6521 35.3453 11.6089 35.2382C11.5334 35.0292 11.443 34.8258 11.3384 34.6296C11.2896 34.5357 11.2407 34.4418 11.1881 34.361C11.1355 34.2802 11.0829 34.1957 11.0303 34.1206C10.935 33.9836 10.8315 33.8525 10.7204 33.728C10.6208 33.6171 10.5325 33.527 10.4499 33.4556C10.3672 33.3842 10.3052 33.3316 10.262 33.2978L10.1925 33.2471L10.2339 33.3222C10.2602 33.371 10.3015 33.4424 10.3503 33.5345C10.3992 33.6265 10.4574 33.7355 10.5175 33.8632C10.5776 33.9909 10.6452 34.1375 10.7054 34.2971C10.7392 34.376 10.7711 34.4587 10.803 34.547C10.835 34.6353 10.8669 34.7235 10.897 34.8156C10.9608 35.0034 11.0172 35.1913 11.0698 35.4054C11.098 35.5069 11.1186 35.6139 11.143 35.7191C11.1562 35.7736 11.1675 35.8262 11.1769 35.8807L11.2069 36.0441C11.2464 36.262 11.2764 36.4855 11.3008 36.711C11.3253 36.9364 11.3365 37.1599 11.3403 37.3834V37.5506C11.3431 37.6051 11.3431 37.6596 11.3403 37.7141C11.3403 37.8249 11.3403 37.932 11.3403 38.039C11.3403 38.1461 11.3309 38.2513 11.3215 38.3527C11.3121 38.4542 11.3046 38.5575 11.2914 38.6552C11.2783 38.7528 11.2708 38.843 11.2576 38.9407C11.2445 39.0384 11.2332 39.1285 11.2163 39.2093C11.19 39.3803 11.1581 39.538 11.1299 39.6789C11.1017 39.8198 11.0717 39.9419 11.0491 40.0434L10.9928 40.28C10.9796 40.3364 10.974 40.3646 10.974 40.3646L11.0247 40.2951C11.0585 40.25 11.1073 40.1824 11.1656 40.0941C11.2238 40.0058 11.2896 39.8931 11.3534 39.7616C11.4318 39.6147 11.5021 39.4635 11.5638 39.3089C11.6014 39.2243 11.6296 39.1342 11.6634 39.0403C11.6972 38.9463 11.7254 38.8524 11.7535 38.7472C11.7817 38.642 11.808 38.5406 11.8306 38.4316C11.8531 38.3227 11.8756 38.2118 11.8925 38.0973C11.9095 37.9827 11.9245 37.8662 11.9358 37.7479C11.9358 37.6878 11.947 37.6276 11.9508 37.5694V37.3816C11.9583 37.1359 11.9507 36.89 11.9282 36.6452C11.9034 36.4022 11.8652 36.1608 11.8137 35.922Z" fill="#213346"/>
<path d="M63.9654 25.382C63.8602 25.32 63.524 25.6468 63.1408 26.2874C63.0357 26.4607 62.9398 26.6394 62.8534 26.8227C62.7538 27.0106 62.6655 27.2341 62.5716 27.4633C62.3815 27.9636 62.2308 28.478 62.1208 29.0018C62.0157 29.5269 61.9528 30.0596 61.9329 30.5947C61.9329 30.8408 61.9329 31.0737 61.9329 31.2935C61.9329 31.5133 61.963 31.7143 61.9874 31.8984C62.0888 32.6385 62.2692 33.0705 62.3894 33.0555C62.6561 33.0198 62.5772 31.2616 63.0224 29.1877C63.4676 27.1139 64.1965 25.5191 63.9654 25.382Z" fill="#213346"/>
<path d="M62.4871 14.3328C62.5622 14.2576 62.6298 14.1881 62.6899 14.1243C62.9304 13.8688 63.0431 13.7091 63.0036 13.6622C62.9642 13.6152 62.6881 13.7429 62.241 13.9984C62.266 13.9634 62.2735 13.9371 62.2635 13.9195C62.2034 13.8068 61.6474 14.0041 60.7607 14.2746C60.5391 14.3422 60.2968 14.4173 60.0338 14.4831C59.7708 14.5488 59.4909 14.6221 59.196 14.6953C58.6024 14.8268 57.9487 14.9489 57.2537 15.0353C56.5586 15.1217 55.8936 15.1499 55.285 15.1612C54.9826 15.1612 54.6933 15.1612 54.4228 15.1612C54.1523 15.1612 53.8987 15.1405 53.6714 15.1293C52.7453 15.0729 52.1687 15.0128 52.1292 15.1293C52.0898 15.2457 52.6401 15.5049 53.585 15.7247C53.8422 15.7856 54.1024 15.8327 54.3646 15.8656C54.6463 15.9126 54.9507 15.9332 55.2719 15.9577C55.9681 15.9932 56.6661 15.9718 57.3588 15.8938C58.0247 15.8105 58.6829 15.6748 59.3275 15.488C58.542 15.8049 57.737 16.0709 56.9174 16.2845C56.089 16.4902 55.2482 16.642 54.4003 16.7391C54.0077 16.7729 53.6339 16.8161 53.2845 16.8236C53.1079 16.8236 52.9388 16.8462 52.7754 16.8462H52.3039C51.1054 16.8462 50.3503 16.7729 50.324 16.9025C50.3127 16.9608 50.4874 17.0472 50.8218 17.1561L51.0998 17.2407C51.2031 17.2669 51.3158 17.2895 51.4361 17.3158C51.7108 17.3762 51.9886 17.422 52.2682 17.4529L52.7566 17.5074C52.9257 17.5224 53.1041 17.5243 53.2882 17.5337C53.6639 17.5562 54.049 17.5337 54.4641 17.5337C55.364 17.4782 56.2568 17.3405 57.1316 17.1223C58.0032 16.8935 58.852 16.5854 59.6675 16.2019C60.0432 16.014 60.3907 15.8412 60.7025 15.6383C60.8603 15.5425 61.0143 15.4505 61.1571 15.3603L61.5591 15.0785C61.7888 14.9164 62.0101 14.7428 62.2222 14.5582C62.3217 14.4793 62.41 14.406 62.4871 14.3328Z" fill="#213346"/>
<path d="M48.5752 10.5852C48.733 10.4894 48.8889 10.3973 49.0298 10.3053L49.4318 10.0254C49.6618 9.86376 49.8831 9.69007 50.0949 9.50506C50.1888 9.42429 50.2827 9.35103 50.3541 9.27777C50.4255 9.20451 50.4987 9.13313 50.5588 9.06926C50.7974 8.81379 50.9101 8.65224 50.8725 8.60716C50.835 8.56208 50.5551 8.68793 50.108 8.9434C50.1324 8.90771 50.1399 8.88141 50.1305 8.86263C50.0704 8.7518 49.5163 8.94904 48.6278 9.21954C48.4061 9.28528 48.1638 9.36042 47.9008 9.42805C47.6378 9.49567 47.3579 9.56705 47.063 9.64031C46.4713 9.77181 45.8157 9.89391 45.1207 9.97844C44.4256 10.063 43.7607 10.093 43.1539 10.1062C42.8496 10.1062 42.5603 10.1062 42.2898 10.1062C42.0193 10.1062 41.7657 10.0855 41.5384 10.0724C40.6142 10.0179 40.0357 9.95777 39.9962 10.0724C39.9568 10.1869 40.5072 10.4481 41.452 10.6678C41.6887 10.7204 41.9498 10.773 42.2316 10.8087C42.5134 10.8444 42.8177 10.8763 43.1389 10.9008C43.8352 10.9366 44.5332 10.9146 45.2259 10.835C45.8919 10.7526 46.5502 10.6169 47.1945 10.4293C46.4117 10.748 45.6092 11.0159 44.7919 11.2314C43.9605 11.4368 43.1165 11.588 42.2654 11.6841C41.8728 11.7179 41.5009 11.7611 41.1496 11.7686C40.973 11.7686 40.804 11.7912 40.6405 11.7912H40.1709C38.9706 11.7912 38.2154 11.7179 38.1891 11.8456C38.1779 11.9039 38.3526 11.9921 38.6869 12.1011L38.9649 12.1856C39.0683 12.2119 39.181 12.2345 39.3012 12.2608C39.576 12.3211 39.8538 12.3668 40.1334 12.3979L40.6218 12.4505C40.7908 12.4674 40.9693 12.4693 41.1534 12.4787C41.5291 12.5012 41.9047 12.4787 42.3293 12.4787C43.229 12.4222 44.1218 12.2845 44.9967 12.0673C45.8683 11.8385 46.7172 11.5304 47.5326 11.1468C47.9102 10.9552 48.2634 10.7824 48.5752 10.5852Z" fill="#213346"/>
<path d="M36.6657 5.7971C36.7352 5.75953 36.8028 5.71632 36.8742 5.67312C37.0113 5.58483 37.1635 5.5003 37.31 5.40074C37.387 5.35566 37.4603 5.30682 37.5354 5.25798C37.5749 5.23356 37.6124 5.20726 37.6519 5.18472L37.7665 5.10958C37.9186 5.00814 38.0783 4.91234 38.2323 4.80527C38.3864 4.6982 38.5404 4.59864 38.6963 4.49908L38.809 4.42206C38.8466 4.39389 38.8842 4.36947 38.9217 4.34505C38.9987 4.29433 39.0739 4.24549 39.1453 4.19289C39.2937 4.09521 39.4327 3.99002 39.5698 3.89797L39.7576 3.75521C39.8215 3.70637 39.8835 3.66316 39.9455 3.61996L40.2761 3.37012C40.3738 3.28935 40.464 3.21985 40.5335 3.16349C40.603 3.10714 40.6612 3.05266 40.6988 3.01885L40.7269 2.99255L40.7664 2.98128L41.0914 2.88548L41.2078 2.84791L41.0914 2.81222C41.0143 2.78968 40.9035 2.75775 40.7589 2.72769C40.6142 2.69763 40.4414 2.66194 40.2385 2.63377C40.0357 2.60559 39.8065 2.58493 39.5548 2.57178C39.4289 2.57178 39.2974 2.57178 39.1603 2.57178C39.0232 2.57178 38.8842 2.57178 38.7414 2.58493C38.4382 2.60064 38.136 2.63199 37.836 2.67885C37.6801 2.70327 37.5223 2.73333 37.3626 2.76714L37.1222 2.81973L36.8817 2.87985C36.5562 2.96464 36.2363 3.06941 35.9237 3.19355C35.6058 3.32124 35.297 3.47061 34.9995 3.64062C34.9262 3.68195 34.853 3.72515 34.7816 3.77024L34.5693 3.90736C34.4322 4.00317 34.2951 4.09521 34.1692 4.2004C33.9222 4.39534 33.6928 4.61157 33.4836 4.84659L33.3371 5.01378L33.2056 5.1866C33.1224 5.29454 33.0458 5.40746 32.9764 5.52472C32.9069 5.63022 32.8442 5.74001 32.7885 5.85345C32.7623 5.90605 32.7378 5.95677 32.7115 6.00748C32.6852 6.0582 32.6721 6.1108 32.6533 6.15964C32.5876 6.32804 32.5355 6.50141 32.4974 6.6781C32.4736 6.79086 32.4573 6.90506 32.4485 7.01998C32.4485 7.09699 32.4485 7.13832 32.4485 7.13832L32.5256 7.04627C32.5782 6.98616 32.6401 6.89412 32.7341 6.78893C32.828 6.68373 32.9351 6.55412 33.0722 6.41323L33.1736 6.30992L33.2882 6.20472C33.3652 6.13334 33.4441 6.0582 33.5343 5.9887C33.6245 5.9192 33.709 5.83842 33.8104 5.76704L33.957 5.65621L34.1129 5.54726C34.3214 5.39886 34.5562 5.25986 34.7966 5.11897L35.1723 4.91422L35.3602 4.81654C35.424 4.78273 35.4898 4.75079 35.5574 4.72074C35.8241 4.59112 36.104 4.47466 36.3839 4.36007C36.6018 4.27366 36.8197 4.19101 37.0414 4.11212L36.923 4.21167C36.8836 4.24549 36.8479 4.28118 36.8103 4.31687C36.7371 4.38637 36.6657 4.45588 36.5981 4.52726C36.4647 4.66592 36.3392 4.81205 36.2224 4.96494C36.1698 5.0382 36.1172 5.1077 36.0702 5.17908C36.0233 5.25046 35.9801 5.32185 35.9406 5.39135C35.87 5.51629 35.8072 5.64553 35.7528 5.77831C35.7042 5.88094 35.6634 5.98706 35.6307 6.09577C35.6006 6.18594 35.5818 6.2592 35.5687 6.30804L35.5518 6.38693L35.625 6.355C35.672 6.33434 35.7396 6.3024 35.8223 6.26108L36.1097 6.10704L36.4666 5.90605L36.6657 5.7971Z" fill="#213346"/>
<path d="M20.1972 14.8269C20.1809 14.7367 20.1603 14.6296 20.1352 14.5057L20.0488 14.1056C20.03 14.0342 20.0131 13.959 19.9943 13.882C19.9756 13.805 19.9568 13.728 19.9361 13.6472C19.8929 13.4894 19.8572 13.3185 19.8046 13.1494C19.7858 13.063 19.7614 12.9785 19.7351 12.8902C19.722 12.847 19.7107 12.8038 19.6994 12.7587L19.6618 12.6272C19.6093 12.4506 19.566 12.2703 19.5097 12.0937C19.4533 11.9171 19.4026 11.7368 19.3538 11.5584L19.3143 11.4269C19.2974 11.3837 19.2862 11.3405 19.273 11.2973C19.2467 11.2108 19.2223 11.1244 19.1922 11.0399C19.1453 10.869 19.0852 10.7055 19.0363 10.5477L18.9593 10.3167C18.9311 10.2416 18.9086 10.1683 18.8842 10.0969L18.7433 9.70995L18.6212 9.40188C18.5874 9.31548 18.5554 9.24785 18.5329 9.20089L18.516 9.16708V9.12575C18.516 8.98111 18.516 8.86464 18.516 8.78763C18.516 8.71061 18.516 8.66553 18.516 8.66553L18.4484 8.76509C18.4033 8.83083 18.3413 8.92851 18.2605 9.05625C18.1797 9.18398 18.1046 9.34177 18.0182 9.52774C17.9318 9.71371 17.8435 9.92598 17.7552 10.1627C17.7158 10.281 17.6726 10.405 17.6312 10.5384C17.5899 10.6717 17.5561 10.8051 17.5185 10.9441C17.449 11.224 17.387 11.5245 17.3419 11.8364C17.3194 11.9917 17.3006 12.1513 17.2856 12.3154L17.2818 12.5558C17.2818 12.6385 17.2781 12.7211 17.2706 12.8038C17.2528 13.1431 17.2566 13.4831 17.2818 13.8219C17.3096 14.1632 17.3611 14.5021 17.4359 14.8363C17.4528 14.9189 17.4716 15.0016 17.4941 15.0824L17.5636 15.3266C17.6143 15.4862 17.665 15.644 17.7252 15.7943C17.8392 16.088 17.9781 16.3714 18.1403 16.6415L18.2568 16.8293L18.3826 17.004C18.4619 17.1151 18.5471 17.2217 18.6381 17.3234C18.7194 17.4183 18.8066 17.508 18.8992 17.592L19.025 17.7103L19.1528 17.8118C19.2939 17.9242 19.4441 18.0247 19.6017 18.1123C19.7019 18.1693 19.8061 18.2189 19.9136 18.2607L20.0244 18.3058L19.9586 18.2044C19.9173 18.1367 19.8478 18.0503 19.7708 17.9282C19.6938 17.8061 19.6055 17.6671 19.5191 17.4962L19.4496 17.3703L19.3838 17.2294C19.3388 17.1355 19.2899 17.0416 19.2486 16.9308C19.2073 16.8199 19.1565 16.7185 19.119 16.602C19.0983 16.5457 19.0776 16.4874 19.0551 16.4292L18.9988 16.2414C18.918 15.9972 18.856 15.7323 18.7902 15.4618C18.7639 15.3228 18.7358 15.1838 18.7076 15.0429L18.6794 14.84C18.6643 14.768 18.653 14.6953 18.6456 14.6221C18.6005 14.331 18.5723 14.0285 18.5442 13.728C18.5254 13.4932 18.5122 13.2602 18.5028 13.0254L18.5629 13.1663C18.5836 13.2133 18.6062 13.2602 18.6287 13.3053C18.6757 13.3955 18.7189 13.4932 18.7677 13.5702C18.8623 13.7353 18.9658 13.8952 19.0776 14.0492C19.1321 14.1206 19.1847 14.192 19.2392 14.2577C19.2937 14.3235 19.3481 14.3873 19.4026 14.4456C19.5033 14.5536 19.6105 14.6552 19.7238 14.7499C19.8076 14.8263 19.8968 14.8966 19.9906 14.9603C20.0676 15.0166 20.1315 15.0561 20.1784 15.0824L20.2479 15.1218C20.2479 15.1218 20.2479 15.0936 20.2479 15.0429C20.2479 14.9922 20.2122 14.9171 20.1972 14.8269Z" fill="#213346"/>
<path d="M29.6102 5.65434C29.6497 5.6055 29.6872 5.55666 29.7286 5.51158L29.845 5.36694C29.9991 5.17909 30.1625 4.97998 30.3146 4.77898C30.4668 4.57798 30.6265 4.38262 30.7842 4.19102L30.897 4.04262C30.9326 3.9919 30.9721 3.94494 31.0097 3.8961C31.0867 3.8003 31.1618 3.70826 31.2313 3.60682C31.3816 3.41897 31.5168 3.23113 31.654 3.04328C31.7216 2.95311 31.7855 2.85543 31.8418 2.77842C31.8982 2.7014 31.9658 2.6056 32.0297 2.52482L32.349 2.0646C32.4429 1.91996 32.5237 1.7941 32.5932 1.68891C32.6627 1.58371 32.7116 1.50106 32.7454 1.43344L32.7698 1.38835L32.8167 1.35642L33.1924 1.09719L33.3258 0.999512H33.1624C33.0534 0.999512 32.8975 1.01078 32.7003 1.03145C32.503 1.05211 32.2607 1.08029 31.9883 1.12913C31.716 1.17797 31.4117 1.24747 31.0829 1.33576C30.9195 1.3846 30.7486 1.43344 30.5739 1.49167C30.3992 1.5499 30.2207 1.61565 30.0385 1.67952C29.6741 1.82228 29.2871 1.98758 28.9114 2.18107C28.7236 2.27875 28.5357 2.38206 28.3479 2.49289L28.0605 2.66195L27.7768 2.84041C27.3924 3.09246 27.0224 3.36589 26.6685 3.65942C26.3132 3.95747 25.9793 4.28011 25.6692 4.62495C25.5903 4.7076 25.5152 4.79401 25.4419 4.8823L25.2278 5.14716C25.0906 5.33501 24.9554 5.50782 24.8352 5.69379C24.5997 6.05129 24.3955 6.42837 24.2247 6.82087C24.1858 6.91479 24.1464 7.00684 24.1063 7.097C24.0662 7.18717 24.0343 7.27921 24.0105 7.37314C23.9495 7.54724 23.8987 7.72474 23.8584 7.90474C23.8172 8.0693 23.7858 8.23615 23.7644 8.40441C23.7644 8.48331 23.7438 8.56033 23.7325 8.63547C23.7212 8.7106 23.7325 8.78386 23.7212 8.85525C23.7066 9.09953 23.7129 9.34463 23.74 9.58785C23.7562 9.74219 23.7826 9.89531 23.8189 10.0462L23.8565 10.2059L23.9166 10.0537C23.9598 9.95415 24.0011 9.8095 24.0781 9.63481C24.1552 9.46011 24.2378 9.24784 24.358 9.01867L24.4444 8.8421L24.5478 8.65425C24.6166 8.52536 24.6919 8.39997 24.7732 8.27856C24.8558 8.14894 24.9347 8.01182 25.0343 7.88032L25.177 7.67369L25.333 7.46894C25.5377 7.18905 25.7819 6.9054 26.0317 6.62927L26.4281 6.21037L26.6385 6.01125C26.7061 5.93987 26.7775 5.87037 26.8507 5.80274C27.14 5.52661 27.45 5.25987 27.7618 4.99312C28.006 4.79025 28.2521 4.59301 28.5132 4.39765L28.4024 4.57611C28.3667 4.63434 28.3347 4.69633 28.3028 4.76395C28.2389 4.88605 28.1751 5.0044 28.115 5.1265C28.0072 5.35921 27.9119 5.59749 27.8294 5.84031C27.7919 5.95865 27.7543 6.07136 27.7224 6.18219C27.6904 6.29302 27.6679 6.40385 27.6453 6.50905C27.6035 6.70123 27.5728 6.89566 27.5533 7.09137C27.5356 7.24348 27.5281 7.3966 27.5308 7.54971C27.5308 7.67745 27.5308 7.78076 27.5308 7.85027L27.542 7.95734L27.6134 7.88972C27.666 7.84275 27.7393 7.77325 27.8275 7.68496L28.1337 7.3675L28.5094 6.958C28.5752 6.88286 28.6428 6.80396 28.7142 6.72507C28.7856 6.64617 28.8551 6.56164 28.9283 6.47711C29.0692 6.30429 29.2289 6.13147 29.3754 5.94363C29.4599 5.84407 29.5351 5.75015 29.6102 5.65434Z" fill="#213346"/>
<path d="M35.3752 78.1254C34.1648 78.1252 32.9565 78.024 31.7629 77.823C31.6753 77.8105 31.591 77.7805 31.5152 77.7347C31.4395 77.6888 31.3737 77.6282 31.322 77.5563C31.2702 77.4845 31.2335 77.4029 31.2141 77.3165C31.1946 77.2302 31.1928 77.1407 31.2088 77.0536C31.2247 76.9665 31.2581 76.8835 31.3069 76.8097C31.3557 76.7358 31.4189 76.6725 31.4928 76.6237C31.5666 76.5748 31.6496 76.5414 31.7367 76.5254C31.8238 76.5094 31.9132 76.5112 31.9996 76.5306C32.0578 76.5306 37.7571 77.5544 40.4189 75.6534C40.7576 75.4241 41.0439 75.1259 41.2592 74.7782C41.4745 74.4305 41.6138 74.0412 41.6681 73.6359C41.6765 73.5473 41.7029 73.4613 41.7456 73.3832C41.7883 73.3051 41.8463 73.2365 41.9163 73.1815C41.9863 73.1265 42.0667 73.0863 42.1527 73.0633C42.2387 73.0403 42.3285 73.035 42.4166 73.0478C42.5046 73.0605 42.5892 73.091 42.6652 73.1374C42.7412 73.1838 42.8069 73.2451 42.8585 73.3176C42.91 73.3902 42.9463 73.4725 42.9651 73.5595C42.9839 73.6464 42.9849 73.7364 42.9679 73.8237C42.8875 74.4041 42.6872 74.9614 42.3796 75.46C42.072 75.9587 41.664 76.3879 41.1815 76.7203C39.6168 77.8418 37.3119 78.1254 35.3752 78.1254Z" fill="#213346"/>
<path opacity="0.5" d="M48.9528 50.0066C49.5005 50.0066 49.9446 49.5625 49.9446 49.0148C49.9446 48.467 49.5005 48.0229 48.9528 48.0229C48.405 48.0229 47.9609 48.467 47.9609 49.0148C47.9609 49.5625 48.405 50.0066 48.9528 50.0066Z" fill="white"/>
<path d="M46.1726 53.9665C48.5494 53.9665 50.4762 52.0397 50.4762 49.6629C50.4762 47.2861 48.5494 45.3594 46.1726 45.3594C43.7958 45.3594 41.869 47.2861 41.869 49.6629C41.869 52.0397 43.7958 53.9665 46.1726 53.9665Z" fill="#213346"/>
<path d="M48.0924 48.8497C49.41 48.8497 50.4781 47.7816 50.4781 46.464C50.4781 45.1465 49.41 44.0784 48.0924 44.0784C46.7748 44.0784 45.7068 45.1465 45.7068 46.464C45.7068 47.7816 46.7748 48.8497 48.0924 48.8497Z" fill="#F9CDB7"/>
<path d="M56.4647 31.6974C56.7071 32.1426 56.7164 32.6084 56.4835 32.7343C56.2506 32.8602 55.8655 32.6028 55.6232 32.1557C55.3808 31.7087 55.3714 31.2447 55.6044 31.1188C55.8373 30.993 56.2224 31.2503 56.4647 31.6974Z" fill="white"/>
<path d="M58.2793 35.6683C58.6437 36.3483 58.7508 37.002 58.5179 37.1279C58.285 37.2537 57.7984 36.8029 57.434 36.121C57.0696 35.4391 56.9606 34.7873 57.1954 34.6615C57.4303 34.5356 57.913 34.9864 58.2793 35.6683Z" fill="white"/>
<path d="M56.2543 27.1514C54.0923 27.9712 51.8753 28.6378 49.6196 29.1464C44.1721 30.3955 38.9124 30.3617 33.4648 29.2854C28.7367 28.3461 23.9279 27.0537 19.1077 27.375C19.4596 26.586 19.8453 25.8177 20.2649 25.0701L23.7231 24.9968C25.7218 25.226 27.7073 25.6242 29.6929 26.0394C29.7605 26.0694 29.8338 26.0995 29.9145 26.1314L30.17 26.2122C30.2602 26.2347 30.3578 26.2573 30.4593 26.2779C30.5607 26.2986 30.6697 26.3118 30.7805 26.3211C30.8913 26.3305 31.0097 26.3381 31.128 26.3381H31.1393C32.535 26.6273 33.9307 26.9016 35.332 27.112C35.7509 27.174 36.1754 27.2303 36.6094 27.2773L36.523 27.3261L36.6225 27.3487C36.6883 27.3618 36.7841 27.3787 36.9043 27.3956C37.0499 27.4179 37.1967 27.4324 37.3439 27.4388C37.5316 27.4481 37.7197 27.4481 37.9074 27.4388C38.007 27.4388 38.114 27.4294 38.223 27.42C43.4658 27.7807 49.5125 27.1477 54.9751 25.2805C55.4147 25.8835 55.8317 26.5071 56.2543 27.1514Z" fill="#E2A78D"/>
<path d="M9.11618 48.9303C8.91217 48.9308 8.71494 48.8571 8.56118 48.7231C8.40741 48.589 8.30758 48.4036 8.28026 48.2015C7.09871 39.7014 6.94655 32.3773 7.81628 25.8064C8.50943 20.5655 10.1155 17.4078 12.7285 16.1549C12.9426 16.0516 13.1568 15.967 13.3634 15.8825C13.7368 15.7605 14.0863 15.575 14.3965 15.334C15.0465 14.7442 15.3358 13.7523 15.6532 12.7041C15.8402 12.0048 16.0918 11.3244 16.4046 10.6716C18.9725 5.66366 24.3843 1.52728 29.8676 0.375784C37.4396 -1.22842 43.3549 2.73701 49.0786 6.57471C51.7517 8.36489 54.5149 10.2171 57.3739 11.4268C62.0062 13.3879 66.4788 13.2151 69.6459 10.9497L71.6408 9.52202L70.9477 11.8757C70.7768 12.4568 70.571 13.027 70.3315 13.5833C68.6259 17.5262 64.6022 22.9173 55.1028 26.1107C48.9434 28.177 41.5065 28.8627 35.2118 27.9216C33.4742 27.6623 31.7254 27.2979 30.0347 26.9448C25.6354 26.0281 21.4783 25.1621 17.156 25.8797C17.0465 25.8978 16.9344 25.8942 16.8263 25.869C16.7182 25.8439 16.6161 25.7977 16.5258 25.733C16.4355 25.6684 16.3589 25.5866 16.3002 25.4924C16.2416 25.3981 16.202 25.2932 16.1839 25.1837C16.1658 25.0742 16.1694 24.9622 16.1945 24.854C16.2197 24.7459 16.2659 24.6438 16.3306 24.5535C16.3952 24.4633 16.477 24.3866 16.5712 24.3279C16.6655 24.2693 16.7703 24.2297 16.8799 24.2116C21.5122 23.4433 26.0205 24.3825 30.3804 25.2898C32.0466 25.6374 33.771 25.998 35.4616 26.2497C41.5046 27.1533 48.6447 26.5033 54.5637 24.5084C59.3294 22.9042 65.5433 19.6995 68.5038 13.495C65.1226 14.9301 60.958 14.7648 56.7108 12.9671C53.7053 11.6935 50.8725 9.79628 48.1337 7.96102C42.4533 4.15901 37.0865 0.563631 30.2132 2.01944C25.2822 3.06387 20.2179 6.93726 17.8999 11.4362C17.6421 11.9963 17.4353 12.5784 17.2819 13.1756C16.9343 14.3478 16.5399 15.674 15.5386 16.5813C15.0828 16.9608 14.5614 17.2536 14.0002 17.4454C13.8123 17.5205 13.6339 17.5938 13.4686 17.6727C11.4117 18.6645 10.1118 21.3977 9.49938 26.0281C8.64093 32.4449 8.79496 39.6225 9.95585 47.9704C9.98635 48.1923 9.92751 48.4173 9.79226 48.5959C9.65701 48.7744 9.45641 48.892 9.23452 48.9228C9.1953 48.9281 9.15575 48.9306 9.11618 48.9303Z" fill="#213346"/>
<path d="M64.544 48.0774C64.3206 48.0779 64.1062 47.9898 63.9477 47.8324C63.7892 47.6749 63.6997 47.4611 63.6987 47.2377C63.6423 39.5511 54.3834 25.8984 54.2894 25.7613C54.2268 25.6695 54.1828 25.5663 54.16 25.4575C54.1373 25.3488 54.1361 25.2366 54.1567 25.1274C54.1773 25.0182 54.2192 24.9141 54.28 24.8211C54.3408 24.7281 54.4193 24.648 54.5111 24.5853C54.6029 24.5227 54.7061 24.4787 54.8148 24.4559C54.9236 24.4332 55.0358 24.432 55.145 24.4526C55.2542 24.4732 55.3582 24.5151 55.4512 24.5759C55.5442 24.6367 55.6244 24.7152 55.687 24.807C56.0796 25.3837 65.3292 39.0288 65.3893 47.2265C65.3903 47.4505 65.3025 47.6658 65.1452 47.8253C64.9878 47.9848 64.7737 48.0754 64.5496 48.0774H64.544Z" fill="#213346"/>
<path d="M61.5253 44.9368C61.6417 45.8087 61.7045 46.687 61.7131 47.5666C61.7131 47.9705 61.7131 48.3556 61.685 48.7144C61.6568 49.0731 61.6361 49.4075 61.6004 49.7118C61.4577 50.9272 61.2247 51.6542 61.1045 51.6372C60.8228 51.6016 61.0782 48.6449 60.5748 45.0626C60.1033 41.4823 59.0626 38.7021 59.3256 38.5932C59.4402 38.5443 59.8553 39.183 60.3193 40.3157C60.4358 40.5994 60.556 40.9112 60.6687 41.255C60.7814 41.5987 60.8923 41.965 61.0031 42.3539C61.23 43.2033 61.4044 44.0659 61.5253 44.9368Z" fill="white"/>
<path d="M27.388 53.9665C29.7648 53.9665 31.6915 52.0397 31.6915 49.6629C31.6915 47.2861 29.7648 45.3594 27.388 45.3594C25.0112 45.3594 23.0844 47.2861 23.0844 49.6629C23.0844 52.0397 25.0112 53.9665 27.388 53.9665Z" fill="#213346"/>
<path d="M29.3078 48.8497C30.6253 48.8497 31.6934 47.7816 31.6934 46.464C31.6934 45.1465 30.6253 44.0784 29.3078 44.0784C27.9902 44.0784 26.9221 45.1465 26.9221 46.464C26.9221 47.7816 27.9902 48.8497 29.3078 48.8497Z" fill="#F9CDB7"/>
<path d="M25.6598 52.2608C26.2076 52.2608 26.6516 51.8167 26.6516 51.2689C26.6516 50.7212 26.2076 50.2771 25.6598 50.2771C25.112 50.2771 24.668 50.7212 24.668 51.2689C24.668 51.8167 25.112 52.2608 25.6598 52.2608Z" fill="white"/>
<path d="M45.008 52.2608C45.5557 52.2608 45.9998 51.8167 45.9998 51.2689C45.9998 50.7212 45.5557 50.2771 45.008 50.2771C44.4602 50.2771 44.0161 50.7212 44.0161 51.2689C44.0161 51.8167 44.4602 52.2608 45.008 52.2608Z" fill="white"/>
</g>
<defs>
<clipPath id="clip0">
<rect width="73.5963" height="100" fill="white"/>
</clipPath>
</defs>
</svg>
