<svg width="71" height="100" viewBox="0 0 71 100" fill="none" xmlns="http://www.w3.org/2000/svg">
<g clip-path="url(#clip0)">
<path d="M9.07909 61.5504C13.1612 61.5504 16.4705 58.2411 16.4705 54.159C16.4705 50.0768 13.1612 46.7676 9.07909 46.7676C4.99693 46.7676 1.68768 50.0768 1.68768 54.159C1.68768 58.2411 4.99693 61.5504 9.07909 61.5504Z" fill="#F9CDB7"/>
<path d="M14.8333 49.6475C13.4132 48.7228 11.7185 48.3143 10.0331 48.4904C8.34768 48.6665 6.77402 49.4165 5.57577 50.6148C4.37753 51.813 3.62752 53.3867 3.45141 55.0721C3.27531 56.7575 3.68382 58.4522 4.60848 59.8723C3.68513 59.2725 2.90742 58.4741 2.33219 57.5352C1.75696 56.5964 1.39873 55.541 1.28369 54.4459C1.16864 53.3509 1.29968 52.2441 1.66724 51.2062C2.03479 50.1683 2.62957 49.2257 3.40812 48.4471C4.18667 47.6686 5.12932 47.0738 6.16719 46.7062C7.20506 46.3387 8.31194 46.2076 9.40695 46.3227C10.502 46.4377 11.5574 46.796 12.4962 47.3712C13.4351 47.9464 14.2335 48.7241 14.8333 49.6475Z" fill="#E2A78D"/>
<path d="M9.07905 62.0984C7.4582 62.0988 5.87364 61.6184 4.52577 60.7182C3.1779 59.818 2.12728 58.5382 1.50676 57.0408C0.886236 55.5435 0.723696 53.8957 1.03969 52.3059C1.35569 50.7162 2.13603 49.2558 3.28203 48.1096C4.42802 46.9633 5.88819 46.1827 7.47788 45.8663C9.06757 45.55 10.7154 45.7122 12.2129 46.3324C13.7104 46.9526 14.9903 48.0029 15.8909 49.3506C16.7914 50.6983 17.2721 52.2827 17.2721 53.9036C17.2674 56.0752 16.4027 58.1566 14.8673 59.6924C13.3319 61.2281 11.2507 62.0932 9.07905 62.0984ZM9.07905 47.3174C7.77592 47.317 6.50195 47.7031 5.41829 48.4269C4.33463 49.1507 3.48995 50.1795 2.9911 51.3834C2.49225 52.5873 2.36163 53.9121 2.61578 55.1902C2.86992 56.4683 3.4974 57.6423 4.41886 58.5638C5.34031 59.4852 6.51434 60.1127 7.79245 60.3669C9.07057 60.621 10.3953 60.4904 11.5992 59.9915C12.8031 59.4927 13.832 58.648 14.5557 57.5643C15.2795 56.4807 15.6656 55.2067 15.6653 53.9036C15.6643 52.1566 14.9703 50.4814 13.7355 49.2456C12.5007 48.0098 10.826 47.3144 9.07905 47.312V47.3174Z" fill="#213346"/>
<path d="M62.5525 61.5504C66.6346 61.5504 69.9439 58.2411 69.9439 54.159C69.9439 50.0768 66.6346 46.7676 62.5525 46.7676C58.4703 46.7676 55.1611 50.0768 55.1611 54.159C55.1611 58.2411 58.4703 61.5504 62.5525 61.5504Z" fill="#F9CDB7"/>
<path d="M62.5542 62.0984C60.9334 62.0988 59.3488 61.6184 58.0009 60.7182C56.6531 59.818 55.6024 58.5382 54.9819 57.0408C54.3614 55.5435 54.1989 53.8957 54.5149 52.3059C54.8309 50.7162 55.6112 49.2558 56.7572 48.1096C57.9032 46.9633 59.3634 46.1827 60.9531 45.8663C62.5427 45.55 64.1905 45.7122 65.6881 46.3324C67.1856 46.9526 68.4655 48.0029 69.3661 49.3506C70.2666 50.6983 70.7473 52.2827 70.7473 53.9036C70.7426 56.0752 69.8779 58.1566 68.3425 59.6924C66.8071 61.2281 64.7259 62.0932 62.5542 62.0984ZM62.5542 47.3174C61.2511 47.317 59.9771 47.7031 58.8935 48.4269C57.8098 49.1507 56.9651 50.1795 56.4663 51.3834C55.9674 52.5873 55.8368 53.9121 56.0909 55.1902C56.3451 56.4683 56.9726 57.6423 57.894 58.5638C58.8155 59.4852 59.9895 60.1127 61.2676 60.3669C62.5457 60.621 63.8705 60.4904 65.0744 59.9915C66.2783 59.4927 67.3071 58.648 68.0309 57.5643C68.7547 56.4807 69.1408 55.2067 69.1404 53.9036C69.1395 52.1566 68.4455 50.4814 67.2107 49.2456C65.9759 48.0098 64.3012 47.3144 62.5542 47.312V47.3174Z" fill="#213346"/>
<path d="M35.0864 15.8503H35.5846C42.5025 15.8503 49.1371 18.5985 54.0288 23.4902C58.9206 28.3819 61.6687 35.0166 61.6687 41.9345V58.8955C61.6699 62.3539 60.9898 65.7786 59.6674 68.9742C58.345 72.1697 56.406 75.0735 53.9613 77.5197C51.5166 79.9659 48.614 81.9066 45.4192 83.231C42.2245 84.5554 38.8001 85.2376 35.3417 85.2385C28.3575 85.2385 21.6593 82.464 16.7207 77.5254C11.7821 72.5868 9.00763 65.8886 9.00763 58.9044V41.9434C9.00763 35.0255 11.7558 28.3909 16.6475 23.4991C21.5392 18.6074 28.1738 15.8593 35.0918 15.8593L35.0864 15.8503Z" fill="#F9CDB7"/>
<path d="M38.6804 84.7084C37.4801 84.8755 36.2697 84.9596 35.0579 84.9602C20.5714 84.9602 8.72375 73.1107 8.72375 58.6261V41.308C8.72375 27.1501 20.3054 15.5667 34.4633 15.5667H35.6506C36.665 15.5655 37.6785 15.6251 38.6857 15.7452C27.1755 17.1164 17.206 27.6018 15.376 39.2888C14.8126 43.016 14.0177 46.7046 12.9961 50.3331L10.6127 58.6261C10.6127 71.8824 25.8918 82.9302 38.6804 84.7084Z" fill="#E2A78D"/>
<path d="M35.0579 86.0421C27.8668 86.0219 20.976 83.1562 15.8911 78.0713C10.8062 72.9864 7.94061 66.0957 7.92035 58.9046V41.9347C7.9392 34.8098 10.7778 27.982 15.8157 22.9438C20.8537 17.9055 27.6812 15.0664 34.8061 15.0471H35.3043C42.4298 15.0655 49.2583 17.9041 54.297 22.9425C59.3357 27.9809 62.1748 34.8092 62.1936 41.9347V58.9046C62.1724 66.0954 59.3065 72.9856 54.2218 78.0703C49.1371 83.155 42.2469 86.0209 35.0561 86.0421H35.0579ZM34.8061 16.6539C28.1071 16.6728 21.6877 19.3423 16.9508 24.0793C12.2138 28.8163 9.54424 35.2356 9.52539 41.9347V58.9046C9.51823 63.9549 11.011 68.8936 13.8143 73.0945C16.6176 77.2953 20.6053 80.5691 25.2717 82.5007C29.938 84.4322 35.0729 84.9346 40.0251 83.944C44.9774 82.9535 49.5239 80.5146 53.0883 76.9368C55.4682 74.5761 57.3564 71.7669 58.6435 68.6717C59.9306 65.5765 60.5911 62.2567 60.5868 58.9046V41.9347C60.5679 35.2356 57.8984 28.8163 53.1614 24.0793C48.4244 19.3423 42.0051 16.6728 35.306 16.6539H34.8061Z" fill="#213346"/>
<path d="M58.9871 54.5V54.5339C58.8889 54.5393 58.9282 54.5161 58.9871 54.5Z" fill="#BFE1EE"/>
<path d="M66.6624 54.5625C66.5387 54.5624 66.4188 54.5195 66.3231 54.4411C66.2274 54.3627 66.1619 54.2535 66.1375 54.1322C65.4127 50.5079 61.758 51.1167 61.6027 51.1453C61.532 51.1605 61.4589 51.1613 61.3879 51.1475C61.3168 51.1338 61.2493 51.1057 61.1894 51.0652C61.1295 51.0246 61.0785 50.9723 61.0393 50.9114C61.0002 50.8506 60.9738 50.7824 60.9617 50.7111C60.9497 50.6397 60.9522 50.5667 60.9691 50.4963C60.986 50.426 61.0171 50.3598 61.0603 50.3018C61.1035 50.2438 61.158 50.1951 61.2206 50.1587C61.2831 50.1223 61.3524 50.099 61.4242 50.0901C63.0953 49.792 66.4535 50.208 67.1962 53.9215C67.2241 54.0607 67.1956 54.2053 67.1169 54.3235C67.0382 54.4417 66.9159 54.5238 66.7767 54.5518C66.7391 54.5594 66.7008 54.563 66.6624 54.5625Z" fill="#213346"/>
<path d="M4.68172 55.0357C4.65973 55.0374 4.63765 55.0374 4.61566 55.0357C4.47485 55.0183 4.34669 54.9457 4.25933 54.8339C4.17196 54.7221 4.13253 54.5802 4.14968 54.4394C4.46212 51.8988 5.54048 50.6437 6.39031 50.0384C6.94307 49.6275 7.59861 49.3773 8.28458 49.3154C8.42664 49.3097 8.56513 49.3607 8.66959 49.4571C8.77406 49.5535 8.83594 49.6875 8.84162 49.8296C8.8473 49.9716 8.79632 50.1101 8.69989 50.2146C8.60346 50.319 8.46949 50.3809 8.32743 50.3866C8.21138 50.3866 5.70295 50.5794 5.21197 54.5697C5.19509 54.6985 5.13201 54.8167 5.03447 54.9024C4.93693 54.9881 4.81157 55.0355 4.68172 55.0357Z" fill="#213346"/>
<path d="M33.8491 98.5467C51.571 98.5467 65.9375 94.3215 65.9375 89.1093C65.9375 83.8972 51.571 79.6719 33.8491 79.6719C16.1272 79.6719 1.7608 83.8972 1.7608 89.1093C1.7608 94.3215 16.1272 98.5467 33.8491 98.5467Z" fill="#DFE7EA"/>
<path d="M60.826 63.0787C64.6021 69.9702 63.4005 76.6867 63.5326 83.0962L61.4884 80.8341C60.7211 84.8309 58.8644 88.538 56.1234 91.5463C55.5238 90.4498 54.6719 89.5117 53.6381 88.8094C52.883 92.1835 51.0921 95.2372 48.5159 97.5434C48.8794 96.6644 49.0506 95.7178 49.0179 94.7672C48.9853 93.8166 48.7496 92.8839 48.3267 92.0319C47.8727 93.4385 47.1271 94.7335 46.1387 95.8324C45.1502 96.9313 43.9411 97.8094 42.5903 98.4093C43.0156 97.8116 43.2819 97.1155 43.364 96.3865C43.4462 95.6575 43.3415 94.9196 43.0599 94.2422C40.9781 97.7755 34.9936 97.8826 32.7887 94.4208C32.6351 95.1188 32.7476 96.0365 33.46 96.0954C30.4606 96.5578 27.7147 95.2938 25.6508 93.0692C25.7774 94.331 26.3747 95.4988 27.3237 96.34C25.7219 96.2387 24.1748 95.7186 22.8373 94.8315C21.4997 93.9445 20.4185 92.7218 19.702 91.2857C15.8313 91.5267 11.966 88.8736 10.7983 85.1779C10.8791 85.4896 10.8771 85.8169 10.7925 86.1275C10.708 86.4381 10.5438 86.7213 10.3163 86.949C3.63011 83.555 3.98718 68.3348 8.36668 63.3144C8.36668 63.3144 17.5845 64.7926 23.1852 69.0382C24.7081 70.1952 24.7527 68.5669 26.9345 67.6599C29.8767 66.4405 35.1239 65.5836 38.1055 65.5711C42.4636 65.5514 44.7935 71.0789 47.5858 68.4562C54.9807 61.5201 60.7617 62.9626 60.826 63.0787Z" fill="#B46078"/>
<path d="M63.7915 82.3055L61.7473 80.0381C60.9815 84.0336 59.1282 87.7403 56.3912 90.7502C55.7911 89.6536 54.9394 88.715 53.906 88.0115C53.1508 91.3856 51.3599 94.4393 48.7838 96.7455C49.1457 95.8655 49.3152 94.9183 49.281 93.9675C49.2468 93.0166 49.0097 92.084 48.5856 91.2323C48.133 92.6407 47.388 93.9376 46.3995 95.0381C45.4109 96.1386 44.2011 97.018 42.8492 97.6185C43.2742 97.021 43.5403 96.3252 43.6224 95.5966C43.7046 94.868 43.6001 94.1304 43.3188 93.4533C41.237 96.9865 35.2525 97.0936 33.0476 93.6318C32.8922 94.3299 33.0672 96.9008 33.7813 96.9615C30.7819 97.4222 27.9736 94.5049 25.9097 92.2803C26.0293 93.5301 26.34 95.7778 27.2808 96.6062C24.085 96.4438 21.3499 93.3712 19.9608 90.4896C16.0902 90.7306 12.2249 88.0793 11.0572 84.3819C11.1379 84.6938 11.1359 85.0213 11.0514 85.3322C10.9668 85.6431 10.8027 85.9266 10.5752 86.1547C8.26493 84.9835 6.74023 82.4322 5.91718 79.39C8.87374 81.5449 12.3534 83.0196 15.7938 84.3515C18.1291 85.2442 20.4947 86.1065 22.9567 86.5546C25.3455 86.9885 27.7861 87.0313 30.2142 87.0742C36.9504 87.1902 43.9615 87.2527 50.0567 84.3569C51.8028 83.5267 53.6435 82.1073 53.5828 80.1738C53.5132 77.9635 51.0958 76.703 49.0337 75.9121C53.4257 75.2604 57.0286 71.854 59.0317 67.8922C59.7809 66.3866 60.3726 64.8078 60.7975 63.1807L61.3884 63.6413C63.1934 69.9704 63.6594 75.8925 63.7915 82.3055Z" fill="#96426E"/>
<path d="M46.6556 100L48.0339 96.7258C48.4113 95.819 48.5526 94.8312 48.4446 93.8549C47.2485 95.9794 45.3989 97.6612 43.1706 98.6504L40.4533 99.8377L42.1994 97.4417C42.5886 96.8934 42.8112 96.2443 42.8403 95.5725C41.6548 96.6205 40.0355 97.2311 38.2448 97.2632C36.8656 97.3043 35.5033 96.9519 34.317 96.2473C34.5098 97.2275 34.5223 98.0987 33.7617 98.4487L33.4261 98.604L33.0904 98.4487C30.6284 97.3132 28.6966 96.142 27.0755 94.7869C27.3505 95.9117 27.6611 96.3152 27.82 96.4544L29.5536 97.9773L27.2487 97.8595C23.8333 97.681 20.9999 94.4852 19.4824 91.6107H19.4735C16.1563 91.6107 12.9587 89.7486 11.2287 86.9456L11.1465 87.0313L10.7341 87.433L10.2199 87.1723C7.66864 85.8761 5.82971 82.941 5.04594 78.8989C3.89795 72.984 5.20305 65.8211 8.02035 62.5932C8.16262 62.4413 8.35827 62.3505 8.56611 62.34C8.77395 62.3295 8.97776 62.4 9.13463 62.5368C9.29151 62.6735 9.3892 62.8658 9.40714 63.0731C9.42508 63.2805 9.36188 63.4867 9.23083 63.6483C6.70454 66.546 5.55834 73.1108 6.62241 78.5936C7.23836 81.7609 8.52918 84.1283 10.2913 85.3512C10.3245 85.2002 10.3209 85.0435 10.2806 84.8942L11.8232 84.4478C12.8748 87.7758 16.4258 90.2128 19.9109 89.995L20.4465 89.9611L20.6804 90.4485C22.0765 93.3425 23.9958 95.0993 25.6937 95.8456C25.3871 94.8075 25.1914 93.7399 25.1099 92.6605L24.8831 90.2967L26.4989 92.0374C28.1057 93.7675 30.05 95.1672 32.7173 96.5009C32.6548 96.208 32.578 95.8974 32.5227 95.676C32.2906 94.753 32.1656 94.2084 32.262 93.7675L32.678 91.8678L33.7242 93.5068C34.5901 94.8637 36.2237 95.6653 38.0966 95.6653H38.2144C40.1426 95.6296 41.7852 94.7726 42.6261 93.3443L43.4313 91.9767L44.0561 93.4336C44.4104 94.2682 44.5337 95.1827 44.4132 96.0813C46.0191 94.876 47.2107 93.2015 47.8232 91.2894L48.4178 89.404L49.3105 91.1697C49.8243 92.1994 50.092 93.3344 50.0924 94.4852C51.5669 92.6235 52.6015 90.4525 53.1186 88.1346L53.3739 86.9777L54.3541 87.6437C55.1784 88.2034 55.9002 88.9009 56.4876 89.7057C58.746 86.9547 60.2848 83.6852 60.9653 80.1915L61.267 78.6043L63.1363 80.6736C63.5219 73.9624 62.5346 68.4831 60.0708 63.5501C60.0094 63.4553 59.9686 63.3485 59.9512 63.2368C59.9338 63.1251 59.9402 63.011 59.9699 62.902C59.9997 62.7929 60.0521 62.6914 60.1237 62.6039C60.1954 62.5165 60.2847 62.4452 60.3858 62.3946C60.4869 62.3441 60.5975 62.3154 60.7104 62.3106C60.8234 62.3057 60.9361 62.3247 61.0411 62.3664C61.1462 62.408 61.2413 62.4714 61.3203 62.5523C61.3992 62.6332 61.4601 62.7299 61.4991 62.836C64.3254 68.4956 65.3073 74.7979 64.5896 82.6803L64.4236 84.5085L62.1865 82.0322C61.2484 85.5927 59.46 88.8723 56.975 91.5893L56.2145 92.4213L55.6788 91.4322C55.3313 90.7954 54.8875 90.216 54.363 89.7147C53.4392 92.7712 51.6918 95.5143 49.3122 97.6435L46.6556 100Z" fill="#213346"/>
<path d="M29.1073 81.2592C28.6274 81.2582 28.1675 81.0672 27.8282 80.7279C27.4889 80.3886 27.2979 79.9287 27.2969 79.4488V72.5306C27.2983 72.0509 27.4895 71.5912 27.8287 71.252C28.1679 70.9128 28.6276 70.7216 29.1073 70.7202H41.7691C42.2485 70.7221 42.7077 70.9135 43.0465 71.2526C43.3853 71.5918 43.5762 72.0512 43.5777 72.5306V79.4488C43.5767 79.9284 43.3859 80.388 43.047 80.7273C42.7081 81.0665 42.2486 81.2578 41.7691 81.2592" fill="#F9CDB7"/>
<path d="M43.8847 73.2839V75.4264C43.7441 75.1032 43.5123 74.8281 43.2177 74.6346C42.9231 74.4412 42.5785 74.3379 42.2261 74.3373H29.559C29.0794 74.3382 28.6198 74.529 28.2805 74.8679C27.9413 75.2068 27.75 75.6663 27.7486 76.1459V80.9199C27.6505 80.6946 27.5994 80.4515 27.5986 80.2058V73.2839C27.6 72.8047 27.791 72.3455 28.1299 72.0066C28.4688 71.6678 28.928 71.4768 29.4072 71.4753H42.0833C42.5613 71.4786 43.0186 71.6705 43.356 72.0091C43.6933 72.3478 43.8833 72.8059 43.8847 73.2839Z" fill="#E2A78D"/>
<path d="M35.365 70.5095C36.6719 70.5095 37.9484 70.5095 39.1803 70.5292L40.9942 70.5506H41.437H41.6566H41.7173H41.7976L41.9565 70.5613C42.3755 70.6088 42.777 70.7557 43.1277 70.9898C43.4612 71.2117 43.7393 71.5072 43.9405 71.8536C44.1417 72.2 44.2607 72.588 44.2882 72.9876V73.1322V73.2536V73.4518L44.2775 73.8464C44.2775 74.1052 44.2632 74.3623 44.2543 74.6141C44.2222 75.621 44.1865 76.5601 44.1454 77.4153C44.1043 78.2705 44.0597 79.0471 44.0115 79.7274C44.0115 79.8131 44.0008 79.9059 43.9936 79.9791C43.9936 80.0202 43.9936 80.0594 43.9936 80.1005C43.9936 80.1416 43.9847 80.1987 43.9794 80.2451C43.9575 80.4342 43.9113 80.6196 43.8419 80.7968C43.72 81.0991 43.5307 81.3696 43.2884 81.5877C42.9717 81.8804 42.5607 82.0501 42.1297 82.0662C42.0218 82.0693 41.9141 82.0529 41.8119 82.018C41.7423 81.9912 41.7084 81.9626 41.7084 81.9305C41.7084 81.8984 41.7423 81.868 41.8012 81.8341L42.0529 81.7127C42.3404 81.5749 42.5894 81.3682 42.7778 81.111C42.8983 80.9387 42.9827 80.7437 43.026 80.5379C43.0472 80.425 43.055 80.3099 43.0492 80.1951V80.1005C43.0492 80.0594 43.0492 80.0202 43.0402 79.9791C43.0402 79.897 43.0278 79.8131 43.0224 79.7274C42.9742 79.0471 42.9296 78.2723 42.8903 77.4153C42.851 76.5583 42.8117 75.621 42.7796 74.6141C42.7796 74.3623 42.7635 74.1052 42.7564 73.8464L42.7457 73.4518V73.2536V73.2036V73.1751V73.1179C42.7258 72.9661 42.6718 72.8207 42.5877 72.6926C42.5036 72.5646 42.3916 72.4573 42.26 72.3788C42.1274 72.2999 41.9783 72.2529 41.8244 72.2413H41.6887H41.4691H41.0264L39.2124 72.2628C37.9805 72.2752 36.704 72.2806 35.3971 72.2806C34.0902 72.2806 32.8137 72.2806 31.5818 72.2628L29.7661 72.2413H29.3251H29.1055H28.9698C28.8159 72.2529 28.6668 72.2999 28.5342 72.3788C28.4027 72.4573 28.2906 72.5646 28.2065 72.6926C28.1224 72.8207 28.0684 72.9661 28.0485 73.1179V73.1751V73.2036V73.2536V73.4518L28.0378 73.8464C28.0378 74.1052 28.0218 74.3623 28.0146 74.6141C27.9825 75.621 27.945 76.5601 27.9039 77.4153C27.8629 78.2705 27.82 79.0471 27.7718 79.7274C27.7718 79.8131 27.7593 79.9059 27.754 79.9791C27.754 80.0202 27.754 80.0594 27.754 80.1005V80.1951C27.7481 80.3099 27.7559 80.425 27.7772 80.5379C27.8197 80.744 27.9041 80.9391 28.0253 81.111C28.2129 81.369 28.4621 81.5759 28.7502 81.7127L29.0001 81.8341C29.0609 81.868 29.093 81.9002 29.093 81.9305C29.093 81.9609 29.0609 81.9912 28.9912 82.018C28.889 82.0529 28.7814 82.0693 28.6734 82.0662C28.2419 82.0502 27.8303 81.8805 27.5129 81.5877C27.2713 81.3694 27.0827 81.0989 26.9613 80.7968C26.8919 80.6196 26.8457 80.4342 26.8238 80.2451C26.8238 80.1987 26.8113 80.1398 26.8095 80.1005L26.7988 79.9791C26.7988 79.897 26.7881 79.8131 26.7809 79.7274C26.7345 79.0471 26.6899 78.2723 26.6488 77.4153C26.6078 76.5583 26.5721 75.621 26.5399 74.6141C26.5399 74.3623 26.5239 74.1052 26.5167 73.8464C26.5167 73.716 26.5078 73.5839 26.5042 73.4518V73.2536V73.1322V72.9876C26.5483 72.3745 26.8057 71.7963 27.2316 71.3531C27.6575 70.9099 28.2251 70.6298 28.8359 70.5613L28.9948 70.5506H29.0751H29.1358H29.3554H29.7964L31.6121 70.5292C32.7816 70.522 34.0581 70.5095 35.365 70.5095Z" fill="#213346"/>
<path d="M10.6109 66.7924C10.5699 67.3539 10.5993 67.9183 10.6984 68.4724C10.8076 69.0454 10.9875 69.6025 11.234 70.1311C10.8321 69.6775 10.4884 69.1755 10.211 68.6367C9.93296 68.0753 9.72547 67.4816 9.59325 66.8692C9.45925 66.241 9.39932 65.5992 9.41471 64.9571C9.42201 64.6298 9.44704 64.3032 9.4897 63.9787C9.53153 63.6355 9.60139 63.2964 9.69859 62.9646L11.5571 63.7787C11.4194 63.987 11.2999 64.2068 11.2001 64.4357C11.0921 64.6806 10.9968 64.9309 10.9144 65.1856C10.7517 65.7077 10.6498 66.2469 10.6109 66.7924Z" fill="#213346"/>
<path d="M13.3817 68.3189C13.5264 69.64 14.1137 70.9594 14.9636 72.1056C13.8128 71.1686 12.9292 69.9451 12.4016 68.5581C12.1334 67.8171 11.9939 67.0358 11.9892 66.2478C11.9823 65.4141 12.1419 64.5874 12.4587 63.8162L14.2441 64.7767C13.5603 65.689 13.2407 67.0102 13.3817 68.3189Z" fill="#213346"/>
<path d="M18.4379 69.3132C18.5833 70.5954 18.9996 71.832 19.6591 72.9411C18.694 71.9827 17.9425 70.8309 17.4542 69.5614C16.9333 68.228 16.7015 66.7991 16.774 65.3694L18.7736 65.7122C18.4056 66.8748 18.2912 68.1027 18.4379 69.3132Z" fill="#213346"/>
<path d="M51.3493 68.5884C51.4168 69.1104 51.3981 69.64 51.2939 70.156C51.2047 70.5541 51.069 70.7862 50.9369 70.7773C50.6816 70.7505 50.5798 69.815 50.4334 68.6973C50.287 67.5797 50.1906 66.6424 50.4334 66.5549C50.5512 66.5174 50.7387 66.712 50.919 67.0762C51.1442 67.5533 51.2896 68.0642 51.3493 68.5884Z" fill="#213346"/>
<path d="M55.3717 67.5314C55.3584 68.2745 55.214 69.0095 54.945 69.7024C54.729 70.238 54.5005 70.513 54.3844 70.4719C54.1398 70.379 54.4291 69.0918 54.4594 67.5064C54.4898 65.921 54.2898 64.6212 54.5398 64.5427C54.6558 64.5088 54.8701 64.8016 55.0593 65.3408C55.2907 66.0471 55.3964 66.7885 55.3717 67.5314Z" fill="#213346"/>
<path d="M59.6066 66.8762C59.6842 67.4212 59.7141 67.972 59.6959 68.5223C59.6814 68.9711 59.6288 69.4178 59.5388 69.8577C59.3799 70.6058 59.1603 71.0343 59.0442 71.0093C58.7818 70.9539 59.0282 69.1579 58.7032 67.0065C58.3783 64.8552 57.6856 63.1823 57.9248 63.0591C58.0319 63.0037 58.3551 63.359 58.7121 64.0339C58.9183 64.4317 59.092 64.8454 59.2317 65.2711C59.4004 65.795 59.5258 66.3318 59.6066 66.8762Z" fill="#213346"/>
<path d="M12.1767 85.1424C12.1069 84.6313 12.0913 84.1142 12.1302 83.5998C12.1496 83.3764 12.1806 83.1541 12.2231 82.9339C12.2591 82.7421 12.3062 82.5525 12.3641 82.3662C12.5766 81.6824 12.8426 81.3164 12.9533 81.3556C13.064 81.3949 13.0372 81.8252 12.9979 82.4822C12.9979 82.6483 12.9765 82.8268 12.9747 83.0178C12.9729 83.2089 12.9747 83.4142 12.9747 83.6266C12.9849 84.0901 13.0212 84.5527 13.0836 85.0121C13.1542 85.4701 13.2484 85.9242 13.3657 86.3725C13.4264 86.5778 13.4782 86.776 13.5442 86.9563C13.6103 87.1367 13.6621 87.3134 13.7228 87.4652C13.9442 88.0847 14.1048 88.4828 13.9959 88.5596C13.887 88.6364 13.5425 88.3525 13.1461 87.7544C13.0361 87.5928 12.9359 87.4246 12.8462 87.2509C12.7432 87.0512 12.6508 86.8462 12.5694 86.6368C12.3865 86.1538 12.2548 85.6529 12.1767 85.1424Z" fill="#213346"/>
<path d="M17.9023 87.6149C17.7894 86.7906 17.7858 85.9549 17.8916 85.1297C17.9755 84.503 18.1005 84.1227 18.2255 84.1245C18.3504 84.1263 18.454 84.5155 18.5361 85.1297C18.6182 85.7438 18.6789 86.5865 18.8057 87.4864C18.8718 87.9345 18.9521 88.354 19.0378 88.7361C19.0896 88.9146 19.1271 89.1039 19.1806 89.2717C19.2032 89.355 19.2265 89.4354 19.2503 89.5127L19.3235 89.7323C19.502 90.293 19.6609 90.6536 19.5538 90.7339C19.4466 90.8143 19.1146 90.5697 18.7468 90.0198L18.6075 89.8002C18.5629 89.7234 18.5218 89.6395 18.4772 89.552C18.3854 89.3674 18.3037 89.1779 18.2326 88.9843C18.0792 88.5394 17.9686 88.0808 17.9023 87.6149Z" fill="#213346"/>
<path d="M24.7313 88.8095C23.9779 86.1314 23.8761 83.873 24.1189 83.8426C24.3617 83.8123 24.8741 85.9583 25.6097 88.5649C26.3453 91.1715 27.0255 93.2711 26.788 93.3729C26.5506 93.4746 25.4758 91.4857 24.7313 88.8095Z" fill="#213346"/>
<path d="M44.8863 90.9787C45.2238 89.8522 45.4612 88.7934 45.6719 88.0293C45.8826 87.2652 46.0593 86.7903 46.1861 86.8099C46.3128 86.8296 46.3539 87.3295 46.3075 88.1329C46.2433 89.1876 46.0594 90.2316 45.7594 91.2447C45.5868 91.8094 45.3676 92.3588 45.1041 92.8873C44.9848 93.1176 44.8537 93.3417 44.7114 93.5586C44.6453 93.6603 44.581 93.7603 44.515 93.8514L44.3132 94.1067C43.7776 94.7512 43.3384 95.0243 43.2545 94.944C43.1706 94.8637 43.4223 94.4316 43.7758 93.7514C43.8205 93.6675 43.8651 93.5729 43.9133 93.4854L44.0526 93.1908C44.1525 92.9908 44.2311 92.7641 44.3418 92.5356C44.5275 92.066 44.7149 91.5411 44.8863 90.9787Z" fill="#213346"/>
<path d="M50.2049 88.9469C50.4441 87.5757 50.5619 86.2867 50.7405 85.3583C50.919 84.4299 51.0636 83.8639 51.1886 83.8747C51.3136 83.8854 51.3796 84.4728 51.3814 85.4136C51.394 86.6506 51.3014 87.8863 51.1047 89.1076C50.9863 89.7938 50.8022 90.467 50.5548 91.1179C50.3502 91.6537 50.0855 92.1647 49.7657 92.6408C49.2051 93.4514 48.6944 93.7942 48.6034 93.712C48.5123 93.6299 48.8301 93.1407 49.205 92.3194C49.4217 91.8385 49.6072 91.3441 49.7603 90.8394C49.9469 90.2182 50.0953 89.5862 50.2049 88.9469Z" fill="#213346"/>
<path d="M55.586 85.519C55.852 84.4085 56.0359 83.3765 56.2073 82.6213C56.3787 81.8661 56.534 81.4055 56.6608 81.4198C56.7875 81.434 56.8536 81.9161 56.8393 82.6963C56.8243 83.7187 56.698 84.7364 56.4626 85.7314C56.3291 86.2874 56.1499 86.8314 55.927 87.3579C55.8145 87.5989 55.7145 87.8275 55.5931 88.031C55.5342 88.1345 55.4806 88.2345 55.4146 88.3274L55.236 88.5898C54.7736 89.2486 54.3666 89.5521 54.2755 89.4825C54.1845 89.4129 54.3844 88.9701 54.6719 88.2827L54.8022 88.0185C54.8379 87.9239 54.8754 87.8257 54.9129 87.7221C54.9968 87.5222 55.0646 87.2972 55.1486 87.0669C55.3003 86.5902 55.4503 86.0724 55.586 85.519Z" fill="#213346"/>
<path d="M57.4089 83.8407C57.6963 83.1265 57.932 82.4499 58.123 81.8179C58.2123 81.5001 58.3016 81.2001 58.3748 80.9127C58.448 80.6253 58.514 80.3592 58.5711 80.1146C58.7961 79.1327 58.9157 78.5078 59.0496 78.5078C59.1835 78.5078 59.2764 79.1577 59.2085 80.2075C59.1907 80.4681 59.1657 80.7556 59.1157 81.0609C59.0657 81.3662 59.0068 81.6911 58.9372 82.0321C58.5962 83.5077 58.0115 84.916 57.2071 86.1992C57.0161 86.4902 56.8376 86.7687 56.6483 87.0133C56.4591 87.2579 56.2823 87.4846 56.1127 87.681C55.4182 88.4701 54.8826 88.8504 54.7969 88.7683C54.7112 88.6862 55.0593 88.1506 55.5949 87.2971C55.7288 87.0829 55.8752 86.8508 56.0216 86.5937C56.168 86.3366 56.3234 86.0581 56.4858 85.776C56.7947 85.194 57.1232 84.5423 57.4089 83.8407Z" fill="#213346"/>
<path d="M7.3794 70.0825C7.51331 69.4308 7.86681 68.9756 8.10605 69.0506C8.34529 69.1255 8.39528 69.6629 8.27209 70.2664C8.1489 70.8699 7.89002 71.3376 7.63828 71.318C7.38655 71.2984 7.2455 70.7324 7.3794 70.0825Z" fill="white"/>
<path d="M7.60433 77.1277C7.36725 76.2632 7.25424 75.3693 7.26868 74.4729C7.29189 73.7855 7.40973 73.366 7.53113 73.366C7.79358 73.366 7.96319 74.9871 8.4863 76.8903C9.00942 78.7935 9.67 80.2825 9.44504 80.411C9.33971 80.4717 9.0237 80.1718 8.65591 79.5898C8.18733 78.8247 7.83306 77.9953 7.60433 77.1277Z" fill="white"/>
<path d="M23.2995 69.8952H23.212C22.2944 69.8631 21.5731 69.315 20.9946 68.8758L20.9589 68.849C17.3872 66.1487 13.2205 64.3433 8.80772 63.584C8.60169 63.544 8.41949 63.425 8.30007 63.2524C8.18066 63.0798 8.13352 62.8673 8.16875 62.6605C8.20397 62.4536 8.31875 62.2687 8.48854 62.1453C8.65834 62.0219 8.86966 61.9699 9.07731 62.0004C13.7455 62.8031 18.1534 64.7126 21.9319 67.5689L21.9659 67.5957C22.4068 67.9296 22.8585 68.2741 23.271 68.2902C23.6834 68.3063 24.1386 68.0028 24.6243 67.6832L24.7617 67.5939C27.5023 65.7996 31.0569 64.8087 34.7812 64.8087C38.5001 64.8087 42.0601 65.7943 44.8024 67.5868L44.9399 67.676C45.4237 67.9956 45.8862 68.2973 46.2932 68.2831C46.7003 68.2688 47.1573 67.926 47.5965 67.5886L47.6322 67.5618C51.4108 64.7054 55.8187 62.796 60.4869 61.9932C60.592 61.9728 60.7001 61.9736 60.8049 61.9956C60.9097 62.0176 61.009 62.0603 61.097 62.1212C61.1851 62.1822 61.2601 62.2601 61.3176 62.3504C61.3751 62.4407 61.414 62.5416 61.4319 62.6471C61.4499 62.7526 61.4466 62.8607 61.4222 62.965C61.3978 63.0692 61.3528 63.1675 61.2899 63.2542C61.227 63.3408 61.1474 63.4139 61.0558 63.4694C60.9641 63.5248 60.8624 63.5613 60.7565 63.5768C56.3437 64.3361 52.177 66.1415 48.6053 68.8419L48.5696 68.8687C47.9911 69.3079 47.2698 69.856 46.3521 69.8881C45.4345 69.9202 44.6685 69.4203 44.0579 69.0186L43.9258 68.9312C38.7983 65.5818 30.7659 65.5818 25.6383 68.9312L25.5062 69.0186C24.9153 69.4132 24.1833 69.8952 23.2995 69.8952Z" fill="#213346"/>
<path d="M34.8757 61.6238C34.7702 61.6241 34.6656 61.6034 34.568 61.5631C34.4704 61.5228 34.3818 61.4637 34.3071 61.389C34.2325 61.3144 34.1733 61.2257 34.133 61.1281C34.0927 61.0306 34.0721 60.926 34.0723 60.8204V52.5024C34.0723 52.2893 34.157 52.085 34.3076 51.9343C34.4583 51.7836 34.6627 51.699 34.8757 51.699C35.0888 51.699 35.2932 51.7836 35.4438 51.9343C35.5945 52.085 35.6792 52.2893 35.6792 52.5024V60.8204C35.6792 60.9259 35.6584 61.0304 35.618 61.1279C35.5776 61.2253 35.5185 61.3139 35.4438 61.3885C35.3692 61.4631 35.2807 61.5223 35.1832 61.5627C35.0857 61.603 34.9813 61.6238 34.8757 61.6238Z" fill="#213346"/>
<path d="M32.6762 39.669C32.9762 40.9938 32.8708 42.7613 31.9406 43.8307C30.8551 45.0805 29.1466 44.8234 27.6701 44.7609C25.8675 44.6815 24.0631 44.8661 22.314 45.309C20.8857 45.675 19.6109 46.5588 18.1594 46.8016C16.5705 47.0783 16.1955 46.2302 17.256 45.0662C18.5058 43.6986 20.2912 42.2417 21.9783 41.4508C25.1134 39.9761 29.1037 39.2566 32.6191 39.6083" fill="#E2A78D"/>
<path d="M37.3503 40.2547C37.0503 41.5794 37.1574 43.3469 38.0876 44.4164C39.1713 45.6661 40.8817 45.409 42.3582 45.3465C44.1608 45.267 45.9652 45.4517 47.7143 45.8946C49.1426 46.2606 50.4174 47.1355 51.8689 47.3872C53.4596 47.6639 53.8328 46.8177 52.7723 45.6518C51.5332 44.2842 49.7371 42.8292 48.0517 42.0365C44.9149 40.5618 40.9264 39.8423 37.4092 40.1958" fill="#E2A78D"/>
<path d="M37.5181 38.3051C37.2182 39.6281 37.3235 41.3956 38.2537 42.465C39.3374 43.7148 41.0478 43.4595 42.5243 43.397C44.3268 43.3165 46.1315 43.5012 47.8804 43.9451C49.3087 44.3111 50.5852 45.1842 52.0349 45.4377C53.6257 45.7144 53.9988 44.8664 52.9401 43.7005C51.6993 42.3329 49.905 40.8779 48.2178 40.0852C45.0809 38.6104 41.0924 37.8927 37.577 38.2444" fill="#B46078"/>
<path d="M52.5884 46.2927C52.3579 46.2911 52.1279 46.2696 51.901 46.2284C51.0083 46.0731 50.2031 45.7214 49.4265 45.3804C48.8643 45.1149 48.2815 44.8952 47.684 44.7234C46.0104 44.2979 44.2832 44.1216 42.5582 44.2002C42.4011 44.2002 42.2404 44.2145 42.0797 44.2235C40.6514 44.302 38.8661 44.402 37.6467 42.9933C36.4665 41.6365 36.4183 39.5244 36.7343 38.1264C36.7838 37.9516 36.8821 37.7945 37.0178 37.6737C37.1535 37.5529 37.3209 37.4733 37.5003 37.4444C41.2935 37.1138 45.1076 37.7733 48.5695 39.3583C50.2121 40.1314 52.1188 41.5883 53.5454 43.1612C54.5934 44.3163 54.3952 45.134 54.1845 45.5178C54.0042 45.8303 53.5828 46.2927 52.5884 46.2927ZM43.3384 42.5756C44.9388 42.5721 46.5332 42.7707 48.0839 43.1665C48.7654 43.3597 49.4299 43.6081 50.071 43.9092C50.7852 44.2252 51.4743 44.5234 52.176 44.6448C52.3401 44.6762 52.5071 44.6893 52.6741 44.6841C52.5838 44.5236 52.4741 44.3749 52.3474 44.2413C51.0548 42.813 49.3426 41.5008 47.884 40.8134C44.8579 39.4281 41.5387 38.8048 38.2162 38.9977C38.0912 40.0225 38.2394 41.2187 38.8643 41.9382C39.5784 42.7523 40.7514 42.688 41.9976 42.6202L42.4957 42.5934C42.7742 42.5827 43.0563 42.5756 43.3384 42.5756Z" fill="#213346"/>
<path d="M31.8264 37.5943C32.1263 38.9191 32.021 40.6866 31.0908 41.7542C30.0053 43.004 28.2949 42.7487 26.8184 42.6862C25.0159 42.6058 23.2113 42.7905 21.4623 43.2343C20.034 43.6003 18.7593 44.484 17.3078 44.7269C15.717 45.0036 15.3439 44.1555 16.4044 42.9915C17.6434 41.6239 19.4395 40.167 21.1267 39.3761C24.2618 37.9014 28.2503 37.1819 31.7675 37.5336" fill="#B46078"/>
<path d="M16.7543 45.5822C15.7617 45.5822 15.3385 45.1198 15.1671 44.8074C14.9547 44.4235 14.7565 43.6076 15.8063 42.4507C17.2346 40.8778 19.1378 39.4156 20.7803 38.6497C24.2417 37.0628 28.0563 36.4032 31.8496 36.7358C32.0293 36.7638 32.1971 36.843 32.3329 36.964C32.4688 37.085 32.5669 37.2425 32.6155 37.4178C32.9315 38.8139 32.8815 40.926 31.7014 42.2829C30.4766 43.6897 28.6984 43.5915 27.2683 43.513L26.7899 43.4898C25.0648 43.4112 23.3377 43.5874 21.6641 44.0129C21.0675 44.1858 20.4854 44.4055 19.9233 44.6699C19.1449 45.0109 18.3415 45.3626 17.4471 45.518C17.2184 45.5594 16.9867 45.581 16.7543 45.5822ZM16.6704 43.9754C16.8367 43.9815 17.0032 43.969 17.1667 43.9379C17.8684 43.8147 18.5504 43.5166 19.2735 43.2006C19.9141 42.8999 20.5781 42.6515 21.2588 42.4578C23.0852 41.9941 24.9699 41.8016 26.8523 41.8865C27.0166 41.8865 27.1826 41.9026 27.3522 41.9115C28.602 41.9794 29.775 42.0454 30.4838 41.2295C31.1104 40.5154 31.2568 39.3156 31.1319 38.289C27.8095 38.0972 24.4905 38.7205 21.4641 40.1047C20.0019 40.7921 18.2897 42.1061 17.0007 43.5326C16.8729 43.6655 16.762 43.8136 16.6704 43.9736V43.9754Z" fill="#213346"/>
<path d="M33.6135 79.2095C32.4631 79.2092 31.3147 79.1131 30.1803 78.922C30.0974 78.9095 30.0179 78.8805 29.9465 78.8367C29.8751 78.7928 29.8133 78.7351 29.7647 78.6668C29.716 78.5986 29.6816 78.5213 29.6635 78.4395C29.6453 78.3577 29.6438 78.2731 29.659 78.1907C29.6742 78.1083 29.7058 78.0298 29.752 77.9599C29.7981 77.89 29.8579 77.83 29.9277 77.7837C29.9975 77.7373 30.0759 77.7055 30.1582 77.69C30.2406 77.6745 30.3252 77.6758 30.407 77.6937C30.4606 77.7026 35.8774 78.6667 38.4072 76.8599C38.7295 76.6417 39.002 76.3577 39.2066 76.0266C39.4113 75.6955 39.5435 75.3248 39.5945 74.9389C39.6057 74.8568 39.6331 74.7777 39.6751 74.7063C39.7172 74.6349 39.773 74.5726 39.8393 74.523C39.9056 74.4733 39.9812 74.4374 40.0615 74.4172C40.1419 74.3971 40.2255 74.3931 40.3074 74.4055C40.3893 74.4179 40.4679 74.4465 40.5387 74.4896C40.6094 74.5327 40.6709 74.5895 40.7196 74.6565C40.7682 74.7236 40.803 74.7997 40.8219 74.8804C40.8409 74.961 40.8436 75.0446 40.83 75.1263C40.7535 75.6779 40.5631 76.2076 40.2708 76.6816C39.9785 77.1555 39.5907 77.5635 39.1321 77.8794C37.6449 78.9399 35.4542 79.2095 33.6135 79.2095Z" fill="#213346"/>
<path d="M63.9933 56.323C63.8732 56.3227 63.7567 56.282 63.6624 56.2076C63.5682 56.1331 63.5018 56.0291 63.4737 55.9123C63.255 55.1045 63.1848 54.2636 63.2666 53.4307C63.3551 52.5257 63.7694 51.6837 64.4325 51.0615C64.5385 50.9668 64.6779 50.9181 64.8198 50.9262C64.9618 50.9342 65.0948 50.9983 65.1895 51.1043C65.2842 51.2104 65.3328 51.3498 65.3248 51.4917C65.3168 51.6337 65.2527 51.7666 65.1466 51.8613C64.6787 52.3118 64.389 52.9159 64.3307 53.5628C64.2641 54.2683 64.3246 54.98 64.5092 55.6642C64.542 55.8022 64.5186 55.9476 64.4443 56.0684C64.37 56.1892 64.2508 56.2756 64.1129 56.3087C64.0737 56.3183 64.0336 56.3231 63.9933 56.323Z" fill="#213346"/>
<path d="M6.89196 56.323C6.84987 56.3235 6.80787 56.3187 6.76699 56.3087C6.69852 56.2925 6.63391 56.263 6.57684 56.2219C6.51978 56.1807 6.47138 56.1287 6.43441 56.0689C6.39744 56.009 6.37262 55.9425 6.36137 55.8731C6.35012 55.8036 6.35266 55.7326 6.36885 55.6642C6.55353 54.98 6.614 54.2683 6.54739 53.5628C6.48974 52.9161 6.20066 52.312 5.73326 51.8613C5.62719 51.7666 5.56309 51.6337 5.55506 51.4917C5.54702 51.3498 5.59571 51.2104 5.69041 51.1043C5.78511 50.9983 5.91807 50.9342 6.06003 50.9262C6.202 50.9181 6.34134 50.9668 6.44741 51.0615C7.11045 51.6837 7.52478 52.5257 7.61325 53.4307C7.69418 54.2636 7.62402 55.1043 7.40615 55.9123C7.37834 56.0282 7.31268 56.1315 7.21955 56.2059C7.12642 56.2803 7.01114 56.3215 6.89196 56.323Z" fill="#213346"/>
<path d="M46.8234 30.2957C47.3022 30.4894 47.7614 30.7285 48.1946 31.0099C48.5475 31.2394 48.8764 31.5037 49.1765 31.799C49.6853 32.3114 49.8907 32.7327 49.7657 32.8702C49.6407 33.0077 49.2212 32.8702 48.6195 32.5899L47.5822 32.1114C47.193 31.9329 46.7681 31.7543 46.3164 31.5758C45.8647 31.3973 45.4237 31.2402 45.0238 31.0973L43.94 30.7403C43.3169 30.526 42.9099 30.3475 42.917 30.1547C42.9242 29.9618 43.3598 29.7976 44.0811 29.7833C44.5001 29.7755 44.9188 29.8102 45.3308 29.8869C45.8403 29.975 46.3401 30.1119 46.8234 30.2957Z" fill="white"/>
<path d="M7.59006 35.0734C7.74902 34.6757 8.00569 34.3245 8.33634 34.0522C8.60771 33.8451 8.85766 33.7897 9.01121 33.8969C9.16475 34.004 9.20224 34.2539 9.16296 34.5539C9.10387 34.9165 8.99825 35.2699 8.84874 35.6055C8.71248 35.9469 8.53244 36.2692 8.31313 36.5642C8.12388 36.8034 7.92392 36.948 7.73646 36.9123C7.54899 36.8766 7.41687 36.6588 7.37938 36.3214C7.3439 35.8943 7.41635 35.4652 7.59006 35.0734Z" fill="white"/>
<path d="M11.4911 30.9903C12.0731 30.719 12.6748 30.7743 12.8354 31.1171C12.9961 31.4599 12.6569 31.958 12.0695 32.2294C11.4821 32.5008 10.8858 32.4436 10.7251 32.1026C10.5645 31.7616 10.909 31.2617 11.4911 30.9903Z" fill="white"/>
<path d="M14.2066 28.057C14.6298 27.1554 15.1761 26.4823 15.5367 26.6019C15.8974 26.7215 15.9063 27.6517 15.4457 28.6355C14.9851 29.6192 14.2584 30.2084 13.9406 30.0102C13.6228 29.812 13.7853 28.9586 14.2066 28.057Z" fill="white"/>
<path d="M11.2197 28.4142V14.6401C11.2197 11.8603 12.457 9.34826 14.3602 8.2574L21.2695 4.29925C29.5411 -0.437316 38.8911 -0.437316 47.1573 4.29925L54.0685 8.2574C55.9752 9.34291 57.2107 11.8549 57.2107 14.6401V28.4195" fill="#FEFDF5"/>
<path d="M56.6697 14.424V17.8858C47.8821 9.25535 36.1202 4.56341 24.9456 7.18611C21.8783 7.90026 18.72 9.29998 16.8489 12.2441C14.5155 15.9165 14.9672 21.6297 17.8362 24.7416C19.9126 26.9804 22.6657 27.6732 25.5026 28.2088H10.6841V14.424C10.6841 11.6424 11.9196 9.13037 13.8245 8.03952L20.7339 4.08136C29.0037 -0.653423 38.3554 -0.653423 46.6217 4.08136L53.531 8.03416C55.436 9.13037 56.6697 11.6424 56.6697 14.424Z" fill="#F4EAE1"/>
<path d="M57.1768 29.2639C56.9637 29.2639 56.7593 29.1793 56.6087 29.0286C56.458 28.878 56.3733 28.6736 56.3733 28.4605V14.6811C56.3733 12.1816 55.3021 9.9463 53.6382 8.9947L46.727 5.03834C42.735 2.75129 38.5144 1.5908 34.1813 1.5908C29.8482 1.5908 25.6276 2.75129 21.6355 5.03834L14.7244 8.9947C13.064 9.9463 11.9892 12.1798 11.9892 14.6811V28.4605C11.9892 28.6736 11.9046 28.878 11.7539 29.0286C11.6032 29.1793 11.3989 29.2639 11.1858 29.2639C10.9727 29.2639 10.7684 29.1793 10.6177 29.0286C10.467 28.878 10.3824 28.6736 10.3824 28.4605V14.6811C10.3824 11.6138 11.7732 8.83402 13.9263 7.60033L20.8357 3.64397C29.318 -1.21401 39.0464 -1.21401 47.5269 3.64397L54.4452 7.60033C56.5876 8.83402 57.9802 11.6138 57.9802 14.6811V28.4605C57.9804 28.5661 57.9598 28.6707 57.9195 28.7683C57.8792 28.8658 57.82 28.9545 57.7454 29.0291C57.6707 29.1038 57.5821 29.163 57.4845 29.2033C57.3869 29.2436 57.2823 29.2642 57.1768 29.2639Z" fill="#213346"/>
<path d="M64.9627 29.9941C64.5998 31.5193 64.1309 33.0173 63.5594 34.4771C63.2648 35.2609 60.7439 41.9399 61.0492 42.2274C54.979 36.5267 45.6415 32.8774 35.1614 32.8774C24.6814 32.8774 15.3689 36.5214 9.30044 42.2131C7.1098 35.393 1.71086 25.0218 8.12746 19.1819C9.96103 17.5126 12.2963 16.811 14.5726 16.2361C27.5504 12.9581 41.1067 12.5207 54.1309 15.5433C56.2734 16.0415 58.4158 16.6413 60.3565 17.8179C62.2972 18.9945 64.0093 20.8137 64.8199 23.174C65.5912 25.4057 65.4662 27.7356 64.9627 29.9941Z" fill="#F9637C"/>
<path d="M11.932 18.2964C13.2032 17.1395 14.719 16.4467 16.2865 15.9397C15.7997 16.0587 15.3129 16.1777 14.8261 16.2968C12.5498 16.8717 10.2145 17.5733 8.38094 19.2426C1.96434 25.0825 7.36328 35.4537 9.55392 42.2738C10.509 41.3807 11.523 40.5529 12.589 39.7957C10.1931 33.0292 5.97962 23.715 11.932 18.2964Z" fill="#BA4264"/>
<path d="M19.5556 18.7463C19.5322 18.7485 19.5085 18.7461 19.486 18.7392C19.4635 18.7323 19.4426 18.721 19.4244 18.706C19.3877 18.6757 19.3646 18.6321 19.3601 18.5847C19.3556 18.5374 19.3701 18.4902 19.4004 18.4535C19.4307 18.4168 19.4743 18.3937 19.5217 18.3892C20.6375 18.1643 21.8212 17.9625 23.0406 17.7893C23.088 17.7827 23.136 17.7952 23.1742 17.824C23.2124 17.8528 23.2375 17.8955 23.2442 17.9429C23.2508 17.9902 23.2383 18.0383 23.2096 18.0764C23.1808 18.1146 23.138 18.1398 23.0906 18.1464C21.8784 18.3249 20.7 18.5196 19.5913 18.7427C19.5797 18.7457 19.5676 18.7469 19.5556 18.7463Z" fill="#B13A59"/>
<path d="M11.0947 21.5065C11.0648 21.5064 11.0354 21.4989 11.0092 21.4845C10.983 21.4702 10.9609 21.4495 10.9447 21.4243C10.9192 21.3846 10.9105 21.3363 10.9206 21.2901C10.9306 21.2439 10.9586 21.2036 10.9983 21.178C11.0733 21.1298 12.8961 19.9764 17.372 18.8713C17.3951 18.8646 17.4193 18.8627 17.4432 18.8656C17.467 18.8685 17.49 18.8762 17.5108 18.8882C17.5316 18.9002 17.5498 18.9163 17.5643 18.9355C17.5787 18.9547 17.5891 18.9766 17.5949 18.9999C17.6007 19.0232 17.6017 19.0475 17.5979 19.0712C17.594 19.0949 17.5855 19.1176 17.5726 19.138C17.5598 19.1583 17.5431 19.1758 17.5233 19.1895C17.5036 19.2032 17.4813 19.2128 17.4577 19.2176C13.039 20.3085 11.209 21.4672 11.1911 21.4779C11.1624 21.4965 11.1289 21.5064 11.0947 21.5065Z" fill="#B13A59"/>
<path d="M40.3282 17.1967H40.3122C39.0928 17.0878 37.9055 17.0182 36.7789 16.9789C36.7316 16.9789 36.6862 16.9601 36.6527 16.9266C36.6192 16.8931 36.6004 16.8477 36.6004 16.8004C36.6004 16.753 36.6192 16.7076 36.6527 16.6741C36.6862 16.6406 36.7316 16.6218 36.7789 16.6218C37.9109 16.6575 39.0999 16.7325 40.3318 16.8414C40.3792 16.8436 40.4237 16.8644 40.4557 16.8994C40.4877 16.9344 40.5045 16.9806 40.5023 17.028C40.5002 17.0754 40.4793 17.1199 40.4443 17.1519C40.4094 17.1839 40.3631 17.2006 40.3158 17.1985L40.3282 17.1967Z" fill="#B13A59"/>
<path d="M28.0218 17.7305C27.9744 17.7343 27.9275 17.7191 27.8913 17.6883C27.8552 17.6575 27.8327 17.6136 27.8289 17.5662C27.8252 17.5189 27.8403 17.4719 27.8711 17.4358C27.9019 17.3996 27.9458 17.3772 27.9932 17.3734L28.9484 17.2109C30.7873 16.8931 32.6976 16.5646 34.6097 16.595C34.6571 16.595 34.7025 16.6138 34.736 16.6473C34.7695 16.6807 34.7883 16.7262 34.7883 16.7735C34.7883 16.8209 34.7695 16.8663 34.736 16.8998C34.7025 16.9332 34.6571 16.952 34.6097 16.952C32.7208 16.9235 30.8373 17.2484 29.0144 17.5626L28.0557 17.7251L28.0218 17.7305Z" fill="#B13A59"/>
<path d="M59.146 20.8532C59.1259 20.8529 59.106 20.8493 59.0871 20.8425C57.9177 20.4229 56.7661 20.0444 55.6824 19.7195C55.6598 19.7127 55.6389 19.7016 55.6206 19.6867C55.6024 19.6718 55.5873 19.6535 55.5762 19.6328C55.5651 19.612 55.5581 19.5893 55.5558 19.5659C55.5535 19.5424 55.5559 19.5188 55.5628 19.4963C55.5695 19.4737 55.5806 19.4528 55.5955 19.4345C55.6104 19.4163 55.6287 19.4012 55.6495 19.3901C55.6702 19.379 55.693 19.3721 55.7164 19.3698C55.7398 19.3675 55.7634 19.3698 55.7859 19.3767C56.8804 19.7034 58.0319 20.0908 59.2067 20.5068C59.2461 20.5211 59.2793 20.5489 59.3003 20.5852C59.3213 20.6215 59.3289 20.6641 59.3216 20.7055C59.3144 20.7468 59.2928 20.7843 59.2607 20.8113C59.2286 20.8383 59.188 20.8531 59.146 20.8532Z" fill="#B13A59"/>
<path d="M53.6131 19.1408C53.5989 19.1425 53.5845 19.1425 53.5703 19.1408C49.1676 18.0321 47.0805 18.2106 47.0609 18.2106C47.0135 18.2151 46.9663 18.2006 46.9296 18.1703C46.893 18.14 46.8699 18.0964 46.8654 18.0491C46.8609 18.0017 46.8754 17.9545 46.9057 17.9178C46.936 17.8812 46.9796 17.8581 47.0269 17.8536C47.1126 17.8536 49.1854 17.6625 53.656 18.7891C53.6794 18.7919 53.7021 18.7993 53.7227 18.8109C53.7433 18.8225 53.7614 18.838 53.776 18.8565C53.7905 18.8751 53.8013 18.8964 53.8077 18.9191C53.8141 18.9418 53.8159 18.9656 53.8131 18.9891C53.8103 19.0125 53.8029 19.0352 53.7913 19.0557C53.7797 19.0763 53.7642 19.0944 53.7457 19.109C53.7271 19.1236 53.7058 19.1344 53.6831 19.1408C53.6604 19.1471 53.6366 19.149 53.6131 19.1462V19.1408Z" fill="#B13A59"/>
<path d="M19.6574 21.0441C19.61 21.0486 19.5628 21.0341 19.5261 21.0038C19.4895 20.9735 19.4664 20.9299 19.4619 20.8826C19.4574 20.8352 19.4719 20.788 19.5022 20.7514C19.5325 20.7147 19.5761 20.6916 19.6234 20.6871C20.7375 20.4621 21.923 20.2604 23.1424 20.0872C23.1897 20.0806 23.2378 20.093 23.276 20.1218C23.3141 20.1506 23.3393 20.1934 23.3459 20.2407C23.3525 20.2881 23.3401 20.3361 23.3113 20.3743C23.2825 20.4125 23.2397 20.4376 23.1924 20.4443C21.9801 20.6228 20.8018 20.8174 19.6931 21.0406C19.6814 21.0435 19.6694 21.0447 19.6574 21.0441Z" fill="#B13A59"/>
<path d="M11.1965 23.8061C11.158 23.806 11.1206 23.7935 11.0898 23.7704C11.059 23.7473 11.0365 23.7148 11.0257 23.6779C11.0148 23.6409 11.0162 23.6015 11.0296 23.5654C11.043 23.5293 11.0678 23.4985 11.1001 23.4776C11.1751 23.4294 12.9979 22.2761 17.4738 21.1709C17.519 21.1616 17.5661 21.1701 17.6052 21.1947C17.6442 21.2193 17.6722 21.2581 17.6833 21.3029C17.6944 21.3477 17.6877 21.395 17.6646 21.435C17.6415 21.475 17.6039 21.5045 17.5595 21.5173C13.1515 22.6064 11.3108 23.7668 11.2929 23.7776C11.2642 23.7961 11.2307 23.806 11.1965 23.8061Z" fill="#B13A59"/>
<path d="M40.43 19.4963H40.414C39.1946 19.3874 38.0055 19.3177 36.8807 19.2785C36.8334 19.2785 36.788 19.2596 36.7545 19.2262C36.721 19.1927 36.7022 19.1473 36.7022 19.0999C36.7022 19.0526 36.721 19.0072 36.7545 18.9737C36.788 18.9402 36.8334 18.9214 36.8807 18.9214C38.0109 18.9571 39.2017 19.0321 40.4318 19.141C40.4792 19.1429 40.5238 19.1635 40.556 19.1983C40.5881 19.2331 40.6051 19.2793 40.6032 19.3267C40.6013 19.374 40.5807 19.4187 40.5459 19.4508C40.5111 19.483 40.4649 19.5 40.4175 19.4981L40.43 19.4963Z" fill="#B13A59"/>
<path d="M28.1235 20.0391C28.0814 20.0395 28.0405 20.025 28.008 19.9981C27.9756 19.9712 27.9537 19.9337 27.9462 19.8923C27.9387 19.8508 27.9461 19.8081 27.9671 19.7715C27.9882 19.735 28.0214 19.7071 28.061 19.6928C28.1431 19.6624 30.1285 18.95 34.7043 18.8965C34.7517 18.8965 34.7971 18.9153 34.8306 18.9488C34.8641 18.9823 34.8829 19.0277 34.8829 19.075C34.8829 19.1224 34.8641 19.1678 34.8306 19.2013C34.7971 19.2347 34.7517 19.2536 34.7043 19.2536C30.1999 19.3071 28.1985 20.0213 28.1788 20.0284C28.1611 20.0349 28.1424 20.0385 28.1235 20.0391Z" fill="#B13A59"/>
<path d="M59.2478 23.1526C59.2271 23.1526 59.2066 23.149 59.1871 23.1419C58.0195 22.7223 56.875 22.3438 55.7842 22.0189C55.7387 22.0052 55.7006 21.9739 55.6782 21.9321C55.6557 21.8902 55.6508 21.8412 55.6646 21.7957C55.6783 21.7503 55.7095 21.7121 55.7514 21.6897C55.7932 21.6673 55.8423 21.6624 55.8877 21.6761C56.9822 22.0028 58.1337 22.3903 59.3085 22.8062C59.3479 22.8206 59.3811 22.8483 59.4021 22.8846C59.4231 22.921 59.4307 22.9635 59.4234 23.0049C59.4162 23.0462 59.3946 23.0837 59.3625 23.1107C59.3304 23.1377 59.2898 23.1526 59.2478 23.1526Z" fill="#B13A59"/>
<path d="M53.715 21.4405C53.7007 21.4422 53.6864 21.4422 53.6721 21.4405C49.2587 20.3282 47.1823 20.5121 47.1627 20.5139C47.1392 20.5162 47.1156 20.5139 47.093 20.5071C47.0704 20.5003 47.0494 20.4891 47.0312 20.4742C47.013 20.4593 46.9978 20.4409 46.9867 20.4201C46.9756 20.3994 46.9686 20.3766 46.9663 20.3532C46.9639 20.3297 46.9662 20.306 46.973 20.2835C46.9799 20.2609 46.991 20.2399 47.006 20.2217C47.0361 20.1849 47.0796 20.1615 47.127 20.1568C47.2145 20.1568 49.2855 19.9657 53.7578 21.0923C53.8052 21.098 53.8483 21.1223 53.8778 21.1598C53.9073 21.1973 53.9206 21.2449 53.9149 21.2923C53.9093 21.3396 53.885 21.3828 53.8475 21.4122C53.81 21.4417 53.7623 21.4551 53.715 21.4494V21.4405Z" fill="#B13A59"/>
<path d="M19.452 23.6382C19.4102 23.6391 19.3695 23.6253 19.3369 23.5992C19.3042 23.5731 19.2818 23.5364 19.2734 23.4954C19.2688 23.4724 19.2686 23.4488 19.2731 23.4257C19.2776 23.4027 19.2865 23.3808 19.2994 23.3612C19.3124 23.3417 19.329 23.3248 19.3485 23.3117C19.3679 23.2986 19.3897 23.2894 19.4127 23.2847C20.5286 23.0616 21.7123 22.8581 22.9317 22.6849C22.955 22.6813 22.9788 22.6825 23.0017 22.6882C23.0246 22.6939 23.0462 22.7042 23.0651 22.7183C23.084 22.7324 23.1 22.7501 23.112 22.7704C23.124 22.7907 23.1319 22.8132 23.1352 22.8366C23.1418 22.8835 23.1295 22.9311 23.1011 22.9689C23.0726 23.0068 23.0303 23.0317 22.9834 23.0384C21.7694 23.2169 20.591 23.4115 19.4823 23.6347C19.4724 23.6372 19.4622 23.6384 19.452 23.6382Z" fill="#B13A59"/>
<path d="M10.9929 26.4002C10.9631 26.4001 10.9337 26.3926 10.9075 26.3782C10.8813 26.3639 10.8591 26.3432 10.843 26.318C10.8175 26.2782 10.8088 26.2299 10.8188 26.1838C10.8289 26.1376 10.8568 26.0973 10.8965 26.0716C10.9715 26.0234 12.7962 24.8701 17.2721 23.765C17.318 23.7536 17.3666 23.761 17.4071 23.7854C17.4476 23.8099 17.4767 23.8494 17.4881 23.8953C17.4937 23.9182 17.4947 23.9419 17.4911 23.9651C17.4874 23.9884 17.4793 24.0107 17.467 24.0308C17.4547 24.0509 17.4386 24.0683 17.4195 24.0821C17.4005 24.096 17.3789 24.1059 17.356 24.1113C12.939 25.2022 11.1072 26.3609 11.0894 26.3716C11.0606 26.3901 11.0272 26.4001 10.9929 26.4002Z" fill="#B13A59"/>
<path d="M40.2265 22.0903H40.2105C38.9911 21.9797 37.8038 21.9118 36.679 21.8707C36.6317 21.8707 36.5863 21.8519 36.5528 21.8185C36.5193 21.785 36.5005 21.7396 36.5005 21.6922C36.5005 21.6449 36.5193 21.5994 36.5528 21.566C36.5863 21.5325 36.6317 21.5137 36.679 21.5137C37.8109 21.5494 39 21.6244 40.2319 21.7333C40.2793 21.7354 40.3238 21.7563 40.3558 21.7912C40.3878 21.8262 40.4045 21.8725 40.4024 21.9198C40.4003 21.9672 40.3794 22.0118 40.3444 22.0437C40.3094 22.0757 40.2632 22.0925 40.2158 22.0903H40.2265Z" fill="#B13A59"/>
<path d="M27.92 22.6331C27.8779 22.6335 27.837 22.619 27.8045 22.5921C27.7721 22.5652 27.7502 22.5277 27.7427 22.4863C27.7352 22.4448 27.7426 22.4021 27.7637 22.3655C27.7847 22.329 27.8179 22.3011 27.8575 22.2868C27.9414 22.2564 29.925 21.544 34.5026 21.4905C34.55 21.4905 34.5954 21.5093 34.6289 21.5428C34.6624 21.5763 34.6812 21.6217 34.6812 21.669C34.6812 21.7164 34.6624 21.7618 34.6289 21.7953C34.5954 21.8287 34.55 21.8476 34.5026 21.8476C29.9875 21.9011 27.9986 22.6153 27.9789 22.6224C27.96 22.629 27.9401 22.6327 27.92 22.6331Z" fill="#B13A59"/>
<path d="M59.046 25.7485C59.0253 25.7485 59.0048 25.7449 58.9853 25.7378C57.8177 25.3164 56.6733 24.938 55.5824 24.613C55.5599 24.6063 55.5389 24.5951 55.5206 24.5803C55.5024 24.5654 55.4873 24.547 55.4762 24.5263C55.4651 24.5056 55.4582 24.4828 55.4559 24.4594C55.4536 24.436 55.4559 24.4124 55.4628 24.3898C55.4764 24.3447 55.5074 24.3068 55.5488 24.2844C55.5903 24.262 55.639 24.2569 55.6842 24.2702C56.7804 24.5987 57.932 24.9844 59.1049 25.4004C59.1456 25.4137 59.18 25.4411 59.2021 25.4777C59.2242 25.5143 59.2325 25.5576 59.2253 25.5998C59.2182 25.6419 59.1962 25.6801 59.1633 25.7074C59.1304 25.7347 59.0888 25.7493 59.046 25.7485Z" fill="#B13A59"/>
<path d="M53.5114 24.0347H53.4685C49.0676 22.926 46.9788 23.1063 46.9591 23.1081C46.9118 23.1126 46.8646 23.0981 46.8279 23.0678C46.7912 23.0375 46.7681 22.9939 46.7636 22.9465C46.7591 22.8992 46.7736 22.852 46.8039 22.8153C46.8342 22.7786 46.8778 22.7555 46.9252 22.751C47.0109 22.751 49.0819 22.56 53.556 23.6866C53.6034 23.6925 53.6464 23.717 53.6757 23.7546C53.705 23.7923 53.7182 23.8401 53.7122 23.8874C53.7063 23.9348 53.6818 23.9778 53.6442 24.0071C53.6065 24.0364 53.5587 24.0495 53.5114 24.0436V24.0347Z" fill="#B13A59"/>
<path d="M24.8581 9.98736C25.408 9.92978 25.9638 9.99066 26.4881 10.1659C26.8934 10.3194 27.1166 10.523 27.0916 10.7015C27.0666 10.88 26.8059 11.0247 26.4239 11.1228C25.9481 11.2316 25.4646 11.3032 24.9777 11.3371C24.4921 11.3889 24.0032 11.4026 23.5155 11.3782C23.1227 11.3496 22.8442 11.2621 22.7853 11.0818C22.7264 10.9015 22.9103 10.6604 23.2834 10.4408C23.7696 10.1782 24.3067 10.0235 24.8581 9.98736Z" fill="white"/>
<path d="M34.6562 9.641C37.17 9.79632 39.1606 10.3444 39.1196 10.7122C39.0785 11.08 37.0468 11.155 34.5776 11.0032C32.1085 10.8515 30.0981 10.5337 30.0999 10.1605C30.1017 9.7874 32.1442 9.48924 34.6562 9.641Z" fill="white"/>
<path d="M8.9184 43.6683L8.52919 42.4596C8.18819 41.3883 7.76506 40.2404 7.31871 39.0156C4.85134 32.2669 1.78409 23.8668 7.58116 18.5875C9.57363 16.7825 12.0303 16.0487 14.3763 15.4559C27.829 12.0638 41.6388 11.8192 54.3131 14.7614C56.468 15.2613 58.7425 15.8898 60.7743 17.1395C63.0738 18.5375 64.7806 20.5889 65.5805 22.9152C66.3089 25.0326 66.3643 27.409 65.7465 30.1763C65.3788 31.738 64.9015 33.2718 64.3182 34.7664L64.2932 34.8379C62.5079 39.5833 61.8526 41.7329 61.8348 42.1311C61.8304 42.0396 61.8079 41.9499 61.7687 41.8672C61.7294 41.7845 61.6742 41.7103 61.6063 41.649L60.5065 42.8202C54.3202 37.0089 45.0863 33.6809 35.1632 33.6809C25.2402 33.6809 16.0295 37.0035 9.84857 42.8006L8.9184 43.6683ZM36.122 14.3258C28.9208 14.3391 21.7488 15.2422 14.769 17.0146C12.6266 17.5502 10.3806 18.2161 8.66845 19.7765C3.66943 24.3292 6.52601 32.1669 8.8327 38.4657C9.12729 39.2727 9.41295 40.0511 9.67182 40.7992C16.1206 35.2396 25.3312 32.0741 35.1668 32.0741C44.9363 32.0741 54.0917 35.1967 60.519 40.6831C60.6975 40.1029 60.9421 39.3388 61.2653 38.4104C61.6705 37.2392 62.1776 35.8448 62.7721 34.2647L62.7989 34.1951C63.3601 32.7691 63.8212 31.3057 64.179 29.8156C64.7289 27.3465 64.6914 25.2558 64.0611 23.4276C63.3827 21.4548 61.9187 19.7051 59.9387 18.5C58.2034 17.4448 56.2895 16.8664 53.9506 16.3236C48.1031 14.9818 42.1215 14.3115 36.122 14.3258Z" fill="#213346"/>
<path d="M57.3553 50.5257C57.3065 49.902 57.2964 49.276 57.3249 48.6511C57.3606 48.1565 57.4535 47.8244 57.6392 47.7798C57.8248 47.7352 58.0623 47.9976 58.2765 48.4779C58.7814 49.7363 58.8715 51.1229 58.5336 52.436C58.3837 52.9395 58.1766 53.2305 57.998 53.2109C57.8195 53.1912 57.6731 52.8734 57.5731 52.3878C57.4614 51.7723 57.3887 51.1504 57.3553 50.5257Z" fill="white"/>
<path d="M56.3037 45.1697C56.2168 44.976 56.1718 44.7661 56.1716 44.5537C56.1646 44.4585 56.1768 44.3628 56.2075 44.2723C56.2381 44.1818 56.2867 44.0985 56.3501 44.0271C56.4297 43.9594 56.5279 43.9174 56.6317 43.9066C56.7356 43.8958 56.8403 43.9166 56.9321 43.9664C57.2089 44.1076 57.428 44.3407 57.5517 44.6257C57.6755 44.9107 57.6963 45.2299 57.6106 45.5286C57.5838 45.6295 57.5272 45.7201 57.4482 45.7886C57.3693 45.857 57.2716 45.9002 57.1678 45.9124C57.0718 45.9105 56.9771 45.8897 56.8892 45.8511C56.8012 45.8125 56.7218 45.7569 56.6554 45.6874C56.5035 45.5412 56.3837 45.3648 56.3037 45.1697Z" fill="white"/>
<path d="M54.4862 42.3399C54.3077 42.1132 54.4058 41.7418 54.704 41.5097C55.0022 41.2777 55.386 41.2723 55.5645 41.499C55.7431 41.7258 55.6431 42.0989 55.345 42.331C55.0468 42.5631 54.6629 42.5667 54.4862 42.3399Z" fill="white"/>
<path d="M47.0716 29.9941C47.8899 30.1416 48.6723 30.4446 49.3765 30.8868C49.9121 31.2438 50.1639 31.5813 50.0764 31.7437C49.9889 31.9062 49.5854 31.8883 49.0051 31.7794C48.4249 31.6705 47.6572 31.492 46.8074 31.3242C45.9575 31.1563 45.1809 31.0367 44.6006 30.9189C44.0204 30.8011 43.6419 30.6743 43.624 30.4833C43.6062 30.2922 43.9651 30.0833 44.5935 29.9476C45.4149 29.8041 46.2562 29.8199 47.0716 29.9941Z" fill="white"/>
<path d="M53.8435 32.5545C53.9568 32.5995 54.0599 32.667 54.1464 32.7529C54.233 32.8388 54.3012 32.9414 54.3469 33.0544C54.3824 33.1428 54.3936 33.239 54.3795 33.3331C54.3653 33.4273 54.3264 33.516 54.2666 33.59C54.1471 33.7267 53.9846 33.8186 53.806 33.8507C53.6419 33.8906 53.4694 33.8775 53.3132 33.8134C53.1571 33.7492 53.0252 33.6373 52.9365 33.4936C52.8335 33.3437 52.7861 33.1624 52.8026 32.9812C52.8134 32.8857 52.8498 32.7948 52.908 32.7181C52.9661 32.6415 53.0438 32.5819 53.1329 32.5456C53.2457 32.4989 53.3669 32.4756 53.4891 32.4771C53.6112 32.4787 53.7318 32.505 53.8435 32.5545Z" fill="white"/>
<path d="M58.0266 34.7163C58.3994 34.9495 58.7153 35.263 58.9514 35.634C59.1299 35.9357 59.1639 36.1964 59.0389 36.3374C58.9139 36.4785 58.6586 36.4802 58.3462 36.3874C57.5948 36.1226 56.9172 35.6825 56.3698 35.1037C56.1573 34.8555 56.0538 34.6217 56.1341 34.4485C56.2144 34.2753 56.4644 34.2039 56.8125 34.2432C57.2474 34.3087 57.6621 34.4703 58.0266 34.7163Z" fill="white"/>
<path d="M24.6974 57.6761C26.9564 57.6761 28.7877 55.8449 28.7877 53.5859C28.7877 51.3269 26.9564 49.4956 24.6974 49.4956C22.4384 49.4956 20.6071 51.3269 20.6071 53.5859C20.6071 55.8449 22.4384 57.6761 24.6974 57.6761Z" fill="#213346"/>
<path d="M26.5221 52.8129C27.7743 52.8129 28.7895 51.7977 28.7895 50.5455C28.7895 49.2932 27.7743 48.2781 26.5221 48.2781C25.2698 48.2781 24.2546 49.2932 24.2546 50.5455C24.2546 51.7977 25.2698 52.8129 26.5221 52.8129Z" fill="#F9CDB7"/>
<path d="M23.0549 56.055C23.5755 56.055 23.9975 55.633 23.9975 55.1124C23.9975 54.5917 23.5755 54.1697 23.0549 54.1697C22.5342 54.1697 22.1122 54.5917 22.1122 55.1124C22.1122 55.633 22.5342 56.055 23.0549 56.055Z" fill="white"/>
<path d="M43.6223 58.569C45.8812 58.569 47.7125 56.7377 47.7125 54.4787C47.7125 52.2197 45.8812 50.3884 43.6223 50.3884C41.3633 50.3884 39.532 52.2197 39.532 54.4787C39.532 56.7377 41.3633 58.569 43.6223 58.569Z" fill="#213346"/>
<path d="M45.4469 53.7055C46.6992 53.7055 47.7143 52.6903 47.7143 51.4381C47.7143 50.1858 46.6992 49.1707 45.4469 49.1707C44.1947 49.1707 43.1795 50.1858 43.1795 51.4381C43.1795 52.6903 44.1947 53.7055 45.4469 53.7055Z" fill="#F9CDB7"/>
<path d="M41.9797 56.9478C42.5003 56.9478 42.9224 56.5258 42.9224 56.0052C42.9224 55.4845 42.5003 55.0625 41.9797 55.0625C41.4591 55.0625 41.037 55.4845 41.037 56.0052C41.037 56.5258 41.4591 56.9478 41.9797 56.9478Z" fill="white"/>
</g>
<defs>
<clipPath id="clip0">
<rect width="69.8631" height="100" fill="white" transform="translate(0.884216)"/>
</clipPath>
</defs>
</svg>
