<svg width="570" height="229" viewBox="0 0 570 229" fill="none" xmlns="http://www.w3.org/2000/svg">
<path d="M70.2261 48.0768L54.3013 40.142L57.017 25.701L62.6913 26.8534L60.8307 36.7329L72.7338 42.6629L70.2261 48.0768Z" fill="#F9B117"/>
<path d="M70.2261 48.0768L54.3013 40.142L57.017 25.701L62.6913 26.8534L60.8307 36.7329L72.7338 42.6629L70.2261 48.0768Z" stroke="#141414" stroke-width="2" stroke-miterlimit="10"/>
<path d="M59.8598 29.3143C63.8361 29.3143 67.0595 25.966 67.0595 21.8356C67.0595 17.7053 63.8361 14.357 59.8598 14.357C55.8836 14.357 52.6602 17.7053 52.6602 21.8356C52.6602 25.966 55.8836 29.3143 59.8598 29.3143Z" fill="#0E394F"/>
<path d="M59.8598 29.3143C63.8361 29.3143 67.0595 25.966 67.0595 21.8356C67.0595 17.7053 63.8361 14.357 59.8598 14.357C55.8836 14.357 52.6602 17.7053 52.6602 21.8356C52.6602 25.966 55.8836 29.3143 59.8598 29.3143Z" stroke="#141414" stroke-width="2" stroke-miterlimit="10"/>
<path d="M51.1693 63.1421C52.1498 58.6118 54.2628 54.4301 57.2954 51.0186C60.328 47.6072 64.1728 45.0865 68.4423 43.7109C72.7118 42.3353 77.255 42.1532 81.6139 43.1832C85.9727 44.2131 89.993 46.4187 93.2695 49.5774L106.571 62.4219L152.242 106.285L92.8304 125.492L33.4302 144.699L47.1708 81.5085L51.1693 63.1421Z" fill="#FACA3F"/>
<path d="M393.564 215.644H417.902C421.548 215.653 425.16 214.915 428.531 213.474C431.902 212.032 434.966 209.914 437.548 207.241V207.241C442.75 201.838 449.804 198.803 457.16 198.803C464.515 198.803 471.57 201.838 476.771 207.241L481.971 212.642C484.554 215.316 487.618 217.434 490.989 218.875C494.36 220.317 497.972 221.055 501.617 221.045H539.245" stroke="#141414" stroke-width="2" stroke-miterlimit="10"/>
<path d="M567.165 209.905C561.549 198.73 551.495 190.351 538.517 190.351C531.265 190.361 524.21 192.805 518.402 197.317C512.595 201.829 508.345 208.168 506.286 215.391C505.967 216.551 505.912 217.772 506.125 218.957C506.339 220.142 506.814 221.26 507.515 222.222C508.215 223.183 509.122 223.963 510.162 224.498C511.202 225.034 512.348 225.31 513.509 225.307H554.777L568.252 224.106" fill="#2C6E9B"/>
<path d="M568.344 220.349C568.393 214.202 566.597 208.193 563.207 203.154C559.817 198.116 555 194.3 549.427 192.235C545.141 190.713 540.603 190.104 536.086 190.446C531.568 190.788 527.164 192.074 523.136 194.226C519.108 196.378 515.54 199.352 512.644 202.97C509.749 206.589 507.587 210.776 506.286 215.283C505.954 216.447 505.887 217.674 506.091 218.869C506.296 220.064 506.765 221.192 507.463 222.165C508.161 223.138 509.068 223.929 510.111 224.474C511.155 225.02 512.306 225.305 513.474 225.307H563.595C564.221 225.307 564.841 225.179 565.419 224.929C565.998 224.68 566.523 224.315 566.966 223.854C567.408 223.394 567.758 222.847 567.997 222.245C568.236 221.644 568.358 221 568.356 220.349H568.344Z" stroke="#141414" stroke-width="2" stroke-miterlimit="10"/>
<path d="M57.3925 171.775L76.786 165.527L88.2055 203.776C89.0045 206.452 88.7473 209.348 87.4906 211.827C86.2339 214.306 84.0807 216.165 81.5046 216.995C78.9284 217.825 76.1404 217.557 73.7539 216.252C71.3674 214.947 69.5778 212.71 68.7789 210.034L57.3594 171.785L57.3925 171.775Z" fill="#FBD766"/>
<path d="M128.044 147.985L147.471 141.727L158.89 179.976C159.689 182.652 159.432 185.548 158.175 188.027C156.918 190.506 154.765 192.365 152.189 193.194C149.613 194.024 146.825 193.757 144.438 192.452C142.052 191.146 140.262 188.91 139.463 186.234L128.044 147.985V147.985Z" fill="#FBD766"/>
<path d="M57.3925 171.775L76.786 165.527L88.2055 203.776C89.0045 206.452 88.7473 209.348 87.4906 211.827C86.2339 214.306 84.0807 216.165 81.5046 216.995C78.9284 217.825 76.1404 217.557 73.7539 216.252C71.3674 214.947 69.5778 212.71 68.7789 210.034L57.3594 171.785L57.3925 171.775Z" stroke="#141414" stroke-width="2" stroke-miterlimit="10"/>
<path d="M128.044 147.985L147.471 141.727L158.89 179.976C159.689 182.652 159.432 185.548 158.175 188.027C156.918 190.506 154.765 192.365 152.189 193.194C149.613 194.024 146.825 193.757 144.438 192.452C142.052 191.146 140.262 188.91 139.463 186.234L128.044 147.985V147.985Z" stroke="#141414" stroke-width="2" stroke-miterlimit="10"/>
<path opacity="0.7" d="M64.6558 181.107L68.481 193.928" stroke="white" stroke-width="2.8" stroke-linecap="round" stroke-linejoin="round"/>
<path d="M63.303 154.949L133.327 132.392L147.362 179.4C148.171 182.111 148.458 184.96 148.208 187.785C147.957 190.611 147.172 193.357 145.9 195.868C144.627 198.379 142.89 200.605 140.79 202.418C138.689 204.232 136.265 205.598 133.655 206.439L103.301 216.217C98.032 217.914 92.3293 217.368 87.4478 214.698C82.5662 212.028 78.9058 207.453 77.2716 201.979L63.2368 154.971L63.303 154.949Z" fill="#FACA3F"/>
<path d="M139.472 153.05L69.4478 175.607L72.1109 184.527L142.135 161.97L139.472 153.05Z" fill="#F7B000"/>
<path d="M63.303 154.949L133.327 132.392L147.362 179.4C148.171 182.111 148.458 184.96 148.208 187.785C147.957 190.611 147.172 193.357 145.9 195.868C144.627 198.379 142.89 200.605 140.79 202.418C138.689 204.232 136.265 205.598 133.655 206.439L103.301 216.217C98.032 217.914 92.3293 217.368 87.4478 214.698C82.5662 212.028 78.9058 207.453 77.2716 201.979L63.2368 154.971L63.303 154.949Z" stroke="#141414" stroke-width="2" stroke-miterlimit="10"/>
<path d="M51.1695 63.1421C52.1499 58.6118 54.263 54.4301 57.2955 51.0186C60.3281 47.6072 64.1729 45.0865 68.4424 43.7109C72.7119 42.3353 77.2551 42.1532 81.614 43.1832C85.9728 44.2131 89.9931 46.4187 93.2696 49.5774L106.571 62.4219L151.087 106.285L92.8305 125.492L34.5859 144.699L47.1709 81.5085L51.1695 63.1421Z" stroke="#141414" stroke-width="2" stroke-miterlimit="10"/>
<path d="M122.505 56.7093L32.5305 85.9155C24.5285 88.513 20.0687 97.357 22.5693 105.669L41.6097 168.959C44.1104 177.271 52.6245 181.904 60.6266 179.306L150.601 150.1C158.603 147.503 163.062 138.658 160.562 130.346L141.521 67.0564C139.021 58.7443 130.507 54.1117 122.505 56.7093Z" fill="#F9B117"/>
<path opacity="0.5" d="M157.732 125.48L159.165 130.282C160.35 134.252 159.968 138.548 158.105 142.226C156.241 145.905 153.047 148.663 149.226 149.896L59.7097 178.707C55.8861 179.938 51.7483 179.542 48.2055 177.607C44.6626 175.671 42.0044 172.353 40.8148 168.383L39.3818 163.581C40.5688 167.551 43.2248 170.868 46.7659 172.804C50.3069 174.74 54.4431 175.136 58.2651 173.905L147.793 145.095C149.69 144.493 151.454 143.506 152.982 142.192C154.511 140.878 155.773 139.262 156.697 137.439C157.621 135.615 158.189 133.619 158.366 131.567C158.544 129.514 158.328 127.445 157.732 125.48V125.48Z" fill="#E59303"/>
<path d="M122.762 65.4171L37.0924 93.226C32.2887 94.7854 29.6115 100.094 31.1126 105.084L48.9465 164.364C50.4477 169.354 55.5588 172.135 60.3625 170.575L146.032 142.766C150.836 141.207 153.513 135.898 152.012 130.908L134.178 71.6286C132.677 66.6388 127.566 63.8578 122.762 65.4171Z" fill="#0E394F"/>
<path d="M148.14 122.443L150.67 130.846C151.023 132.027 151.148 133.268 151.038 134.499C150.928 135.73 150.586 136.926 150.032 138.019C149.477 139.113 148.72 140.082 147.804 140.872C146.889 141.662 145.833 142.256 144.696 142.622L59.4669 170.076C57.1697 170.815 54.6839 170.576 52.5558 169.413C50.4278 168.249 48.8317 166.255 48.1184 163.869L45.5991 155.466C46.3123 157.849 47.9072 159.84 50.0331 161.001C52.1589 162.163 54.6419 162.4 56.936 161.661L142.176 134.195C144.467 133.457 146.381 131.804 147.499 129.601C148.617 127.397 148.848 124.823 148.14 122.443Z" fill="#062538"/>
<path d="M78.7803 112.352C78.1999 110.408 76.2122 109.321 74.3408 109.924C72.4693 110.526 71.4227 112.591 72.003 114.535L76.347 129.085C76.9274 131.029 78.915 132.116 80.7865 131.513C82.658 130.91 83.7046 128.846 83.1242 126.902L78.7803 112.352Z" fill="#4CF58C"/>
<path d="M104.085 104.202C103.505 102.258 101.517 101.171 99.6455 101.774C97.774 102.377 96.7273 104.441 97.3077 106.385L101.652 120.935C102.232 122.879 104.22 123.966 106.091 123.363C107.963 122.76 109.009 120.696 108.429 118.752L104.085 104.202Z" fill="#4CF58C"/>
<path d="M122.505 56.7093L32.5305 85.9155C24.5285 88.513 20.0687 97.357 22.5693 105.669L41.6097 168.959C44.1104 177.271 52.6245 181.904 60.6266 179.306L150.601 150.1C158.603 147.503 163.062 138.658 160.562 130.346L141.521 67.0564C139.021 58.7443 130.507 54.1117 122.505 56.7093Z" stroke="#141414" stroke-width="2.01157" stroke-miterlimit="10"/>
<path d="M407.779 1.20041H170.398C168.721 1.20274 167.098 1.819 165.815 2.94088C164.532 4.06276 163.671 5.61846 163.383 7.33456L135.832 195.344C135.657 196.405 135.707 197.493 135.979 198.532C136.251 199.571 136.738 200.536 137.406 201.359C138.074 202.182 138.907 202.844 139.847 203.298C140.787 203.752 141.811 203.987 142.847 203.987H389.3C390.946 203.976 392.537 203.371 393.802 202.276C395.067 201.182 395.926 199.665 396.234 197.985L424.744 22.5319C425.213 19.9372 425.127 17.267 424.493 14.7106C423.858 12.1541 422.69 9.77386 421.071 7.73848C419.453 5.70309 417.423 4.06235 415.126 2.9325C412.829 1.80265 410.32 1.21132 407.779 1.20041V1.20041Z" fill="#0E3964"/>
<path d="M407.779 1.20041H170.398C168.721 1.20274 167.098 1.819 165.815 2.94088C164.532 4.06276 163.671 5.61846 163.383 7.33456L135.832 195.344C135.657 196.405 135.707 197.493 135.979 198.532C136.251 199.571 136.738 200.536 137.406 201.359C138.074 202.182 138.907 202.844 139.847 203.298C140.787 203.752 141.811 203.987 142.847 203.987H389.3C390.946 203.976 392.537 203.371 393.802 202.276C395.067 201.182 395.926 199.665 396.234 197.985L424.744 22.5319C425.213 19.9372 425.127 17.267 424.493 14.7106C423.858 12.1541 422.69 9.77386 421.071 7.73848C419.453 5.70309 417.423 4.06235 415.126 2.9325C412.829 1.80265 410.32 1.21132 407.779 1.20041V1.20041Z" stroke="#141414" stroke-width="2" stroke-miterlimit="10"/>
<path d="M408.056 1.20041H160.47C157.901 1.19895 155.413 2.14173 153.448 3.86192C151.484 5.58211 150.168 7.96882 149.734 10.5997L121.282 203.987H382.632L414.181 8.8711C414.351 7.93585 414.32 6.97317 414.091 6.05169C413.861 5.1302 413.439 4.2726 412.854 3.54002C412.269 2.80745 411.536 2.21794 410.707 1.81354C409.877 1.40913 408.972 1.19978 408.056 1.20041V1.20041Z" fill="#2C6E9B"/>
<path d="M408.056 1.20041H160.47C157.901 1.19895 155.413 2.14173 153.448 3.86192C151.484 5.58211 150.168 7.96882 149.734 10.5997L121.282 203.987H382.632L414.181 8.8711C414.351 7.93585 414.32 6.97317 414.091 6.05169C413.861 5.1302 413.439 4.2726 412.854 3.54002C412.269 2.80745 411.536 2.21794 410.707 1.81354C409.877 1.40913 408.972 1.19978 408.056 1.20041V1.20041Z" stroke="#141414" stroke-width="2" stroke-miterlimit="10"/>
<path d="M401.284 15.6054H162.192L136.964 189.582H373.606L401.284 15.6054Z" fill="#0E394F"/>
<path d="M401.966 15.8695L400.66 23.0721H161.672L162.863 15.8695H401.966Z" fill="#062538"/>
<path d="M169.011 15.6054L143.771 189.582H136.837L162.077 15.6054H169.011Z" fill="#062538"/>
<path d="M196.192 34.8962H183.341L181.7 39.95H195.556L196.192 34.8962Z" fill="#4CF58C"/>
<path d="M214.682 34.8962H200.675L199.034 39.95H212.89L214.682 34.8962Z" fill="#4CF58C"/>
<path d="M230.861 34.8962H218.01L217.524 39.95H229.069L230.861 34.8962Z" fill="#4CF58C"/>
<path d="M241.839 34.8962H237.078L235.437 39.95H241.204L241.839 34.8962Z" fill="#4CF58C"/>
<path d="M179.435 34.8962H174.673L173.032 39.95L178.325 40.118L179.435 34.8962Z" fill="#4CF58C"/>
<path d="M193.88 45.7H181.029L179.388 50.7537H193.244L193.88 45.7Z" fill="#4CF58C"/>
<path d="M211.215 45.7H198.364L196.723 50.7537H210.579L211.215 45.7Z" fill="#4CF58C"/>
<path d="M228.55 45.7H215.699L215.213 50.7537H227.914L228.55 45.7Z" fill="#4CF58C"/>
<path d="M238.372 45.7H233.611L231.97 50.7537H237.737L238.372 45.7Z" fill="#4CF58C"/>
<path d="M177.123 45.7H172.362L170.721 50.7537H176.303L177.123 45.7Z" fill="#4CF58C"/>
<path d="M8.86112 202.787H272.672V227.996H17.7827C15.7056 227.997 13.6486 227.574 11.7292 226.749C9.80983 225.925 8.06567 224.715 6.59642 223.19C5.12717 221.665 3.96164 219.854 3.16643 217.861C2.37121 215.868 1.96191 213.732 1.96191 211.574V209.954C1.97103 208.056 2.70083 206.238 3.99271 204.896C5.2846 203.555 7.03415 202.796 8.86112 202.787Z" fill="#19517F"/>
<path opacity="0.3" d="M272.672 218.392V227.996H17.7712C13.5793 227.993 9.55994 226.261 6.59579 223.182C3.63165 220.103 1.96506 215.928 1.96199 211.574V209.953C1.95689 208.871 2.19428 207.803 2.65538 206.832C3.66343 210.179 5.67271 213.104 8.39115 215.183C11.1096 217.262 14.3955 218.386 17.7712 218.392H272.672Z" fill="#0E3964"/>
<path opacity="0.3" d="M385.937 195.584V202.787H121.49L122.449 195.584H385.937Z" fill="#0E3964"/>
<path d="M81.9902 202.787H175.598C175.598 206.289 174.258 209.648 171.874 212.124C169.49 214.6 166.257 215.992 162.885 215.992H94.7023C93.033 215.992 91.3799 215.65 89.8376 214.986C88.2953 214.323 86.894 213.35 85.7135 212.124C84.5331 210.898 83.5967 209.442 82.9579 207.84C82.319 206.238 81.9902 204.521 81.9902 202.787Z" fill="#0E3964"/>
<path d="M81.9902 202.787H175.598C175.598 206.289 174.258 209.648 171.874 212.124C169.49 214.6 166.257 215.992 162.885 215.992H94.7023C93.033 215.992 91.3799 215.65 89.8376 214.986C88.2953 214.323 86.894 213.35 85.7135 212.124C84.5331 210.898 83.5967 209.442 82.9579 207.84C82.319 206.238 81.9902 204.521 81.9902 202.787Z" stroke="#141414" stroke-width="2" stroke-miterlimit="10"/>
<path d="M401.18 15.6054L373.502 189.582H136.907L397.933 15.6054H401.18Z" fill="#062538"/>
<path d="M410.576 81.6713L412.703 67.4852C412.876 66.3323 412.116 65.2521 411.006 65.0726C409.896 64.8931 408.856 65.6822 408.683 66.8351L406.557 81.0212C406.384 82.1742 407.144 83.2543 408.254 83.4339C409.364 83.6134 410.403 82.8242 410.576 81.6713Z" fill="#062C4C"/>
<path d="M414.576 54.9641L416.703 40.778C416.876 39.6251 416.116 38.5449 415.006 38.3654C413.896 38.1859 412.856 38.975 412.683 40.1279L410.557 54.314C410.384 55.467 411.144 56.5472 412.254 56.7267C413.364 56.9062 414.403 56.1171 414.576 54.9641Z" fill="#062C4C"/>
<path d="M131.36 207.277H117.538C116.415 207.277 115.504 208.222 115.504 209.389C115.504 210.556 116.415 211.502 117.538 211.502H131.36C132.483 211.502 133.394 210.556 133.394 209.389C133.394 208.222 132.483 207.277 131.36 207.277Z" fill="#141414"/>
<path d="M401.169 15.6054H162.077L136.849 189.582H373.491L401.169 15.6054Z" stroke="#141414" stroke-width="2" stroke-miterlimit="10"/>
<path d="M368.406 35.4964H269.02C266.658 35.4925 264.374 36.3705 262.583 37.9703C260.793 39.5701 259.616 41.7852 259.266 44.2115L249.617 110.715C249.405 112.172 249.5 113.66 249.893 115.077C250.286 116.493 250.969 117.804 251.895 118.921C252.821 120.038 253.968 120.934 255.259 121.548C256.549 122.162 257.951 122.48 259.37 122.479H357.866C360.205 122.483 362.469 121.623 364.253 120.053C366.038 118.483 367.227 116.305 367.608 113.908L378.194 47.4046C378.428 45.9332 378.35 44.4264 377.965 42.9897C377.58 41.553 376.897 40.221 375.965 39.0868C375.032 37.9527 373.873 37.0437 372.567 36.4236C371.262 35.8034 369.841 35.487 368.406 35.4964V35.4964Z" fill="white"/>
<path d="M378.009 47.4166L367.435 113.908C367.052 116.302 365.864 118.477 364.082 120.046C362.301 121.616 360.041 122.478 357.705 122.479H259.22C256.968 122.478 254.783 121.678 253.028 120.211C251.273 118.744 250.053 116.698 249.571 114.412L367.978 35.4964H368.29C369.721 35.4992 371.133 35.8249 372.431 36.4511C373.728 37.0772 374.878 37.9887 375.803 39.1225C376.727 40.2563 377.403 41.5853 377.784 43.0174C378.165 44.4496 378.242 45.9506 378.009 47.4166Z" fill="#F4F3F2"/>
<path d="M8.86112 202.787H272.672V227.996H17.7827C15.7056 227.997 13.6486 227.574 11.7292 226.749C9.80983 225.925 8.06567 224.715 6.59642 223.19C5.12717 221.665 3.96164 219.854 3.16643 217.861C2.37121 215.868 1.96191 213.732 1.96191 211.574V209.954C1.97103 208.056 2.70083 206.238 3.99271 204.896C5.2846 203.555 7.03415 202.796 8.86112 202.787Z" stroke="#141414" stroke-width="2" stroke-miterlimit="10"/>
<path d="M394.593 202.787H260.538C253.836 202.787 248.403 208.43 248.403 215.391C248.403 222.353 253.836 227.996 260.538 227.996H394.593C401.294 227.996 406.727 222.353 406.727 215.391C406.727 208.43 401.294 202.787 394.593 202.787Z" fill="#0E3964"/>
<path d="M394.593 202.787H260.538C253.836 202.787 248.403 208.43 248.403 215.391C248.403 222.353 253.836 227.996 260.538 227.996H394.593C401.294 227.996 406.727 222.353 406.727 215.391C406.727 208.43 401.294 202.787 394.593 202.787Z" stroke="#141414" stroke-width="2" stroke-miterlimit="10"/>
<path d="M101.81 72.0852L121.756 65.651C124.041 64.9408 126.503 65.1939 128.61 66.3554C130.716 67.5169 132.298 69.4934 133.012 71.8572L137.866 88.1348" stroke="#141414" stroke-width="2" stroke-linecap="round" stroke-linejoin="round"/>
<path d="M80.3379 78.9876L93.5469 74.7261" stroke="#141414" stroke-width="2" stroke-linecap="round" stroke-linejoin="round"/>
<path d="M128.794 147.736L59.4554 170.076C57.1583 170.815 54.6724 170.576 52.5444 169.413C50.4164 168.249 48.8203 166.255 48.107 163.869L30.5065 104.905C29.7948 102.519 30.0243 99.9364 31.1446 97.7259C32.265 95.5155 34.1845 93.8575 36.4812 93.1166L73.3348 81.2444" stroke="#141414" stroke-width="2" stroke-linecap="round" stroke-linejoin="round"/>
<path d="M283.697 91.7121H270.846L269.205 96.7779H283.061L283.697 91.7121Z" fill="#FBD766"/>
<path d="M302.187 91.7121H288.181L286.551 96.7779H300.396L302.187 91.7121Z" fill="#FBD766"/>
<path d="M318.366 91.7121H305.515L305.042 96.7779H316.575L318.366 91.7121Z" fill="#FBD766"/>
<path d="M329.345 91.7121H324.584L322.954 96.7779H328.709L329.345 91.7121Z" fill="#FBD766"/>
<path d="M266.94 91.7121H262.179L260.538 96.7779L265.831 96.9339L266.94 91.7121Z" fill="#FBD766"/>
<path d="M281.386 102.516H268.535L266.894 107.582H280.75L281.386 102.516Z" fill="#FBD766"/>
<path d="M298.721 102.516H285.87L284.24 107.582H298.085L298.721 102.516Z" fill="#FBD766"/>
<path d="M316.055 102.516H303.204L302.73 107.582H315.419L316.055 102.516Z" fill="#FBD766"/>
<path d="M325.878 102.516H321.117L319.487 107.582H325.242L325.878 102.516Z" fill="#FBD766"/>
<path d="M264.629 102.516H259.868L258.227 107.582H263.808L264.629 102.516Z" fill="#FBD766"/>
<path d="M368.406 35.4964H269.02C266.658 35.4925 264.374 36.3705 262.583 37.9703C260.793 39.5701 259.616 41.7852 259.266 44.2115L249.617 110.715C249.405 112.172 249.5 113.66 249.893 115.077C250.286 116.493 250.969 117.804 251.895 118.921C252.821 120.038 253.968 120.934 255.259 121.548C256.549 122.162 257.951 122.48 259.37 122.479H357.866C360.205 122.483 362.469 121.623 364.253 120.053C366.038 118.483 367.227 116.305 367.608 113.908L378.194 47.4046C378.428 45.9332 378.35 44.4264 377.965 42.9897C377.58 41.553 376.897 40.221 375.965 39.0868C375.032 37.9527 373.873 37.0437 372.567 36.4236C371.262 35.8034 369.841 35.487 368.406 35.4964V35.4964Z" stroke="#141414" stroke-width="1.3" stroke-miterlimit="10"/>
</svg>
