<svg width="75" height="100" viewBox="0 0 75 100" fill="none" xmlns="http://www.w3.org/2000/svg">
<g clip-path="url(#clip0)">
<path d="M38.1328 100C57.5651 100 73.3181 95.3669 73.3181 89.6517C73.3181 83.9365 57.5651 79.3035 38.1328 79.3035C18.7005 79.3035 2.94751 83.9365 2.94751 89.6517C2.94751 95.3669 18.7005 100 38.1328 100Z" fill="#DFE7EA"/>
<path d="M66.108 60.9581C70.4684 60.9581 74.0033 57.4232 74.0033 53.0628C74.0033 48.7023 70.4684 45.1675 66.108 45.1675C61.7475 45.1675 58.2126 48.7023 58.2126 53.0628C58.2126 57.4232 61.7475 60.9581 66.108 60.9581Z" fill="#CEEA57"/>
<path d="M66.108 61.5669C64.3722 61.5669 62.6754 61.0522 61.2322 60.0878C59.7889 59.1235 58.664 57.7528 57.9998 56.1492C57.3355 54.5455 57.1617 52.7809 57.5004 51.0785C57.839 49.3761 58.6749 47.8123 59.9022 46.5849C61.1296 45.3575 62.6934 44.5217 64.3958 44.183C66.0982 43.8444 67.8629 44.0182 69.4665 44.6825C71.0702 45.3467 72.4408 46.4716 73.4052 47.9148C74.3695 49.3581 74.8842 51.0549 74.8842 52.7907C74.8816 55.1175 73.9562 57.3482 72.3109 58.9935C70.6656 60.6388 68.4348 61.5643 66.108 61.5669ZM66.108 45.7763C64.7207 45.7763 63.3645 46.1877 62.211 46.9584C61.0575 47.7292 60.1585 48.8247 59.6276 50.1064C59.0967 51.3881 58.9578 52.7984 59.2284 54.1591C59.4991 55.5197 60.1671 56.7696 61.1481 57.7505C62.1291 58.7315 63.3789 59.3996 64.7396 59.6702C66.1002 59.9409 67.5106 59.802 68.7923 59.2711C70.074 58.7402 71.1695 57.8411 71.9402 56.6876C72.7109 55.5341 73.1223 54.178 73.1223 52.7907C73.1203 50.931 72.3806 49.1481 71.0656 47.8331C69.7506 46.5181 67.9677 45.7784 66.108 45.7763Z" fill="#213346"/>
<path d="M70.3718 53.5093C70.2364 53.5087 70.1054 53.4615 70.0009 53.3755C69.8964 53.2896 69.8248 53.1701 69.7982 53.0375C69.0308 49.2004 65.135 49.8288 64.9686 49.8582C64.8152 49.8854 64.6572 49.8506 64.5294 49.7614C64.4017 49.6722 64.3146 49.5359 64.2873 49.3825C64.2601 49.229 64.2949 49.0711 64.3841 48.9433C64.4733 48.8155 64.6096 48.7285 64.763 48.7012C66.5543 48.3821 70.1525 48.8284 70.9493 52.8123C70.9798 52.965 70.9485 53.1235 70.8623 53.2531C70.776 53.3827 70.6418 53.4727 70.4892 53.5034C70.4504 53.5092 70.411 53.5112 70.3718 53.5093Z" fill="#213346"/>
<path d="M9.3726 60.5665C13.7331 60.5665 17.2679 57.0316 17.2679 52.6712C17.2679 48.3107 13.7331 44.7759 9.3726 44.7759C5.01214 44.7759 1.47729 48.3107 1.47729 52.6712C1.47729 57.0316 5.01214 60.5665 9.3726 60.5665Z" fill="#CEEA57"/>
<path d="M15.5197 47.8514C14.0028 46.8636 12.1925 46.4272 10.3922 46.6153C8.59183 46.8033 6.91082 47.6045 5.63085 48.8845C4.35089 50.1644 3.54974 51.8454 3.36167 53.6458C3.17359 55.4461 3.61002 57.2564 4.59782 58.7733C3.61153 58.1326 2.78083 57.2798 2.16639 56.2769C1.55196 55.2741 1.16933 54.1467 1.04645 52.9771C0.923569 51.8074 1.06355 50.6251 1.45616 49.5165C1.84877 48.4078 2.4841 47.4009 3.31572 46.5693C4.14734 45.7377 5.15424 45.1024 6.26286 44.7098C7.37148 44.3171 8.5538 44.1772 9.72345 44.3C10.8931 44.4229 12.0205 44.8056 13.0233 45.42C14.0262 46.0344 14.8791 46.8651 15.5197 47.8514Z" fill="#95BC4A"/>
<path d="M9.37257 61.1756C7.63679 61.1756 5.94 60.6609 4.49675 59.6965C3.0535 58.7322 1.92862 57.3615 1.26437 55.7578C0.600116 54.1542 0.426317 52.3896 0.764951 50.6871C1.10358 48.9847 1.93944 47.4209 3.16682 46.1936C4.3942 44.9662 5.95798 44.1303 7.66041 43.7917C9.36284 43.4531 11.1275 43.6268 12.7311 44.2911C14.3348 44.9554 15.7054 46.0802 16.6698 47.5235C17.6341 48.9667 18.1488 50.6635 18.1488 52.3993C18.1462 54.7261 17.2208 56.9569 15.5755 58.6022C13.9302 60.2475 11.6994 61.173 9.37257 61.1756ZM9.37257 45.385C7.98527 45.385 6.62911 45.7963 5.47561 46.5671C4.32211 47.3378 3.42306 48.4333 2.89216 49.715C2.36126 50.9967 2.22235 52.4071 2.493 53.7677C2.76365 55.1284 3.43171 56.3782 4.41268 57.3592C5.39365 58.3402 6.64349 59.0082 8.00414 59.2789C9.36479 59.5495 10.7751 59.4106 12.0568 58.8797C13.3386 58.3488 14.434 57.4498 15.2048 56.2963C15.9755 55.1428 16.3869 53.7866 16.3869 52.3993C16.3849 50.5396 15.6452 48.7567 14.3302 47.4417C13.0152 46.1267 11.2323 45.387 9.37257 45.385Z" fill="#213346"/>
<path d="M37.5494 12.1375H38.0819C45.4723 12.1375 52.56 15.0733 57.7858 20.2991C63.0116 25.5249 65.9474 32.6126 65.9474 40.003V58.1311C65.9474 65.5921 62.9835 72.7475 57.7078 78.0232C52.4321 83.299 45.2766 86.2629 37.8156 86.2629C30.3546 86.2629 23.1992 83.299 17.9234 78.0232C12.6477 72.7475 9.68384 65.5921 9.68384 58.1311V40.003C9.68384 32.6126 12.6197 25.5249 17.8455 20.2991C23.0713 15.0733 30.159 12.1375 37.5494 12.1375Z" fill="#CEEA57"/>
<path d="M41.3884 85.6992C40.106 85.8778 38.8128 85.9674 37.5181 85.9675C22.0525 85.9675 9.38434 73.3091 9.38434 57.8337V39.3376C9.38434 24.2146 21.7608 11.8401 36.8838 11.8401H38.1524C39.234 11.84 40.3147 11.9053 41.3884 12.0359C27.7728 13.647 17.125 25.3109 17.125 39.3376V57.8337C17.125 71.9955 27.7258 83.8003 41.3884 85.6992Z" fill="#95BC4A"/>
<path d="M37.5181 87.1459C29.8294 87.1247 22.4617 84.061 17.025 78.6243C11.5882 73.1875 8.52454 65.8198 8.50336 58.1312V40.0031C8.52505 32.3854 11.5609 25.0859 16.9477 19.6995C22.3344 14.3131 29.6341 11.2778 37.2518 11.2566H37.7921C45.4081 11.2804 52.7053 14.3169 58.09 19.703C63.4746 25.0891 66.5091 32.3871 66.5308 40.0031V58.1312C66.5096 65.8195 63.4462 73.1869 58.0099 78.6236C52.5736 84.0602 45.2064 87.1242 37.5181 87.1459ZM37.2518 13.0185C30.1014 13.0397 23.2498 15.8894 18.1935 20.9454C13.1372 26.0013 10.287 32.8527 10.2653 40.0031V58.1312C10.2554 63.5229 11.8474 68.796 14.8394 73.2813C17.8313 77.7667 22.0883 81.2622 27.0701 83.3242C32.052 85.3862 37.5341 85.9217 42.8208 84.8629C48.1075 83.8041 52.9605 81.1986 56.764 77.3771C59.3046 74.8578 61.3202 71.8595 62.6943 68.556C64.0683 65.2524 64.7735 61.7091 64.7689 58.1312V40.0031C64.7482 32.854 61.8997 26.0036 56.8452 20.9477C51.7908 15.8918 44.9412 13.0412 37.7921 13.0185H37.2518Z" fill="#213346"/>
<path d="M63.0833 53.429V53.4642C62.9776 53.4681 63.0187 53.4446 63.0833 53.429Z" fill="#BFE1EE"/>
<path d="M4.67614 53.6246C4.65203 53.6265 4.62781 53.6265 4.6037 53.6246C4.4493 53.6055 4.30877 53.5259 4.21298 53.4033C4.11718 53.2807 4.07394 53.1252 4.09275 52.9707C4.42555 50.2515 5.58254 48.9066 6.49286 48.2586C7.08479 47.8147 7.7882 47.5437 8.52493 47.4755C8.60205 47.4726 8.679 47.4848 8.75139 47.5116C8.82378 47.5384 8.89018 47.5792 8.9468 47.6316C9.00343 47.6841 9.04917 47.7472 9.08142 47.8173C9.11367 47.8874 9.13178 47.9632 9.13474 48.0403C9.1377 48.1174 9.12543 48.1944 9.09865 48.2668C9.07187 48.3392 9.03109 48.4056 8.97864 48.4622C8.9262 48.5188 8.86311 48.5646 8.79299 48.5968C8.72287 48.6291 8.64708 48.6472 8.56995 48.6501C8.44662 48.6501 5.78026 48.8576 5.25757 53.1058C5.24082 53.2484 5.17241 53.3799 5.06528 53.4755C4.95815 53.5711 4.81971 53.6241 4.67614 53.6246Z" fill="#213346"/>
<path d="M37.9037 60.0027C37.7479 60.0027 37.5986 59.9408 37.4884 59.8307C37.3783 59.7205 37.3164 59.5711 37.3164 59.4154V50.2946C37.3164 50.1388 37.3783 49.9894 37.4884 49.8793C37.5986 49.7692 37.7479 49.7073 37.9037 49.7073C38.0595 49.7073 38.2089 49.7692 38.319 49.8793C38.4291 49.9894 38.491 50.1388 38.491 50.2946V59.4154C38.491 59.5711 38.4291 59.7205 38.319 59.8307C38.2089 59.9408 38.0595 60.0027 37.9037 60.0027Z" fill="#213346"/>
<path d="M8.61103 71.5725C8.75198 70.8873 9.13177 70.4096 9.39409 70.4919C9.65642 70.5741 9.72102 71.1399 9.58986 71.7741C9.4587 72.4084 9.17875 72.9037 8.90272 72.8743C8.62669 72.845 8.47007 72.2577 8.61103 71.5725Z" fill="white"/>
<path d="M8.84987 78.9804C8.59815 78.0712 8.48076 77.13 8.5014 76.1868C8.52881 75.4625 8.65802 75.022 8.79114 75.0122C9.07892 75.0122 9.26685 76.7154 9.815 78.7122C10.3632 80.709 11.0483 82.2693 10.7938 82.4181C10.6783 82.4847 10.3416 82.1714 9.95008 81.5626C9.45816 80.7607 9.08742 79.8906 8.84987 78.9804Z" fill="white"/>
<path d="M27.5633 0.491287C26.6642 0.505064 25.7774 0.702103 24.9571 1.07035C24.1368 1.4386 23.4002 1.97032 22.7924 2.63298C21.576 2.25596 20.2769 2.23583 19.0494 2.57498C17.8218 2.91413 16.7174 3.59832 15.867 4.54636C15.0166 5.4944 14.4561 6.66649 14.2519 7.92355C14.0478 9.1806 14.2085 10.4698 14.715 11.6383C13.8239 12.0471 13.0341 12.6478 12.4021 13.3973C11.7701 14.1468 11.3114 15.0267 11.0589 15.9741C10.8065 16.9215 10.7664 17.9129 10.9416 18.8776C11.1168 19.8422 11.503 20.7562 12.0725 21.5543C12.642 22.3524 13.3807 23.0148 14.236 23.4942C15.0912 23.9736 16.0418 24.2582 17.0198 24.3275C17.9977 24.3969 18.979 24.2493 19.8933 23.8954C20.8076 23.5415 21.6325 22.9899 22.3089 22.2802C23.3008 23.0435 24.4879 23.5116 25.7339 23.6308C26.9798 23.75 28.2341 23.5155 29.3528 22.9542C30.4716 22.3929 31.4094 21.5276 32.0586 20.4575C32.7078 19.3874 33.0421 18.1559 33.0232 16.9044C33.0232 16.8281 33.0232 16.7517 33.0115 16.6754C33.9329 16.9134 34.8947 16.951 35.832 16.7857C36.7692 16.6203 37.6601 16.256 38.4445 15.7171C39.229 15.1783 39.8888 14.4775 40.3794 13.662C40.87 12.8465 41.18 11.9352 41.2885 10.9897C41.397 10.0443 41.3015 9.08648 41.0085 8.18103C40.7154 7.27558 40.2316 6.44351 39.5896 5.74093C38.9477 5.03835 38.1625 4.4816 37.2871 4.10824C36.4117 3.73488 35.4664 3.55358 34.515 3.57658C34.1292 3.5841 33.7447 3.62471 33.3658 3.69796C32.7643 2.70195 31.9117 1.88147 30.8934 1.31868C29.875 0.755902 28.7266 0.470576 27.5633 0.491287Z" fill="#F5A2C6"/>
<path d="M18.0823 9.68651C18.0959 10.5588 18.2822 11.4198 18.6304 12.2197C17.3704 12.8048 16.325 13.7695 15.6408 14.9786C14.9566 16.1877 14.6679 17.5806 14.8151 18.962C14.9623 20.3434 15.5381 21.6442 16.4617 22.6819C17.3853 23.7197 18.6105 24.4424 19.9655 24.7489C19.5211 24.8473 19.0679 24.9011 18.6128 24.9094C17.0881 24.9346 15.601 24.4356 14.4002 23.4958C13.1994 22.556 12.3577 21.2323 12.0159 19.7463C11.6741 18.2602 11.8529 16.7019 12.5224 15.3318C13.1918 13.9618 14.3114 12.8632 15.6939 12.2197C15.2601 11.2167 15.08 10.1224 15.1694 9.03326C15.2587 7.94415 15.6149 6.8938 16.2064 5.97494C16.7979 5.05608 17.6065 4.29698 18.5608 3.76467C19.5152 3.23236 20.5859 2.9432 21.6785 2.92274C22.2116 2.91305 22.7439 2.96694 23.2642 3.08327C21.7736 3.42158 20.4448 4.26262 19.5012 5.46509C18.5575 6.66757 18.0565 8.15819 18.0823 9.68651Z" fill="#D676A3"/>
<path d="M17.5145 25.5849C15.8701 25.5838 14.2713 25.0445 12.9621 24.0495C11.653 23.0544 10.7055 21.6582 10.2643 20.074C9.8232 18.4899 9.91267 16.8049 10.5191 15.2764C11.1255 13.7479 12.2155 12.4599 13.6227 11.609C13.2761 10.4925 13.1941 9.31071 13.3834 8.15707C13.5726 7.00345 14.0278 5.90971 14.7129 4.96246C15.3981 4.01522 16.2943 3.24047 17.3307 2.69957C18.3671 2.15868 19.5151 1.86647 20.684 1.8461C21.3044 1.83544 21.9238 1.90119 22.5281 2.04187C23.8851 0.7544 25.6773 0.0253711 27.5476 1.71349e-05C28.7629 -0.0170823 29.9645 0.25861 31.0508 0.803798C32.1371 1.34899 33.0761 2.14765 33.7887 3.1323C34.0236 3.10489 34.2624 3.08923 34.4993 3.08531C35.9882 3.05979 37.4513 3.47624 38.7036 4.28203C39.9559 5.08783 40.9412 6.24679 41.535 7.61243C42.1288 8.97807 42.3044 10.4891 42.0396 11.9545C41.7748 13.4199 41.0815 14.7739 40.0474 15.8454C39.3625 16.5598 38.5426 17.1309 37.6353 17.5258C36.7279 17.9207 35.7511 18.1314 34.7617 18.1457C34.4656 18.15 34.1695 18.1376 33.8748 18.1085C33.7561 19.3876 33.312 20.6149 32.585 21.6739C31.8579 22.7329 30.872 23.5883 29.7211 24.1586C28.5701 24.729 27.2924 24.9954 26.0094 24.9326C24.7264 24.8697 23.4808 24.4796 22.3911 23.7995C21.0677 24.9305 19.3903 25.5628 17.6496 25.5868L17.5145 25.5849ZM20.8171 3.60605H20.7134C19.9556 3.61905 19.2077 3.78133 18.5127 4.08364C17.8177 4.38594 17.1891 4.82232 16.6628 5.36781C16.1366 5.9133 15.7231 6.55719 15.446 7.26265C15.1689 7.96811 15.0336 8.72128 15.0479 9.47908C15.0585 10.2356 15.2202 10.9824 15.5236 11.6756L15.8662 12.4587L15.0831 12.8228C14.3144 13.1798 13.6338 13.7017 13.0897 14.3515C12.5456 15.0014 12.1513 15.7631 11.935 16.5825C11.7186 17.402 11.6854 18.2591 11.8378 19.0928C11.9902 19.9265 12.3245 20.7164 12.8167 21.4063C13.309 22.0962 13.9472 22.6692 14.6861 23.0845C15.4249 23.4998 16.2461 23.7473 17.0914 23.8092C17.9367 23.8711 18.7852 23.7461 19.5767 23.4429C20.3681 23.1398 21.0831 22.666 21.6707 22.0552L22.2188 21.4835L22.8453 21.969C23.7048 22.6355 24.7353 23.0452 25.8178 23.1508C26.9003 23.2565 27.9906 23.0538 28.9628 22.5662C29.935 22.0786 30.7494 21.3259 31.312 20.3951C31.8746 19.4643 32.1625 18.3933 32.1423 17.3059C32.1423 17.2491 32.1423 17.1923 32.1423 17.1355L32.0385 15.9042L33.2366 16.2076C34.0336 16.4075 34.864 16.4349 35.6723 16.2879C36.4807 16.1409 37.2483 15.8229 37.9239 15.3553C38.5994 14.8877 39.1673 14.2811 39.5895 13.5763C40.0117 12.8714 40.2785 12.0846 40.372 11.2683C40.4655 10.452 40.3836 9.62519 40.1317 8.84313C39.8798 8.06107 39.4638 7.34183 38.9116 6.73354C38.3593 6.12525 37.6834 5.64194 36.9292 5.31595C36.1751 4.98996 35.36 4.82882 34.5385 4.84331C34.2045 4.84892 33.8717 4.8843 33.544 4.94902L32.941 5.06648L32.6219 4.54182C32.0967 3.67899 31.3549 2.9685 30.4703 2.48086C29.5857 1.99322 28.5889 1.74538 27.5789 1.76192C26.7987 1.77316 26.0291 1.94396 25.3173 2.2638C24.6056 2.58364 23.9669 3.04576 23.4404 3.62172L23.0626 4.03087L22.5223 3.86643C21.9703 3.69424 21.3954 3.60646 20.8171 3.60605Z" fill="#213346"/>
<path d="M44.6636 21.0626L44.9827 21.9768L43.9471 21.5579L46.2846 21.1311L46.7857 21.0411L46.911 21.3798L48.1855 24.8507L45.9948 21.8731L46.6135 22.1178L44.4874 23.1769L43.951 23.4451L43.4655 22.7619L42.8567 21.9044L38.7319 16.0979L40.8579 12.9265L44.6636 21.0626Z" fill="#213346"/>
<path d="M16.5494 30.293L16.5573 30.9194L17.0937 30.4359L15.5804 30.6923L15.2574 30.7471L15.2554 30.9801L15.2437 33.3645L15.919 31.078L15.598 31.3618L17.1211 31.538L17.5048 31.5831L17.6496 31.0623L17.8317 30.4085L19.3215 25.1913L17.0721 24.5198L16.5494 30.293Z" fill="#213346"/>
<path d="M39.3484 23.9835L39.3387 24.7587L38.675 24.1616L40.5505 24.4768L40.9537 24.5453L40.9557 24.835L40.9694 27.797L40.1315 24.9564L40.5309 25.3108L38.6398 25.5281L38.1621 25.5829L37.982 24.9368L37.7569 24.1244L35.9069 17.6465L38.6985 16.8145L39.3484 23.9835Z" fill="#213346"/>
<path d="M29.9183 28.2218L28.914 28.1141L28.9689 27.9223L29.6893 23.2239L27.1345 23.8308L27.573 28.0495L27.622 28.5781L27.6611 28.999L28.082 28.954L29.4994 28.7974L29.6854 30.3948L30.2022 28.4489L30.2531 28.259L29.9183 28.2218Z" fill="#213346"/>
<path d="M47.7822 52.5459C52.2216 52.5459 55.8204 48.9471 55.8204 44.5077C55.8204 40.0683 52.2216 36.4695 47.7822 36.4695C43.3428 36.4695 39.744 40.0683 39.744 44.5077C39.744 48.9471 43.3428 52.5459 47.7822 52.5459Z" fill="#213346"/>
<path d="M49.0644 44.2002H48.4791C47.7763 44.2002 47.2066 44.7699 47.2066 45.4727V59.7715C47.2066 60.4743 47.7763 61.044 48.4791 61.044H49.0644C49.7672 61.044 50.3369 60.4743 50.3369 59.7715V45.4727C50.3369 44.7699 49.7672 44.2002 49.0644 44.2002Z" fill="#F9637C"/>
<path d="M49.4951 60.7621C49.2945 60.9371 49.0389 61.0362 48.7728 61.0421C47.9075 61.0421 47.2066 59.9282 47.2066 58.5539V46.6864C47.2066 45.3161 47.9075 44.2002 48.7728 44.2002C49.0387 44.2054 49.2943 44.3038 49.4951 44.4782C48.994 44.8952 48.6514 45.7272 48.6514 46.6864V58.5539C48.6514 59.5131 48.994 60.3451 49.4951 60.7621Z" fill="#CC3656"/>
<path d="M48.7727 61.6297C48.2016 61.6297 47.6538 61.4029 47.25 60.999C46.8461 60.5952 46.6193 60.0474 46.6193 59.4763V45.7726C46.6193 45.2015 46.8461 44.6537 47.25 44.2499C47.6538 43.846 48.2016 43.6191 48.7727 43.6191C49.3438 43.6191 49.8916 43.846 50.2954 44.2499C50.6993 44.6537 50.9262 45.2015 50.9262 45.7726V59.4763C50.9262 59.7591 50.8705 60.0391 50.7622 60.3004C50.654 60.5617 50.4954 60.7991 50.2954 60.999C50.0955 61.199 49.8581 61.3576 49.5968 61.4658C49.3355 61.5741 49.0555 61.6297 48.7727 61.6297ZM48.7727 44.7937C48.5131 44.7937 48.2641 44.8969 48.0806 45.0804C47.897 45.264 47.7939 45.513 47.7939 45.7726V59.4763C47.7939 59.7359 47.897 59.9849 48.0806 60.1684C48.2641 60.352 48.5131 60.4551 48.7727 60.4551C49.0323 60.4551 49.2813 60.352 49.4649 60.1684C49.6484 59.9849 49.7516 59.7359 49.7516 59.4763V45.7726C49.7523 45.6435 49.7276 45.5156 49.6787 45.3962C49.6299 45.2768 49.5579 45.1682 49.4669 45.0766C49.376 44.9851 49.2678 44.9125 49.1487 44.8629C49.0295 44.8134 48.9018 44.7879 48.7727 44.7879V44.7937Z" fill="#213346"/>
<path d="M58.5533 25.716C59.0041 26.3999 59.397 27.1202 59.7279 27.8694C59.8728 28.2179 60.0079 28.5487 60.1097 28.8698C60.2115 29.1908 60.3054 29.4884 60.3661 29.7644C60.6304 30.8764 60.6011 31.5949 60.4092 31.6438C59.9863 31.7456 59.0995 29.2163 57.3082 26.5343C55.5463 23.8307 53.5769 22.0179 53.8373 21.6714C53.9567 21.5128 54.6301 21.7712 55.5463 22.4545C55.7754 22.6248 56.0201 22.8186 56.2687 23.0418C56.5173 23.2649 56.7738 23.5175 57.0381 23.7876C57.5949 24.388 58.1017 25.0329 58.5533 25.716Z" fill="white"/>
<path d="M61.9303 34.9073C62.0242 35.381 61.7697 35.8293 61.3645 35.9096C60.9593 35.9899 60.5521 35.6708 60.4601 35.197C60.3681 34.7232 60.6206 34.273 61.0278 34.1927C61.435 34.1125 61.8383 34.4335 61.9303 34.9073Z" fill="white"/>
<path d="M62.6546 39.6665C62.7604 40.4711 62.5117 41.1661 62.1026 41.2209C61.6934 41.2757 61.2725 40.6649 61.1688 39.8623C61.065 39.0596 61.3117 38.3627 61.7228 38.3079C62.1339 38.253 62.5528 38.8638 62.6546 39.6665Z" fill="white"/>
<path opacity="0.5" d="M45.5798 68.2856C46.1507 68.2856 46.6134 67.8228 46.6134 67.2519C46.6134 66.681 46.1507 66.2183 45.5798 66.2183C45.0089 66.2183 44.5461 66.681 44.5461 67.2519C44.5461 67.8228 45.0089 68.2856 45.5798 68.2856Z" fill="white"/>
<path d="M27.6122 10.313C26.4052 9.8228 25.0663 9.76267 23.8202 10.1427C22.8629 10.4422 22.3813 10.8807 22.3304 10.82C22.3089 10.7965 22.3989 10.6556 22.6221 10.4598C22.9421 10.1854 23.3053 9.96577 23.6969 9.80985C24.2821 9.57744 24.9037 9.4502 25.5332 9.43397C26.3081 9.41703 27.0783 9.55894 27.7963 9.85096C28.5164 10.1426 29.1643 10.5875 29.6952 11.1548C30.1254 11.6137 30.4731 12.1436 30.723 12.7209C30.8912 13.1054 31.0059 13.5112 31.0636 13.9268C31.1008 14.2185 31.0832 14.3849 31.0519 14.3889C30.9696 14.4026 30.8757 13.7604 30.4039 12.8736C30.1281 12.359 29.7778 11.888 29.3643 11.4758C28.8628 10.9763 28.2673 10.5811 27.6122 10.313Z" fill="#F6AECD"/>
<path d="M21.7901 15.7202C22.0329 15.2331 22.3742 14.8018 22.7924 14.4535C23.1323 14.1682 23.5246 13.952 23.9475 13.8173C24.2296 13.7254 24.5262 13.6863 24.8225 13.7018C25.0301 13.7175 25.1397 13.7586 25.1377 13.7899C25.1377 13.8721 24.6894 13.8682 24.0728 14.1481C23.714 14.3122 23.3836 14.5322 23.0939 14.8001C22.7419 15.1259 22.4514 15.5125 22.2365 15.9414C21.8647 16.7524 21.6826 17.6375 21.704 18.5294C21.704 19.2264 21.7568 19.6668 21.6824 19.6825C21.608 19.6982 21.4436 19.2773 21.3516 18.551C21.3 18.1225 21.3 17.6893 21.3516 17.2609C21.4093 16.7261 21.5576 16.2051 21.7901 15.7202Z" fill="#F6AECD"/>
<path d="M28.088 3.98012C28.5698 4.0721 29.0354 4.23436 29.4701 4.46171C29.833 4.6507 30.1534 4.91184 30.4117 5.22912C30.5869 5.44664 30.7053 5.70429 30.7563 5.97891C30.7876 6.17467 30.7563 6.28039 30.7289 6.2843C30.6486 6.29801 30.582 5.89277 30.1416 5.46404C29.8815 5.22022 29.5824 5.0217 29.2567 4.87674C28.8511 4.6934 28.4253 4.55868 27.9881 4.47541C27.5578 4.38353 27.1154 4.36303 26.6784 4.41473C26.3279 4.45908 25.9894 4.57146 25.682 4.74557C25.1515 5.04901 24.9479 5.40922 24.8813 5.37203C24.8519 5.35832 24.8637 5.24869 24.9498 5.07446C25.0799 4.83064 25.2624 4.6187 25.4843 4.45388C25.814 4.20441 26.1974 4.03547 26.604 3.96054C27.0954 3.87193 27.5991 3.87857 28.088 3.98012Z" fill="#F6AECD"/>
<path d="M37.1833 11.4388C37.405 10.8291 37.5285 10.1882 37.5494 9.53981C37.5473 9.02751 37.3767 8.53012 37.0639 8.12441C36.8409 7.83832 36.5975 7.56876 36.3356 7.31785C36.1496 7.12208 36.0537 7.01636 36.0752 6.98896C36.0968 6.96155 36.2319 7.0242 36.4668 7.16711C36.7911 7.37239 37.0867 7.61992 37.3458 7.90319C37.756 8.3452 37.9942 8.91959 38.0173 9.52219C38.0253 10.228 37.9066 10.9295 37.6668 11.5934C37.5588 11.95 37.402 12.2899 37.2009 12.6036C36.9995 12.8993 36.7421 13.1527 36.4433 13.3494C35.9457 13.6681 35.3717 13.8473 34.7812 13.8682C34.3948 13.887 34.0078 13.8421 33.636 13.7351C33.3756 13.6588 33.2444 13.5765 33.2542 13.5393C33.2738 13.4591 33.8415 13.6235 34.7479 13.508C35.2633 13.4442 35.7556 13.2569 36.1829 12.9618C36.4201 12.791 36.6238 12.5779 36.7839 12.3334C36.9544 12.0533 37.0886 11.7527 37.1833 11.4388Z" fill="#F6AECD"/>
<path d="M17.2562 17.0631C16.7869 16.6225 16.5005 16.0215 16.4535 15.3795C16.43 14.896 16.5592 14.618 16.6199 14.6298C16.6806 14.6415 16.6963 14.9195 16.8039 15.3267C16.9263 15.8527 17.2014 16.3309 17.5946 16.7011C17.9878 17.0714 18.4817 17.3172 19.0141 17.4077C19.4272 17.4919 19.7072 17.4782 19.7209 17.5526C19.7346 17.627 19.4664 17.7483 18.9809 17.7601C18.339 17.7518 17.7236 17.5031 17.2562 17.0631Z" fill="#F6AECD"/>
<path d="M26.6334 18.1732C26.9447 18.1756 27.2555 18.1474 27.5613 18.089C27.6935 18.0618 27.8242 18.0279 27.9529 17.9872C28.0679 17.9544 28.1809 17.9151 28.2916 17.8697C28.7027 17.7073 28.9493 17.5565 28.9983 17.6152C29.0472 17.674 28.8691 17.9167 28.454 18.1849C28.3412 18.2593 28.2227 18.3248 28.0997 18.3807C27.9595 18.4443 27.8149 18.498 27.6671 18.5412C26.9805 18.7386 26.2502 18.7236 25.5724 18.4982C25.4259 18.4486 25.2833 18.3884 25.1456 18.3181C25.0251 18.2633 24.9097 18.1978 24.801 18.1223C24.3977 17.8365 24.2372 17.5722 24.2803 17.535C24.3234 17.4978 24.572 17.6407 24.9753 17.8208C25.0771 17.8639 25.1867 17.9128 25.31 17.952C25.4334 17.9911 25.5645 18.0303 25.7016 18.0694C26.008 18.1347 26.3201 18.1694 26.6334 18.1732Z" fill="#F6AECD"/>
<path d="M20.9894 8.40248C21.2138 8.10718 21.4772 7.84374 21.7725 7.61941C21.9026 7.52316 22.0394 7.43615 22.1817 7.35904C22.3067 7.28891 22.4378 7.22995 22.5732 7.18285C23.0587 7.00079 23.3837 7.01449 23.3935 7.07518C23.4033 7.13587 23.1272 7.2592 22.7259 7.49999C22.6163 7.56453 22.5105 7.63512 22.4088 7.71142C22.2952 7.78581 22.1875 7.8837 22.0681 7.97962C21.5652 8.4135 21.1642 8.95292 20.8935 9.55947C20.8367 9.70042 20.7761 9.83354 20.7369 9.96275C20.6978 10.092 20.6586 10.2153 20.6292 10.3288C20.5137 10.7811 20.4922 11.0845 20.4158 11.0904C20.3395 11.0962 20.2475 10.7908 20.2788 10.274C20.2871 10.1337 20.3067 9.99421 20.3375 9.85703C20.3686 9.69737 20.4118 9.54031 20.4667 9.38719C20.5941 9.03614 20.7701 8.70468 20.9894 8.40248Z" fill="#F6AECD"/>
<path d="M32.6591 8.95252C32.7931 8.7091 32.9051 8.45425 32.9939 8.19098C33.0642 7.97363 33.1172 7.75107 33.1525 7.52537C33.2151 7.13384 33.219 6.87543 33.2934 6.86368C33.3678 6.85193 33.4794 7.10056 33.5068 7.54103C33.5193 7.80006 33.4962 8.05958 33.4383 8.31236C33.295 8.93753 32.9709 9.50672 32.5064 9.94897C32.3195 10.1285 32.1087 10.2814 31.88 10.4032C31.4884 10.5989 31.2085 10.6263 31.187 10.5696C31.1654 10.5128 31.3827 10.362 31.6842 10.1095C31.8595 9.96249 32.0231 9.80214 32.1736 9.62987C32.3554 9.41905 32.5179 9.19236 32.6591 8.95252Z" fill="#F6AECD"/>
<path d="M34.607 13.8036C35.2147 13.6511 35.7811 13.3656 36.2651 12.9677C36.643 12.6603 36.8524 12.3804 36.9856 12.4332C37.0482 12.4548 37.0815 12.5605 37.0658 12.7367C37.0302 12.981 36.942 13.2148 36.8074 13.4218C36.351 14.1053 35.6507 14.5885 34.8497 14.7726C34.09 14.954 33.2959 14.9317 32.5475 14.708C31.9935 14.5377 31.692 14.3302 31.7214 14.199C31.7507 14.0679 32.1129 14.0248 32.6434 14.0033C33.3032 14.0072 33.9615 13.9402 34.607 13.8036Z" fill="white"/>
<path d="M37.0228 10.0605C37.062 9.714 37.3145 9.45754 37.5886 9.48691C37.8626 9.51627 38.0545 9.82363 38.0173 10.1701C37.9801 10.5166 37.7256 10.7731 37.4515 10.7418C37.1775 10.7105 36.9856 10.407 37.0228 10.0605Z" fill="white"/>
<path d="M36.5902 8.18325C36.5391 8.07587 36.5273 7.95402 36.5567 7.83884C36.5861 7.72366 36.655 7.6224 36.7512 7.55265C36.8475 7.48289 36.9651 7.44903 37.0838 7.45694C37.2024 7.46485 37.3145 7.51403 37.4006 7.59594C37.449 7.70315 37.4589 7.82377 37.4287 7.93743C37.3985 8.0511 37.33 8.15086 37.2347 8.21988C37.1395 8.28889 37.0234 8.32294 36.9059 8.31627C36.7885 8.30959 36.677 8.26261 36.5902 8.18325Z" fill="white"/>
<path d="M65.1996 59.1218C69.1698 66.3652 67.9071 73.4226 68.0461 80.1609L65.8926 77.7824C65.0846 81.9801 63.1336 85.8733 60.2545 89.0331C59.6241 87.8807 58.729 86.8943 57.643 86.1553C56.8493 89.7027 54.9671 92.9135 52.2594 95.3388C52.6418 94.4151 52.8222 93.4204 52.7884 92.4212C52.7546 91.4221 52.5075 90.4418 52.0636 89.546C51.5879 91.0265 50.8049 92.3897 49.7658 93.5465C48.7268 94.7034 47.455 95.6277 46.034 96.2589C46.4817 95.6311 46.7619 94.8995 46.8482 94.1332C46.9346 93.3669 46.8241 92.5913 46.5273 91.8796C44.3406 95.5992 38.0506 95.7049 35.7327 92.0754C35.5722 92.8095 35.6896 93.7727 36.4394 93.8373C33.2856 94.3228 30.4 92.9955 28.2309 90.656C28.3644 91.9829 28.9936 93.2106 29.9928 94.0937C28.3085 93.987 26.6818 93.4395 25.2758 92.5059C23.8698 91.5724 22.7339 90.2856 21.982 88.7747C17.9159 89.0273 13.8518 86.2415 12.6243 82.3555C12.7095 82.6831 12.7076 83.0273 12.6186 83.3539C12.5297 83.6805 12.3568 83.9781 12.1173 84.2172C5.09117 80.6504 5.46117 64.6522 10.0695 59.3763C10.0695 59.3763 19.7561 60.9307 25.635 65.3942C26.8938 66.3495 28.4599 64.4937 30.1905 63.9455C33.6184 62.8629 37.6923 61.7627 41.3258 61.749C45.9048 61.7294 48.3538 67.5359 51.2884 64.7814C59.0466 57.4871 65.1291 59.0024 65.1996 59.1218Z" fill="#86B9F8"/>
<path d="M68.3143 79.3289L66.1608 76.9484C65.3513 81.1466 63.3997 85.0402 60.5208 88.2011C59.8909 87.0483 58.9957 86.0619 57.9092 85.3233C57.1154 88.87 55.2323 92.0796 52.5237 94.5029C52.9057 93.5791 53.0859 92.5844 53.0521 91.5853C53.0183 90.5863 52.7714 89.606 52.3279 88.7101C51.8522 90.1905 51.0692 91.5538 50.0301 92.7106C48.991 93.8674 47.7193 94.7917 46.2983 95.423C46.7464 94.7954 47.0274 94.0641 47.1147 93.2979C47.2021 92.5318 47.0929 91.756 46.7975 91.0437C44.6107 94.7632 38.3207 94.869 36.0029 91.2394C35.8404 91.9736 36.0244 94.6752 36.7742 94.7378C33.6223 95.2233 30.6701 92.1576 28.501 89.8182C28.6263 91.1298 28.9533 93.4947 29.9419 94.3658C26.5825 94.1936 23.7087 90.9654 22.2482 87.9368C18.1802 88.1894 14.118 85.4016 12.8905 81.5176C12.976 81.845 12.9744 82.1891 12.8858 82.5157C12.7972 82.8423 12.6247 83.14 12.3855 83.3794C9.95598 82.146 8.35461 79.464 7.49127 76.271C10.5981 78.5361 14.255 80.0905 17.867 81.4843C20.3219 82.4279 22.8081 83.3285 25.3962 83.8003C27.9059 84.2564 30.4705 84.3014 33.0311 84.3465C40.112 84.4678 47.4866 84.5305 53.8862 81.4902C55.7206 80.619 57.6567 79.1253 57.5921 77.0933C57.5197 74.7715 54.9786 73.4461 52.8115 72.6141C57.4276 71.9289 61.2118 68.3503 63.3183 64.1863C64.1052 62.6034 64.7271 60.9437 65.1742 59.2334L65.7869 59.7091C67.6917 66.3652 68.1733 72.5926 68.3143 79.3289Z" fill="#7662FA"/>
<path d="M50.2058 98.0658L51.719 94.4754C52.0988 93.5631 52.25 92.5719 52.1595 91.5879C50.8963 93.7819 48.9686 95.5177 46.6545 96.5447L43.6749 97.8466L45.5915 95.2194C45.9789 94.673 46.2073 94.0299 46.2513 93.3615C44.9056 94.4787 43.2117 95.0902 41.4628 95.0902C40.0316 95.1339 38.6166 94.7773 37.3771 94.0604C37.5729 95.0706 37.5592 95.9652 36.7585 96.3333L36.3885 96.5016L36.0204 96.3333C33.4755 95.1587 31.4649 93.9469 29.7774 92.5491C30.0554 93.6395 30.3647 94.0369 30.5213 94.1759L32.4222 95.8458L29.8949 95.7166C26.2986 95.5345 23.3093 92.1732 21.7118 89.1467C18.233 89.1467 14.8834 87.189 13.053 84.2681L12.9982 84.3229L12.5381 84.7673L11.9763 84.4815C9.28838 83.1111 7.3542 80.02 6.5261 75.762C5.31822 69.5347 6.69446 61.9937 9.65838 58.5913C9.73448 58.5041 9.827 58.4328 9.93065 58.3814C10.0343 58.33 10.1471 58.2995 10.2625 58.2917C10.3779 58.2839 10.4938 58.2989 10.6034 58.3358C10.7131 58.3728 10.8144 58.431 10.9015 58.5071C10.9887 58.5832 11.06 58.6757 11.1114 58.7794C11.1628 58.883 11.1932 58.9958 11.2011 59.1112C11.2089 59.2266 11.1939 59.3425 11.1569 59.4521C11.12 59.5618 11.0618 59.6631 10.9857 59.7502C8.38002 62.7376 7.15452 69.7696 8.24494 75.4253C8.88314 78.7181 10.2183 81.1809 12.0389 82.4729C12.0609 82.3367 12.0542 82.1973 12.0193 82.0638L13.7088 81.5665C14.809 85.0492 18.5247 87.5981 22.1718 87.373L22.7591 87.3358L23.0156 87.8683C24.4604 90.8616 26.4357 92.694 28.1937 93.4927C27.8872 92.4237 27.6904 91.3263 27.6064 90.2175L27.3577 87.6255L29.1294 89.5343C30.7993 91.3353 32.8216 92.7938 35.5898 94.1798C35.5291 93.894 35.4547 93.6023 35.394 93.3968C35.1493 92.4179 35.0162 91.8463 35.1199 91.3745L35.576 89.2915L36.7232 91.0887C37.6453 92.5334 39.4013 93.3772 41.4217 93.34C43.442 93.3028 45.1569 92.3983 46.0261 90.9223L46.909 89.4227L47.5962 91.0221C47.9614 91.8768 48.0964 92.8123 47.9877 93.7354C49.6383 92.475 50.8627 90.7389 51.4959 88.761L52.1458 86.6937L53.1246 88.6279C53.6521 89.6841 53.9338 90.8459 53.9488 92.0264C55.4621 90.0925 56.5248 87.8453 57.0596 85.4486L57.3395 84.18L58.4143 84.9083C59.2708 85.4912 60.0227 86.2147 60.6382 87.048C62.9912 84.1678 64.5946 80.7498 65.3053 77.0991L65.6381 75.3607L67.5958 77.5239C67.9873 70.5174 66.9478 64.799 64.3735 59.6327C64.306 59.5287 64.2613 59.4117 64.2423 59.2892C64.2232 59.1667 64.2302 59.0416 64.2628 58.922C64.2954 58.8024 64.3528 58.6911 64.4314 58.5952C64.51 58.4993 64.6079 58.4211 64.7188 58.3657C64.8296 58.3103 64.9509 58.2789 65.0748 58.2735C65.1986 58.2682 65.3222 58.289 65.4374 58.3347C65.5526 58.3804 65.6569 58.4499 65.7434 58.5386C65.83 58.6273 65.8968 58.7333 65.9396 58.8497C68.9192 64.799 69.947 71.4356 69.1913 79.7224L69.0092 81.7271L66.6463 79.1116C65.6541 82.8358 63.7777 86.2655 61.1766 89.1095L60.3426 90.0198L59.7553 88.9372C59.4019 88.2863 58.9524 87.6923 58.4221 87.1753C57.4452 90.3722 55.6118 93.2408 53.1207 95.4699L50.2058 98.0658Z" fill="#213346"/>
<path d="M31.8584 78.2328C31.3547 78.2312 30.8721 78.0305 30.516 77.6743C30.1598 77.3181 29.9591 76.8355 29.9575 76.3319V69.0591C29.9591 68.5554 30.1598 68.0728 30.516 67.7167C30.8721 67.3605 31.3547 67.1598 31.8584 67.1582H45.1706C45.6745 67.1597 46.1573 67.3605 46.5137 67.7166C46.8702 68.0727 47.0714 68.5553 47.0735 69.0591V76.3319C47.0714 76.8357 46.8702 77.3183 46.5137 77.6744C46.1573 78.0305 45.6745 78.2312 45.1706 78.2328" fill="#CEEA57"/>
<path d="M47.3847 69.8518V72.1071C47.2365 71.7675 46.9927 71.4784 46.6829 71.275C46.3732 71.0716 46.011 70.9628 45.6405 70.9618H32.3283C31.8246 70.9634 31.342 71.1642 30.9858 71.5203C30.6297 71.8765 30.4289 72.3591 30.4274 72.8627V77.8803C30.3228 77.6414 30.2688 77.3834 30.2688 77.1226V69.8518C30.2703 69.348 30.4711 68.8652 30.8271 68.5087C31.1832 68.1522 31.6658 67.951 32.1697 67.949H45.4819C45.9859 67.951 46.4687 68.1522 46.8251 68.5086C47.1815 68.865 47.3827 69.3478 47.3847 69.8518Z" fill="#95BC4A"/>
<path d="M38.4363 66.9348C39.8066 66.9348 41.1515 66.9348 42.4475 66.9544L44.3543 66.9779H44.8183H45.0493H45.1139H45.1981L45.3645 66.9896C45.8047 67.0392 46.2268 67.1929 46.5958 67.4379C46.9463 67.6714 47.2385 67.9822 47.4499 68.3464C47.6613 68.7106 47.7864 69.1184 47.8155 69.5385V69.6912V69.8185V70.0279C47.8155 70.165 47.8155 70.304 47.8057 70.441C47.8057 70.7131 47.7881 70.9833 47.7802 71.2476C47.747 72.3067 47.7078 73.2933 47.6647 74.1841C47.6217 75.0748 47.5766 75.899 47.5257 76.6155C47.5257 76.7036 47.512 76.7917 47.5062 76.8779C47.5062 76.9209 47.5062 76.964 47.4964 77.0071C47.4866 77.0501 47.4866 77.1089 47.4807 77.1598C47.4589 77.3611 47.4102 77.5587 47.3358 77.7471C47.2065 78.0652 47.0055 78.3493 46.7485 78.5771C46.4158 78.8861 45.9827 79.0647 45.5289 79.0802C45.4158 79.084 45.3029 79.0667 45.1961 79.0293C45.1217 79.0019 45.0884 78.9706 45.0884 78.9393C45.0884 78.908 45.1217 78.8727 45.1844 78.8375L45.4486 78.7083C45.7512 78.5651 46.013 78.3484 46.2102 78.0779C46.3371 77.8958 46.4262 77.6901 46.4725 77.473C46.4942 77.3542 46.5021 77.2333 46.496 77.1128V77.0149C46.496 76.9718 46.496 76.9287 46.4862 76.8857L46.4686 76.6234C46.4177 75.9068 46.3707 75.0925 46.3276 74.1919C46.2846 73.2914 46.2474 72.3067 46.2121 71.2554C46.2121 70.9911 46.1965 70.721 46.1886 70.4488L46.1769 70.0358V69.8263V69.7421V69.6834C46.1461 69.4417 46.0329 69.218 45.8564 69.05C45.6798 68.882 45.4508 68.7801 45.2079 68.7613H45.0649H44.8339H44.37L42.4632 68.7848C41.1672 68.7966 39.8262 68.8044 38.4519 68.8044C37.0776 68.8044 35.7366 68.8044 34.4426 68.7848L32.5358 68.7613H32.0699H31.8389H31.696C31.4535 68.7809 31.2251 68.8831 31.0491 69.051C30.873 69.2189 30.76 69.4421 30.7289 69.6834V69.7421V69.7734V69.8263V70.0358C30.7289 70.1728 30.7289 70.3118 30.7191 70.4488C30.7191 70.721 30.7015 70.9911 30.6936 71.2554C30.6604 72.3145 30.6212 73.3012 30.5781 74.1919C30.5351 75.0827 30.4881 75.9068 30.4391 76.6234C30.4391 76.7114 30.4254 76.7995 30.4196 76.8857C30.4196 76.9287 30.4196 76.9718 30.4196 77.0149V77.1128C30.4131 77.2334 30.4216 77.3544 30.445 77.473C30.4896 77.6906 30.5789 77.8966 30.7073 78.0779C30.9039 78.3482 31.165 78.565 31.4669 78.7083L31.7312 78.8375C31.7939 78.8727 31.8291 78.906 31.8291 78.9393C31.8291 78.9726 31.7939 79.0019 31.7214 79.0293C31.5974 79.0772 31.4646 79.0979 31.3318 79.09C30.8785 79.0747 30.4461 78.896 30.1142 78.5869C29.8567 78.3595 29.6557 78.0753 29.5269 77.7568C29.4535 77.5681 29.4048 77.3707 29.382 77.1695C29.382 77.1186 29.3703 77.058 29.3663 77.0168C29.3624 76.9757 29.3663 76.9307 29.3566 76.8876L29.3389 76.6253C29.288 75.9088 29.2411 75.0944 29.198 74.1939C29.1549 73.2933 29.1177 72.3086 29.0825 71.2574C29.0825 70.9931 29.0668 70.7229 29.059 70.4508L29.0472 70.0377V69.8283V69.701V69.5483C29.0764 69.1285 29.2013 68.7208 29.4123 68.3567C29.6234 67.9926 29.9151 67.6817 30.2649 67.4477C30.6342 67.203 31.0562 67.0494 31.4963 66.9994L31.6647 66.9877H31.7488H31.8115H32.0425H32.5084L34.4152 66.9642C35.721 66.9524 37.0639 66.9348 38.4363 66.9348Z" fill="#213346"/>
<path d="M12.4187 63.0372C12.3776 63.6261 12.4085 64.2177 12.5107 64.7991C12.6281 65.402 12.8201 65.988 13.0823 66.5434C12.6608 66.0677 12.2999 65.5416 12.0076 64.9773C11.7163 64.3838 11.5 63.7565 11.3635 63.1096C11.2205 62.4493 11.1548 61.7746 11.1677 61.0991C11.1755 60.7554 11.2016 60.4123 11.246 60.0713C11.2901 59.7108 11.3641 59.3546 11.4673 59.0063L13.4249 59.8599C13.2819 60.0791 13.1581 60.3104 13.0549 60.551C12.9409 60.8066 12.8403 61.0679 12.7534 61.334C12.5764 61.8869 12.464 62.4584 12.4187 63.0372Z" fill="#213346"/>
<path d="M15.3376 64.6326C15.4903 66.0206 16.107 67.4086 16.9997 68.6125C15.7878 67.6282 14.8567 66.3419 14.3 64.8832C14.0181 64.1026 13.8718 63.2796 13.8674 62.4498C13.8616 61.5769 14.03 60.7117 14.3627 59.9048L16.2401 60.9149C15.5138 61.8625 15.1829 63.2563 15.3376 64.6326Z" fill="#213346"/>
<path d="M20.6449 65.6761C20.7992 67.0269 21.239 68.3295 21.935 69.4975C20.9199 68.4914 20.1304 67.2809 19.6191 65.9463C19.073 64.5443 18.8321 63.042 18.9123 61.5396L21.0129 61.9017C20.6224 63.1192 20.4969 64.4061 20.6449 65.6761Z" fill="#213346"/>
<path d="M55.235 64.9165C55.3066 65.4646 55.2881 66.0207 55.1802 66.5629C55.0843 66.9818 54.9414 67.2265 54.8122 67.2148C54.544 67.1893 54.4206 66.2046 54.2836 65.03C54.1466 63.8554 54.0291 62.8766 54.2836 62.7806C54.4069 62.7415 54.6047 62.9451 54.7945 63.3288C55.0275 63.8303 55.1763 64.3667 55.235 64.9165Z" fill="#213346"/>
<path d="M59.4636 63.8045C59.4497 64.5857 59.2986 65.3583 59.0173 66.0871C58.7882 66.6412 58.5474 66.9387 58.43 66.8957C58.1716 66.7978 58.475 65.445 58.5083 63.779C58.5416 62.1131 58.3301 60.7466 58.5925 60.6644C58.7138 60.6272 58.939 60.9365 59.1386 61.5023C59.3805 62.2448 59.4905 63.024 59.4636 63.8045Z" fill="#213346"/>
<path d="M63.9154 63.1154C63.9962 63.6885 64.0277 64.2675 64.0093 64.846C63.9948 65.3177 63.9398 65.7874 63.8449 66.2497C63.6765 67.0327 63.4533 67.4869 63.3241 67.4615C63.0481 67.4008 63.3065 65.5038 62.9659 63.2525C62.6253 61.0011 61.895 59.2334 62.1476 59.1042C62.2611 59.0454 62.5998 59.4193 62.9737 60.13C63.1909 60.5477 63.3736 60.9824 63.5199 61.4299C63.6983 61.9798 63.8306 62.5436 63.9154 63.1154Z" fill="#213346"/>
<path d="M14.0651 82.3145C13.9922 81.7774 13.9758 81.2341 14.0162 80.6935C14.037 80.4584 14.0697 80.2245 14.1141 79.9927C14.1519 79.7941 14.2016 79.598 14.2628 79.4054C14.486 78.6849 14.766 78.3012 14.8815 78.3423C14.997 78.3835 14.9696 78.8357 14.9285 79.5267C14.9285 79.701 14.905 79.8889 14.905 80.0906C14.905 80.2922 14.905 80.5075 14.905 80.7327C14.9208 81.7074 15.0596 82.6763 15.318 83.6163C15.3826 83.8317 15.4355 84.0412 15.5021 84.231C15.5686 84.4209 15.6254 84.601 15.6822 84.7655C15.9171 85.4154 16.0737 85.8344 15.9699 85.9146C15.8662 85.9949 15.4942 85.6973 15.0772 85.0689C14.963 84.8992 14.8604 84.7219 14.7699 84.5384C14.6612 84.3284 14.5639 84.1127 14.4782 83.8924C14.2861 83.3822 14.1477 82.8534 14.0651 82.3145Z" fill="#213346"/>
<path d="M20.085 84.9143C19.9646 84.0476 19.96 83.1687 20.0713 82.3008C20.1594 81.643 20.2905 81.2437 20.4217 81.2456C20.5528 81.2476 20.6644 81.6548 20.7486 82.3028C20.8328 82.9507 20.8994 83.8317 21.0325 84.7772C21.101 85.249 21.1852 85.6915 21.2772 86.0889C21.33 86.2847 21.3692 86.4804 21.426 86.6468L21.5004 86.9013C21.5278 86.9816 21.5532 87.0579 21.5767 87.1323C21.7725 87.7196 21.9311 88.0994 21.8195 88.1836C21.7079 88.2678 21.3574 88.0113 20.9698 87.4318C20.9228 87.3594 20.8739 87.2811 20.825 87.2008C20.776 87.1206 20.7349 87.0305 20.6879 86.9405C20.5907 86.7467 20.5051 86.5473 20.4315 86.3434C20.2707 85.8791 20.1547 85.4006 20.085 84.9143Z" fill="#213346"/>
<path d="M27.2598 86.169C26.4768 83.3597 26.3613 80.9792 26.6177 80.9478C26.8742 80.9165 27.4106 83.1718 28.1839 85.9105C28.9571 88.6493 29.6717 90.8576 29.4211 90.9653C29.1705 91.0729 28.0429 88.9821 27.2598 86.169Z" fill="#213346"/>
<path d="M48.4439 88.4497C48.8002 87.2653 49.0488 86.1514 49.27 85.3487C49.4912 84.5461 49.6772 84.0469 49.8084 84.0665C49.9395 84.0861 49.9865 84.6127 49.9376 85.4584C49.8695 86.5664 49.6765 87.6631 49.362 88.7277C49.1814 89.3216 48.9509 89.8992 48.6729 90.4544C48.5339 90.7069 48.4086 90.9477 48.2618 91.1611C48.1894 91.2668 48.1228 91.3706 48.0543 91.4665L47.8429 91.7366C47.2869 92.414 46.817 92.6998 46.7289 92.6156C46.6408 92.5315 46.9051 92.0792 47.2771 91.3627C47.3241 91.2746 47.3711 91.1807 47.422 91.0828L47.5668 90.7735C47.6725 90.562 47.7626 90.3252 47.8703 90.0844C48.068 89.591 48.2638 89.0409 48.4439 88.4497Z" fill="#213346"/>
<path d="M54.0408 86.3139C54.2934 84.8711 54.4324 83.5184 54.6027 82.5415C54.773 81.5646 54.9433 80.9753 55.0745 80.9753C55.2057 80.9753 55.2703 81.6038 55.2703 82.5943C55.283 83.8944 55.1847 85.1931 54.9766 86.4764C54.8536 87.1977 54.6602 87.9052 54.3991 88.5887C54.1849 89.1521 53.9064 89.6888 53.569 90.1882C52.9817 91.0417 52.4355 91.4019 52.3494 91.3158C52.2633 91.2297 52.5863 90.7167 52.9817 89.8534C53.2112 89.3486 53.4074 88.8294 53.569 88.299C53.7664 87.6475 53.924 86.9846 54.0408 86.3139Z" fill="#213346"/>
<path d="M59.6907 82.7098C59.9706 81.5352 60.1625 80.4526 60.3426 79.6636C60.5227 78.8747 60.6871 78.3853 60.8183 78.399C60.9495 78.4127 61.0141 78.9217 61.0141 79.7419C61.0014 80.8174 60.8701 81.8882 60.6225 82.9349C60.481 83.5189 60.2924 84.0904 60.0587 84.644C59.9393 84.8965 59.8336 85.1392 59.7064 85.3526C59.6457 85.4603 59.5889 85.566 59.5282 85.6639L59.3422 85.9399C58.8567 86.633 58.428 86.9501 58.3321 86.8738C58.2361 86.7974 58.4476 86.3334 58.751 85.611L58.8685 85.3272C58.9076 85.228 58.9468 85.1242 58.9859 85.0159C59.074 84.8045 59.1465 84.5696 59.2326 84.3288C59.3892 83.8374 59.5478 83.2912 59.6907 82.7098Z" fill="#213346"/>
<path d="M61.6053 80.9459C61.9087 80.2059 62.1554 79.4855 62.361 78.8218C62.4549 78.4871 62.5567 78.1699 62.6253 77.8684C62.6938 77.567 62.7721 77.2811 62.8328 77.0306C63.0696 75.9969 63.1949 75.3391 63.3359 75.343C63.4768 75.347 63.5747 76.0263 63.5023 77.1284C63.4827 77.4045 63.4573 77.706 63.4044 78.027C63.3515 78.3481 63.2909 78.6887 63.2086 79.047C62.8527 80.5988 62.2386 82.0799 61.3919 83.4282C61.1962 83.7336 61.0004 84.0155 60.8046 84.2818C60.6088 84.548 60.4131 84.7771 60.2389 84.9846C59.5086 85.8146 58.9468 86.2121 58.8567 86.1279C58.7667 86.0437 59.1328 85.4779 59.6946 84.5813C59.8356 84.3562 59.9902 84.1115 60.1429 83.8413C60.2956 83.5711 60.4601 83.2853 60.6304 82.9819C60.9593 82.3691 61.296 81.6839 61.6053 80.9459Z" fill="#213346"/>
<path d="M9.00257 66.4827C9.14352 65.7975 9.52331 65.3198 9.78563 65.402C10.048 65.4842 10.1126 66.05 9.9814 66.6843C9.85024 67.3186 9.57029 67.8139 9.29426 67.7845C9.01823 67.7551 8.86161 67.1678 9.00257 66.4827Z" fill="white"/>
<path d="M9.24141 73.8906C8.98969 72.9813 8.8723 72.0402 8.89294 71.097C8.92035 70.3726 9.04956 69.9322 9.18268 69.9224C9.47046 69.9224 9.65839 71.6255 10.2065 73.6224C10.7547 75.6192 11.4399 77.1795 11.1854 77.3282C11.0699 77.3948 10.7332 77.0816 10.3416 76.4727C9.8497 75.6709 9.47896 74.8008 9.24141 73.8906Z" fill="white"/>
<path d="M25.7563 66.3261H25.6545C24.6757 66.2908 23.9161 65.7133 23.3053 65.2474L23.2681 65.22C19.519 62.3845 15.1447 60.4894 10.5119 59.6935C10.2803 59.6535 10.0741 59.5232 9.93867 59.3312C9.8032 59.1392 9.74955 58.9012 9.78953 58.6696C9.82951 58.4381 9.95984 58.2319 10.1519 58.0964C10.3439 57.9609 10.5818 57.9073 10.8134 57.9472C15.7255 58.7972 20.3627 60.811 24.337 63.8203L24.3742 63.8496C24.8343 64.1961 25.308 64.5563 25.725 64.572C26.142 64.5877 26.6216 64.2725 27.1247 63.9416L27.2716 63.8457C30.1591 61.9585 33.9061 60.919 37.8234 60.919C41.7388 60.919 45.4877 61.9585 48.3753 63.8457L48.5202 63.9397C49.0252 64.2725 49.499 64.5857 49.9199 64.572C50.3408 64.5583 50.8126 64.1961 51.2707 63.8496L51.3079 63.8203C55.2832 60.8114 59.9209 58.7977 64.8335 57.9472C65.064 57.9078 65.3008 57.9615 65.4917 58.0966C65.6826 58.2317 65.812 58.4371 65.8514 58.6677C65.8909 58.8982 65.8372 59.135 65.7021 59.3259C65.567 59.5168 65.3616 59.6462 65.131 59.6857C60.4983 60.4815 56.1239 62.3767 52.3748 65.2122L52.3376 65.2396C51.7249 65.7055 50.9673 66.283 49.9884 66.3183C49.0096 66.3535 48.203 65.823 47.557 65.3981L47.418 65.3061C42.0403 61.7941 33.6164 61.7941 28.2328 65.3061L28.0918 65.3981C27.4693 65.8171 26.696 66.3261 25.7563 66.3261Z" fill="#213346"/>
<path d="M41.7251 75.4312H34.6775C34.4958 75.4312 34.3215 75.359 34.193 75.2305C34.0645 75.102 33.9923 74.9277 33.9923 74.746C33.9923 74.5643 34.0645 74.39 34.193 74.2615C34.3215 74.133 34.4958 74.0608 34.6775 74.0608H41.7251C41.9068 74.0608 42.0811 74.133 42.2096 74.2615C42.3381 74.39 42.4103 74.5643 42.4103 74.746C42.4103 74.9277 42.3381 75.102 42.2096 75.2305C42.0811 75.359 41.9068 75.4312 41.7251 75.4312Z" fill="#213346"/>
<path d="M50.7755 73.3756C54.5056 73.3756 57.5294 70.3518 57.5294 66.6217C57.5294 62.8915 54.5056 59.8677 50.7755 59.8677C47.0453 59.8677 44.0215 62.8915 44.0215 66.6217C44.0215 70.3518 47.0453 73.3756 50.7755 73.3756Z" fill="#7662FA"/>
<path d="M48.761 72.5103C53.0901 72.5103 56.5995 69.0009 56.5995 64.6718C56.5995 60.3427 53.0901 56.8333 48.761 56.8333C44.4319 56.8333 40.9225 60.3427 40.9225 64.6718C40.9225 69.0009 44.4319 72.5103 48.761 72.5103Z" fill="white"/>
<path opacity="0.5" d="M49.6909 62.2167C50.2618 62.2167 50.7245 61.7539 50.7245 61.1831C50.7245 60.6122 50.2618 60.1494 49.6909 60.1494C49.12 60.1494 48.6572 60.6122 48.6572 61.1831C48.6572 61.7539 49.12 62.2167 49.6909 62.2167Z" fill="white"/>
<path d="M28.2504 5.73209L28.2563 6.27437L28.7203 5.85738L27.4106 6.0786L27.1306 6.12558L27.1287 6.32722L27.1189 8.39453L27.7042 6.4114L27.4263 6.65807L28.7457 6.81077L29.0785 6.84992L29.2038 6.3977L29.3604 5.83193L30.4254 1.99293L28.7046 0.728271L28.2504 5.73209Z" fill="#213346"/>
<path d="M26.2517 18.0908L26.0148 17.4272L26.7685 17.7267L25.0731 18.0478L24.709 18.1163L24.617 17.8696L23.6754 15.354L25.2787 17.5074L24.8284 17.3313L26.3691 16.5541L26.7587 16.3563L27.115 16.8497L27.5594 17.4703L30.584 21.6695L29.055 23.9854L26.2517 18.0908Z" fill="#213346"/>
<path d="M24.8636 50.0951C27.3407 50.0951 29.3487 48.087 29.3487 45.61C29.3487 43.133 27.3407 41.125 24.8636 41.125C22.3866 41.125 20.3786 43.133 20.3786 45.61C20.3786 48.087 22.3866 50.0951 24.8636 50.0951Z" fill="#213346"/>
<path d="M26.8644 44.7623C28.2375 44.7623 29.3507 43.6492 29.3507 42.276C29.3507 40.9029 28.2375 39.7898 26.8644 39.7898C25.4913 39.7898 24.3782 40.9029 24.3782 42.276C24.3782 43.6492 25.4913 44.7623 26.8644 44.7623Z" fill="#CEEA57"/>
<path d="M23.0645 48.3173C23.6354 48.3173 24.0982 47.8545 24.0982 47.2837C24.0982 46.7128 23.6354 46.25 23.0645 46.25C22.4937 46.25 22.0309 46.7128 22.0309 47.2837C22.0309 47.8545 22.4937 48.3173 23.0645 48.3173Z" fill="white"/>
<path d="M48.1365 67.7297C49.8416 67.7297 51.2238 66.3475 51.2238 64.6424C51.2238 62.9374 49.8416 61.5552 48.1365 61.5552C46.4315 61.5552 45.0493 62.9374 45.0493 64.6424C45.0493 66.3475 46.4315 67.7297 48.1365 67.7297Z" fill="#213346"/>
<path d="M50.6913 68.7046C51.7919 68.7046 52.6842 67.8123 52.6842 66.7117C52.6842 65.611 51.7919 64.7188 50.6913 64.7188C49.5906 64.7188 48.6984 65.611 48.6984 66.7117C48.6984 67.8123 49.5906 68.7046 50.6913 68.7046Z" fill="white"/>
</g>
<defs>
<clipPath id="clip0">
<rect width="74.2879" height="100" fill="white" transform="translate(0.596313)"/>
</clipPath>
</defs>
</svg>
